<?xml version="1.0" encoding="UTF-8" standalone="no"?>
<!-- Created with Inkscape (http://www.inkscape.org/) -->

<svg
   xmlns:dc="http://purl.org/dc/elements/1.1/"
   xmlns:cc="http://creativecommons.org/ns#"
   xmlns:rdf="http://www.w3.org/1999/02/22-rdf-syntax-ns#"
   xmlns:svg="http://www.w3.org/2000/svg"
   xmlns="http://www.w3.org/2000/svg"
   xmlns:sodipodi="http://sodipodi.sourceforge.net/DTD/sodipodi-0.dtd"
   xmlns:inkscape="http://www.inkscape.org/namespaces/inkscape"
   width="800"
   height="600"
   id="svg2"
   version="1.1"
   inkscape:version="0.48.3.1 r9886"
   sodipodi:docname="slides.svg"
   inkscape:export-filename="/home/pierreh/works/osp.work.balsamine.2013-2014/lightning talk lgm 2013/slide3.png"
   inkscape:export-xdpi="115.2"
   inkscape:export-ydpi="115.2">
  <defs
     id="defs4">
    <inkscape:path-effect
       effect="spiro"
       id="path-effect4233"
       is_visible="true" />
    <inkscape:path-effect
       is_visible="true"
       id="path-effect4231"
       effect="spiro" />
    <inkscape:path-effect
       is_visible="true"
       id="path-effect4225"
       effect="spiro" />
    <inkscape:path-effect
       effect="spiro"
       id="path-effect4223"
       is_visible="true" />
    <inkscape:path-effect
       effect="spiro"
       id="path-effect4217"
       is_visible="true" />
    <inkscape:path-effect
       is_visible="true"
       id="path-effect4215"
       effect="spiro" />
    <inkscape:path-effect
       effect="spiro"
       id="path-effect4213"
       is_visible="true" />
    <inkscape:path-effect
       is_visible="true"
       id="path-effect4211"
       effect="spiro" />
    <inkscape:path-effect
       is_visible="true"
       id="path-effect4183"
       effect="spiro" />
    <inkscape:path-effect
       effect="spiro"
       id="path-effect4179"
       is_visible="true" />
    <inkscape:path-effect
       is_visible="true"
       id="path-effect4175"
       effect="spiro" />
    <inkscape:path-effect
       effect="spiro"
       id="path-effect4171"
       is_visible="true" />
    <inkscape:path-effect
       effect="spiro"
       id="path-effect4167"
       is_visible="true" />
    <inkscape:path-effect
       is_visible="true"
       id="path-effect3873"
       effect="spiro" />
    <inkscape:path-effect
       is_visible="true"
       id="path-effect3869"
       effect="spiro" />
    <inkscape:path-effect
       effect="spiro"
       id="path-effect3857"
       is_visible="true" />
    <inkscape:path-effect
       is_visible="true"
       id="path-effect3873-7"
       effect="spiro" />
    <inkscape:path-effect
       is_visible="true"
       id="path-effect3873-7-6"
       effect="spiro" />
  </defs>
  <sodipodi:namedview
     id="base"
     pagecolor="#000000"
     bordercolor="#666666"
     borderopacity="1.0"
     inkscape:pageopacity="1"
     inkscape:pageshadow="2"
     inkscape:zoom="0.80352113"
     inkscape:cx="418.68967"
     inkscape:cy="817.24254"
     inkscape:document-units="px"
     inkscape:current-layer="layer4"
     showgrid="false"
     width="800px"
     inkscape:window-width="1440"
     inkscape:window-height="827"
     inkscape:window-x="0"
     inkscape:window-y="24"
     inkscape:window-maximized="1"
     inkscape:snap-bbox="false"
     inkscape:bbox-paths="false"
     inkscape:bbox-nodes="false"
     inkscape:snap-bbox-edge-midpoints="false"
     inkscape:snap-page="true"
     inkscape:snap-global="false" />
  <metadata
     id="metadata7">
    <rdf:RDF>
      <cc:Work
         rdf:about="">
        <dc:format>image/svg+xml</dc:format>
        <dc:type
           rdf:resource="http://purl.org/dc/dcmitype/StillImage" />
        <dc:title></dc:title>
      </cc:Work>
    </rdf:RDF>
  </metadata>
  <g
     inkscape:label="Layer 1"
     inkscape:groupmode="layer"
     id="layer1"
     transform="translate(0,-452.36218)"
     style="display:none">
    <text
       xml:space="preserve"
       style="font-size:30.89917564px;font-style:normal;font-variant:normal;font-weight:normal;font-stretch:normal;text-align:start;line-height:125%;letter-spacing:0px;word-spacing:0px;writing-mode:lr-tb;text-anchor:start;fill:#000000;fill-opacity:1;stroke:none;font-family:Ume P Gothic Balsa;-inkscape-font-specification:Ume P Gothic Balsa"
       x="88.272285"
       y="628.30011"
       id="text2985"
       sodipodi:linespacing="125%"><tspan
         sodipodi:role="line"
         x="88.272285"
         y="628.30011"
         style="font-size:72.09807587px;fill:#ffffff;fill-opacity:1"
         id="tspan3765">  Inkscape</tspan><tspan
         sodipodi:role="line"
         x="88.272285"
         y="718.42273"
         style="font-size:72.09807587px;fill:#ffffff;fill-opacity:1"
         id="tspan3771">LibreOffice</tspan><tspan
         sodipodi:role="line"
         x="88.272285"
         y="808.54529"
         style="font-size:72.09807587px;fill:#ffffff;fill-opacity:1"
         id="tspan3761">     ConTeXt</tspan><tspan
         sodipodi:role="line"
         x="88.272285"
         y="898.66791"
         style="font-size:72.09807587px;fill:#ffffff;fill-opacity:1"
         id="tspan3769">  Scribus</tspan></text>
    <text
       xml:space="preserve"
       style="font-size:24px;font-style:normal;font-variant:normal;font-weight:normal;font-stretch:normal;text-align:start;line-height:97.00000286%;letter-spacing:0px;word-spacing:0px;writing-mode:lr-tb;text-anchor:start;fill:#000000;fill-opacity:1;stroke:none;font-family:Ume P Gothic Balsa;-inkscape-font-specification:Ume P Gothic Balsa"
       x="481.63016"
       y="99.702019"
       id="text3780"
       sodipodi:linespacing="97.000003%"
       transform="translate(0,452.36218)"><tspan
         sodipodi:role="line"
         id="tspan3782"
         x="481.63016"
         y="99.702019"
         style="font-size:48px;fill:#ffffff;fill-opacity:1">       Gimp</tspan><tspan
         sodipodi:role="line"
         x="481.63016"
         y="126.3478"
         style="font-size:24px;fill:#ffffff;fill-opacity:1"
         id="tspan3792"> </tspan><tspan
         sodipodi:role="line"
         x="481.63016"
         y="169.54202"
         id="tspan3784"
         style="font-size:48px;fill:#ffffff;fill-opacity:1">Graphviz</tspan><tspan
         sodipodi:role="line"
         x="481.63016"
         y="196.18781"
         style="font-size:24px;fill:#ffffff;fill-opacity:1"
         id="tspan3794"> </tspan><tspan
         sodipodi:role="line"
         x="481.63016"
         y="239.38202"
         style="font-size:48px;fill:#ffffff;fill-opacity:1"
         id="tspan4108">Imagemagick </tspan><tspan
         sodipodi:role="line"
         x="481.63016"
         y="266.0278"
         style="font-size:24px;fill:#ffffff;fill-opacity:1"
         id="tspan4122">  </tspan><tspan
         sodipodi:role="line"
         x="481.63016"
         y="309.22202"
         style="font-size:48px;fill:#ffffff;fill-opacity:1"
         id="tspan4118">    Fontforge </tspan><tspan
         sodipodi:role="line"
         x="481.63016"
         y="335.8678"
         style="font-size:24px;fill:#ffffff;fill-opacity:1"
         id="tspan4116"> </tspan><tspan
         sodipodi:role="line"
         x="481.63016"
         y="365.78589"
         style="font-size:32px;line-height:97.00000286%;fill:#ffffff;fill-opacity:1"
         id="tspan3788">      + lots of</tspan><tspan
         sodipodi:role="line"
         x="481.63016"
         y="396.8259"
         style="font-size:32px;line-height:97.00000286%;fill:#ffffff;fill-opacity:1"
         id="tspan3798">            others</tspan><tspan
         sodipodi:role="line"
         x="481.63016"
         y="427.86588"
         style="font-size:32px;line-height:97.00000286%;fill:#ffffff;fill-opacity:1"
         id="tspan3790">         magicks</tspan></text>
    <flowRoot
       xml:space="preserve"
       id="flowRoot3875"
       style="font-size:24px;font-style:normal;font-variant:normal;font-weight:normal;font-stretch:normal;text-align:start;line-height:125%;letter-spacing:0px;word-spacing:0px;writing-mode:lr-tb;text-anchor:start;fill:#000000;fill-opacity:1;stroke:none;font-family:Ume P Gothic Balsa;-inkscape-font-specification:Ume P Gothic Balsa"
       transform="translate(611.61769,486.03001)"><flowRegion
         id="flowRegion3877"><rect
           id="rect3879"
           width="211.5688"
           height="149.34268"
           x="-169.25504"
           y="428.25592" /></flowRegion><flowPara
         style="line-height:89.99999762%;fill:#ffffff"
         id="flowPara3892">(thanks all</flowPara><flowPara
         style="line-height:89.99999762%;fill:#ffffff"
         id="flowPara3942">   for these </flowPara><flowPara
         style="line-height:89.99999762%;fill:#ffffff"
         id="flowPara3944">  tools!)</flowPara></flowRoot>    <path
       sodipodi:nodetypes="ccccc"
       inkscape:connector-curvature="0"
       inkscape:original-d="m 445.59375,987.98264 72.50836,0 20.46511,27.95266 -8.14251,-27.95266 c 0,0 20.49458,32.74456 22.09188,0"
       inkscape:path-effect="#path-effect3873-7"
       id="path3871-0"
       d="m 445.59375,987.98264 72.50836,0 20.46511,27.95266 -8.14251,-27.95266 22.09188,0"
       style="fill:none;stroke:#ffffff;stroke-width:1.02677059;stroke-linecap:butt;stroke-linejoin:miter;stroke-miterlimit:4;stroke-opacity:1;stroke-dasharray:none;display:inline" />
    <flowRoot
       transform="translate(228.30481,413.84771)"
       style="font-size:24px;font-style:normal;font-variant:normal;font-weight:normal;font-stretch:normal;text-align:start;line-height:125%;letter-spacing:0px;word-spacing:0px;writing-mode:lr-tb;text-anchor:start;fill:#000000;fill-opacity:1;stroke:none;font-family:Ume P Gothic Balsa;-inkscape-font-specification:Ume P Gothic Balsa"
       id="flowRoot3930"
       xml:space="preserve"><flowRegion
         id="flowRegion3932"><rect
           y="428.25592"
           x="-169.25504"
           height="149.34268"
           width="211.5688"
           id="rect3934" /></flowRegion><flowPara
         style="line-height:89.99999762%;fill:#ffffff"
         id="flowPara3936">and of </flowPara><flowPara
         id="flowPara3938"
         style="line-height:89.99999762%;fill:#ffffff">course</flowPara></flowRoot>    <text
       xml:space="preserve"
       style="font-size:24px;font-style:normal;font-variant:normal;font-weight:normal;font-stretch:normal;text-align:start;line-height:125%;letter-spacing:0px;word-spacing:0px;writing-mode:lr-tb;text-anchor:start;fill:#000000;fill-opacity:1;stroke:none;font-family:Ume P Gothic Balsa;-inkscape-font-specification:Ume P Gothic Balsa"
       x="730.53461"
       y="921.68732"
       id="text4102"
       sodipodi:linespacing="125%"><tspan
         sodipodi:role="line"
         id="tspan4104"
         x="730.53461"
         y="921.68732"
         style="font-size:48px;fill:#ffffff" /></text>
    <flowRoot
       transform="translate(612.8622,84.049286)"
       style="font-size:24px;font-style:normal;font-variant:normal;font-weight:normal;font-stretch:normal;text-align:start;line-height:125%;letter-spacing:0px;word-spacing:0px;writing-mode:lr-tb;text-anchor:start;fill:#000000;fill-opacity:1;stroke:none;font-family:Ume P Gothic Balsa;-inkscape-font-specification:Ume P Gothic Balsa"
       id="flowRoot4128"
       xml:space="preserve"><flowRegion
         id="flowRegion4130"><rect
           y="428.25592"
           x="-169.25504"
           height="149.34268"
           width="211.5688"
           id="rect4132" /></flowRegion><flowPara
         id="flowPara4138"
         style="line-height:89.99999762%;fill:#ffffff">Japanese</flowPara><flowPara
         style="line-height:89.99999762%;fill:#ffffff"
         id="flowPara4145">Ume fonts</flowPara></flowRoot>  </g>
  <g
     inkscape:groupmode="layer"
     id="layer2"
     inkscape:label="2"
     style="display:none">
    <g
       style="font-size:61.19589233px;font-style:normal;font-variant:normal;font-weight:normal;font-stretch:normal;text-align:start;line-height:125%;letter-spacing:0px;word-spacing:0px;writing-mode:lr-tb;text-anchor:start;fill:#ffffff;fill-opacity:1;stroke:none;font-family:Ume P Gothic Balsa;-inkscape-font-specification:Ume P Gothic Balsa"
       id="text3820"
       transform="matrix(2.5156951,0,0,2.5156951,42.33005,-501.47044)">
      <path
         d="m 17.491011,378.47504 -45.418826,0 0,-351.398291 45.418826,0 0,351.398291 m 0,-406.378976 -45.418826,0 0,-78.885334 45.418826,0 0,78.885334"
         style="font-size:611.95892334px;fill:#ffffff;fill-opacity:1"
         id="path3825"
         inkscape:connector-curvature="0" />
      <path
         d="M 151.35702,55.762323 C 173.66791,36.638949 192.79161,27.0771 208.72817,27.076749 l 28.68558,0 c 20.71716,3.51e-4 40.23926,10.757431 58.56638,32.271271 18.32664,21.514478 27.49008,64.94121 27.49034,130.28032 l 0,26.29511 c -2.6e-4,108.36778 -35.06038,162.55159 -105.18044,162.55159 -23.90478,0 -46.21576,-7.17139 -66.93301,-21.51418 l 0,21.51418 -45.41882,0 0,-485.26431 45.41882,0 0,162.551593 m 0,45.418827 0,207.97041 c 20.71725,17.53013 43.02823,26.29516 66.93301,26.29511 43.02816,5e-5 64.54232,-40.63781 64.54254,-121.91369 l 0,-23.90464 c -2.2e-4,-79.68189 -19.92074,-119.522921 -59.76161,-119.52323 -22.31115,3.09e-4 -46.21577,10.358978 -71.71394,31.07604 m -10.30887,210.51028 c -1.49413,0.49808 -2.68936,1.44431 -3.5857,2.83868 -0.7969,1.3945 -1.19531,2.98814 -1.19523,4.78093 -8e-5,1.7929 0.39833,3.38655 1.19523,4.78093 0.89634,1.29489 2.09157,2.24111 3.5857,2.83867 l 0,-1.79284 c -0.89651,-0.39836 -1.64353,-1.04578 -2.24107,-1.94226 -0.49809,-0.89636 -0.7969,-1.94219 -0.89642,-3.13748 l 0,-1.64345 c 0.0995,-1.19517 0.39833,-2.24099 0.89642,-3.13748 0.59754,-0.89636 1.34456,-1.49398 2.24107,-1.79285 l 0,-1.79285 m 2.68927,1.34464 c -1.39452,0.29887 -2.53995,1.04589 -3.4363,2.24106 -0.8965,1.19529 -1.34471,2.49013 -1.34463,3.88451 l 0,0.59761 1.64344,0 0,-0.59761 c -8e-5,-0.99597 0.29873,-1.89239 0.89643,-2.68928 0.59753,-0.89636 1.34455,-1.49397 2.24106,-1.79285 l 0,-1.64344 m -13.44637,3.43629 0,0.59762 1.34464,0 c 0.49794,6e-5 0.99595,0.19927 1.49404,0.59761 0.49794,0.49808 0.74695,1.1455 0.74702,1.94226 l 0,0 c -7e-5,0.79688 -0.24908,1.44429 -0.74702,1.94225 -0.19928,0.19926 -0.44829,0.34867 -0.74702,0.44821 -0.29888,0.0997 -0.54789,0.14946 -0.74702,0.14941 l -1.34464,0 0,0.59761 1.34464,0 c 0.69715,6e-5 1.34456,-0.24895 1.94225,-0.74702 0.69715,-0.59756 1.04576,-1.39438 1.04583,-2.39046 l 0,0 0,0 c -7e-5,-1.09557 -0.34868,-1.94219 -1.04583,-2.53987 -0.59769,-0.39835 -1.2451,-0.59756 -1.94225,-0.59762 l -1.34464,0 m -7.02198,0.44821 c -7e-5,-0.0995 -7e-5,-0.14934 0,-0.1494 -7e-5,6e-5 -7e-5,6e-5 0,0 -7e-5,6e-5 -0.0499,0.0499 -0.14941,0.1494 -6e-5,7e-5 -6e-5,0.24907 0,0.74702 -6e-5,0.29887 -6e-5,0.49808 0,0.59762 -6e-5,0.0997 -6e-5,0.24907 0,0.44821 -6e-5,0.0997 -6e-5,0.14947 0,0.14941 -6e-5,6e-5 -6e-5,0.0997 0,0.29881 -6e-5,0.19926 -6e-5,0.29886 0,0.2988 -6e-5,6e-5 -6e-5,6e-5 0,0 -6e-5,6e-5 -6e-5,0.0499 0,0.14941 -6e-5,6e-5 -6e-5,0.0499 0,0.1494 -6e-5,0.0997 -6e-5,0.34867 0,0.74702 -6e-5,0.0997 -6e-5,0.19926 0,0.29881 -6e-5,0.0997 -6e-5,0.19926 0,0.29881 -6e-5,5e-5 -6e-5,0.0499 0,0.1494 -6e-5,6e-5 -6e-5,0.0997 0,0.29881 -6e-5,0.0997 -6e-5,0.19926 0,0.29881 0.0995,0.0997 0.14934,0.19926 0.14941,0.29881 0.0995,5e-5 0.14933,0.0498 0.1494,0.1494 -7e-5,6e-5 -7e-5,0.0499 0,0.1494 0.0995,0.0997 0.14934,0.19927 0.1494,0.29881 0.0995,6e-5 0.19914,0.0499 0.29881,0.14941 0.0995,0.0996 0.19914,0.19926 0.29881,0.2988 0.0995,6e-5 0.14934,6e-5 0.1494,0 -6e-5,6e-5 -6e-5,0.0499 0,0.14941 -6e-5,5e-5 -6e-5,5e-5 0,0 0.0995,5e-5 0.14934,5e-5 0.14941,0 0.0995,5e-5 0.14933,5e-5 0.1494,0 0.0995,5e-5 0.14934,0.0498 0.14941,0.1494 0.0995,6e-5 0.14933,6e-5 0.1494,0 -7e-5,6e-5 0.0497,6e-5 0.1494,0 0.0995,6e-5 0.19914,6e-5 0.29881,0 0.19914,6e-5 0.29874,0.0499 0.29881,0.14941 -7e-5,5e-5 -7e-5,5e-5 0,0 -7e-5,-0.0995 0.0497,-0.0995 0.1494,0 0.0995,5e-5 0.19914,5e-5 0.29881,0 0.0995,5e-5 0.14934,5e-5 0.14941,0 0.0995,-0.0995 0.14933,-0.0995 0.1494,0 -7e-5,5e-5 0.0497,5e-5 0.1494,0 0.0995,5e-5 0.14934,5e-5 0.14941,0 -7e-5,-0.0995 -7e-5,-0.0995 0,0 -7e-5,5e-5 0.0497,5e-5 0.1494,0 0.0995,-0.0995 0.14934,-0.0995 0.14941,0 0.0995,5e-5 0.14933,5e-5 0.1494,0 -7e-5,-0.0995 0.24894,-0.0995 0.74702,0 0.19914,5e-5 0.39834,5e-5 0.59762,0 0.19913,5e-5 0.29873,5e-5 0.2988,0 l 0.59762,0 0.44821,0 c -7e-5,5e-5 -7e-5,5e-5 0,0 0.0995,5e-5 0.19914,5e-5 0.29881,0 0.0995,5e-5 0.14933,5e-5 0.1494,0 0.19914,5e-5 0.44814,5e-5 0.74702,0 0.19914,5e-5 0.29874,5e-5 0.29881,0 -7e-5,-0.0995 0.0995,-0.0995 0.29881,0 0.29874,5e-5 0.49794,5e-5 0.59762,0 l 0.29881,0 c 0.19913,5e-5 0.34853,5e-5 0.44821,0 0.19913,-0.0995 0.29873,-0.14935 0.29881,-0.14941 0.0995,6e-5 0.19913,6e-5 0.2988,0 0.0995,6e-5 0.14933,6e-5 0.14941,0 -8e-5,-0.0996 0.0497,-0.14935 0.1494,-0.1494 0.0995,5e-5 0.19913,5e-5 0.29881,0 0.0995,-0.0995 0.14933,-0.14935 0.1494,-0.14941 0.0995,-0.0995 0.14933,-0.14934 0.14941,-0.1494 l 0.1494,-0.1494 c 0.0995,-0.0996 0.14933,-0.14935 0.14941,-0.14941 -8e-5,6e-5 -8e-5,6e-5 0,0 0.0995,6e-5 0.14932,6e-5 0.1494,0 -8e-5,-0.0995 -8e-5,-0.14935 0,-0.1494 0.0995,-0.0996 0.14933,-0.19915 0.1494,-0.29881 0.0995,-0.0996 0.14933,-0.14935 0.14941,-0.1494 -8e-5,5e-5 -8e-5,-0.0498 0,-0.14941 0.0995,-0.0995 0.14932,-0.14935 0.1494,-0.1494 -8e-5,-0.0996 -8e-5,-0.14935 0,-0.14941 -8e-5,6e-5 -8e-5,-0.0497 0,-0.1494 -8e-5,-0.19915 0.0497,-0.79676 0.14941,-1.79285 -8e-5,-0.19915 -8e-5,-0.39835 0,-0.59761 -8e-5,-0.29875 -8e-5,-0.49796 0,-0.59762 -8e-5,-0.19915 -8e-5,-0.29875 0,-0.29881 -8e-5,6e-5 -0.0499,-0.0995 -0.14941,-0.29881 -8e-5,-0.19914 -8e-5,-0.29874 0,-0.29881 -8e-5,-0.0995 -0.0499,-0.14934 -0.1494,-0.1494 -8e-5,-0.0995 -8e-5,-0.14934 0,-0.1494 -8e-5,6e-5 -8e-5,0.24906 0,0.74702 -8e-5,0.39847 -8e-5,0.59767 0,0.59761 -8e-5,6e-5 -8e-5,0.0499 0,0.14941 -8e-5,6e-5 -8e-5,0.39847 0,1.19523 -8e-5,0.69728 -8e-5,1.04588 0,1.04583 -8e-5,5e-5 -8e-5,0.0997 0,0.29881 -8e-5,0.0997 -0.0499,0.19926 -0.14941,0.2988 -7e-5,0.0997 -7e-5,0.19927 0,0.29881 l -0.1494,0 c -8e-5,0.19926 -8e-5,0.29887 0,0.29881 -0.0997,0.0997 -0.19928,0.19926 -0.29881,0.29881 l -0.1494,0.1494 c -8e-5,0.0997 -0.0499,0.14946 -0.14941,0.14941 -7e-5,5e-5 -7e-5,5e-5 0,0 -7e-5,5e-5 -0.0499,5e-5 -0.1494,0 -8e-5,5e-5 -0.0499,0.0498 -0.1494,0.1494 -0.0997,0.0997 -0.19929,0.14946 -0.29881,0.1494 -8e-5,6e-5 -0.0499,6e-5 -0.14941,0 -7e-5,6e-5 -0.0499,6e-5 -0.1494,0 -8e-5,6e-5 -8e-5,0.0499 0,0.14941 -8e-5,5e-5 -0.0499,5e-5 -0.1494,0 -8e-5,-0.0995 -8e-5,-0.0995 0,0 -8e-5,5e-5 -0.0499,5e-5 -0.14941,0 -7e-5,5e-5 -0.0499,5e-5 -0.1494,0 -0.0997,5e-5 -0.34869,5e-5 -0.74702,0 l -0.59762,0 c -7e-5,5e-5 -0.0499,5e-5 -0.1494,0 l -0.14941,0 -0.1494,0 c -7e-5,5e-5 -0.0499,5e-5 -0.14941,0 -7e-5,5e-5 -0.14947,5e-5 -0.44821,0 -0.29888,5e-5 -0.49808,5e-5 -0.59761,0 -8e-5,5e-5 -0.0499,5e-5 -0.14941,0 -7e-5,5e-5 -0.0499,5e-5 -0.1494,0 -7e-5,5e-5 -0.0997,5e-5 -0.29881,0 -0.0997,5e-5 -0.19928,5e-5 -0.29881,0 -0.69729,5e-5 -1.0459,5e-5 -1.04583,0 l -0.2988,0 c -7e-5,5e-5 -0.0997,5e-5 -0.29881,0 -0.19928,5e-5 -0.34868,5e-5 -0.44821,0 -7e-5,5e-5 -7e-5,5e-5 0,0 -7e-5,5e-5 -0.14948,5e-5 -0.44822,0 -0.19927,5e-5 -0.29887,5e-5 -0.2988,0 -7e-5,5e-5 -7e-5,5e-5 0,0 -7e-5,5e-5 -0.0997,5e-5 -0.29881,0 l -0.29881,0 c -7e-5,5e-5 -0.0499,5e-5 -0.1494,0 -0.0997,5e-5 -0.14948,5e-5 -0.14941,0 -7e-5,5e-5 -0.0499,5e-5 -0.1494,0 -0.0997,-0.0995 -0.24908,-0.14935 -0.44821,-0.14941 -0.0997,-0.0995 -0.19928,-0.14934 -0.29881,-0.1494 -7e-5,6e-5 -7e-5,6e-5 0,0 -7e-5,6e-5 -0.0499,6e-5 -0.14941,0 -6e-5,6e-5 -6e-5,6e-5 0,0 -6e-5,-0.0995 -0.0499,-0.14935 -0.1494,-0.1494 l -0.1494,-0.14941 c 0.0995,6e-5 0.0995,6e-5 0,0 -7e-5,-0.0995 -0.0499,-0.14935 -0.14941,-0.1494 -6e-5,5e-5 -6e-5,5e-5 0,0 -6e-5,5e-5 -6e-5,5e-5 0,0 -6e-5,-0.0996 -0.0499,-0.14935 -0.1494,-0.14941 -7e-5,-0.0995 -0.0499,-0.14934 -0.14941,-0.1494 -6e-5,-0.0996 -6e-5,-0.14935 0,-0.1494 -6e-5,5e-5 -6e-5,-0.0498 0,-0.14941 -6e-5,-0.0995 -0.0499,-0.14935 -0.1494,-0.1494 -7e-5,-0.0996 -7e-5,-0.14935 0,-0.14941 -7e-5,-0.0995 -7e-5,-0.14934 0,-0.1494 -7e-5,6e-5 -7e-5,-0.0497 0,-0.1494 -7e-5,-0.0995 -7e-5,-0.14935 0,-0.14941 -7e-5,-0.0995 -0.0499,-0.19915 -0.1494,-0.29881 -7e-5,-0.19914 -7e-5,-0.34855 0,-0.44821 l 0,-0.89642 0,-0.59762 c -7e-5,6e-5 -7e-5,6e-5 0,0 -7e-5,-0.0995 -7e-5,-0.14934 0,-0.1494 -7e-5,-0.0995 -7e-5,-0.19915 0,-0.29881 -7e-5,-0.0995 -7e-5,-0.19915 0,-0.29881 -7e-5,-0.19914 -7e-5,-0.44815 0,-0.74702 -7e-5,-0.19914 -7e-5,-0.39835 0,-0.59762 m 6.27496,1.04583 2.98809,0 0,0.59762 -2.98809,0 0,-0.59762 m -11.80291,1.19524 c -6e-5,5e-5 -6e-5,2.24111 0,6.72318 -6e-5,1.49409 0.39835,2.78892 1.19523,3.8845 0.89636,0.99608 2.04179,1.64349 3.43629,1.94225 l 0,-1.49404 c -0.49808,-0.0996 -0.99609,-0.34856 -1.49404,-0.74702 -0.19927,-0.0995 -0.34867,-0.24895 -0.44821,-0.44821 -0.0997,-0.0995 -0.19927,-0.19915 -0.29881,-0.29881 -6e-5,5e-5 -6e-5,5e-5 0,0 -6e-5,5e-5 -6e-5,5e-5 0,0 -0.0997,5e-5 -0.19927,-0.0996 -0.29881,-0.2988 -0.19926,-0.29876 -0.34867,-0.59757 -0.44821,-0.89643 -0.0997,-0.39836 -0.14946,-0.84657 -0.1494,-1.34464 l 0,-4.93033 0,-1.64344 c -0.49808,-0.19915 -0.99609,-0.34855 -1.49404,-0.44821 m 11.80291,0.1494 0,0.59762 2.98809,0 0,-0.59762 -2.98809,0 m 9.56186,1.04583 0,1.64344 0.14941,0 c 0.0995,6e-5 0.29872,0.0997 0.59761,0.29881 0.29873,0.0997 0.59754,0.24906 0.89643,0.44821 0.39832,0.39847 0.69713,0.89648 0.89642,1.49404 0.29873,0.59767 0.44813,1.29489 0.44821,2.09166 l 0,9.11364 1.64345,0 0,-9.11364 c -9e-5,-1.59359 -0.4483,-2.88842 -1.34464,-3.88451 -0.7969,-1.09557 -1.89253,-1.79279 -3.28689,-2.09165 m -9.26305,0.29881 -0.29881,0.59761 3.13749,0 -0.29881,-0.59761 -2.53987,0 m -2.53987,0 -1.64344,2.09165 1.94225,0 1.64345,-2.09165 -1.94226,0 m 19.57193,3.43629 -2.68927,5.97616 0.74702,0 2.39046,-5.07974 -0.44821,-0.89642 m -20.16954,0.1494 0,0.59762 2.98808,0 0,-0.59762 -2.98808,0 m 3.58569,0 0,1.64345 1.79285,0 0,-1.64345 -1.79285,0 m 2.39047,0 0,1.64345 1.94225,0 0,-1.64345 -1.94225,0 m 2.53987,0.29881 0,1.79285 0.29881,0 c 0.19912,0.0996 0.39833,0.24906 0.59761,0.44821 0.29873,0.0997 0.54774,0.24906 0.74702,0.44821 0.69714,0.39846 1.24496,0.99608 1.64345,1.79285 0.39833,0.79687 0.64733,1.59369 0.74702,2.39047 l 0.1494,0.74702 1.49404,-0.74702 c -0.0997,-1.5936 -0.6973,-3.03784 -1.79285,-4.33272 -0.9961,-1.29478 -2.29094,-2.14141 -3.8845,-2.53987 m -10.9065,0.1494 0,3.5857 1.49404,0 0,-3.5857 -1.49404,0 m 2.39047,1.04583 -0.44821,0.89643 2.68927,5.82675 0.89642,0 -3.13748,-6.72318 m 2.68927,0.74702 0,1.64345 3.13749,0 0,0.59761 c -8e-5,1.09568 -0.29889,2.04191 -0.89643,2.83868 -0.59769,0.79687 -1.39451,1.39448 -2.39046,1.79285 l 0,1.64344 c 1.39436,-0.39836 2.53979,-1.14538 3.43629,-2.24106 0.99595,-1.19518 1.49396,-2.53982 1.49404,-4.03391 l 0,-2.24106 -4.78093,0 m -6.87259,0.14941 0,2.09165 c 0.29875,0.39846 0.49795,0.94628 0.59762,1.64345 0.19914,0.69726 0.29874,1.74309 0.29881,3.13748 l 0,1.49404 0,6.72318 1.64344,0 0,-8.21722 c -6e-5,-1.29479 -0.14947,-2.39041 -0.44821,-3.28689 -0.19927,-0.99597 -0.49808,-1.74299 -0.89642,-2.24106 -0.29888,-0.49796 -0.69729,-0.94617 -1.19524,-1.34463 m 12.69935,0.2988 0,1.64345 c 0.49793,0.29886 0.89634,0.74707 1.19523,1.34464 0.29873,0.59766 0.44813,1.44428 0.44821,2.53986 l 0,1.04583 -1.64344,0 0,0.14941 c -8e-5,0.19925 -8e-5,0.44825 0,0.74702 0.0995,0.19925 0.19913,0.34865 0.29881,0.44821 l 2.98808,0 0,-2.39047 c -8e-5,-1.29478 -0.29889,-2.39041 -0.89643,-3.28688 -0.59769,-0.99598 -1.39451,-1.743 -2.39046,-2.24107 m 11.80292,1.49405 c -0.59771,0.39846 -1.04592,0.84667 -1.34464,1.34463 -0.2989,0.49806 -0.5977,1.24508 -0.89642,2.24106 -0.1993,0.89647 -0.2989,1.9921 -0.29881,3.28689 l 0,8.21722 1.64344,0 0,-6.72318 0,-1.49404 c -9e-5,-1.39439 0.0497,-2.44022 0.14941,-3.13748 0.19911,-0.69718 0.44812,-1.24499 0.74702,-1.64345 l 0,-2.09165 m 2.39046,0 c -0.59771,0.39846 -1.09572,0.84667 -1.49404,1.34463 -0.2989,0.49806 -0.5479,1.24508 -0.74702,2.24106 -0.19929,0.89647 -0.2989,1.9921 -0.29881,3.28689 l 0,8.21722 1.64345,0 0,-6.72318 0,-1.49404 c -9e-5,-1.39439 0.0497,-2.44022 0.1494,-3.13748 0.19912,-0.69718 0.44812,-1.24499 0.74702,-1.64345 l 0,-2.09165 m 3.5857,0 c -1.09573,0.49806 -2.04195,1.24508 -2.83868,2.24106 -0.69731,0.99607 -1.04592,2.2411 -1.04583,3.7351 l 0,9.11364 1.64345,0 0,-9.11364 c -1e-4,-1.3944 0.34851,-2.49002 1.04583,-3.28689 0.0995,-0.0996 0.14931,-0.14936 0.1494,-0.14941 0.0995,-0.0995 0.14931,-0.14935 0.1494,-0.1494 0.0995,-0.0996 0.14931,-0.14936 0.14941,-0.1494 0.0995,-0.0996 0.19911,-0.14936 0.29881,-0.14941 0.0995,-0.0996 0.14931,-0.14935 0.1494,-0.1494 0.0995,5e-5 0.14931,5e-5 0.1494,0 l 0.14941,-0.14941 0,-1.79284 m -23.60584,0.1494 0,1.64344 1.79285,0 0,-1.64344 -1.79285,0 m -3.8845,0.44821 0,1.64345 c 0.39834,0.19925 0.74695,0.64746 1.04582,1.34463 0.29874,0.59766 0.44815,1.39448 0.44822,2.39047 l 0,1.04582 -1.49404,0 0,0.29881 c -7e-5,0.0996 -7e-5,0.29885 0,0.59762 -7e-5,0.19925 0.0497,0.39845 0.1494,0.59762 l 2.98808,0 0,-2.53987 c -7e-5,-1.19519 -0.29888,-2.24102 -0.89642,-3.13749 -0.49809,-0.99598 -1.24511,-1.743 -2.24106,-2.24106 m 9.41245,1.49404 -1.49404,2.09166 1.64344,0 0.74702,-1.04583 0.59762,-1.04583 -1.49404,0 m 21.21537,0.59762 c -1.39453,0.19925 -2.53996,0.84667 -3.43629,1.94225 -0.79692,1.09567 -1.19533,2.39051 -1.19523,3.88451 l 0,6.57377 1.49404,0 0,-6.57377 c -1e-4,-0.79678 0.0995,-1.494 0.29881,-2.09166 0.29871,-0.59757 0.69712,-1.09559 1.19523,-1.49404 0.49791,-0.29876 1.04573,-0.54777 1.64344,-0.74702 l 0,0 0,-1.49404 m -36.45458,0 0,2.24106 c 0.29874,0.29885 0.49795,0.84667 0.59761,1.64344 0.19915,0.69726 0.29875,1.69329 0.29881,2.98808 l 0,1.64345 0,6.57378 1.64345,0 0,-8.21723 c -7e-5,-1.29479 -0.14947,-2.39042 -0.44822,-3.28689 -0.19926,-0.89637 -0.49807,-1.59359 -0.89642,-2.09165 -0.29887,-0.59757 -0.69728,-1.09558 -1.19523,-1.49404 m -3.5857,0 0,1.79285 c -6e-5,4e-5 -6e-5,0.0498 0,0.1494 0.0996,5e-5 0.14935,5e-5 0.14941,0 0.0995,5e-5 0.14934,0.0498 0.1494,0.1494 0.0995,5e-5 0.14935,0.0499 0.1494,0.14941 0.0996,4e-5 0.19915,0.0498 0.29881,0.1494 0.0995,5e-5 0.14935,0.0498 0.14941,0.14941 0.0995,4e-5 0.19914,0.0498 0.2988,0.1494 0.69716,0.79687 1.04577,1.89249 1.04583,3.28689 l 0,9.11365 1.49404,0 0,-9.11365 c -6e-5,-1.494 -0.34867,-2.68923 -1.04583,-3.5857 -0.69727,-0.99598 -1.5937,-1.7928 -2.68927,-2.39046 m 17.18147,1.79285 -0.74702,1.04582 0.74702,0.89643 1.64344,0 -1.34464,-1.94225 -0.2988,0 m 5.97616,0.44821 0,1.49404 2.24106,0 0,-1.49404 -2.24106,0 m -28.68558,0.29881 0,1.49404 c 0.59757,0.0996 1.14538,0.34865 1.64345,0.74702 0.0995,0.0996 0.24895,0.24905 0.44821,0.44821 -6e-5,4e-5 0.0498,0.0498 0.1494,0.1494 -5e-5,5e-5 -5e-5,0.0498 0,0.14941 -5e-5,4e-5 -5e-5,4e-5 0,0 0.0996,4e-5 0.19915,0.0996 0.29881,0.29881 0.19915,0.29884 0.34855,0.54785 0.44821,0.74702 0.19915,0.49805 0.24895,0.99606 0.14941,1.49404 l 0,4.93033 0,1.64344 c 0.49795,0.19924 1.04577,0.34864 1.64344,0.44822 l 0,-6.72319 c -6e-5,-1.494 -0.44827,-2.78883 -1.34464,-3.8845 -0.89647,-1.09559 -2.0419,-1.743 -3.43629,-1.94225 m 4.03391,0.1494 0,1.79285 c 0.49796,0.29885 0.84657,0.79686 1.04583,1.49404 0.19915,0.59766 0.29875,1.29487 0.29881,2.09166 l 0,7.02199 1.64344,0 0,-7.02199 c -6e-5,-1.1952 -0.29887,-2.24102 -0.89642,-3.13749 -0.49807,-0.99598 -1.19529,-1.743 -2.09166,-2.24106 m 22.2612,1.64344 c -8e-5,-0.0995 -0.14948,-0.14936 -0.44821,-0.1494 -0.19928,4e-5 -0.29889,0.0498 -0.29881,0.1494 -8e-5,5e-5 -0.0499,5e-5 -0.1494,0 -0.0997,-0.0995 -0.19929,-0.0995 -0.29881,0 -8e-5,5e-5 -8e-5,5e-5 0,0 -8e-5,-0.0995 -8e-5,-0.0995 0,0 -8e-5,5e-5 -0.14948,5e-5 -0.44821,0 -0.29889,5e-5 -0.54789,5e-5 -0.74702,0 -0.19928,5e-5 -0.34869,5e-5 -0.44821,0 -0.0997,5e-5 -0.14948,5e-5 -0.14941,0 -7e-5,5e-5 -0.19928,5e-5 -0.59761,0 -0.39849,5e-5 -0.6475,5e-5 -0.74702,0 -8e-5,5e-5 -0.0997,5e-5 -0.29881,0 -0.19928,5e-5 -0.44829,5e-5 -0.74702,0 l -1.04583,0 -0.74702,0 c -0.0997,5e-5 -0.19928,5e-5 -0.29881,0 -7e-5,5e-5 -0.0499,5e-5 -0.1494,0 -7e-5,5e-5 -7e-5,0.0498 0,0.14941 -7e-5,4e-5 -7e-5,0.0996 0,0.29881 -7e-5,0.0996 -7e-5,0.24905 0,0.44821 -7e-5,0.19925 -7e-5,0.34865 0,0.44821 l 0,0.14941 c -7e-5,4e-5 -7e-5,0.0498 0,0.1494 -7e-5,4e-5 -7e-5,0.0996 0,0.29881 0.0995,0.0996 0.14933,0.14944 0.1494,0.1494 l 0,0.44821 c -7e-5,0.0996 -7e-5,0.19925 0,0.29881 -7e-5,4e-5 -7e-5,0.0498 0,0.14941 -7e-5,4e-5 -7e-5,4e-5 0,0 0.0995,4e-5 0.14933,0.0996 0.1494,0.2988 -7e-5,0.0996 -7e-5,0.19925 0,0.29881 -7e-5,4e-5 -7e-5,0.0996 0,0.29881 -7e-5,0.0996 -7e-5,0.14944 0,0.1494 -7e-5,4e-5 -7e-5,0.0498 0,0.14941 -7e-5,4e-5 -7e-5,0.0996 0,0.29881 -7e-5,3e-5 -7e-5,0.0498 0,0.1494 -7e-5,0.0996 -7e-5,0.19924 0,0.29881 -7e-5,0.0996 -7e-5,0.19924 0,0.29881 -7e-5,0.19924 -7e-5,0.94626 0,2.24106 -7e-5,0.29884 -0.0499,0.64745 -0.1494,1.04582 -7e-5,0.29885 -7e-5,0.54785 0,0.74702 -7e-5,0.19924 -7e-5,0.29885 0,0.29881 -7e-5,0.29884 0.0497,0.49805 0.1494,0.59762 l 0,0.1494 c -7e-5,0.0996 -7e-5,0.14944 0,0.14941 0.0995,3e-5 0.19914,3e-5 0.29881,0 0.0995,3e-5 0.14933,3e-5 0.14941,0 0.0995,3e-5 0.24893,3e-5 0.44821,0 0.19913,-0.0996 0.29873,-0.14937 0.29881,-0.14941 0.0995,4e-5 0.24893,0.0498 0.44821,0.14941 0.19913,3e-5 0.29873,3e-5 0.29881,0 0.0995,3e-5 0.19913,3e-5 0.29881,0 0.0995,3e-5 0.14933,3e-5 0.1494,0 -7e-5,3e-5 -7e-5,3e-5 0,0 0.0995,3e-5 0.19913,0.0498 0.29881,0.1494 0.0995,3e-5 0.19913,3e-5 0.29881,0 0.19913,3e-5 0.29873,3e-5 0.2988,0 0.0995,3e-5 0.14933,3e-5 0.14941,0 0.0995,3e-5 0.19913,3e-5 0.29881,0 0.0995,3e-5 0.14932,3e-5 0.1494,0 0.0995,3e-5 0.14933,3e-5 0.1494,0 0.0995,3e-5 0.14933,3e-5 0.14941,0 -8e-5,3e-5 0.0497,3e-5 0.1494,0 0.19913,3e-5 0.34853,3e-5 0.44821,0 0.0995,-0.0996 0.14933,-0.14937 0.14941,-0.1494 0.0995,3e-5 0.14933,3e-5 0.1494,0 0.0995,3e-5 0.24893,3e-5 0.44821,0 -7e-5,3e-5 0.0497,3e-5 0.14941,0 0.0995,3e-5 0.14932,3e-5 0.1494,0 0.0995,3e-5 0.14933,3e-5 0.14941,0 -8e-5,3e-5 -8e-5,3e-5 0,0 0.0995,3e-5 0.14932,0.0498 0.1494,0.1494 -8e-5,3e-5 0.0497,3e-5 0.1494,0 0.19913,3e-5 0.29873,3e-5 0.29881,0 0.0995,3e-5 0.34853,3e-5 0.74702,0 0.39833,3e-5 0.69714,3e-5 0.89643,0 0.29872,-0.0996 0.44813,-0.14937 0.44821,-0.1494 0.0995,3e-5 0.24892,3e-5 0.44821,0 0.29873,3e-5 0.49793,3e-5 0.59762,0 0.0995,3e-5 0.24892,3e-5 0.44821,0 0.19912,3e-5 0.29873,3e-5 0.29881,0 0.0995,3e-5 0.19912,3e-5 0.2988,0 0.0995,3e-5 0.14933,3e-5 0.14941,0 -8e-5,-0.0996 -8e-5,-0.19918 0,-0.29881 -8e-5,-0.19917 -8e-5,-0.29878 0,-0.29881 0.0995,3e-5 0.0995,3e-5 0,0 -8e-5,-0.0996 -8e-5,-0.14937 0,-0.1494 -8e-5,-0.0996 -8e-5,-0.14937 0,-0.14941 -8e-5,-0.0996 -8e-5,-0.19917 0,-0.29881 -8e-5,-0.0996 -8e-5,-0.14937 0,-0.1494 -8e-5,-0.0996 -8e-5,-0.34857 0,-0.74702 -8e-5,-0.39837 -8e-5,-0.64738 0,-0.74702 -8e-5,-0.0996 -8e-5,-0.14937 0,-0.1494 -8e-5,3e-5 -8e-5,-0.0498 0,-0.14941 -8e-5,-0.0996 -8e-5,-0.14937 0,-0.1494 -8e-5,-0.0996 -8e-5,-0.14937 0,-0.14941 -8e-5,-0.0996 -8e-5,-0.14936 0,-0.1494 -8e-5,-0.0996 -8e-5,-0.24897 0,-0.44821 -8e-5,-0.19917 -8e-5,-0.29877 0,-0.29881 0.0995,4e-5 0.14932,4e-5 0.1494,0 0.0995,4e-5 0.14932,4e-5 0.14941,0 -9e-5,4e-5 -9e-5,0.0498 0,0.1494 0.0995,4e-5 0.14932,0.0498 0.1494,0.14941 -8e-5,3e-5 -8e-5,0.0498 0,0.1494 0.0995,4e-5 0.14932,4e-5 0.14941,0 -9e-5,4e-5 -9e-5,4e-5 0,0 0.0995,4e-5 0.14932,0.0498 0.1494,0.14941 -8e-5,3e-5 0.0497,0.0498 0.1494,0.1494 0.0995,0.0996 0.14932,0.14944 0.14941,0.1494 -9e-5,4e-5 -9e-5,4e-5 0,0 0.0995,-0.0996 0.0995,-0.34857 0,-0.74702 -9e-5,-0.49797 -9e-5,-0.74698 0,-0.74702 -9e-5,4e-5 -9e-5,-0.14936 0,-0.44821 -9e-5,-0.29877 -9e-5,-0.64738 0,-1.04583 -9e-5,-0.39837 -9e-5,-0.64737 0,-0.74702 -9e-5,-0.0996 -9e-5,-0.14936 0,-0.1494 -9e-5,4e-5 -9e-5,4e-5 0,0 -9e-5,-0.0996 -9e-5,-0.19917 0,-0.29881 -9e-5,-0.19916 -9e-5,-0.39837 0,-0.59761 -9e-5,-0.29877 -9e-5,-0.49798 0,-0.59762 -9e-5,-0.19916 -9e-5,-0.39837 0,-0.59762 0.0995,-0.19916 0.0995,-0.39837 0,-0.59761 -9e-5,-0.19917 -0.0499,-0.29877 -0.14941,-0.29881 -8e-5,-0.0996 -8e-5,-0.14936 0,-0.14941 -8e-5,5e-5 -8e-5,0.0498 0,0.14941 l -0.1494,0 c -8e-5,-0.0996 -8e-5,-0.14936 0,-0.14941 -8e-5,5e-5 -0.0997,5e-5 -0.29881,0 -0.0997,5e-5 -0.24909,5e-5 -0.44821,0 -0.4981,0.0996 -0.7471,0.14945 -0.74702,0.14941 -0.19929,4e-5 -0.34869,4e-5 -0.44821,0 -8e-5,4e-5 -0.0499,4e-5 -0.14941,0 -8e-5,-0.0996 -0.0499,-0.0996 -0.1494,0 -8e-5,4e-5 -0.0499,4e-5 -0.14941,0 -8e-5,4e-5 -8e-5,4e-5 0,0 -8e-5,-0.0996 -0.0499,-0.0996 -0.1494,0 -0.0997,4e-5 -0.14948,4e-5 -0.1494,0 -8e-5,-0.0996 -0.0997,-0.14936 -0.29881,-0.14941 -0.0997,5e-5 -0.14949,5e-5 -0.14941,0 -0.0997,5e-5 -0.19928,5e-5 -0.2988,0 -8e-5,5e-5 -0.0499,5e-5 -0.14941,0 -8e-5,5e-5 -0.0499,5e-5 -0.1494,0 -8e-5,5e-5 -8e-5,5e-5 0,0 -8e-5,5e-5 -0.0997,5e-5 -0.29881,0 -0.19928,5e-5 -0.29889,5e-5 -0.29881,0 m -1.64344,0.44822 0,0 0.44821,0 0,0 0,0 0,3.7351 c -8e-5,4e-5 -8e-5,4e-5 0,0 -8e-5,4e-5 -8e-5,4e-5 0,0 l 0.1494,0 0.14941,0 0,0.1494 0,0.29881 0,0 -0.14941,0 0,0 -0.1494,0 c -0.19928,4e-5 -0.34869,4e-5 -0.44821,0 -8e-5,-0.0996 -8e-5,-0.24897 0,-0.44821 l 0,-3.7351 0,0 m -5.07974,0 0,0 0.44821,0 0,0 0,0 0,1.34463 c 0.19914,-0.0996 0.34854,-0.14936 0.44821,-0.1494 l 0.29881,0 c 0.0995,4e-5 0.24894,0.0996 0.44822,0.29881 0.19913,0.19924 0.29873,0.54785 0.2988,1.04583 l 0,0.2988 c -7e-5,0.49806 -0.0997,0.84667 -0.2988,1.04583 -0.0997,0.19925 -0.34869,0.29885 -0.74703,0.29881 -0.0997,4e-5 -0.24907,4e-5 -0.44821,0 l 0,0 0,0 0,0 -0.44821,0 0,0 0,0 0,-4.18331 0,0 m 12.84875,0 0,6.42437 0.74702,0 0,-6.42437 -0.74702,0 m -9.41246,1.19523 0.14941,0 c 0.19913,4e-5 0.34853,0.0498 0.44821,0.1494 0.19913,0.0996 0.29873,0.34865 0.29881,0.74702 l 0,2.09166 0,0 0,0 0,0 -0.44821,0 0,0 0,0 0,-0.1494 c -0.19929,0.0996 -0.39849,0.14944 -0.59762,0.1494 -0.29888,4e-5 -0.54789,-0.0498 -0.74702,-0.1494 -0.0997,-0.19917 -0.14948,-0.44818 -0.1494,-0.74702 -8e-5,-0.29877 0.0995,-0.54778 0.2988,-0.74702 0.29874,-0.19917 0.69715,-0.29877 1.19524,-0.29881 l 0,-0.14941 c -8e-5,-0.19916 -0.0499,-0.29876 -0.14941,-0.2988 -0.0997,-0.0996 -0.24908,-0.14937 -0.44821,-0.14941 -0.0997,4e-5 -0.19928,0.0498 -0.29881,0.14941 -7e-5,4e-5 -7e-5,0.0996 0,0.2988 l 0,0 0,0 -0.44821,0 -0.1494,0 0,0 c 0.0995,-0.29876 0.19913,-0.49797 0.2988,-0.59761 0.19913,-0.19917 0.44814,-0.29877 0.74702,-0.29881 m 3.4363,0 0.1494,0 c 0.29873,4e-5 0.49793,0.0996 0.59762,0.29881 0.19912,0.0996 0.29872,0.29885 0.2988,0.59761 l 0,0 0,0 -0.44821,0 0,0 0,0 c -8e-5,-0.0996 -0.0499,-0.19916 -0.1494,-0.2988 -0.0997,-0.0996 -0.19929,-0.14937 -0.29881,-0.14941 -0.19928,4e-5 -0.34869,0.0498 -0.44821,0.14941 -8e-5,4e-5 -8e-5,0.0498 0,0.1494 -8e-5,0.19925 -8e-5,0.34865 0,0.44821 0.0995,4e-5 0.24893,0.0498 0.44821,0.14941 l 0.1494,0 c 0.19913,4e-5 0.34853,0.0498 0.44822,0.1494 0.0995,0.0996 0.14932,0.19924 0.1494,0.29881 0.0995,0.0996 0.14932,0.24904 0.1494,0.44821 -8e-5,0.29885 -0.0997,0.49805 -0.2988,0.59762 -0.0997,0.0996 -0.29889,0.14944 -0.59762,0.1494 -0.19928,4e-5 -0.39849,-0.0498 -0.59762,-0.1494 -0.19928,-0.19917 -0.29888,-0.44818 -0.2988,-0.74702 l 0,0 0,0 0.44821,0 0,0 0,0 c -8e-5,0.19924 0.0497,0.34864 0.1494,0.44821 0.0995,4e-5 0.19913,4e-5 0.29881,0 0.19913,4e-5 0.29873,4e-5 0.29881,0 0.0995,-0.0996 0.14932,-0.19917 0.1494,-0.29881 -8e-5,-0.0996 -8e-5,-0.14937 0,-0.1494 -8e-5,-0.0996 -0.0499,-0.14937 -0.1494,-0.14941 -8e-5,-0.0996 -0.0997,-0.14936 -0.29881,-0.1494 l -0.1494,0 c -0.0997,-0.0996 -0.24909,-0.19917 -0.44822,-0.29881 -0.19928,-0.0996 -0.29888,-0.34857 -0.2988,-0.74702 -8e-5,-0.19917 0.0497,-0.34857 0.1494,-0.44821 0.19913,-0.19917 0.39833,-0.29877 0.59762,-0.29881 m 2.53986,0 0.14941,0 c 0.19912,4e-5 0.39833,0.0498 0.59761,0.1494 0.19913,0.0996 0.29873,0.34865 0.29881,0.74702 l 0,2.09166 0,0 -0.1494,0 0,0 -0.44821,0 0,0 0,0 0,-0.1494 c -0.19929,0.0996 -0.3985,0.14944 -0.59762,0.1494 -0.19929,4e-5 -0.39849,-0.0498 -0.59762,-0.1494 -0.0997,-0.19917 -0.14948,-0.44818 -0.1494,-0.74702 -8e-5,-0.29877 0.0995,-0.54778 0.29881,-0.74702 0.29873,-0.19917 0.64733,-0.29877 1.04583,-0.29881 l 0,-0.14941 c -8e-5,-0.19916 -0.0499,-0.29876 -0.14941,-0.2988 -8e-5,-0.0996 -0.0997,-0.14937 -0.29881,-0.14941 -0.0997,4e-5 -0.19928,0.0498 -0.2988,0.14941 -0.0997,4e-5 -0.14949,0.0996 -0.14941,0.2988 l 0,0 0,0 -0.44821,0 0,0 0,0 c -8e-5,-0.29876 0.0497,-0.49797 0.1494,-0.59761 0.19913,-0.19917 0.44814,-0.29877 0.74702,-0.29881 m 2.83868,0.1494 c -8e-5,4e-5 -8e-5,4e-5 0,0 -8e-5,4e-5 -0.0499,4e-5 -0.1494,0 -9e-5,4e-5 -9e-5,4e-5 0,0 -9e-5,4e-5 -9e-5,0.0498 0,0.14941 -9e-5,4e-5 -0.0499,0.34865 -0.14941,1.04583 -8e-5,0.59765 -8e-5,0.94626 0,1.04582 0.0995,4e-5 0.14932,4e-5 0.14941,0 -9e-5,0.0996 -9e-5,0.19925 0,0.29881 -9e-5,4e-5 -9e-5,4e-5 0,0 -0.0997,0.0996 -0.14949,0.19925 -0.14941,0.29881 0.0995,4e-5 0.14932,4e-5 0.14941,0 -9e-5,4e-5 -9e-5,0.14944 0,0.44821 -9e-5,0.29885 -9e-5,0.44825 0,0.44821 -9e-5,4e-5 -0.0499,0.0498 -0.14941,0.14941 -8e-5,4e-5 -8e-5,0.0996 0,0.29881 0.0995,0.0996 0.14932,0.24904 0.14941,0.44821 -9e-5,0.0996 -9e-5,0.24904 0,0.44821 0.0995,0.0996 0.14932,0.19924 0.1494,0.29881 0.0995,3e-5 0.14932,0.0498 0.14941,0.1494 -9e-5,4e-5 -9e-5,4e-5 0,0 -9e-5,4e-5 -9e-5,4e-5 0,0 -9e-5,4e-5 -9e-5,0.0498 0,0.14941 0.0995,3e-5 0.14931,3e-5 0.1494,0 -9e-5,3e-5 -9e-5,0.0498 0,0.1494 -9e-5,4e-5 0.0497,0.0996 0.1494,0.29881 0.19912,0.0996 0.29873,0.19924 0.29881,0.29881 0.0995,3e-5 0.14932,0.0498 0.14941,0.1494 0.0995,4e-5 0.19912,0.0498 0.2988,0.1494 0.19912,4e-5 0.29873,4e-5 0.29881,0 0.0995,4e-5 0.14932,0.0498 0.14941,0.14941 0.0995,3e-5 0.14931,3e-5 0.1494,0 -9e-5,3e-5 0.0497,3e-5 0.1494,0 0.0995,3e-5 0.14932,3e-5 0.14941,0 -9e-5,3e-5 0.0497,3e-5 0.1494,0 0.0995,3e-5 0.14932,0.0498 0.14941,0.1494 0.0995,4e-5 0.29872,4e-5 0.59761,0 0.0995,4e-5 0.14932,4e-5 0.14941,0 0.0995,4e-5 0.19911,4e-5 0.2988,0 l 0,0 c -8e-5,4e-5 0.0497,4e-5 0.14941,0 0.19912,4e-5 0.49792,4e-5 0.89642,0 0.29872,4e-5 0.59753,4e-5 0.89643,0 0.29871,4e-5 0.84653,4e-5 1.64344,0 0.99594,4e-5 1.54375,4e-5 1.64345,0 0.19911,4e-5 0.34851,4e-5 0.44821,0 0.19911,4e-5 0.29871,4e-5 0.29881,0 0.0995,4e-5 0.14931,4e-5 0.1494,0 0.0995,4e-5 0.14931,4e-5 0.1494,0 -9e-5,4e-5 -9e-5,4e-5 0,0 -9e-5,4e-5 0.14931,4e-5 0.44822,0 0.29871,4e-5 0.44811,4e-5 0.44821,0 -1e-4,-0.0996 0.0497,-0.14937 0.1494,-0.1494 0.0995,3e-5 0.14931,3e-5 0.14941,0 -1e-4,3e-5 -1e-4,3e-5 0,0 0.0995,3e-5 0.1493,3e-5 0.1494,0 0.0995,3e-5 0.14931,3e-5 0.1494,0 0.0995,3e-5 0.19911,3e-5 0.29881,0 0.0995,-0.0996 0.14931,-0.14937 0.14941,-0.14941 0.0995,-0.0996 0.1493,-0.0996 0.1494,0 -10e-5,4e-5 -10e-5,4e-5 0,0 0.0995,-0.0996 0.19911,-0.14936 0.29881,-0.1494 0.0995,-0.0996 0.14931,-0.14937 0.1494,-0.1494 -9e-5,-0.0996 -9e-5,-0.14937 0,-0.14941 0.0995,4e-5 0.19911,4e-5 0.29881,0 0.0995,-0.0996 0.14931,-0.14937 0.1494,-0.1494 -9e-5,3e-5 -9e-5,3e-5 0,0 -9e-5,-0.0996 -9e-5,-0.14937 0,-0.14941 -9e-5,4e-5 -9e-5,-0.0498 0,-0.1494 0.0995,-0.0996 0.14931,-0.14937 0.14941,-0.1494 -1e-4,3e-5 -1e-4,3e-5 0,0 0.0995,-0.0996 0.14931,-0.14937 0.1494,-0.14941 -9e-5,-0.0996 -9e-5,-0.14937 0,-0.1494 0.0995,3e-5 0.14931,3e-5 0.14941,0 -10e-5,-0.0996 -10e-5,-0.14937 0,-0.14941 -10e-5,4e-5 -10e-5,-0.0498 0,-0.1494 0.0995,-0.0996 0.1493,-0.14937 0.1494,-0.1494 -1e-4,3e-5 -1e-4,3e-5 0,0 -1e-4,3e-5 -1e-4,3e-5 0,0 -1e-4,-0.0996 -1e-4,-0.24897 0,-0.44822 0.0995,-0.19916 0.14931,-0.54777 0.1494,-1.04582 l 0,-1.04583 c -9e-5,4e-5 -9e-5,-0.0996 0,-0.29881 -9e-5,-0.19917 -9e-5,-0.34857 0,-0.44821 -9e-5,-0.29877 -0.0499,-0.44817 -0.1494,-0.44821 -1e-4,-0.0996 -1e-4,-0.14937 0,-0.14941 -1e-4,4e-5 -0.0499,4e-5 -0.1494,0 -10e-5,-0.0996 -10e-5,-0.14936 0,-0.1494 -10e-5,4e-5 -10e-5,0.0498 0,0.1494 l 0,0.14941 c -10e-5,4e-5 -10e-5,0.0498 0,0.1494 -10e-5,0.0996 -10e-5,0.19924 0,0.29881 -10e-5,0.29884 -10e-5,0.49805 0,0.59761 -10e-5,4e-5 -10e-5,0.0498 0,0.14941 -10e-5,4e-5 -10e-5,0.0498 0,0.1494 -10e-5,0.0996 -10e-5,0.14944 0,0.14941 -10e-5,3e-5 -10e-5,0.0996 0,0.2988 -10e-5,4e-5 -10e-5,0.0498 0,0.14941 -10e-5,4e-5 -10e-5,0.0498 0,0.1494 -10e-5,4e-5 -10e-5,4e-5 0,0 -10e-5,4e-5 -10e-5,0.0996 0,0.29881 -10e-5,0.19924 -10e-5,0.34865 0,0.44821 -10e-5,4e-5 -10e-5,0.0498 0,0.14941 -10e-5,3e-5 -10e-5,0.0498 0,0.1494 -10e-5,0.0996 -0.0499,0.19924 -0.14941,0.29881 -9e-5,3e-5 -9e-5,0.0498 0,0.1494 -9e-5,4e-5 -9e-5,0.0498 0,0.14941 -9e-5,0.0996 -0.0499,0.19924 -0.1494,0.2988 l 0,0.14941 c -0.0997,0.0996 -0.1495,0.19924 -0.14941,0.29881 -9e-5,3e-5 -9e-5,3e-5 0,0 -9e-5,3e-5 -0.0499,0.0498 -0.1494,0.1494 -1e-4,4e-5 -1e-4,4e-5 0,0 -1e-4,4e-5 -0.0499,0.0498 -0.1494,0.1494 -1e-4,4e-5 -0.0499,0.0498 -0.14941,0.14941 -9e-5,3e-5 -0.0499,3e-5 -0.1494,0 -1e-4,3e-5 -0.0499,0.0498 -0.14941,0.1494 -9e-5,4e-5 -9e-5,4e-5 0,0 -9e-5,4e-5 -0.0499,0.0498 -0.1494,0.14941 -10e-5,3e-5 -0.0499,3e-5 -0.1494,0 -1e-4,3e-5 -0.0499,3e-5 -0.14941,0 -9e-5,3e-5 -0.0499,0.0498 -0.1494,0.1494 -0.0997,4e-5 -0.1993,4e-5 -0.29881,0 -0.0997,4e-5 -0.1495,4e-5 -0.1494,0 -0.0997,4e-5 -0.1495,0.0498 -0.14941,0.1494 -9e-5,4e-5 -0.0499,4e-5 -0.1494,0 -0.0997,4e-5 -0.1993,4e-5 -0.29881,0 -9e-5,4e-5 -0.0499,4e-5 -0.1494,0 -1e-4,4e-5 -0.0997,4e-5 -0.29881,0 -0.1993,4e-5 -0.2989,4e-5 -0.29881,0 -9e-5,4e-5 -9e-5,4e-5 0,0 -9e-5,4e-5 -0.2491,4e-5 -0.74702,0 -0.3985,4e-5 -0.64751,4e-5 -0.74702,0 -9e-5,4e-5 -9e-5,4e-5 0,0 -9e-5,4e-5 -0.3985,4e-5 -1.19523,0 -0.79691,4e-5 -1.19533,4e-5 -1.19524,0 -9e-5,4e-5 -0.0499,4e-5 -0.1494,0 -9e-5,4e-5 -0.4483,4e-5 -1.34464,0 -0.0997,4e-5 -0.19929,4e-5 -0.2988,0 -0.69731,4e-5 -1.14552,4e-5 -1.34464,0 -0.0997,4e-5 -0.19929,-0.0498 -0.29881,-0.1494 l -0.29881,0 c -0.0997,4e-5 -0.19929,-0.0498 -0.2988,-0.1494 l -0.14941,0 c -0.0997,-0.0996 -0.19929,-0.0996 -0.29881,0 -8e-5,3e-5 -8e-5,3e-5 0,0 -8e-5,-0.0996 -0.0499,-0.14937 -0.1494,-0.14941 -9e-5,4e-5 -0.0499,4e-5 -0.1494,0 -9e-5,-0.0996 -9e-5,-0.14937 0,-0.1494 -9e-5,3e-5 -0.0499,-0.0498 -0.14941,-0.14941 -0.0997,-0.0996 -0.19929,-0.19917 -0.29881,-0.2988 -8e-5,-0.0996 -0.0499,-0.14937 -0.1494,-0.14941 -9e-5,-0.0996 -9e-5,-0.14937 0,-0.1494 -9e-5,3e-5 -9e-5,3e-5 0,0 -9e-5,-0.0996 -0.0499,-0.14937 -0.1494,-0.14941 -9e-5,-0.0996 -9e-5,-0.19916 0,-0.2988 -9e-5,-0.0996 -9e-5,-0.14937 0,-0.14941 -9e-5,-0.0996 -0.0499,-0.19917 -0.14941,-0.29881 -8e-5,-0.0996 -8e-5,-0.14936 0,-0.1494 -8e-5,4e-5 -8e-5,-0.14937 0,-0.44821 -8e-5,-0.29877 -8e-5,-0.49798 0,-0.59762 -8e-5,-0.19917 -8e-5,-0.29877 0,-0.29881 -8e-5,4e-5 -8e-5,4e-5 0,0 -8e-5,-0.0996 -8e-5,-0.14936 0,-0.1494 -8e-5,-0.0996 -8e-5,-0.14937 0,-0.1494 -8e-5,-0.0996 -8e-5,-0.24897 0,-0.44822 -8e-5,-0.0996 -8e-5,-0.19916 0,-0.2988 -8e-5,3e-5 -8e-5,-0.0498 0,-0.14941 -8e-5,-0.0996 -8e-5,-0.14936 0,-0.1494 l 0,-0.44821 0,-0.74702 c -8e-5,-0.0996 -8e-5,-0.14937 0,-0.14941 -8e-5,-0.0996 -8e-5,-0.19916 0,-0.29881 -8e-5,4e-5 -8e-5,4e-5 0,0 m -16.13563,0.29881 2.39046,0 0,0.59762 -2.39046,0 0,-0.59762 m 4.93033,0 c 0.0995,4e-5 0.19913,0.0996 0.29881,0.29881 0.0995,0.0996 0.14933,0.29885 0.1494,0.59762 l 0,0.2988 c -7e-5,0.29885 -0.0499,0.54786 -0.1494,0.74702 -0.0997,0.0996 -0.24908,0.14945 -0.44822,0.14941 -0.0997,4e-5 -0.24907,-0.0498 -0.44821,-0.14941 l 0,-1.79284 c 0.19914,-0.0996 0.39834,-0.14937 0.59762,-0.14941 m -4.48212,1.04583 -0.14941,0.74702 c -0.0997,0.79686 -0.34867,1.59368 -0.74702,2.39046 -0.39847,0.79686 -0.89649,1.44428 -1.49404,1.94226 -0.59768,0.39844 -1.14549,0.64745 -1.64344,0.74702 l 0,1.79285 c 1.49397,-0.39838 2.73901,-1.245 3.7351,-2.53987 1.09556,-1.2948 1.74298,-2.73904 1.94225,-4.33272 l -1.64344,-0.74702 m 7.3208,0 0,0.89642 c -0.19929,0.0996 -0.39849,0.14945 -0.59762,0.14941 -0.0997,4e-5 -0.19928,4e-5 -0.29881,0 -7e-5,-0.0996 -7e-5,-0.24897 0,-0.44821 l 0,0 c -7e-5,-0.0996 0.0497,-0.19917 0.14941,-0.29881 0.19913,-0.19917 0.44813,-0.29877 0.74702,-0.29881 m 5.97616,0 0,0.89642 c -0.19929,0.0996 -0.3985,0.14945 -0.59762,0.14941 -0.0997,4e-5 -0.19929,4e-5 -0.29881,0 -8e-5,-0.0996 -8e-5,-0.24897 0,-0.44821 l 0,0 c -8e-5,-0.0996 0.0497,-0.19917 0.14941,-0.29881 0.19912,-0.19917 0.44813,-0.29877 0.74702,-0.29881 m -28.38677,1.34464 c -5e-5,-0.0996 -5e-5,-0.14937 0,-0.14941 -5e-5,4e-5 -0.0498,0.0498 -0.1494,0.14941 -6e-5,3e-5 -6e-5,3e-5 0,0 -6e-5,3e-5 -0.0499,0.0498 -0.14941,0.1494 -5e-5,4e-5 -5e-5,0.34865 0,1.04583 -5e-5,0.59765 -5e-5,0.94626 0,1.04583 -5e-5,3e-5 -5e-5,3e-5 0,0 -5e-5,3e-5 -5e-5,0.14944 0,0.44821 -5e-5,0.29884 -5e-5,0.44825 0,0.44821 l 0,0.1494 c -5e-5,4e-5 -5e-5,0.0498 0,0.14941 -5e-5,3e-5 -5e-5,0.0498 0,0.1494 -5e-5,4e-5 -5e-5,0.34865 0,1.04583 l 0,0.89643 c -5e-5,3e-5 -5e-5,0.14943 0,0.44821 -5e-5,0.19923 -5e-5,0.29884 0,0.29881 -5e-5,3e-5 -5e-5,0.0498 0,0.1494 -5e-5,3e-5 -5e-5,0.0996 0,0.29881 -5e-5,0.0996 -5e-5,0.14943 0,0.1494 -5e-5,3e-5 -5e-5,0.0996 0,0.29881 -5e-5,0.0996 -5e-5,0.19924 0,0.29881 -5e-5,3e-5 -5e-5,3e-5 0,0 -5e-5,3e-5 -5e-5,0.14943 0,0.44821 -5e-5,0.19924 -5e-5,0.34864 0,0.44821 0.0996,3e-5 0.24896,3e-5 0.44821,0 0.29876,3e-5 0.44816,3e-5 0.44822,0 -6e-5,3e-5 0.0497,3e-5 0.1494,0 l 0,0 c -5e-5,3e-5 0.0497,3e-5 0.1494,0 0.19916,3e-5 0.29876,3e-5 0.29881,0 -5e-5,3e-5 0.14935,3e-5 0.44821,0 0.39836,3e-5 0.59757,-0.0498 0.59762,-0.1494 l 0,0 c -5e-5,0.0996 0.0498,0.14943 0.1494,0.1494 0.0995,3e-5 0.14935,3e-5 0.14941,0 -6e-5,3e-5 0.0995,3e-5 0.29881,0 0.19915,3e-5 0.29875,3e-5 0.29881,0 -6e-5,3e-5 0.0497,3e-5 0.1494,0 l 1.04583,0 c -6e-5,3e-5 0.14934,3e-5 0.44821,0 0.19915,3e-5 0.34855,3e-5 0.44821,0 0.0995,3e-5 0.14935,3e-5 0.14941,0 l 0.2988,0 0.29881,0 c -6e-5,3e-5 0.0497,3e-5 0.14941,0 0.19914,3e-5 0.39835,3e-5 0.59761,0 0.29875,3e-5 0.54776,3e-5 0.74702,0 0.39835,3e-5 0.79676,3e-5 1.19523,0 0.39835,3e-5 0.59756,3e-5 0.59762,0 l 0.44821,0 c -6e-5,3e-5 -6e-5,3e-5 0,0 -6e-5,3e-5 0.0497,3e-5 0.14941,0 0.0995,3e-5 0.14934,3e-5 0.1494,0 l 3.13749,0 c 0.49794,3e-5 0.99595,3e-5 1.49404,0 0.49794,3e-5 0.89635,3e-5 1.19523,0 0.29874,3e-5 0.44814,3e-5 0.44821,0 0.29874,3e-5 0.44814,3e-5 0.44821,0 0.0995,3e-5 0.14934,3e-5 0.14941,0 -7e-5,-0.0996 -7e-5,-0.0996 0,0 -7e-5,3e-5 -7e-5,3e-5 0,0 0.0995,3e-5 0.14933,3e-5 0.1494,0 0.0995,-0.0996 0.14933,-0.49798 0.1494,-1.19523 -7e-5,-0.79679 -0.0499,-1.1952 -0.1494,-1.19523 -7e-5,3e-5 -7e-5,3e-5 0,0 0.0995,3e-5 0.14933,-0.19918 0.1494,-0.59762 -7e-5,-0.19917 -7e-5,-0.39838 0,-0.59762 l 0,-0.59761 0,-0.44821 0,-0.14941 c -7e-5,4e-5 -7e-5,4e-5 0,0 -7e-5,-0.0996 -7e-5,-0.19917 0,-0.29881 l 0,-0.2988 c -7e-5,3e-5 -7e-5,3e-5 0,0 -7e-5,-0.0996 -7e-5,-0.19917 0,-0.29881 -7e-5,-0.19917 -7e-5,-0.29877 0,-0.29881 -7e-5,4e-5 -0.0499,4e-5 -0.1494,0 -7e-5,-0.0996 -7e-5,-0.14937 0,-0.1494 0.0995,-0.0996 0.0995,-0.14937 0,-0.14941 -7e-5,4e-5 -7e-5,4e-5 0,0 -7e-5,-0.0996 -0.0499,-0.14937 -0.1494,-0.1494 -7e-5,3e-5 -7e-5,3e-5 0,0 -7e-5,-0.0996 -7e-5,-0.14937 0,-0.14941 -7e-5,4e-5 -7e-5,4e-5 0,0 -7e-5,4e-5 -0.0499,4e-5 -0.14941,0 -7e-5,4e-5 -7e-5,-0.0498 0,-0.1494 -7e-5,4e-5 -7e-5,4e-5 0,0 -7e-5,4e-5 -7e-5,4e-5 0,0 -7e-5,4e-5 -7e-5,0.34865 0,1.04583 -7e-5,0.59765 -7e-5,0.99606 0,1.19523 -7e-5,0.19924 -0.0499,0.34864 -0.1494,0.44821 -7e-5,4e-5 -7e-5,0.0498 0,0.14941 -7e-5,3e-5 -0.0499,0.0498 -0.14941,0.1494 -7e-5,3e-5 -7e-5,3e-5 0,0 -7e-5,3e-5 -0.0499,0.0996 -0.1494,0.29881 -7e-5,0.19924 -0.0499,0.29884 -0.1494,0.29881 -7e-5,3e-5 -7e-5,0.0498 0,0.1494 l -0.14941,0.14941 c -7e-5,3e-5 -7e-5,3e-5 0,0 -7e-5,3e-5 -0.0499,0.0996 -0.1494,0.2988 -0.0997,0.0996 -0.14948,0.14944 -0.14941,0.14941 -7e-5,3e-5 -0.0499,3e-5 -0.1494,0 -7e-5,3e-5 -7e-5,3e-5 0,0 -7e-5,3e-5 -0.0499,0.0498 -0.1494,0.1494 -7e-5,3e-5 -7e-5,3e-5 0,0 -7e-5,3e-5 -0.0499,0.0498 -0.14941,0.14941 -7e-5,3e-5 -7e-5,3e-5 0,0 l -0.1494,0 c -0.0997,0.0996 -0.14947,0.14943 -0.14941,0.1494 -6e-5,3e-5 -0.0997,0.0498 -0.2988,0.1494 -0.0997,4e-5 -0.19928,0.0498 -0.29881,0.14941 -7e-5,3e-5 -7e-5,3e-5 0,0 -7e-5,3e-5 -0.0499,3e-5 -0.14941,0 -6e-5,3e-5 -6e-5,3e-5 0,0 -6e-5,3e-5 -0.0499,3e-5 -0.1494,0 -7e-5,3e-5 -0.0499,0.0498 -0.1494,0.1494 -0.0997,3e-5 -0.24908,3e-5 -0.44822,0 -0.0997,3e-5 -0.19927,3e-5 -0.2988,0 -0.0997,3e-5 -0.19928,0.0498 -0.29881,0.14941 -7e-5,3e-5 -7e-5,3e-5 0,0 -7e-5,-0.0996 -7e-5,-0.14938 0,-0.14941 -7e-5,3e-5 -0.29888,3e-5 -0.89643,0 -0.0997,3e-5 -0.24907,3e-5 -0.44821,0 -0.0997,3e-5 -0.19927,3e-5 -0.29881,0 -0.0997,3e-5 -0.14947,3e-5 -0.1494,0 -0.0997,3e-5 -0.19927,3e-5 -0.29881,0 -0.0997,3e-5 -0.64748,3e-5 -1.64344,0 -0.99609,3e-5 -1.54391,0.0498 -1.64345,0.14941 -6e-5,3e-5 -0.0499,3e-5 -0.1494,0 -6e-5,-0.0996 -0.0499,-0.0996 -0.14941,0 -6e-5,3e-5 -6e-5,3e-5 0,0 -6e-5,-0.0996 -0.0997,-0.14938 -0.2988,-0.14941 -0.0997,3e-5 -0.19927,3e-5 -0.29881,0 -0.0997,3e-5 -0.14947,3e-5 -0.14941,0 -6e-5,3e-5 -0.0499,0.0498 -0.1494,0.14941 -6e-5,3e-5 -6e-5,3e-5 0,0 -6e-5,-0.0996 -0.0499,-0.14938 -0.1494,-0.14941 -0.0997,3e-5 -0.14947,0.0498 -0.14941,0.14941 -6e-5,3e-5 -0.0499,3e-5 -0.1494,0 -6e-5,-0.0996 -0.0499,-0.14938 -0.14941,-0.14941 l -1.04582,0 c -0.59768,3e-5 -0.94629,3e-5 -1.04583,0 -6e-5,3e-5 -0.0499,3e-5 -0.14941,0 -5e-5,3e-5 -5e-5,3e-5 0,0 -5e-5,3e-5 -0.0499,3e-5 -0.1494,0 -0.0997,3e-5 -0.19926,3e-5 -0.29881,0 -0.0997,-0.0996 -0.14946,-0.14937 -0.1494,-0.1494 -6e-5,3e-5 -0.0499,3e-5 -0.14941,0 -0.0997,3e-5 -0.19926,3e-5 -0.29881,0 -5e-5,-0.0996 -0.0499,-0.14937 -0.1494,-0.14941 -5e-5,4e-5 -5e-5,4e-5 0,0 -5e-5,4e-5 -0.0499,4e-5 -0.1494,0 -0.0997,-0.0996 -0.14946,-0.14937 -0.14941,-0.1494 l -0.1494,0 c -6e-5,3e-5 -0.0499,3e-5 -0.14941,0 -5e-5,3e-5 -5e-5,3e-5 0,0 -5e-5,-0.0996 -0.0498,-0.14937 -0.1494,-0.1494 -5e-5,3e-5 -0.0499,3e-5 -0.1494,0 -6e-5,-0.0996 -6e-5,-0.14938 0,-0.14941 -6e-5,3e-5 -6e-5,3e-5 0,0 -6e-5,3e-5 -0.0499,3e-5 -0.14941,0 -5e-5,-0.0996 -5e-5,-0.14937 0,-0.1494 -5e-5,3e-5 -0.0498,-0.0498 -0.1494,-0.14941 -0.0997,-0.0996 -0.19926,-0.14937 -0.29881,-0.1494 -5e-5,-0.0996 -0.0499,-0.19917 -0.1494,-0.29881 -0.0997,-0.0996 -0.14946,-0.19917 -0.14941,-0.29881 -5e-5,-0.0996 -0.0499,-0.19917 -0.1494,-0.29881 -6e-5,-0.0996 -6e-5,-0.14937 0,-0.1494 l -0.14941,-0.1494 c -5e-5,-0.0996 -5e-5,-0.14937 0,-0.14941 -5e-5,4e-5 -5e-5,-0.0498 0,-0.1494 -5e-5,3e-5 -5e-5,-0.0498 0,-0.14941 -5e-5,4e-5 -0.0498,4e-5 -0.1494,0 -5e-5,-0.0996 -5e-5,-0.19917 0,-0.2988 -5e-5,-0.29878 -5e-5,-0.64739 0,-1.04583 l 0,-1.04583 c -5e-5,-0.19917 -5e-5,-0.29877 0,-0.29881 -5e-5,4e-5 -5e-5,4e-5 0,0 -5e-5,-0.0996 -5e-5,-0.14936 0,-0.1494 -5e-5,-0.0996 -5e-5,-0.19917 0,-0.29881 l 0,-0.29881 0,-0.29881 c -5e-5,-0.19916 -5e-5,-0.29877 0,-0.2988 -5e-5,3e-5 -5e-5,3e-5 0,0 -5e-5,3e-5 -5e-5,3e-5 0,0 m 22.41061,0.89642 0,0.1494 0,0.59762 0,0.1494 0,0 0.44821,0 0,0 0,0 0,-0.1494 0,-0.59762 0,-0.1494 0,0 -0.44821,0 0,0 m -3.88451,1.19523 0,0 0,2.98808 0,0.14941 0.1494,0 0.29881,0 0,0 0,-0.14941 0,-2.39046 c 0.19914,-0.0996 0.34854,-0.14937 0.44821,-0.14941 0.19914,4e-5 0.29874,0.0498 0.29881,0.14941 0.0995,3e-5 0.14933,0.0498 0.14941,0.1494 l 0,2.24106 0,0.14941 0,0 0.44821,0 0,0 0,-0.14941 0,-2.39046 c 0.19913,-0.0996 0.34853,-0.14937 0.44821,-0.14941 0.19913,4e-5 0.29873,0.0498 0.29881,0.14941 0.0995,3e-5 0.14933,0.0498 0.1494,0.1494 l 0,2.24106 0,0.14941 0,0 0.44822,0 0,0 0,0 0,-0.14941 0,-2.24106 c -8e-5,-0.29877 -0.0997,-0.49797 -0.29881,-0.59761 -0.0997,-0.0996 -0.19928,-0.14937 -0.29881,-0.14941 l -0.29881,0 c -0.19928,4e-5 -0.39848,0.0996 -0.59761,0.29881 -8e-5,-0.0996 -0.0499,-0.14937 -0.14941,-0.1494 -0.0997,-0.0996 -0.19928,-0.14937 -0.29881,-0.14941 l -0.29881,0 c -0.0997,4e-5 -0.24907,0.0498 -0.44821,0.14941 l 0,-0.14941 0,0 0,0 -0.29881,0 -0.1494,0 m 3.88451,0 0,0 0,2.98808 0,0.14941 0,0 0.44821,0 0,0 0,0 0,-0.14941 0,-2.98808 0,0 0,0 -0.44821,0 0,0 m 1.19523,0 0,0 0,2.98808 0,0.14941 0,0 0.29881,0 0.1494,0 0,-0.14941 0,-2.24106 c -8e-5,-0.0996 0.0497,-0.14937 0.1494,-0.1494 0.0995,-0.0996 0.24893,-0.14937 0.44822,-0.14941 0.0995,4e-5 0.14932,0.0498 0.1494,0.14941 0.0995,3e-5 0.14933,0.0498 0.1494,0.1494 l 0,2.24106 0,0.14941 0,0 0.44822,0 0,0 0,0 0,-0.14941 0,-2.24106 c -8e-5,-0.29877 -0.0499,-0.49797 -0.14941,-0.59761 -0.0997,-0.0996 -0.24908,-0.14937 -0.44821,-0.14941 l -0.1494,0 c -0.19929,4e-5 -0.34869,0.0498 -0.44822,0.14941 -7e-5,3e-5 -0.0499,3e-5 -0.1494,0 -8e-5,3e-5 -8e-5,0.0498 0,0.1494 l 0,-0.29881 0,0 -0.1494,0 -0.29881,0 0,0 m 3.43629,0 c -0.29889,4e-5 -0.54789,0.14944 -0.74702,0.44821 -0.19928,0.19925 -0.29889,0.49805 -0.29881,0.89643 l 0,0.29881 c -8e-5,0.39844 0.0995,0.74705 0.29881,1.04582 0.29873,0.29885 0.59754,0.44825 0.89642,0.44822 0.19913,3e-5 0.39833,-0.0498 0.59762,-0.14941 0.19912,-0.0996 0.29873,-0.29877 0.29881,-0.59761 l 0,0 0,0 -0.44821,0 0,0 0,0 c -8e-5,0.0996 -0.0499,0.19924 -0.14941,0.2988 -0.0997,4e-5 -0.19928,4e-5 -0.29881,0 -0.19928,4e-5 -0.34869,-0.0996 -0.44821,-0.2988 -0.0997,-0.19917 -0.14948,-0.39838 -0.1494,-0.59762 l 1.49404,0 0.1494,0 0,0 0,-0.44821 c -8e-5,-0.39838 -0.0997,-0.69718 -0.29881,-0.89643 -0.19928,-0.29877 -0.44829,-0.44817 -0.74702,-0.44821 l -0.1494,0 m -0.29881,0.74702 c 0.0995,-0.19917 0.19913,-0.29877 0.29881,-0.29881 0.19913,4e-5 0.34853,0.0996 0.44821,0.29881 0.0995,0.0996 0.14933,0.29885 0.14941,0.59762 l -1.04583,0 c -8e-5,-0.29877 0.0497,-0.49798 0.1494,-0.59762 m 2.53987,0.59762 0,10.75709 c -8e-5,0.99605 0.29873,1.89247 0.89643,2.68927 0.59753,0.69724 1.34455,1.24506 2.24106,1.64345 l 0,-1.79285 c -0.4981,-0.29879 -0.89651,-0.6474 -1.19524,-1.04583 -0.19929,-0.39839 -0.29889,-0.8964 -0.2988,-1.49404 l 0,-4.48212 0,-2.09166 0,-1.49404 0,-2.68927 -1.64345,0 m 2.39047,0.89642 0,6.87259 c -9e-5,1.39446 0.39832,2.63949 1.19523,3.7351 0.89633,1.09565 2.04176,1.79287 3.43629,2.09166 l 0,-1.64345 c -0.5977,-0.0996 -1.14552,-0.34858 -1.64344,-0.74702 -0.0997,-0.0996 -0.1993,-0.19918 -0.29881,-0.29881 -0.0997,-0.0996 -0.19929,-0.19918 -0.29881,-0.2988 -9e-5,2e-5 -9e-5,2e-5 0,0 -9e-5,2e-5 -9e-5,2e-5 0,0 -0.0997,-0.0996 -0.19929,-0.24899 -0.29881,-0.44822 -0.19929,-0.29878 -0.34869,-0.54779 -0.44821,-0.74702 -0.0997,-0.39838 -0.14949,-0.89639 -0.1494,-1.49404 l 0,-4.78093 0,-1.64344 c -0.4981,-0.29878 -0.99612,-0.49798 -1.49404,-0.59762 m 2.24106,0.59762 c -9e-5,-0.0996 -9e-5,-0.14937 0,-0.14941 -9e-5,4e-5 -0.0499,0.0498 -0.14941,0.14941 -9e-5,3e-5 -9e-5,0.0498 0,0.1494 -0.0997,4e-5 -0.14949,0.0498 -0.1494,0.14941 -9e-5,0.0996 -9e-5,0.29884 0,0.59761 -9e-5,0.0996 -9e-5,0.19924 0,0.29881 -9e-5,0.0996 -9e-5,0.19924 0,0.29881 -9e-5,3e-5 -9e-5,3e-5 0,0 -9e-5,3e-5 -9e-5,0.14944 0,0.44821 -9e-5,0.19924 -9e-5,0.34864 0,0.44821 0.0995,3e-5 0.0995,3e-5 0,0 -9e-5,3e-5 -9e-5,0.24904 0,0.74702 -9e-5,0.39844 -9e-5,0.74705 0,1.04583 0.0995,0.19924 0.14931,0.34864 0.1494,0.44821 -9e-5,3e-5 -9e-5,0.0498 0,0.14941 -9e-5,3e-5 -9e-5,0.0498 0,0.1494 -9e-5,3e-5 -9e-5,0.0498 0,0.14941 0.0995,0.0996 0.14932,0.24903 0.14941,0.44821 0.0995,0.0996 0.14931,0.14943 0.1494,0.1494 -9e-5,3e-5 -9e-5,3e-5 0,0 0.0995,3e-5 0.14932,0.0498 0.1494,0.14941 0.0995,0.0996 0.14932,0.19923 0.14941,0.2988 -9e-5,3e-5 -9e-5,3e-5 0,0 0.0995,3e-5 0.14931,0.0498 0.1494,0.14941 -9e-5,3e-5 -9e-5,3e-5 0,0 0.0995,3e-5 0.14932,0.0498 0.14941,0.1494 0.0995,3e-5 0.19911,0.0498 0.2988,0.14941 0.0995,2e-5 0.14932,2e-5 0.14941,0 l 0.1494,0.1494 c -9e-5,3e-5 -9e-5,3e-5 0,0 0.0995,3e-5 0.14932,0.0498 0.14941,0.1494 -9e-5,3e-5 -9e-5,3e-5 0,0 0.0995,3e-5 0.14931,3e-5 0.1494,0 -9e-5,3e-5 -9e-5,3e-5 0,0 0.0995,3e-5 0.14932,0.0498 0.1494,0.14941 0.0995,3e-5 0.19912,3e-5 0.29881,0 0.0995,3e-5 0.14932,0.0498 0.14941,0.1494 -9e-5,3e-5 -9e-5,3e-5 0,0 0.0995,3e-5 0.14931,3e-5 0.1494,0 -9e-5,3e-5 0.0995,0.0498 0.29881,0.14941 0.19911,2e-5 0.39832,2e-5 0.59761,0 0.19912,2e-5 0.29872,2e-5 0.29881,0 -9e-5,2e-5 0.0995,2e-5 0.29881,0 0.0995,2e-5 0.19911,2e-5 0.29881,0 0.19911,2e-5 0.39832,2e-5 0.59762,0 0.19911,2e-5 0.39831,2e-5 0.59761,0 0.69713,2e-5 1.04574,-0.0498 1.04583,-0.14941 l 0.1494,0 c -9e-5,0.0996 0.0497,0.14943 0.14941,0.14941 0.29871,-0.0996 0.44812,-0.14938 0.44821,-0.14941 0.19911,3e-5 0.29871,0.0498 0.29881,0.14941 -1e-4,2e-5 0.0497,2e-5 0.1494,0 0.19911,-0.0996 0.29871,-0.14938 0.29881,-0.14941 -1e-4,3e-5 0.0995,0.0498 0.29881,0.14941 0.29871,2e-5 0.44811,2e-5 0.44821,0 0.0995,-0.0996 0.14931,-0.0996 0.1494,0 -9e-5,2e-5 0.59752,2e-5 1.79285,0 1.29474,2e-5 1.94216,2e-5 1.94226,0 -1e-4,2e-5 0.0497,2e-5 0.1494,0 0.1991,-0.0996 0.29871,-0.14938 0.29881,-0.14941 0.0995,3e-5 0.1493,3e-5 0.1494,0 0.0995,3e-5 0.1493,3e-5 0.14941,0 l 0.1494,0 c -1e-4,3e-5 -1e-4,3e-5 0,0 0.0995,3e-5 0.1493,3e-5 0.1494,0 0.0995,3e-5 0.19911,3e-5 0.29881,0 0.0995,-0.0996 0.1493,-0.14937 0.14941,-0.1494 0.0995,3e-5 0.1493,3e-5 0.1494,0 -1e-4,3e-5 -1e-4,3e-5 0,0 0.0995,-0.0996 0.1493,-0.14938 0.1494,-0.14941 -1e-4,3e-5 -1e-4,3e-5 0,0 0.0995,3e-5 0.19911,3e-5 0.29881,0 0.0995,-0.0996 0.1493,-0.14937 0.14941,-0.1494 -1.1e-4,3e-5 -1.1e-4,3e-5 0,0 0.0995,-0.0996 0.1493,-0.14938 0.1494,-0.1494 -1e-4,2e-5 -1e-4,2e-5 0,0 0.0995,-0.0996 0.1493,-0.14938 0.1494,-0.14941 0.0995,-0.0996 0.1493,-0.14937 0.14941,-0.1494 -1.1e-4,3e-5 -1.1e-4,3e-5 0,0 -1.1e-4,3e-5 0.0497,3e-5 0.1494,0 0.0995,-0.0996 0.1493,-0.19918 0.14941,-0.29881 0.0995,-0.0996 0.1493,-0.14938 0.1494,-0.1494 -1e-4,2e-5 -1e-4,2e-5 0,0 0.0995,-0.0996 0.1493,-0.14938 0.1494,-0.14941 -1e-4,-0.0996 -1e-4,-0.14937 0,-0.1494 0.0995,-0.0996 0.1493,-0.14938 0.14941,-0.14941 -1.1e-4,-0.0996 -1.1e-4,-0.14937 0,-0.1494 -1.1e-4,3e-5 -1.1e-4,3e-5 0,0 -1.1e-4,3e-5 -1.1e-4,3e-5 0,0 0.0995,-0.0996 0.1493,-0.19918 0.1494,-0.29881 0.0995,-0.19917 0.1493,-0.29878 0.14941,-0.29881 -1.1e-4,-0.0996 -1.1e-4,-0.14937 0,-0.1494 -1.1e-4,-0.0996 -1.1e-4,-0.19918 0,-0.29881 -1.1e-4,-0.19917 -1.1e-4,-0.29878 0,-0.29881 -1.1e-4,3e-5 -1.1e-4,3e-5 0,0 -1.1e-4,-0.0996 -1.1e-4,-0.24897 0,-0.44821 -1.1e-4,3e-5 -1.1e-4,3e-5 0,0 -1.1e-4,-0.0996 -1.1e-4,-0.14937 0,-0.1494 -1.1e-4,-0.0996 -1.1e-4,-0.14938 0,-0.14941 -1.1e-4,3e-5 -1.1e-4,-0.14937 0,-0.44821 -1.1e-4,-0.39838 -1.1e-4,-0.64738 0,-0.74702 -1.1e-4,-0.0996 -0.0499,-0.14937 -0.14941,-0.1494 -1e-4,-0.0996 -0.0499,-0.14937 -0.1494,-0.14941 -1.1e-4,-0.0996 -1.1e-4,-0.14937 0,-0.1494 -1.1e-4,3e-5 -1.1e-4,0.19924 0,0.59762 -1.1e-4,0.29883 -1.1e-4,0.44824 0,0.44821 -1.1e-4,3e-5 -1.1e-4,0.0498 0,0.1494 -1.1e-4,3e-5 -1.1e-4,0.0498 0,0.14941 -1.1e-4,0.0996 -1.1e-4,0.14943 0,0.1494 -1.1e-4,3e-5 -1.1e-4,0.19924 0,0.59762 -1.1e-4,0.29883 -1.1e-4,0.44824 0,0.44821 -1.1e-4,3e-5 -1.1e-4,0.0498 0,0.1494 -1.1e-4,3e-5 -1.1e-4,0.0498 0,0.14941 -1.1e-4,3e-5 -0.0499,0.0996 -0.14941,0.2988 -1e-4,0.0996 -0.0499,0.19924 -0.1494,0.29881 -1e-4,3e-5 -1e-4,3e-5 0,0 -1e-4,3e-5 -1e-4,0.0498 0,0.14941 -1e-4,2e-5 -1e-4,0.0498 0,0.1494 -1e-4,3e-5 -0.0499,3e-5 -0.1494,0 -1.1e-4,3e-5 -1.1e-4,0.0498 0,0.1494 -1.1e-4,3e-5 -0.0499,0.0498 -0.14941,0.14941 -1e-4,3e-5 -1e-4,0.0498 0,0.1494 -1e-4,3e-5 -0.0499,0.0498 -0.1494,0.14941 -1.1e-4,2e-5 -1.1e-4,2e-5 0,0 -1.1e-4,2e-5 -0.0499,0.0498 -0.14941,0.1494 -0.0997,0.0996 -0.1495,0.14943 -0.1494,0.1494 -1e-4,3e-5 -0.0499,3e-5 -0.1494,0 -1.1e-4,3e-5 -0.0499,0.0498 -0.14941,0.14941 -1e-4,3e-5 -0.0499,3e-5 -0.1494,0 -1e-4,3e-5 -1e-4,0.0498 0,0.1494 -1e-4,3e-5 -0.0499,3e-5 -0.14941,0 -1e-4,3e-5 -1e-4,3e-5 0,0 -1e-4,3e-5 -0.0499,3e-5 -0.1494,0 l -0.1494,0.14941 c -1.1e-4,2e-5 -0.0499,0.0498 -0.14941,0.1494 -10e-5,3e-5 -0.0499,3e-5 -0.1494,0 -1e-4,3e-5 -0.0499,3e-5 -0.14941,0 -10e-5,3e-5 -0.0499,3e-5 -0.1494,0 -0.0997,3e-5 -0.19931,3e-5 -0.29881,0 -1e-4,0.0996 -0.0499,0.14943 -0.1494,0.1494 -0.0997,-0.0996 -0.14951,-0.0996 -0.14941,0 -1e-4,3e-5 -0.54791,3e-5 -1.64344,0 -1.19533,3e-5 -1.84275,3e-5 -1.94225,0 -0.19931,3e-5 -0.29891,3e-5 -0.29881,0 -1e-4,3e-5 -0.0499,3e-5 -0.14941,0 -0.0997,3e-5 -0.1495,3e-5 -0.1494,0 -10e-5,3e-5 -0.0499,3e-5 -0.1494,0 -0.0997,3e-5 -0.19931,3e-5 -0.29881,0 -1e-4,3e-5 -0.0499,3e-5 -0.14941,0 -9e-5,3e-5 -9e-5,3e-5 0,0 -9e-5,3e-5 -9e-5,3e-5 0,0 -0.0997,3e-5 -0.3487,3e-5 -0.74702,0 -0.1993,3e-5 -0.3985,3e-5 -0.59761,0 l -0.29881,0 c -9e-5,3e-5 -0.0997,3e-5 -0.29881,0 -0.0997,3e-5 -0.1993,3e-5 -0.29881,0 -0.19929,3e-5 -0.3487,3e-5 -0.44821,0 -9e-5,3e-5 -0.1993,3e-5 -0.59761,0 -0.39851,3e-5 -0.59771,3e-5 -0.59762,0 -9e-5,3e-5 -9e-5,3e-5 0,0 -9e-5,3e-5 -0.1993,3e-5 -0.59762,0 -0.2989,3e-5 -0.4981,3e-5 -0.59761,0 -9e-5,3e-5 -0.0499,-0.0498 -0.14941,-0.1494 -0.0997,3e-5 -0.14949,3e-5 -0.1494,0 -0.0997,3e-5 -0.1993,3e-5 -0.29881,0 -0.0997,3e-5 -0.14949,3e-5 -0.1494,0 -9e-5,-0.0996 -0.0499,-0.14938 -0.14941,-0.1494 -9e-5,2e-5 -9e-5,2e-5 0,0 -9e-5,2e-5 -0.0499,2e-5 -0.1494,0 -9e-5,2e-5 -9e-5,2e-5 0,0 -9e-5,2e-5 -0.0499,2e-5 -0.14941,0 -8e-5,-0.0996 -8e-5,-0.14938 0,-0.14941 -8e-5,3e-5 -0.0499,3e-5 -0.1494,0 -9e-5,3e-5 -0.0997,-0.0498 -0.29881,-0.1494 -0.19929,-0.0996 -0.3487,-0.19918 -0.44821,-0.29881 l -0.1494,-0.29881 c -0.0997,-0.0996 -0.1495,-0.14937 -0.14941,-0.1494 -9e-5,3e-5 -9e-5,3e-5 0,0 -9e-5,-0.0996 -9e-5,-0.14938 0,-0.14941 -9e-5,3e-5 -0.0499,3e-5 -0.1494,0 -9e-5,-0.0996 -9e-5,-0.14937 0,-0.1494 -9e-5,3e-5 -0.0499,3e-5 -0.14941,0 -8e-5,-0.0996 -8e-5,-0.14938 0,-0.1494 -8e-5,-0.0996 -8e-5,-0.14938 0,-0.14941 -8e-5,-0.0996 -0.0499,-0.14937 -0.1494,-0.1494 -9e-5,-0.0996 -9e-5,-0.14938 0,-0.14941 -9e-5,3e-5 -9e-5,3e-5 0,0 -9e-5,-0.0996 -9e-5,-0.14937 0,-0.1494 -9e-5,3e-5 -9e-5,-0.0498 0,-0.1494 -9e-5,-0.19918 -9e-5,-0.29878 0,-0.29881 -9e-5,3e-5 -9e-5,-0.49799 0,-1.49404 l 0,-1.79285 c -9e-5,3e-5 -9e-5,-0.0498 0,-0.1494 -9e-5,-0.0996 -9e-5,-0.14938 0,-0.14941 -9e-5,-0.0996 -9e-5,-0.14937 0,-0.1494 -9e-5,-0.0996 -9e-5,-0.14937 0,-0.14941 -9e-5,-0.0996 -0.0499,-0.14937 -0.1494,-0.1494 -9e-5,3e-5 -9e-5,3e-5 0,0 m -5.97617,1.49404 c -0.29888,0.0996 -0.54789,0.19924 -0.74702,0.29881 l 0,12.84874 1.49404,0 0,-12.84874 c -0.0997,-0.0996 -0.34869,-0.19918 -0.74702,-0.29881 m -10.15947,0 0,2.53987 c -7e-5,1.29486 0.29874,2.44029 0.89642,3.43629 0.59755,0.89645 1.34457,1.59367 2.24107,2.09166 l 0,-1.64345 c -0.39849,-0.29878 -0.7471,-0.74699 -1.04583,-1.34463 -0.29888,-0.69719 -0.44829,-1.54382 -0.44822,-2.53987 l 0,-1.04583 1.49405,0 0,-0.29881 c -8e-5,-0.0996 -8e-5,-0.24897 0,-0.44821 -8e-5,-0.29878 -0.0499,-0.54778 -0.14941,-0.74702 l -2.98808,0 m 3.5857,0 0,6.42437 0.74702,0 0,-6.42437 -0.74702,0 m 1.19523,0 0,10.75709 c -8e-5,0.99605 0.29873,1.89247 0.89642,2.68927 0.59754,0.79684 1.34456,1.34466 2.24106,1.64345 l 0,-1.64345 c -0.49809,-0.39839 -0.8965,-0.7968 -1.19523,-1.19523 -0.19928,-0.39839 -0.29888,-0.8964 -0.29881,-1.49404 l 0,-4.48212 0,-1.94225 0,-1.64345 0,-2.68927 -1.64344,0 m 2.39046,0 0,11.95232 0.14941,-0.1494 c 0.19912,-0.0996 0.39833,-0.19919 0.59761,-0.29881 0.29873,-0.0996 0.59754,-0.24899 0.89643,-0.44821 l 0,-10.15948 c -0.49809,-0.39838 -1.04591,-0.69718 -1.64345,-0.89642 m -4.63152,1.94225 0,1.34464 0.59762,0 0,-1.34464 -0.59762,0 m -11.50411,0.59762 0,14.791 1.49404,0 0,-14.791 -1.49404,0 m 2.09165,0 0,14.791 1.79285,0 0,-14.791 -1.79285,0 m 2.39047,0 0,14.791 1.49404,0 0,-14.6416 0,0 0,-0.1494 -1.49404,0 m 2.24106,1.34463 0,13.44637 1.49404,0 0,-12.54994 c -0.59769,-0.49799 -1.0957,-0.79679 -1.49404,-0.89643 m 5.82676,2.98808 0,6.27497 0.74702,0 0,-6.27497 -0.74702,0 m -2.09166,0.44822 c -0.59769,0.19923 -1.1455,0.44823 -1.64344,0.74702 l 0,3.43629 1.64344,0 0,-4.18331 0,0 m 1.64345,2.68927 c -8e-5,-0.0996 -0.0499,-0.14938 -0.14941,-0.1494 -7e-5,2e-5 -0.0499,0.0498 -0.1494,0.1494 -8e-5,0.0996 -8e-5,0.14943 0,0.1494 -8e-5,3e-5 -8e-5,0.0996 0,0.29881 -8e-5,0.29883 -8e-5,0.44824 0,0.44821 -8e-5,0.19923 -8e-5,0.34863 0,0.44822 -8e-5,0.0996 -8e-5,0.24902 0,0.44821 -8e-5,0.0996 -8e-5,0.19922 0,0.29881 -8e-5,2e-5 -8e-5,0.19922 0,0.59761 -8e-5,0.29883 -8e-5,0.44823 0,0.44821 -8e-5,2e-5 -8e-5,0.0996 0,0.29881 l 0,0.14941 c -8e-5,0.0996 -8e-5,0.24902 0,0.44821 -8e-5,0.29882 -8e-5,0.49803 0,0.59761 -8e-5,2e-5 -8e-5,0.0498 0,0.14941 -8e-5,2e-5 -8e-5,0.0498 0,0.1494 -8e-5,2e-5 -8e-5,0.0498 0,0.14941 0.0995,1e-5 0.14933,0.0498 0.1494,0.1494 -7e-5,2e-5 -7e-5,0.0498 0,0.1494 0.0995,0.0996 0.14933,0.14943 0.14941,0.14941 -8e-5,2e-5 0.0497,0.0498 0.1494,0.1494 -8e-5,0.0996 -8e-5,0.14942 0,0.14941 -8e-5,10e-6 -8e-5,10e-6 0,0 -8e-5,10e-6 -8e-5,10e-6 0,0 l 0,0 c -8e-5,0.0996 0.0497,0.19922 0.1494,0.2988 0.19913,0.0996 0.29874,0.19923 0.29881,0.29881 0.0995,2e-5 0.14933,0.0498 0.14941,0.14941 0.0995,10e-6 0.14932,10e-6 0.1494,0 0.0995,10e-6 0.19913,0.0498 0.29881,0.1494 0.0995,2e-5 0.14933,0.0498 0.1494,0.14941 -7e-5,10e-6 -7e-5,10e-6 0,0 0.0995,10e-6 0.14933,10e-6 0.14941,0 0.0995,10e-6 0.19912,10e-6 0.2988,0 0.0995,10e-6 0.14933,10e-6 0.14941,0 -8e-5,10e-6 -8e-5,0.0498 0,0.1494 -8e-5,1e-5 0.0497,1e-5 0.1494,0 0.19913,1e-5 0.34853,1e-5 0.44821,0 0.0995,1e-5 0.19913,1e-5 0.29881,0 0.0995,1e-5 0.14933,1e-5 0.14941,0 0.0995,1e-5 0.14932,1e-5 0.1494,0 -8e-5,1e-5 0.0995,1e-5 0.29881,0 0.0995,1e-5 0.19913,1e-5 0.29881,0 0.0995,1e-5 0.14932,1e-5 0.1494,0 -8e-5,1e-5 0.24893,1e-5 0.74702,0 0.59754,1e-5 1.39436,1e-5 2.39046,0 1.09555,1e-5 1.64337,1e-5 1.64345,0 0.0995,1e-5 0.14932,1e-5 0.1494,0 -8e-5,1e-5 -8e-5,1e-5 0,0 -8e-5,1e-5 0.14932,1e-5 0.44822,0 0.39832,1e-5 0.59753,1e-5 0.59761,0 0.0995,1e-5 0.14932,1e-5 0.14941,0 -9e-5,1e-5 0.0995,1e-5 0.2988,0 0.0995,1e-5 0.19912,1e-5 0.29881,0 -8e-5,1e-5 0.14932,1e-5 0.44821,0 0.29873,1e-5 0.54773,1e-5 0.74702,0 0.19912,1e-5 0.34853,1e-5 0.44822,0 0.19911,-0.0996 0.29872,-0.14939 0.2988,-0.1494 -8e-5,10e-6 -8e-5,10e-6 0,0 0.0995,10e-6 0.14932,10e-6 0.14941,0 0.0995,-0.0996 0.19912,-0.14939 0.29881,-0.14941 0.0995,2e-5 0.14931,2e-5 0.1494,0 0.0995,-0.0996 0.14932,-0.14939 0.1494,-0.1494 -8e-5,-0.0996 -8e-5,-0.0996 0,0 0.0995,10e-6 0.14932,10e-6 0.14941,0 0.0995,-0.0996 0.14931,-0.14939 0.1494,-0.14941 0.0995,-0.0996 0.14932,-0.14939 0.14941,-0.1494 -9e-5,10e-6 -9e-5,10e-6 0,0 0.0995,-0.0996 0.14931,-0.19919 0.1494,-0.29881 0.0995,-0.0996 0.14932,-0.14939 0.1494,-0.1494 0.0995,-0.0996 0.14932,-0.19919 0.14941,-0.29881 0.0995,-0.19919 0.19912,-0.29879 0.29881,-0.29881 -9e-5,-0.0996 -9e-5,-0.14939 0,-0.1494 -9e-5,1e-5 -9e-5,1e-5 0,0 -9e-5,1e-5 -9e-5,1e-5 0,0 -9e-5,-0.0996 -9e-5,-0.14939 0,-0.14941 -9e-5,2e-5 -9e-5,2e-5 0,0 -9e-5,-0.0996 -9e-5,-0.19919 0,-0.29881 0.0995,-0.19918 0.14931,-0.29879 0.1494,-0.2988 -9e-5,-0.0996 -9e-5,-0.19919 0,-0.29881 -9e-5,-0.0996 -9e-5,-0.14939 0,-0.14941 -9e-5,2e-5 -9e-5,2e-5 0,0 -9e-5,2e-5 -9e-5,2e-5 0,0 -9e-5,-0.0996 -9e-5,-0.34859 0,-0.74702 -9e-5,-0.0996 -9e-5,-0.24898 0,-0.44821 -9e-5,-0.29879 -9e-5,-0.49799 0,-0.59761 -9e-5,-0.39839 -0.0499,-0.5976 -0.1494,-0.59762 -9e-5,-0.0996 -9e-5,-0.14938 0,-0.1494 -9e-5,-0.0996 -0.0499,-0.14939 -0.14941,-0.14941 -9e-5,2e-5 -9e-5,2e-5 0,0 -9e-5,2e-5 -9e-5,0.14943 0,0.44821 -9e-5,0.19923 -9e-5,0.34863 0,0.44822 -9e-5,0.0996 -9e-5,0.19922 0,0.2988 -9e-5,2e-5 -9e-5,2e-5 0,0 -9e-5,2e-5 -9e-5,0.0498 0,0.14941 -9e-5,2e-5 -9e-5,0.0996 0,0.29881 -9e-5,2e-5 -9e-5,0.0996 0,0.2988 -9e-5,0.0996 -9e-5,0.19923 0,0.29881 -9e-5,0.0996 -9e-5,0.19923 0,0.29881 -9e-5,2e-5 -9e-5,2e-5 0,0 -9e-5,2e-5 -9e-5,2e-5 0,0 -9e-5,2e-5 -9e-5,0.0996 0,0.29881 -9e-5,0.0996 -9e-5,0.19922 0,0.29881 -9e-5,10e-6 -9e-5,10e-6 0,0 -9e-5,10e-6 -0.0499,0.0498 -0.1494,0.1494 -9e-5,0.0996 -9e-5,0.24902 0,0.44821 -9e-5,0.0996 -0.0499,0.24903 -0.14941,0.44821 -0.0997,0.0996 -0.14949,0.14943 -0.1494,0.14941 -9e-5,2e-5 -0.0499,0.0498 -0.1494,0.1494 -9e-5,2e-5 -9e-5,2e-5 0,0 -9e-5,2e-5 -9e-5,0.0498 0,0.14941 -9e-5,10e-6 -0.0499,10e-6 -0.14941,0 -9e-5,10e-6 -9e-5,10e-6 0,0 -9e-5,10e-6 -9e-5,0.0498 0,0.1494 -9e-5,2e-5 -0.0499,0.0498 -0.1494,0.1494 -9e-5,2e-5 -9e-5,2e-5 0,0 -9e-5,2e-5 -0.0499,0.0498 -0.14941,0.14941 -8e-5,10e-6 -0.0499,10e-6 -0.1494,0 -9e-5,10e-6 -9e-5,10e-6 0,0 -9e-5,10e-6 -0.0499,10e-6 -0.1494,0 -9e-5,10e-6 -9e-5,0.0498 0,0.1494 -9e-5,2e-5 -0.0499,2e-5 -0.14941,0 -0.0997,2e-5 -0.19929,0.0498 -0.29881,0.14941 -8e-5,10e-6 -0.0499,10e-6 -0.1494,0 -9e-5,10e-6 -9e-5,10e-6 0,0 -9e-5,10e-6 -0.0499,10e-6 -0.1494,0 -9e-5,10e-6 -9e-5,10e-6 0,0 -9e-5,10e-6 -0.0499,10e-6 -0.14941,0 -8e-5,10e-6 -0.0997,0.0498 -0.29881,0.1494 -0.0997,2e-5 -0.6475,2e-5 -1.64344,0 -0.19929,2e-5 -0.4483,2e-5 -0.74702,0 -0.19929,2e-5 -0.34869,2e-5 -0.44821,0 -0.0997,2e-5 -0.14949,2e-5 -0.14941,0 l -0.44821,0 c -0.0997,2e-5 -0.34869,2e-5 -0.74702,0 -0.29889,2e-5 -0.5977,2e-5 -0.89642,0 -0.29889,2e-5 -0.4981,2e-5 -0.59762,0 -8e-5,2e-5 -0.0499,2e-5 -0.1494,0 -0.0997,2e-5 -0.14949,2e-5 -0.14941,0 -8e-5,2e-5 -8e-5,2e-5 0,0 -8e-5,2e-5 -0.0997,2e-5 -0.29881,0 -0.19928,2e-5 -0.34868,2e-5 -0.44821,0 -8e-5,2e-5 -0.0499,2e-5 -0.1494,0 -0.0997,2e-5 -0.24909,2e-5 -0.44821,0 -0.0997,2e-5 -0.29889,2e-5 -0.59762,0 -0.19928,2e-5 -0.49809,2e-5 -0.89642,0 -0.29889,2e-5 -0.49809,2e-5 -0.59762,0 -0.0997,2e-5 -0.19928,2e-5 -0.29881,0 -7e-5,-0.0996 -0.0499,-0.14939 -0.1494,-0.1494 -0.0997,10e-6 -0.14948,10e-6 -0.14941,0 -7e-5,-0.0996 -0.0499,-0.14939 -0.1494,-0.14941 -0.0997,2e-5 -0.14948,2e-5 -0.1494,0 l -0.14941,0 c -7e-5,2e-5 -0.0499,-0.0498 -0.1494,-0.1494 -0.19928,-0.0996 -0.29889,-0.14939 -0.29881,-0.14941 -8e-5,2e-5 -0.0499,-0.0498 -0.1494,-0.1494 l -0.14941,-0.1494 c -7e-5,10e-6 -7e-5,10e-6 0,0 -7e-5,-0.0996 -0.0499,-0.14939 -0.1494,-0.14941 -8e-5,2e-5 -8e-5,2e-5 0,0 -8e-5,-0.0996 -0.0499,-0.14938 -0.14941,-0.1494 -7e-5,-0.0996 -7e-5,-0.14939 0,-0.14941 -7e-5,2e-5 -7e-5,2e-5 0,0 -7e-5,-0.0996 -0.0499,-0.14938 -0.1494,-0.1494 -8e-5,-0.0996 -0.0499,-0.19919 -0.1494,-0.29881 -8e-5,-0.19919 -8e-5,-0.29879 0,-0.29881 -8e-5,2e-5 -8e-5,2e-5 0,0 -8e-5,-0.0996 -8e-5,-0.14938 0,-0.1494 -8e-5,2e-5 -8e-5,2e-5 0,0 -8e-5,-0.0996 -8e-5,-0.14939 0,-0.1494 -8e-5,-0.0996 -8e-5,-0.24899 0,-0.44822 -8e-5,2e-5 -8e-5,2e-5 0,0 -8e-5,-0.0996 -0.0499,-0.14938 -0.14941,-0.1494 -7e-5,-0.0996 -7e-5,-0.14939 0,-0.1494 -7e-5,1e-5 -7e-5,1e-5 0,0 l 0,0 c 0.0995,1e-5 0.14933,-0.5976 0.14941,-1.79285 -8e-5,-0.49799 -8e-5,-1.09561 0,-1.79285 m 5.52794,3.5857 2.83868,0 0,1.64344 -2.83868,0 0,-1.64344 m 3.4363,0 1.79285,0 0,1.64344 -1.79285,0 0,-1.64344"
         style="font-size:611.95892334px;fill:#ffffff;fill-opacity:1"
         id="path3827"
         inkscape:connector-curvature="0" />
    </g>
  </g>
  <g
     inkscape:groupmode="layer"
     id="layer4"
     inkscape:label="3"
     style="display:inline">
    <text
       xml:space="preserve"
       style="font-size:24px;font-style:normal;font-variant:normal;font-weight:normal;font-stretch:normal;text-align:start;line-height:125%;letter-spacing:0px;word-spacing:0px;writing-mode:lr-tb;text-anchor:start;fill:#000000;fill-opacity:1;stroke:none;font-family:Ume P Gothic Balsa;-inkscape-font-specification:Ume P Gothic Balsa"
       x="394.51358"
       y="311.27084"
       id="text3849"
       sodipodi:linespacing="125%"><tspan
         sodipodi:role="line"
         id="tspan3851"
         x="394.51358"
         y="311.27084"
         style="font-size:56px;fill:#ffffff;fill-opacity:1">OK. Let's try</tspan><tspan
         sodipodi:role="line"
         x="394.51358"
         y="381.27084"
         style="font-size:56px;fill:#ffffff;fill-opacity:1"
         id="tspan3853">HTML+CSS</tspan></text>
    <path
       style="fill:none;stroke:#ffffff;stroke-width:1.60000002;stroke-linecap:butt;stroke-linejoin:miter;stroke-miterlimit:4;stroke-opacity:1;stroke-dasharray:none"
       d="m 399.42594,408.34356 187.98861,0 31.89045,43.55828 -12.68834,-43.55828 78.42541,0"
       id="path3855"
       inkscape:path-effect="#path-effect3857"
       inkscape:original-d="m 399.42594,408.34356 187.98861,0 31.89045,43.55828 -12.68834,-43.55828 c 0,0 75.93637,51.02541 78.42541,0"
       inkscape:connector-curvature="0"
       sodipodi:nodetypes="ccccc" />
    <text
       sodipodi:linespacing="125%"
       id="text3859"
       y="494.21564"
       x="113.25153"
       style="font-size:24px;font-style:normal;font-variant:normal;font-weight:normal;font-stretch:normal;text-align:start;line-height:125%;letter-spacing:0px;word-spacing:0px;writing-mode:lr-tb;text-anchor:start;fill:#000000;fill-opacity:1;stroke:none;font-family:Ume P Gothic Balsa;-inkscape-font-specification:Ume P Gothic Balsa"
       xml:space="preserve"><tspan
         id="tspan3863"
         style="font-size:56px;fill:#ffffff;fill-opacity:1"
         y="494.21564"
         x="113.25153"
         sodipodi:role="line">Finally.</tspan></text>
    <path
       sodipodi:nodetypes="ccccc"
       inkscape:connector-curvature="0"
       inkscape:original-d="m 275.45022,523.89064 -112.98861,0 -31.89045,43.55828 12.68834,-43.55828 c 0,0 -31.93637,51.02541 -34.42541,0"
       inkscape:path-effect="#path-effect3873"
       id="path3871"
       d="m 275.45022,523.89064 -112.98861,0 -31.89045,43.55828 12.68834,-43.55828 -34.42541,0"
       style="fill:none;stroke:#ffffff;stroke-width:1.60000002;stroke-linecap:butt;stroke-linejoin:miter;stroke-miterlimit:4;stroke-opacity:1;stroke-dasharray:none" />
  </g>
  <g
     inkscape:groupmode="layer"
     id="layer3"
     inkscape:label="4"
     style="display:none">
    <flowRoot
       xml:space="preserve"
       id="flowRoot3830"
       style="font-size:24px;font-style:normal;font-variant:normal;font-weight:normal;font-stretch:normal;text-align:start;line-height:125%;letter-spacing:0px;word-spacing:0px;writing-mode:lr-tb;text-anchor:start;fill:#ffffff;fill-opacity:1;stroke:none;font-family:Ume P Gothic Balsa;-inkscape-font-specification:Ume P Gothic Balsa"
       transform="translate(-22.401402,-31.113059)"><flowRegion
         id="flowRegion3832"><rect
           id="rect3834"
           width="82.138474"
           height="52.269939"
           x="104.53988"
           y="113.39176"
           style="fill:#ffffff;fill-opacity:1" /></flowRegion><flowPara
         id="flowPara3836">Problesm to sold</flowPara></flowRoot>    <text
       xml:space="preserve"
       style="font-size:18.52729607px;font-style:normal;font-variant:normal;font-weight:normal;font-stretch:normal;text-align:start;line-height:100%;letter-spacing:0px;word-spacing:0px;writing-mode:lr-tb;text-anchor:start;fill:#000000;fill-opacity:1;stroke:none;font-family:Ume P Gothic Balsa;-inkscape-font-specification:Ume P Gothic Balsa"
       x="120.41384"
       y="142.59549"
       id="text3838"
       sodipodi:linespacing="100%"><tspan
         sodipodi:role="line"
         id="tspan3840"
         x="120.41384"
         y="142.59549"
         style="font-size:55.58189011px;line-height:100%;letter-spacing:0px;fill:#ffffff;fill-opacity:1">      Issues to solve</tspan><tspan
         sodipodi:role="line"
         x="120.41384"
         y="187.61162"
         style="font-size:43.23036194px;line-height:100%;letter-spacing:0px;fill:#ffffff;fill-opacity:1"
         id="tspan3844">  - Text flow : ok <tspan
   style="font-size:27.79094505px;letter-spacing:0px"
   id="tspan3956">with CSS Regions</tspan></tspan><tspan
         sodipodi:role="line"
         x="120.41384"
         y="230.84198"
         style="font-size:43.23036194px;line-height:100%;letter-spacing:0px;fill:#ffffff;fill-opacity:1"
         id="tspan3946"> - PDF output : ok <tspan
   style="font-size:27.79094505px;letter-spacing:0px"
   id="tspan3958">with Webkit</tspan></tspan><tspan
         sodipodi:role="line"
         x="120.41384"
         y="274.07233"
         style="font-size:43.23036194px;line-height:100%;letter-spacing:0px;fill:#ffffff;fill-opacity:1"
         id="tspan3948">- Hi res images : ok </tspan><tspan
         sodipodi:role="line"
         x="120.41384"
         y="317.3027"
         style="font-size:43.23036194px;line-height:100%;letter-spacing:0px;fill:#ffffff;fill-opacity:1"
         id="tspan3950">- Pagination : <tspan
   style="font-size:27.79094505px;letter-spacing:0px"
   id="tspan3972">+/-</tspan>ok <tspan
   style="font-size:27.79094505px;letter-spacing:0px"
   id="tspan3960">with different </tspan></tspan><tspan
         sodipodi:role="line"
         x="120.41384"
         y="360.53305"
         style="font-size:43.23036194px;line-height:100%;letter-spacing:0px;fill:#ffffff;fill-opacity:1"
         id="tspan3952"> - Images flow : is standard!    </tspan><tspan
         sodipodi:role="line"
         x="120.41384"
         y="403.76343"
         style="font-size:43.23036194px;line-height:100%;letter-spacing:0px;fill:#ffffff;fill-opacity:1"
         id="tspan3966">  - CMYK images : ok<tspan
   style="font-size:27.79094505px;letter-spacing:0px"
   id="tspan3962"> with different</tspan></tspan></text>
    <text
       sodipodi:linespacing="100%"
       id="text3974"
       y="462.52893"
       x="195.76096"
       style="font-size:21.27986526px;font-style:normal;font-variant:normal;font-weight:normal;font-stretch:normal;text-align:start;line-height:100%;letter-spacing:0px;word-spacing:0px;writing-mode:lr-tb;text-anchor:start;fill:#000000;fill-opacity:1;stroke:none;font-family:Ume P Gothic Balsa;-inkscape-font-specification:Ume P Gothic Balsa"
       xml:space="preserve"><tspan
         id="tspan3996"
         style="font-size:31.9197998px;line-height:100%;fill:#ffffff;fill-opacity:1"
         y="462.52893"
         x="195.76096"
         sodipodi:role="line">+ CSS flex seems not to output</tspan><tspan
         style="font-size:31.9197998px;line-height:100%;fill:#ffffff;fill-opacity:1"
         y="494.44873"
         x="195.76096"
         sodipodi:role="line"
         id="tspan4048">+ CSS shadows (to make blurs)</tspan><tspan
         style="font-size:31.9197998px;line-height:100%;fill:#ffffff;fill-opacity:1"
         y="526.36853"
         x="195.76096"
         sodipodi:role="line"
         id="tspan4147">        output (or not) </tspan></text>
    <text
       xml:space="preserve"
       style="font-size:18.52729607px;font-style:normal;font-variant:normal;font-weight:normal;font-stretch:normal;text-align:start;line-height:100%;letter-spacing:0px;word-spacing:0px;writing-mode:lr-tb;text-anchor:start;fill:#000000;fill-opacity:1;stroke:none;font-family:Ume P Gothic Balsa;-inkscape-font-specification:Ume P Gothic Balsa"
       x="530.9361"
       y="471.70761"
       id="text4040"
       sodipodi:linespacing="100%"
       transform="matrix(0.96397731,-0.26598447,0.26598447,0.96397731,0,0)"
       inkscape:transform-center-x="-10.037322"
       inkscape:transform-center-y="21.253497"><tspan
         sodipodi:role="line"
         x="530.9361"
         y="471.70761"
         style="font-size:27.79094315px;line-height:100%;fill:#ffffff;fill-opacity:1"
         id="tspan4042">hacks</tspan></text>
    <text
       sodipodi:linespacing="100%"
       id="text4044"
       y="428.84372"
       x="467.23911"
       style="font-size:18.52729607px;font-style:normal;font-variant:normal;font-weight:normal;font-stretch:normal;text-align:start;line-height:100%;letter-spacing:0px;word-spacing:0px;writing-mode:lr-tb;text-anchor:start;fill:#000000;fill-opacity:1;stroke:none;font-family:Ume P Gothic Balsa;-inkscape-font-specification:Ume P Gothic Balsa"
       xml:space="preserve"><tspan
         id="tspan4046"
         style="font-size:27.79094505px;line-height:100%;fill:#ffffff;fill-opacity:1"
         y="428.84372"
         x="467.23911"
         sodipodi:role="line">tools possible</tspan></text>
    <text
       inkscape:transform-center-y="21.253506"
       inkscape:transform-center-x="-10.037339"
       transform="matrix(0.96397731,-0.26598447,0.26598447,0.96397731,0,0)"
       sodipodi:linespacing="100%"
       id="text4050"
       y="374.51611"
       x="528.5412"
       style="font-size:18.52729607px;font-style:normal;font-variant:normal;font-weight:normal;font-stretch:normal;text-align:start;line-height:100%;letter-spacing:0px;word-spacing:0px;writing-mode:lr-tb;text-anchor:start;fill:#000000;fill-opacity:1;stroke:none;font-family:Ume P Gothic Balsa;-inkscape-font-specification:Ume P Gothic Balsa"
       xml:space="preserve"><tspan
         id="tspan4052"
         style="font-size:27.79094315px;line-height:100%;fill:#ffffff;fill-opacity:1"
         y="374.51611"
         x="528.5412"
         sodipodi:role="line">or</tspan></text>
    <text
       xml:space="preserve"
       style="font-size:18.52729607px;font-style:normal;font-variant:normal;font-weight:normal;font-stretch:normal;text-align:start;line-height:100%;letter-spacing:0px;word-spacing:0px;writing-mode:lr-tb;text-anchor:start;fill:#000000;fill-opacity:1;stroke:none;font-family:Ume P Gothic Balsa;-inkscape-font-specification:Ume P Gothic Balsa"
       x="630.58435"
       y="158.45903"
       id="text4054"
       sodipodi:linespacing="100%"
       transform="matrix(0.99083797,0.135056,-0.135056,0.99083797,0,0)"
       inkscape:transform-center-x="-0.73875628"
       inkscape:transform-center-y="23.921644"><tspan
         sodipodi:role="line"
         x="630.58435"
         y="158.45903"
         style="font-size:27.79094696px;line-height:100%;fill:#ffffff;fill-opacity:1"
         id="tspan4056">Blink</tspan></text>
    <flowRoot
       xml:space="preserve"
       id="flowRoot3875-5"
       style="font-size:24px;font-style:normal;font-variant:normal;font-weight:normal;font-stretch:normal;text-align:start;line-height:125%;letter-spacing:0px;word-spacing:0px;writing-mode:lr-tb;text-anchor:start;fill:#000000;fill-opacity:1;stroke:none;display:inline;font-family:Ume P Gothic Balsa;-inkscape-font-specification:Ume P Gothic Balsa"
       transform="matrix(0.88666106,0,0,0.88666106,807.44948,144.19931)"><flowRegion
         id="flowRegion3877-8"><rect
           id="rect3879-1"
           width="211.5688"
           height="149.34268"
           x="-169.25504"
           y="428.25592" /></flowRegion><flowPara
         style="line-height:89.99999762%;fill:#ffffff"
         id="flowPara3944-2">Mmmmmm</flowPara></flowRoot>    <path
       sodipodi:nodetypes="ccccc"
       inkscape:connector-curvature="0"
       inkscape:original-d="m 660.24252,550.18669 64.29034,0 16.37229,19.46456 -5.44632,-19.46456 c 0,0 18.17175,29.03332 19.58801,0"
       inkscape:path-effect="#path-effect3873-7-6"
       id="path3871-0-8"
       d="m 660.24252,550.18669 64.29034,0 16.37229,19.46456 -5.44632,-19.46456 19.58801,0"
       style="fill:none;stroke:#ffffff;stroke-width:0.91039753;stroke-linecap:butt;stroke-linejoin:miter;stroke-miterlimit:4;stroke-opacity:1;stroke-dasharray:none;display:inline" />
    <path
       sodipodi:type="arc"
       style="fill:none;stroke:#ffffff;stroke-width:3.0999999;stroke-linecap:round;stroke-linejoin:round;stroke-miterlimit:4;stroke-opacity:1;stroke-dasharray:none;stroke-dashoffset:0"
       id="path4149"
       sodipodi:cx="368.3786"
       sodipodi:cy="305.67047"
       sodipodi:rx="301.17441"
       sodipodi:ry="263.21649"
       d="M 669.45395,312.42104 A 301.17441,263.21649 0 0 1 238.85729,543.30313"
       sodipodi:start="0.025649261"
       sodipodi:end="2.0153491"
       sodipodi:open="true"
       transform="matrix(0.75062322,0,0,0.75062322,199.65006,143.86029)" />
    <path
       transform="matrix(0.75062322,0,0,0.75062322,34.129639,26.892519)"
       sodipodi:open="true"
       sodipodi:end="5.2326141"
       sodipodi:start="2.8662467"
       d="M 78.549072,377.23374 A 301.17441,263.21649 0 0 1 518.08502,77.2756"
       sodipodi:ry="263.21649"
       sodipodi:rx="301.17441"
       sodipodi:cy="305.67047"
       sodipodi:cx="368.3786"
       id="path4153"
       style="fill:none;stroke:#ffffff;stroke-width:2.95308304;stroke-linecap:round;stroke-linejoin:round;stroke-miterlimit:4;stroke-opacity:1;stroke-dasharray:none;stroke-dashoffset:0"
       sodipodi:type="arc" />
    <path
       sodipodi:type="arc"
       style="fill:none;stroke:#ffffff;stroke-width:4.25945759;stroke-linecap:round;stroke-linejoin:round;stroke-miterlimit:4;stroke-opacity:1;stroke-dasharray:none;stroke-dashoffset:0"
       id="path4155"
       sodipodi:cx="368.3786"
       sodipodi:cy="305.67047"
       sodipodi:rx="301.17441"
       sodipodi:ry="263.21649"
       d="m 223.24398,75.032641 a 301.17441,263.21649 0 0 1 386.3124,72.985949"
       sodipodi:start="4.2095722"
       sodipodi:end="5.6410038"
       sodipodi:open="true"
       transform="matrix(0.52040723,0,0,0.52040723,281.58471,18.653071)" />
    <path
       transform="matrix(0.52040723,0,0,0.52040723,412.89758,51.757156)"
       sodipodi:open="true"
       sodipodi:end="7.0571449"
       sodipodi:start="4.3366697"
       d="M 257.86514,60.814928 A 301.17441,263.21649 0 0 1 583.76307,489.65154"
       sodipodi:ry="263.21649"
       sodipodi:rx="301.17441"
       sodipodi:cy="305.67047"
       sodipodi:cx="368.3786"
       id="path4157"
       style="fill:none;stroke:#ffffff;stroke-width:4.25945759;stroke-linecap:round;stroke-linejoin:round;stroke-miterlimit:4;stroke-opacity:1;stroke-dasharray:none;stroke-dashoffset:0"
       sodipodi:type="arc" />
    <path
       transform="matrix(0.6557961,0,0,0.6557961,31.373159,188.02636)"
       sodipodi:open="true"
       sodipodi:end="3.4613419"
       sodipodi:start="1.0573736"
       d="M 516.30389,534.95007 A 301.17441,263.21649 0 0 1 82.469439,222.93402"
       sodipodi:ry="263.21649"
       sodipodi:rx="301.17441"
       sodipodi:cy="305.67047"
       sodipodi:cx="368.3786"
       id="path4159"
       style="fill:none;stroke:#ffffff;stroke-width:3.38009429;stroke-linecap:round;stroke-linejoin:round;stroke-miterlimit:4;stroke-opacity:1;stroke-dasharray:none;stroke-dashoffset:0"
       sodipodi:type="arc" />
    <path
       sodipodi:type="arc"
       style="fill:none;stroke:#ffffff;stroke-width:5.85547304;stroke-linecap:round;stroke-linejoin:round;stroke-miterlimit:4;stroke-opacity:1;stroke-dasharray:none;stroke-dashoffset:0"
       id="path4161"
       sodipodi:cx="368.3786"
       sodipodi:cy="305.67047"
       sodipodi:rx="301.17441"
       sodipodi:ry="263.21649"
       d="M 488.05543,64.127307 A 301.17441,263.21649 0 0 1 406.05203,566.81956"
       sodipodi:start="5.121035"
       sodipodi:end="7.7285647"
       sodipodi:open="true"
       transform="matrix(0.37856082,0,0,0.37856082,516.48809,223.03051)" />
    <path
       transform="matrix(-0.37856082,0,0,0.37856082,300.23875,202.06459)"
       sodipodi:end="7.1916998"
       sodipodi:start="5.121035"
       d="m 488.05543,64.127307 a 301.17441,263.21649 0 0 1 65.5207,449.113363"
       sodipodi:ry="263.21649"
       sodipodi:rx="301.17441"
       sodipodi:cy="305.67047"
       sodipodi:cx="368.3786"
       id="path4163"
       style="fill:none;stroke:#ffffff;stroke-width:5.85547304;stroke-linecap:round;stroke-linejoin:round;stroke-miterlimit:4;stroke-opacity:1;stroke-dasharray:none;stroke-dashoffset:0"
       sodipodi:type="arc"
       sodipodi:open="true" />
    <path
       style="fill:none;stroke:#ffffff;stroke-width:2.21665263;stroke-linecap:butt;stroke-linejoin:miter;stroke-miterlimit:4;stroke-opacity:1;stroke-dasharray:none"
       d="m 789.70142,257.64299 -78.73554,12.52284"
       id="path4169"
       inkscape:path-effect="#path-effect4171"
       inkscape:original-d="m 789.70142,257.64299 -78.73554,12.52284"
       inkscape:connector-curvature="0"
       sodipodi:nodetypes="cc" />
    <path
       sodipodi:nodetypes="cc"
       inkscape:connector-curvature="0"
       inkscape:original-d="m 816.49086,270.57619 -100.3138,6.51888"
       inkscape:path-effect="#path-effect4175"
       id="path4173"
       d="m 816.49086,270.57619 -100.3138,6.51888"
       style="fill:none;stroke:#ffffff;stroke-width:2.21665263;stroke-linecap:butt;stroke-linejoin:miter;stroke-miterlimit:4;stroke-opacity:1;stroke-dasharray:none" />
    <path
       style="fill:none;stroke:#ffffff;stroke-width:2.21665263;stroke-linecap:butt;stroke-linejoin:miter;stroke-miterlimit:4;stroke-opacity:1;stroke-dasharray:none"
       d="M 757.70628,471.61419 685.52705,437.75763"
       id="path4177"
       inkscape:path-effect="#path-effect4179"
       inkscape:original-d="M 757.70628,471.61419 685.52705,437.75763"
       inkscape:connector-curvature="0"
       sodipodi:nodetypes="cc" />
    <path
       sodipodi:nodetypes="cc"
       inkscape:connector-curvature="0"
       inkscape:original-d="M 755.70129,490.87683 686.6265,451.06751"
       inkscape:path-effect="#path-effect4183"
       id="path4181"
       d="M 755.70129,490.87683 686.6265,451.06751"
       style="fill:none;stroke:#ffffff;stroke-width:2.21665263;stroke-linecap:butt;stroke-linejoin:miter;stroke-miterlimit:4;stroke-opacity:1;stroke-dasharray:none" />
    <path
       sodipodi:nodetypes="cc"
       inkscape:connector-curvature="0"
       inkscape:original-d="m 4.285959,388.25309 79.695396,2.17954"
       inkscape:path-effect="#path-effect4211"
       id="path4203"
       d="m 4.285959,388.25309 79.695396,2.17954"
       style="fill:none;stroke:#ffffff;stroke-width:2.21665263;stroke-linecap:butt;stroke-linejoin:miter;stroke-miterlimit:4;stroke-opacity:1;stroke-dasharray:none" />
    <path
       style="fill:none;stroke:#ffffff;stroke-width:2.21665263;stroke-linecap:butt;stroke-linejoin:miter;stroke-miterlimit:4;stroke-opacity:1;stroke-dasharray:none"
       d="M 0.88232369,374.50984 80.193733,382.62207"
       id="path4205"
       inkscape:path-effect="#path-effect4213"
       inkscape:original-d="M 0.88232369,374.50984 80.193733,382.62207"
       inkscape:connector-curvature="0"
       sodipodi:nodetypes="cc" />
    <path
       sodipodi:nodetypes="cc"
       inkscape:connector-curvature="0"
       inkscape:original-d="m 75.108717,183.82337 64.716523,46.5605"
       inkscape:path-effect="#path-effect4215"
       id="path4207"
       d="m 75.108717,183.82337 64.716523,46.5605"
       style="fill:none;stroke:#ffffff;stroke-width:2.21665263;stroke-linecap:butt;stroke-linejoin:miter;stroke-miterlimit:4;stroke-opacity:1;stroke-dasharray:none" />
    <path
       style="fill:none;stroke:#ffffff;stroke-width:2.21665263;stroke-linecap:butt;stroke-linejoin:miter;stroke-miterlimit:4;stroke-opacity:1;stroke-dasharray:none"
       d="m 66.360525,149.89161 71.441295,61.60846"
       id="path4209"
       inkscape:path-effect="#path-effect4217"
       inkscape:original-d="m 66.360525,149.89161 71.441295,61.60846"
       inkscape:connector-curvature="0"
       sodipodi:nodetypes="cc" />
    <path
       style="fill:none;stroke:#ffffff;stroke-width:2.21665263;stroke-linecap:butt;stroke-linejoin:miter;stroke-miterlimit:4;stroke-opacity:1;stroke-dasharray:none"
       d="m 352.71491,17.387939 37.80086,70.194038"
       id="path4219"
       inkscape:path-effect="#path-effect4223"
       inkscape:original-d="m 352.71491,17.387939 37.80086,70.194038"
       inkscape:connector-curvature="0"
       sodipodi:nodetypes="cc" />
    <path
       sodipodi:nodetypes="cc"
       inkscape:connector-curvature="0"
       inkscape:original-d="M 365.80121,3.1114779 397.56229,76.237001"
       inkscape:path-effect="#path-effect4225"
       id="path4221"
       d="M 365.80121,3.1114779 397.56229,76.237001"
       style="fill:none;stroke:#ffffff;stroke-width:2.21665263;stroke-linecap:butt;stroke-linejoin:miter;stroke-miterlimit:4;stroke-opacity:1;stroke-dasharray:none" />
    <path
       sodipodi:nodetypes="cc"
       inkscape:connector-curvature="0"
       inkscape:original-d="m 349.56651,590.63077 0.54177,-50.29651"
       inkscape:path-effect="#path-effect4231"
       id="path4227"
       d="m 349.56651,590.63077 0.54177,-50.29651"
       style="fill:none;stroke:#ffffff;stroke-width:2.21665263;stroke-linecap:butt;stroke-linejoin:miter;stroke-miterlimit:4;stroke-opacity:1;stroke-dasharray:none" />
    <path
       style="fill:none;stroke:#ffffff;stroke-width:2.21665263;stroke-linecap:butt;stroke-linejoin:miter;stroke-miterlimit:4;stroke-opacity:1;stroke-dasharray:none"
       d="m 367.99309,594.72393 -6.23345,-50.14666"
       id="path4229"
       inkscape:path-effect="#path-effect4233"
       inkscape:original-d="m 367.99309,594.72393 -6.23345,-50.14666"
       inkscape:connector-curvature="0"
       sodipodi:nodetypes="cc" />
  </g>
</svg>
