<?xml version="1.0" encoding="UTF-8" standalone="no"?>
<!-- Created with Inkscape (http://www.inkscape.org/) -->

<svg
   xmlns:dc="http://purl.org/dc/elements/1.1/"
   xmlns:cc="http://creativecommons.org/ns#"
   xmlns:rdf="http://www.w3.org/1999/02/22-rdf-syntax-ns#"
   xmlns:svg="http://www.w3.org/2000/svg"
   xmlns="http://www.w3.org/2000/svg"
   xmlns:sodipodi="http://sodipodi.sourceforge.net/DTD/sodipodi-0.dtd"
   xmlns:inkscape="http://www.inkscape.org/namespaces/inkscape"
   width="167.19624"
   height="26.635305"
   id="svg3163"
   version="1.1"
   inkscape:version="0.48.4 r9939"
   sodipodi:docname="New document 8">
  <defs
     id="defs3165" />
  <sodipodi:namedview
     id="base"
     pagecolor="#ffffff"
     bordercolor="#666666"
     borderopacity="1.0"
     inkscape:pageopacity="0.0"
     inkscape:pageshadow="2"
     inkscape:zoom="0.35"
     inkscape:cx="-132.83045"
     inkscape:cy="30.460507"
     inkscape:document-units="px"
     inkscape:current-layer="layer1"
     showgrid="false"
     fit-margin-top="0"
     fit-margin-left="0"
     fit-margin-right="0"
     fit-margin-bottom="0"
     inkscape:window-width="467"
     inkscape:window-height="436"
     inkscape:window-x="323"
     inkscape:window-y="180"
     inkscape:window-maximized="0" />
  <metadata
     id="metadata3168">
    <rdf:RDF>
      <cc:Work
         rdf:about="">
        <dc:format>image/svg+xml</dc:format>
        <dc:type
           rdf:resource="http://purl.org/dc/dcmitype/StillImage" />
        <dc:title></dc:title>
      </cc:Work>
    </rdf:RDF>
  </metadata>
  <g
     inkscape:label="Layer 1"
     inkscape:groupmode="layer"
     id="layer1"
     transform="translate(-507.83045,-536.18738)">
    <path
       style="fill:#000000"
       d="m 517.61438,562.42337 c -3.45692,-1.177 -5.55631,-2.6056 -7.23566,-4.9239 -2.18035,-3.0099 -3.22983,-8.01597 -2.06986,-9.87338 0.412,-0.65972 0.7491,-1.95598 0.7491,-2.88055 0,-2.16243 2.2689,-5.21537 5.23524,-7.04432 2.86362,-1.76561 10.54678,-2.05728 13.19397,-0.50085 1.61185,0.94768 1.57151,0.97486 -1.97456,1.33012 -1.99101,0.19946 -4.84273,1.00464 -6.33715,1.78928 -2.60757,1.3691 -8.14294,6.93986 -8.14294,8.19502 0,0.3324 -0.27572,0.43396 -0.61271,0.22569 -1.19529,-0.73873 -1.42207,0.98314 -0.36454,2.76784 3.06101,5.16575 14.00737,8.92555 19.6927,6.76405 2.00115,-0.7608 2.19469,-0.02 0.41552,1.5897 -2.56081,2.3175 -9.25309,3.6834 -12.54911,2.5613 z m 71.44103,-4.1223 c -0.20842,-0.3372 0.21649,-1.0302 0.94425,-1.5399 1.41923,-0.9941 1.13438,-1.796 -0.63796,-1.796 -2.00744,0 -3.95415,-2.83273 -3.95415,-5.7538 0,-2.14058 0.36293,-2.99258 1.73423,-4.07125 0.95382,-0.75028 2.09861,-1.36414 2.54398,-1.36414 0.44537,0 1.59015,0.61386 2.54398,1.36414 1.56942,1.23451 1.73423,1.78902 1.73423,5.83491 0,3.52634 -0.28817,4.83714 -1.36415,6.20504 -1.38724,1.7636 -2.85951,2.2292 -3.54441,1.121 z m 2.934,-8.65642 c 0,-2.50557 -1.66365,-4.10682 -3.33664,-3.21146 -1.60254,0.85765 -1.7044,4.32901 -0.17655,6.01725 1.0224,1.12973 1.17339,1.13723 2.30365,0.11437 0.66525,-0.60204 1.20954,-1.91611 1.20954,-2.92016 z m -46.30021,3.94992 c -1.37183,-1.95859 -0.98653,-7.78458 0.59112,-8.93818 0.66222,-0.48423 1.75394,-0.88041 2.42604,-0.88041 1.20422,0 4.45007,2.95055 4.45007,4.04523 0,0.30914 0.29618,0.56207 0.65819,0.56207 0.362,0 0.65818,-0.58554 0.65818,-1.30119 0,-1.95322 2.71865,-3.49111 4.78362,-2.70601 0.9187,0.34929 1.89199,0.99366 2.16286,1.43193 0.68814,1.11344 0.99683,5.18467 0.55706,7.34713 -0.64427,3.16803 -1.57987,1.94903 -1.57987,-2.05852 0,-4.06076 -1.03287,-5.84828 -2.95344,-5.11128 -0.73497,0.28204 -0.99567,1.4113 -0.99567,4.313 0,2.16201 -0.31589,4.12613 -0.70198,4.36473 -0.96024,0.5935 -1.3126,0.1159 -1.5445,-2.09359 -0.18343,-1.74765 -0.42317,-1.89719 -3.34559,-2.0869 -3.44078,-0.22336 -4.55355,0.34342 -3.62474,1.84625 0.49198,0.79605 0.96516,0.83532 2.60534,0.21622 1.54778,-0.58422 2.00417,-0.57466 2.00417,0.042 0,2.51962 -4.5677,3.26782 -6.15086,1.00752 z m 4.83448,-5.78888 c 0,-0.31768 -0.44427,-0.94631 -0.98728,-1.39697 -0.78408,-0.65072 -1.18897,-0.65196 -1.9673,-0.006 -0.53902,0.44735 -0.81773,1.07598 -0.61934,1.39697 0.46768,0.7567 3.57392,0.76192 3.57392,0.006 z m 14.15571,6.08288 c -0.76109,-0.76112 -0.87132,-1.28192 -0.37611,-1.77713 0.49522,-0.4952 0.93197,-0.46903 1.49033,0.0893 1.25216,1.25213 3.15929,0.95949 3.15929,-0.48484 0,-0.95699 -0.53312,-1.32608 -2.13911,-1.48092 -1.95223,-0.18823 -2.15693,-0.42155 -2.34315,-2.67057 -0.17413,-2.10303 0.043,-2.57685 1.48092,-3.23202 1.26675,-0.57717 2.09337,-0.58165 3.33043,-0.018 1.89851,0.86503 2.37302,3.19188 0.49364,2.42072 -2.03964,-0.83693 -3.07035,-0.68255 -3.31397,0.49633 -0.17942,0.86822 0.19355,1.15183 1.51474,1.15183 1.00247,0 2.24604,0.60916 2.9051,1.42306 1.14718,1.41671 1.15575,1.40945 1.91972,-1.62456 0.71199,-2.82756 2.15797,-4.40581 4.03656,-4.40581 1.36136,0 3.96247,3.22079 3.96247,4.90649 0,1.54684 -0.22723,1.67537 -2.96184,1.67537 -3.13487,0 -3.90192,1.03318 -1.96221,2.64299 0.81815,0.67896 1.23709,0.61476 2.30768,-0.35416 1.51627,-1.3722 2.57007,-0.77724 1.53943,0.86912 -1.14876,1.8351 -4.32281,1.7628 -6.10957,-0.1391 l -1.55049,-1.65044 -1.27385,1.61944 c -1.49572,1.9015 -4.48571,2.1672 -6.11001,0.5429 z m 13.7968,-6.13045 c 0.62312,-1.00823 -1.94586,-2.08169 -2.8406,-1.18695 -0.41746,0.41746 -0.75902,0.99596 -0.75902,1.28556 0,0.74346 3.13222,0.65765 3.59962,-0.0986 z m 3.64043,2.32446 c 0,-5.05995 0.37928,-6.96478 1.38679,-6.96478 0.32327,0 0.58776,2.66565 0.58776,5.92367 0,4.8267 -0.18283,5.9237 -0.98727,5.9237 -0.78886,0 -0.98728,-0.9813 -0.98728,-4.88259 z m 13.16372,0.98728 c 0,-2.14241 0.18849,-4.38647 0.41885,-4.98682 0.69882,-1.82105 3.33776,-2.44041 5.54181,-1.30065 1.86365,0.96373 1.93757,1.17708 1.93757,5.59235 0,3.64153 -0.20407,4.59043 -0.98728,4.59043 -0.76559,0 -0.98728,-0.8687 -0.98728,-3.86855 0,-2.63574 -0.31461,-4.12964 -0.98727,-4.6879 -1.79951,-1.49345 -2.96184,0.34625 -2.96184,4.6879 0,2.99985 -0.22168,3.86855 -0.98728,3.86855 -0.76637,0 -0.98728,-0.8716 -0.98728,-3.89531 z m 10.65508,2.55331 c -2.18366,-2.03443 -2.02348,-6.66031 0.29375,-8.48305 0.95383,-0.75028 2.15203,-1.36414 2.66266,-1.36414 1.52517,0 4.15953,3.10743 4.15953,4.90648 0,1.54685 -0.22723,1.67538 -2.96183,1.67538 -2.22093,0 -2.96184,0.25214 -2.96184,1.00794 0,1.34843 1.76522,1.95969 2.91162,1.0083 1.2459,-1.03401 2.09354,0.33133 1.01357,1.63259 -1.12835,1.3596 -3.43171,1.187 -5.11746,-0.3835 z m 4.4832,-6.17232 c 0,-1.05396 -1.2362,-1.6569 -2.46819,-1.20384 -1.49682,0.55044 -0.88607,2.13627 0.82272,2.13627 0.98083,0 1.64547,-0.37662 1.64547,-0.93243 z m 3.94912,2.92216 c 0,-4.19172 0.14583,-4.68768 1.67242,-5.68794 1.25869,-0.82472 2.03212,-0.9331 3.12639,-0.43809 0.79967,0.36176 2.04632,0.42459 2.77033,0.13963 2.09692,-0.82532 2.8756,-0.69687 4.27821,0.70574 0.85623,0.85624 1.35084,2.29417 1.41498,4.11366 0.0789,2.23795 0.15567,2.40247 0.38394,0.82274 0.34233,-2.36911 3.14384,-6.25277 4.5105,-6.25277 2.20805,0 4.22155,2.07663 4.22155,4.35391 0,2.15492 -0.085,2.22795 -2.59389,2.22795 -2.94028,0 -3.80117,0.76397 -2.28181,2.02493 0.83907,0.69637 1.28565,0.70023 2.374,0.0205 1.9979,-1.24771 3.01896,0.15033 1.09435,1.4984 -2.09059,1.4643 -3.7501,1.3317 -5.22456,-0.4175 l -1.24834,-1.48091 -1.18601,1.51061 c -1.57787,2.0096 -2.1229,1.2764 -2.1229,-2.85608 0,-2.28759 -0.33807,-3.71031 -1.01517,-4.27226 -1.81027,-1.50238 -2.76535,0.62711 -2.8886,6.44047 -0.0819,3.86467 -1.36172,2.23927 -1.36172,-1.72942 0,-4.0873 -0.93779,-5.70261 -2.87841,-4.95792 -0.83432,0.32015 -1.0707,1.33985 -1.0707,4.61865 0,3.30146 -0.21266,4.20776 -0.98728,4.20776 -0.78325,0 -0.98728,-0.949 -0.98728,-4.5921 z m 20.40377,-2.56732 c 0,-0.31768 -0.44428,-0.94631 -0.98728,-1.39697 -0.78409,-0.65072 -1.18898,-0.65196 -1.96732,-0.006 -0.53901,0.44735 -0.81772,1.07598 -0.61934,1.39697 0.46769,0.75672 3.57394,0.76195 3.57394,0.006 z m 3.69044,6.11838 c -0.21973,-0.5727 -0.39951,-2.3065 -0.39951,-3.85305 0,-5.05585 3.96863,-7.65642 7.12598,-4.66949 1.70516,1.61312 1.81567,9.56364 0.13293,9.56364 -0.33783,0 -0.70242,-1.82038 -0.81019,-4.04525 -0.35589,-7.34689 -4.47416,-6.83971 -4.47416,0.551 0,3.38995 -0.76082,4.57495 -1.57505,2.45315 z m 10.17903,-0.86668 c -1.19612,-1.67982 -1.3079,-2.50557 -0.93552,-6.91096 0.30085,-3.55904 0.68003,-5.0032 1.31363,-5.0032 0.48988,0 0.8907,0.45358 0.8907,1.00794 0,1.01868 0.90626,1.5845 3.0393,1.89756 1.80547,0.26499 1.89751,1.70181 0.10902,1.70181 -2.13721,0 -3.14832,1.17899 -3.14832,3.67107 0,2.69685 1.57814,4.13316 3.33544,3.03574 2.49028,-1.55521 3.74716,-0.16255 1.43641,1.59152 -2.00612,1.5229 -4.54727,1.1058 -6.04066,-0.99148 z m 8.50886,0.92048 c 0,-0.543 0.44427,-0.98729 0.98728,-0.98729 0.543,0 0.98727,0.44429 0.98727,0.98729 0,0.543 -0.44427,0.9873 -0.98727,0.9873 -0.54301,0 -0.98728,-0.4443 -0.98728,-0.9873 z m 6.08821,0.5336 c 0.63351,-0.1656 1.67015,-0.1656 2.30366,0 0.6335,0.1655 0.11518,0.301 -1.15183,0.301 -1.26701,0 -1.78532,-0.1355 -1.15183,-0.301 z m 9.21461,0 c 0.6335,-0.1656 1.67015,-0.1656 2.30365,0 0.63351,0.1655 0.11518,0.301 -1.15182,0.301 -1.26701,0 -1.78533,-0.1355 -1.15183,-0.301 z m -3.94768,-5.14091 c 0.007,-1.44801 0.1421,-1.96287 0.29953,-1.14415 0.15743,0.81872 0.15145,2.00346 -0.0133,2.63275 -0.16472,0.62928 -0.29354,-0.0406 -0.28623,-1.4886 z m -144.88302,-2.3055 c 2.03716,-1.80689 4.07233,-4.17467 4.52261,-5.26172 0.9526,-2.29979 1.54221,-2.43128 3.34996,-0.74711 1.31696,1.22694 1.31604,1.23355 -0.4626,3.34735 -1.61603,1.92054 -8.68078,5.9597 -10.4078,5.95049 -0.38836,-0.002 0.96066,-1.48212 2.99783,-3.28901 z m 136.8188,-1.64362 c 0,-0.543 0.29619,-0.98727 0.65819,-0.98727 0.362,0 0.65819,0.44427 0.65819,0.98727 0,0.54301 -0.29619,0.98728 -0.65819,0.98728 -0.362,0 -0.65819,-0.44427 -0.65819,-0.98728 z m 3.16753,-1.43688 c 0.47512,-0.19014 1.04281,-0.16676 1.26152,0.052 0.21871,0.21871 -0.17004,0.37427 -0.86387,0.3457 -0.76675,-0.0316 -0.92271,-0.18754 -0.39765,-0.39766 z m 9.87279,0 c 0.47512,-0.19014 1.04281,-0.16676 1.26152,0.052 0.21871,0.21871 -0.17003,0.37427 -0.86387,0.3457 -0.76675,-0.0316 -0.92271,-0.18754 -0.39765,-0.39766 z m -91.36446,-2.51223 c 0,-0.54301 0.44428,-0.98728 0.98728,-0.98728 0.543,0 0.98727,0.44427 0.98727,0.98728 0,0.543 -0.44427,0.98728 -0.98727,0.98728 -0.543,0 -0.98728,-0.44428 -0.98728,-0.98728 z"
       id="path3935"
       inkscape:connector-curvature="0" />
  </g>
</svg>
