<?xml version="1.0" encoding="UTF-8" standalone="no"?>
<!-- Created with Inkscape (http://www.inkscape.org/) -->

<svg
   xmlns:dc="http://purl.org/dc/elements/1.1/"
   xmlns:cc="http://creativecommons.org/ns#"
   xmlns:rdf="http://www.w3.org/1999/02/22-rdf-syntax-ns#"
   xmlns:svg="http://www.w3.org/2000/svg"
   xmlns="http://www.w3.org/2000/svg"
   xmlns:sodipodi="http://sodipodi.sourceforge.net/DTD/sodipodi-0.dtd"
   xmlns:inkscape="http://www.inkscape.org/namespaces/inkscape"
   width="541.90735"
   height="194.94473"
   id="svg2"
   version="1.1"
   inkscape:version="0.48.4 r9939"
   sodipodi:docname="rtbf.svg">
  <defs
     id="defs4" />
  <sodipodi:namedview
     id="base"
     pagecolor="#ffffff"
     bordercolor="#666666"
     borderopacity="1.0"
     inkscape:pageopacity="0.0"
     inkscape:pageshadow="2"
     inkscape:zoom="0.81347656"
     inkscape:cx="271.21428"
     inkscape:cy="-167.12667"
     inkscape:document-units="px"
     inkscape:current-layer="layer1"
     showgrid="false"
     inkscape:window-width="1276"
     inkscape:window-height="775"
     inkscape:window-x="0"
     inkscape:window-y="21"
     inkscape:window-maximized="1"
     fit-margin-top="0"
     fit-margin-left="0"
     fit-margin-right="0"
     fit-margin-bottom="0" />
  <metadata
     id="metadata7">
    <rdf:RDF>
      <cc:Work
         rdf:about="">
        <dc:format>image/svg+xml</dc:format>
        <dc:type
           rdf:resource="http://purl.org/dc/dcmitype/StillImage" />
        <dc:title />
      </cc:Work>
    </rdf:RDF>
  </metadata>
  <g
     inkscape:label="Layer 1"
     inkscape:groupmode="layer"
     id="layer1"
     transform="translate(-103.78572,-170.29078)">
    <path
       style="fill:#000000"
       d="m 152.10526,365.07767 c -2.52294,-0.1835 -4.10825,-0.45136 -7.52854,-1.27202 -2.92863,-0.70269 -4.21289,-1.07315 -4.4126,-1.27287 -0.10767,-0.10768 -0.39083,-0.19653 -0.62925,-0.19746 -0.23839,-8.2e-4 -0.78631,-0.18572 -1.2176,-0.41065 -0.43129,-0.22493 -0.89989,-0.40896 -1.04137,-0.40896 -0.44172,0 -5.95081,-2.72785 -7.85638,-3.8901 -7.12128,-4.34348 -13.70438,-10.9266 -18.04788,-18.04788 -1.34755,-2.20938 -3.89009,-7.44359 -3.89009,-8.00839 0,-0.22508 -0.11372,-0.47952 -0.25271,-0.56542 -0.13897,-0.0859 -0.33944,-0.5511 -0.44545,-1.03379 -0.10603,-0.48269 -0.28496,-1.06645 -0.39764,-1.29725 -0.46551,-0.95341 -1.2409,-4.02939 -2.10709,-8.35882 -0.46398,-2.31911 -0.49294,-5.40771 -0.49294,-52.5629 0,-47.49149 0.0263,-50.23438 0.50293,-52.69978 0.27659,-1.43043 0.60951,-3.03195 0.7398,-3.55895 0.43468,-1.75816 1.13651,-4.237 1.35645,-4.79089 0.11961,-0.30114 0.42716,-1.1635 0.68351,-1.91636 2.20132,-6.46532 6.65559,-13.28713 12.43173,-19.03956 3.62821,-3.6133 7.1226,-6.2791 11.60334,-8.85195 1.47338,-0.84603 2.73275,-1.53823 2.79859,-1.53823 0.0658,0 0.76986,-0.29627 1.56449,-0.65838 3.53901,-1.61273 7.63717,-2.85182 12.94287,-3.91333 2.3609,-0.47234 11.81888,-0.49295 226.26686,-0.49295 214.12133,0 223.90956,0.0212 226.26687,0.49103 8.48841,1.69168 14.26587,3.96238 20.46227,8.04224 4.57176,3.01016 8.9125,6.86244 12.12262,10.75847 1.34175,1.62844 4.30402,5.89541 5.04256,7.26348 0.32512,0.60228 0.70826,1.27985 0.85138,1.50571 0.26459,0.41752 2.31709,4.8867 2.70316,5.88594 0.42414,1.09778 0.89428,2.48294 1.11504,3.28519 0.12429,0.45171 0.42946,1.56046 0.67812,2.46388 1.79593,6.52466 1.77476,5.83616 1.77476,57.76444 0,51.71334 0.0203,51.03751 -1.72031,57.62756 -1.23578,4.67904 -3.89017,10.92947 -6.15848,14.50154 -2.03517,3.20495 -4.76677,6.62762 -7.48594,9.3798 -3.46152,3.50355 -4.93681,4.74039 -8.50545,7.1307 -2.76683,1.85326 -9.0749,5.12495 -9.8813,5.12495 -0.2344,0 -0.49645,0.11372 -0.58236,0.2527 -0.0859,0.13899 -0.55109,0.33945 -1.03376,0.44546 -0.4827,0.10602 -1.06645,0.2869 -1.29726,0.40195 -0.50291,0.25072 -2.9052,0.92253 -4.79987,1.34232 -0.75286,0.1668 -2.29279,0.514 -3.42207,0.77156 -1.92766,0.43966 -15.63163,0.4704 -224.07674,0.50272 -122.11292,0.0189 -223.19385,-0.0507 -224.62427,-0.15475 z m 447.74283,-2.42759 c 1.86897,-0.4211 5.62035,-1.34222 6.84413,-1.68054 1.93481,-0.53487 4.56298,-1.57057 7.52854,-2.96683 1.38654,-0.65282 7.07639,-4.04663 7.39166,-4.40889 0.0753,-0.0865 0.87254,-0.70476 1.77167,-1.37389 2.68457,-1.99783 7.81684,-7.33832 10.07628,-10.48506 1.16274,-1.61935 2.11407,-3.0029 2.11407,-3.07454 0,-0.0716 0.40627,-0.77942 0.90282,-1.57284 1.15253,-1.84159 3.20366,-6.07473 3.20366,-6.61172 0,-0.2259 0.11372,-0.48101 0.25271,-0.56691 0.13896,-0.0859 0.33944,-0.55111 0.44544,-1.03379 0.10603,-0.48269 0.288,-1.06645 0.40444,-1.29725 0.21608,-0.42836 0.83958,-2.55972 1.32406,-4.52611 1.02725,-4.16933 1.13594,-5.9207 1.1341,-18.27396 l -0.003,-12.25113 -268.63201,0.0686 -268.63201,0.0686 0.003,11.7719 c 0.003,8.46092 0.10282,12.34939 0.36027,13.82513 1.47469,8.45305 3.68433,14.42281 7.77666,21.01026 2.06684,3.32702 6.08675,8.19591 8.45471,10.24028 0.81114,0.70029 1.78276,1.54408 2.15919,1.87508 2.31211,2.0331 6.64189,4.79097 10.26619,6.53909 5.649,2.7247 12.91785,4.72744 18.34227,5.05374 0.75286,0.0453 101.15621,0.073 223.11857,0.0616 185.26157,-0.0173 222.02004,-0.0816 223.39234,-0.39081 z M 184.18056,342.3503 c -5.43351,-1.36788 -9.2161,-4.76493 -10.97198,-9.85369 -0.60679,-1.75853 -0.70059,-6.0608 -0.18035,-8.27202 1.27043,-5.39985 4.10001,-8.61716 9.60184,-10.91753 4.07807,-1.70509 10.65247,-1.36334 14.72541,0.76546 0.41986,0.21944 1.08491,0.5658 1.47788,0.76967 1.24971,0.64836 3.37233,2.85466 4.56127,4.74108 1.85172,2.93803 2.43297,4.84447 2.47643,8.12245 l 0.029,2.19012 -10.9506,0.13688 -10.9506,0.13689 -0.0865,0.75114 c -0.12072,1.04875 1.1846,3.32512 2.38234,4.15461 2.36423,1.63732 5.51569,1.51541 7.26019,-0.28085 l 0.87376,-0.89968 5.13259,-0.0474 c 2.82293,-0.0261 5.20928,0.0292 5.30302,0.12298 0.40087,0.40087 -1.22523,3.0192 -2.83514,4.56512 -1.76052,1.69053 -4.68589,3.28789 -6.66905,3.64155 -0.527,0.094 -1.51255,0.28965 -2.19012,0.43484 -2.0443,0.43803 -6.75499,0.30097 -8.98947,-0.26157 z m 10.76256,-18.32032 c 0.35764,-1.1268 -1.07969,-3.3796 -2.85713,-4.47812 -1.444,-0.89244 -4.55427,-0.79697 -6.03867,0.18536 -0.59369,0.39288 -1.32825,1.20207 -1.63237,1.79818 -0.54395,1.06624 -0.72857,2.48137 -0.37043,2.83951 0.10038,0.10038 2.55597,0.18251 5.45686,0.18251 4.96692,0 5.2841,-0.0307 5.44174,-0.52744 z m 25.60342,18.57958 c -0.527,-0.12494 -1.45558,-0.33584 -2.06352,-0.46866 -1.89025,-0.41297 -4.04252,-1.61102 -5.36494,-2.98636 -1.39883,-1.45481 -1.65818,-1.88028 -2.30189,-3.77626 -0.72322,-2.13022 -0.81134,-2.09395 4.86679,-2.00331 l 5.00044,0.0798 0.44286,0.88648 c 0.6721,1.34533 1.08382,1.74273 2.38205,2.29922 1.38699,0.59453 2.27273,0.63349 3.63217,0.15976 1.66206,-0.5792 2.43583,-1.82454 2.06116,-3.31733 -0.17757,-0.70752 -1.47606,-1.60275 -2.78074,-1.91717 -2.16179,-0.52097 -4.48795,-1.03948 -5.60062,-1.24839 -1.856,-0.34847 -4.56997,-1.31978 -5.72505,-2.04895 -1.81289,-1.14443 -3.24194,-3.02647 -3.59712,-4.73736 -0.34321,-1.65326 -0.17647,-3.73652 0.41176,-5.14436 0.6877,-1.64589 2.74565,-3.70668 4.37866,-4.38469 0.61033,-0.2534 1.35608,-0.56572 1.65722,-0.69405 3.38225,-1.44126 10.8239,-1.39431 15.19396,0.0959 1.97361,0.67299 4.27781,2.5141 5.07442,4.05457 0.5983,1.157 1.20654,3.07013 1.05436,3.31636 -0.076,0.12304 -2.34018,0.22371 -5.03143,0.22371 -4.49528,0 -4.90605,-0.0406 -5.05164,-0.49932 -0.27231,-0.85797 -1.68783,-1.9981 -2.78909,-2.24648 -1.36283,-0.30736 -3.32503,0.12793 -3.9798,0.88288 -0.27565,0.31783 -0.50119,0.92022 -0.50119,1.33864 0,1.34754 1.83304,2.20389 6.98101,3.26135 2.55396,0.52461 5.8901,1.61811 7.35014,2.40918 0.73002,0.39553 1.85992,1.31153 2.51088,2.03556 2.76494,3.07528 2.23635,8.13126 -1.18143,11.3004 -0.63129,0.58537 -2.27226,1.47301 -4.29934,2.32564 -2.19574,0.92357 -10.11485,1.42324 -12.73008,0.80324 z m 62.82909,0.16244 c -0.15057,-0.0464 -1.01293,-0.23951 -1.91636,-0.42902 -5.25173,-1.10166 -9.42944,-4.87703 -10.8957,-9.84637 -0.45325,-1.53612 -0.55606,-7.05637 -0.16316,-8.76048 0.92142,-3.99645 3.77522,-7.80327 7.12835,-9.50887 4.42766,-2.25216 11.69892,-2.65977 15.97618,-0.89559 1.94428,0.80194 3.24007,1.50809 3.93541,2.14466 0.43932,0.40219 1.02712,0.86258 1.30621,1.02309 0.75206,0.43253 2.69824,3.42838 3.40485,5.24126 0.53581,1.37469 0.62,2.11107 0.63503,5.55439 0.014,3.21624 -0.0811,4.25535 -0.5014,5.4753 -1.82486,5.29705 -5.24941,8.28202 -11.1246,9.69664 -1.55891,0.37536 -6.88086,0.58386 -7.78481,0.30499 z m 4.76809,-7.5312 c 1.2314,-0.35316 2.15114,-1.23792 2.85269,-2.74419 0.49193,-1.05621 0.57475,-1.75914 0.58062,-4.92777 0.006,-3.34717 -0.0545,-3.81984 -0.64356,-5.01035 -1.11696,-2.25743 -2.86526,-3.18153 -5.32208,-2.81311 -2.74051,0.41096 -4.45173,3.4654 -4.40247,7.85816 0.0649,5.78539 2.8184,8.81783 6.9348,7.63726 z m 68.05343,7.5312 c -0.15057,-0.0464 -1.01293,-0.24691 -1.91636,-0.44547 -4.68176,-1.029 -7.42788,-3.19595 -8.67916,-6.84869 -0.75308,-2.19837 -0.83664,-2.15994 4.69643,-2.15994 5.29498,0 5.24217,-0.015 5.97057,1.69656 0.65348,1.53552 3.3511,2.48256 5.31369,1.86543 1.79611,-0.56478 2.41713,-1.24502 2.41713,-2.64765 0,-1.06329 -0.10179,-1.24622 -1.02662,-1.84484 -0.56464,-0.36548 -1.95057,-0.86589 -3.07985,-1.11202 -1.12928,-0.24613 -2.43157,-0.56482 -2.89397,-0.7082 -0.46241,-0.14338 -1.0818,-0.26069 -1.37642,-0.26069 -0.88066,0 -4.75042,-1.35348 -5.84455,-2.04417 -0.56007,-0.35356 -1.50685,-1.19784 -2.10396,-1.87618 -2.18982,-2.48778 -2.20497,-6.50569 -0.0356,-9.44325 1.01956,-1.3806 3.58945,-3.33607 4.38429,-3.33607 0.20297,0 0.48608,-0.10776 0.62912,-0.23945 1.01726,-0.93657 8.29077,-1.45733 11.77637,-0.84315 4.04321,0.71244 7.36961,2.54643 8.483,4.67706 0.47131,0.9019 1.20822,2.99996 1.21352,3.45499 0.003,0.26112 -1.15268,0.3422 -4.87738,0.3422 l -4.88136,0 -0.85998,-1.19749 c -1.00661,-1.40168 -2.44936,-1.91745 -4.36093,-1.55899 -1.31842,0.24724 -1.94204,0.67886 -2.28531,1.58173 -0.65559,1.72433 0.8214,2.62725 6.18146,3.77888 5.8442,1.25566 8.82063,2.59666 10.6655,4.80524 2.47377,2.96147 2.03854,7.78667 -0.9658,10.70748 -1.1623,1.12997 -4.47789,2.79943 -6.14076,3.09196 -0.60228,0.10596 -1.64943,0.29775 -2.327,0.42621 -1.14883,0.2178 -7.46776,0.32617 -8.07607,0.13851 z m 49.55148,0.0173 c -0.15057,-0.056 -1.01293,-0.25841 -1.91635,-0.44989 -0.90343,-0.19147 -2.32016,-0.65599 -3.1483,-1.03226 -1.57188,-0.71419 -3.89617,-2.20625 -4.07122,-2.61347 -0.0559,-0.13002 -0.34869,-0.43801 -0.65068,-0.68441 -0.92402,-0.75395 -2.59453,-3.52083 -3.12522,-5.17634 -0.69904,-2.18068 -0.71809,-8.64132 -0.031,-10.51993 1.28256,-3.50691 3.08961,-5.92161 5.752,-7.68621 3.21964,-2.13392 8.56343,-3.24893 12.85354,-2.68193 5.96904,0.78889 9.67815,2.80739 11.86008,6.45425 0.73898,1.23508 1.82388,4.4932 1.61092,4.83777 -0.0767,0.12401 -2.66144,0.22548 -5.74398,0.22548 -5.10125,0 -5.61733,-0.043 -5.7463,-0.47909 -0.7188,-2.43069 -2.18459,-3.62738 -4.44312,-3.62738 -3.58285,0 -5.51489,2.83187 -5.52332,8.09574 -0.008,5.25783 1.78607,7.78263 5.53158,7.78263 2.02023,0 3.24379,-0.63145 3.97858,-2.05324 0.23344,-0.45171 0.57206,-1.11161 0.7525,-1.46644 l 0.32802,-0.64515 5.31107,0.0215 c 2.92107,0.0118 5.40344,0.025 5.51637,0.0292 0.34784,0.013 0.22783,1.3057 -0.23528,2.53446 -0.96064,2.54883 -1.35382,3.15625 -3.23751,5.00175 -1.98524,1.94497 -3.24604,2.63475 -6.58808,3.60434 -1.23887,0.35942 -8.3673,0.77654 -9.03425,0.52864 z m 30.96377,-0.32278 c -0.73728,-0.23546 -1.66124,-0.62414 -2.05324,-0.86375 -1.19794,-0.73223 -3.16492,-2.93325 -3.63297,-4.06522 -1.15234,-2.78697 -1.18623,-3.18905 -1.18623,-14.07519 l 0,-10.53996 5.54374,-0.0741 5.54375,-0.0741 0,8.4427 c 0,10.99362 0.22172,11.89892 3.13951,12.81867 1.29912,0.40951 1.53407,0.41016 2.90131,0.008 1.64316,-0.48336 2.53424,-1.46978 3.05404,-3.38078 0.15569,-0.57237 0.35973,-4.79809 0.45344,-9.3905 l 0.17036,-8.34984 5.54374,-0.0741 5.54375,-0.0741 0,14.65814 0,14.65815 -5.1331,-0.0745 -5.1331,-0.0745 -0.0804,-1.9848 c -0.0469,-1.15708 -0.20072,-1.98479 -0.36887,-1.98479 -0.15865,0 -0.98481,0.70837 -1.83592,1.57415 -1.43001,1.45466 -2.03465,1.8513 -4.28514,2.811 -1.29321,0.55149 -6.57918,0.62218 -8.18464,0.10945 z m 89.49288,0.2576 c -2.84584,-0.58238 -5.68309,-1.67998 -7.25478,-2.80652 -4.30649,-3.0868 -6.37172,-7.94475 -5.88986,-13.85447 0.33032,-4.05095 1.60818,-6.8335 4.40031,-9.58178 1.8409,-1.81197 2.49159,-2.25122 4.77473,-3.22324 2.9997,-1.27707 6.43463,-1.74014 9.65332,-1.30137 4.43828,0.60503 6.90378,1.67199 9.63886,4.17125 1.57727,1.4413 3.70409,4.45345 3.70409,5.246 0,0.18495 0.10236,0.45331 0.2275,0.59635 0.48815,0.5581 1.15951,3.64549 1.21738,5.5985 l 0.0608,2.05324 -11.15593,0.0715 -11.15592,0.0715 0,1.13638 c 0,2.59338 2.36951,4.84789 5.34635,5.08684 2.12814,0.17082 3.47512,-0.26105 4.57131,-1.46568 l 0.84716,-0.93097 5.14139,0 c 2.82775,0 5.21036,0.11161 5.29468,0.24802 0.28151,0.45549 -1.32982,3.15737 -2.72202,4.5643 -2.89351,2.92411 -7.53366,4.47846 -13.27734,4.44762 -1.58099,-0.008 -3.12092,-0.0659 -3.42206,-0.12749 z m 9.14233,-18.81641 c 0.1716,-0.20677 0.23511,-0.60715 0.1411,-0.88974 -0.95484,-2.87034 -2.97213,-4.48338 -5.60696,-4.48338 -2.44039,0 -4.93335,1.63876 -5.342,3.5116 -0.0878,0.40247 -0.2131,0.90137 -0.27842,1.10866 -0.31327,0.99439 0.3583,1.12881 5.63978,1.12881 4.01939,0 5.20225,-0.0817 5.4465,-0.37595 z m 23.42611,18.49224 c -1.95816,-0.72887 -2.31474,-0.95565 -3.59347,-2.2853 -1.44649,-1.50406 -2.07161,-2.65115 -2.65963,-4.88039 -0.41119,-1.55891 -0.45935,-3.05196 -0.38853,-12.04566 l 0.0809,-10.26619 5.47531,0 5.4753,0 0.13688,9.03424 c 0.12618,8.32845 0.17967,9.1198 0.68441,10.12931 1.42367,2.84732 6.12597,2.87381 7.69672,0.0434 0.80126,-1.44386 0.91041,-2.75873 0.93622,-11.27727 0.0123,-4.07066 0.1166,-7.55358 0.23172,-7.73981 0.15747,-0.25479 1.55975,-0.3202 5.66472,-0.26422 l 5.45548,0.0744 0,14.50955 0,14.50955 -5.1331,0.0745 -5.13309,0.0745 0,-2.05928 c 0,-1.46826 -0.0982,-2.05748 -0.34221,-2.053 -0.18821,0.003 -1.01734,0.69253 -1.84249,1.53127 -2.48814,2.52909 -3.9823,3.1264 -8.21838,3.2854 -2.60739,0.0979 -3.38513,0.03 -4.52673,-0.39491 z M 255.04094,342.0778 c -2.81481,-0.22209 -3.77879,-0.52469 -4.92628,-1.54638 -1.9408,-1.72804 -2.16989,-3.07613 -2.18186,-12.83939 -0.006,-5.2681 -0.10858,-8.0517 -0.3025,-8.24563 -0.16101,-0.16101 -0.80778,-0.23652 -1.43727,-0.1678 -0.62948,0.0687 -1.4525,0.006 -1.82893,-0.13921 -0.67835,-0.26181 -0.68365,-0.28979 -0.59859,-3.16048 l 0.0858,-2.89634 1.96741,-0.0801 1.96742,-0.0801 0.0727,-4.24336 c 0.0616,-3.59551 0.14274,-4.2956 0.53141,-4.58556 0.69809,-0.52079 10.02655,-0.482 10.46268,0.0435 0.2163,0.26062 0.30717,1.67544 0.28018,4.36252 -0.022,2.18725 0.0411,4.10798 0.14021,4.26829 0.10681,0.17283 1.23226,0.29149 2.76476,0.29149 l 2.58461,0 0,2.99296 c 0,3.46189 0.061,3.39073 -2.82367,3.29617 -0.9314,-0.0305 -1.91517,-0.0413 -2.18615,-0.024 -0.46248,0.0296 -0.48766,0.44101 -0.41064,6.71055 0.0732,5.95878 0.13479,6.73729 0.57118,7.21901 0.49512,0.54653 3.32373,1.28819 3.79714,0.9956 0.14016,-0.0866 0.43422,-0.009 0.65348,0.17336 0.53658,0.44532 0.58844,7.34026 0.0564,7.50462 -0.72173,0.22298 -7.01984,0.32541 -9.23957,0.15027 z m -124.49646,-20.04756 0.0702,-20.05844 9.85554,-0.0779 c 9.97464,-0.0788 16.11891,0.27888 18.47915,1.07577 0.527,0.17792 1.45999,0.49659 2.07332,0.70814 1.42774,0.49246 3.62118,2.14869 4.42469,3.34102 1.47422,2.1876 2.03763,6.02817 1.31073,8.93476 -0.56998,2.2791 -0.74033,2.61988 -2.14376,4.28849 -1.16538,1.38558 -2.63302,2.39894 -3.47435,2.39894 -1.23854,0 -0.5763,1.12632 0.86287,1.46754 0.98314,0.2331 3.41034,2.18639 3.90463,3.14222 0.86652,1.67567 1.25482,4.39077 1.25482,8.774 0,4.24927 0.0105,4.32541 0.68441,4.95851 0.37643,0.35363 0.68442,0.74692 0.68442,0.87397 0,0.12705 -2.92088,0.19797 -6.49084,0.1576 l -6.49084,-0.0734 -0.223,-0.95817 c -0.12265,-0.527 -0.33117,-2.92929 -0.46338,-5.33842 -0.24979,-4.55199 -0.46713,-5.3965 -1.65364,-6.42555 -0.95505,-0.82831 -2.06734,-1.06225 -5.78559,-1.21687 -2.48297,-0.10325 -3.57532,-0.0499 -3.89872,0.19054 -0.39167,0.29116 -0.45839,1.1941 -0.52015,7.04123 l -0.0709,6.70724 -6.22994,0.0736 -6.22993,0.0736 0.0702,-20.05844 z m 20.23816,-2.67552 c 2.41916,-0.34992 3.008,-0.65259 3.87701,-1.9928 0.82165,-1.26717 0.90962,-2.16631 0.34405,-3.51635 -0.95609,-2.28222 -2.73036,-2.96688 -7.70302,-2.97242 -2.41852,-0.003 -3.67877,0.10214 -3.90115,0.32453 -0.22331,0.22331 -0.32852,1.52092 -0.32852,4.05173 0,2.5308 0.10521,3.82841 0.32852,4.05172 0.4017,0.40168 4.75801,0.4333 7.38311,0.0536 z m 157.59021,22.51834 c -0.0465,-0.11292 -0.0516,-6.64222 -0.0113,-14.50955 l 0.0733,-14.30422 5.05983,0 5.05984,0 0,2.19012 c 0,1.20456 0.0966,2.19012 0.21468,2.19012 0.11807,0 0.88803,-0.687 1.71103,-1.52666 2.62677,-2.67997 4.93692,-3.66692 8.59481,-3.67192 5.79003,-0.008 9.65554,3.2078 10.53663,8.76537 0.15448,0.9744 0.29363,6.08343 0.30922,11.35341 l 0.0283,9.58177 -5.56426,0 -5.56426,0 -0.13688,-9.03424 c -0.14845,-9.79768 -0.21518,-10.22459 -1.75621,-11.23431 -1.59904,-1.04773 -4.54481,-0.83007 -5.83479,0.43112 -1.4652,1.43249 -1.71702,3.2159 -1.71702,12.15983 l 0,7.81449 -5.45914,0 c -3.00253,0 -5.49722,-0.0924 -5.54375,-0.20533 z m 160.87795,-0.13688 c -0.0721,-0.18821 -0.099,-6.74831 -0.0598,-14.57799 l 0.0712,-14.23579 4.92777,0 4.92777,0 0.0782,2.82565 c 0.0906,3.27351 0.30903,3.4225 1.56435,1.06721 1.60875,-3.01839 3.32195,-4.27435 6.62857,-4.85944 2.9234,-0.51728 2.81633,-0.73623 2.81633,5.75966 l 0,5.41044 -1.71103,-0.024 c -3.292,-0.0462 -4.24128,0.2523 -5.78981,1.82061 -2.01412,2.03988 -2.15349,2.67895 -2.24887,10.31175 -0.0442,3.53841 -0.0861,6.52588 -0.0931,6.6388 -0.007,0.11293 -2.48047,0.20533 -5.49663,0.20533 -4.1347,0 -5.51612,-0.0842 -5.61492,-0.34221 z m 26.83117,0.006 c -0.0733,-0.19135 -0.10118,-6.75401 -0.062,-14.58369 l 0.0712,-14.23579 5.61218,0 5.61219,0 0,14.50955 0,14.50955 -5.55015,0.0741 c -4.29092,0.0573 -5.58038,-0.005 -5.68337,-0.27376 z m 93.50193,-5.5e-4 c 0,-0.1911 0.79351,-1.4809 1.76091,-2.86624 0.96738,-1.38533 2.44998,-3.54123 3.29466,-4.79089 0.84467,-1.24965 2.26614,-3.31925 3.15881,-4.5991 0.89269,-1.27985 1.62668,-2.53846 1.63112,-2.79691 0.008,-0.45832 -0.47893,-1.19343 -6.15167,-9.29014 -1.50571,-2.1491 -2.77748,-4.06611 -2.82616,-4.26003 -0.0702,-0.27972 1.17459,-0.35259 6.02338,-0.35259 l 6.11189,0 1.77893,3.49051 c 0.97841,1.91977 1.93918,3.4905 2.13506,3.4905 0.19588,0 0.91531,-1.04715 1.59874,-2.327 0.68342,-1.27985 1.54472,-2.85058 1.91397,-3.49051 l 0.67135,-1.1635 5.87443,0 c 6.73509,0 6.65747,-0.0417 4.58923,2.46389 -0.43096,0.52208 -1.49976,2.01502 -2.44551,3.41597 -0.40433,0.59893 -0.90148,1.2553 -1.10481,1.45861 -0.2033,0.20331 -0.50156,0.61618 -0.66284,0.91749 -0.16125,0.30131 -0.46346,0.75368 -0.67157,1.00527 -1.11773,1.35128 -3.1382,4.26918 -3.13875,4.53289 0,0.16763 0.53883,1.10555 1.19819,2.08426 2.51637,3.73514 8.65799,13.16325 8.65799,13.29101 0,0.0736 -2.8024,0.10064 -6.22756,0.0602 l -6.22755,-0.0735 -1.98305,-3.96959 c -1.30082,-2.60392 -2.13219,-3.96959 -2.41652,-3.96959 -0.28346,0 -1.12665,1.37396 -2.43621,3.96959 l -2.00273,3.96959 -6.05286,0.0737 c -4.74797,0.0578 -6.05243,-10e-4 -6.05087,-0.27376 z m -93.44164,-33.78682 c -0.10343,-0.10341 -0.18803,-1.83311 -0.18803,-3.84377 l 0,-3.65576 5.68063,0.074 5.68063,0.074 0,3.69583 0,3.69583 -5.49261,0.074 c -3.02094,0.0407 -5.57722,-0.0107 -5.68062,-0.11407 z M 173.86959,273.64624 c 6.12812,-1.50546 8.29367,-2.27136 12.04566,-4.26023 9.10633,-4.82713 16.054,-12.56273 19.78638,-22.03035 0.59587,-1.51152 1.09916,-2.9234 1.36622,-3.83271 0.87414,-2.97638 1.70679,-8.71922 1.70679,-11.7719 0,-3.15288 -1.0226,-10.10738 -1.65996,-11.2891 -0.14102,-0.26146 -0.2564,-0.71925 -0.2564,-1.01733 0,-0.4886 -0.48519,-1.81679 -1.12848,-3.08915 -0.13219,-0.26145 -0.24034,-0.60084 -0.24034,-0.75419 0,-0.15335 -0.2845,-0.86339 -0.63222,-1.57787 -2.712,-5.57246 -5.97364,-9.91017 -10.75571,-14.30418 -1.42341,-1.30791 -4.35371,-3.55765 -4.63385,-3.55765 -0.0918,0 -0.55906,-0.28871 -1.03837,-0.64158 -2.8863,-2.1249 -10.2756,-4.94998 -14.97037,-5.72348 -2.57902,-0.42491 -11.17755,-0.56366 -13.27761,-0.21425 -8.32731,1.3855 -14.69081,4.19563 -20.97208,9.26131 -16.89459,13.62503 -20.60304,38.29988 -8.48419,56.45127 5.87456,8.79881 14.06971,14.65122 24.66538,17.61429 1.44518,0.40415 2.02593,0.52006 5.06466,1.01088 1.99526,0.32227 11.803,0.12211 13.41449,-0.27378 z m 0.27376,-19.43086 c -0.90342,-0.59274 -1.76578,-1.17849 -1.91635,-1.30166 -0.15057,-0.12317 -0.63698,-0.4574 -1.08089,-0.74275 -3.90653,-2.51107 -10.8735,-9.31846 -13.66021,-13.34732 -5.06823,-7.32733 -7.30233,-14.45546 -8.27527,-26.40314 l -0.18079,-2.22022 0.94758,-0.72276 c 0.52117,-0.39751 1.03426,-0.72275 1.14021,-0.72275 0.10595,0 0.86668,-0.43118 1.69051,-0.95818 0.82383,-0.527 1.54602,-0.95818 1.60487,-0.95818 0.0588,0 0.17946,1.07795 0.26804,2.39545 0.22132,3.29168 0.66954,7.29768 1.01846,9.10269 0.47323,2.44809 1.83797,7.13108 2.19001,7.51485 0.13122,0.14304 0.23857,0.4227 0.23857,0.62146 0,0.64289 2.23613,5.07111 3.90025,7.72367 4.30445,6.8612 9.37303,11.72657 17.27637,16.58373 l 2.14993,1.32129 -0.64423,0.4955 c -0.35432,0.27252 -0.73445,0.49823 -0.84473,0.50158 -0.11027,0.003 -1.0056,0.49886 -1.98962,1.10115 -0.98401,0.60228 -1.87934,1.09466 -1.98961,1.09419 -0.11028,-5.5e-4 -0.93967,-0.48585 -1.8431,-1.0786 z m 4.89391,-15.55176 c -4.15565,-2.9639 -7.62161,-6.53934 -9.66988,-9.97536 -0.74735,-1.2537 -2.20504,-4.31145 -2.20504,-4.62545 0,-0.14211 -0.10786,-0.4723 -0.2397,-0.73376 -0.26286,-0.52131 -0.90617,-2.76223 -1.369,-4.76875 -0.4975,-2.15684 -0.71419,-7.26244 -0.32798,-7.72779 0.35358,-0.42604 4.1315,-2.3515 4.61384,-2.3515 0.29803,0 0.48212,1.18361 0.74514,4.79089 0.32138,4.40768 1.44246,7.88653 4.03686,12.52697 1.58611,2.83696 5.77204,7.14242 8.7733,9.02382 3.39092,2.12566 3.61551,2.28605 3.61551,2.58198 0,0.40767 -4.00222,3.38063 -4.55103,3.38063 -0.24598,0 -1.78589,-0.95476 -3.42202,-2.12168 z m 229.94251,16.20427 c 1.08373,-0.23482 2.21679,-0.52806 2.51793,-0.65163 0.30114,-0.12358 1.1019,-0.44915 1.77947,-0.72348 3.00244,-1.21562 6.37742,-3.97532 8.33161,-6.81271 0.57082,-0.82884 0.96847,-1.68791 0.8836,-1.90904 -0.0849,-0.22113 -0.62227,-0.65694 -1.19425,-0.96846 -0.57197,-0.31153 -1.53272,-0.86613 -2.13501,-1.23244 -0.60228,-0.36632 -1.21825,-0.66871 -1.36882,-0.672 -0.15057,-0.003 -0.76022,0.67299 -1.35476,1.50282 -0.59456,0.82984 -1.51852,1.83702 -2.05324,2.23819 -0.53474,0.40117 -1.03384,0.80035 -1.10913,0.88708 -0.41325,0.47602 -1.85235,1.17749 -3.66196,1.78495 -6.63155,2.22614 -13.99085,-0.82544 -16.98042,-7.04101 -0.54178,-1.12642 -0.98506,-2.31134 -0.98506,-2.63317 l 0,-0.58514 16.76811,-0.0705 16.76811,-0.0705 -0.052,-3.55894 c -0.0398,-2.72439 -0.18274,-3.96388 -0.60962,-5.28576 -0.68951,-2.13515 -1.7293,-4.4329 -2.00599,-4.4329 -0.11383,0 -0.20694,-0.14131 -0.20694,-0.31402 0,-0.1727 -0.4285,-0.83693 -0.95224,-1.47607 -4.59703,-5.6101 -9.34259,-7.93629 -16.15808,-7.92044 -3.8188,0.009 -6.96831,0.71531 -9.30801,2.08779 -0.45171,0.26498 -1.20739,0.67901 -1.67928,0.92008 -1.31864,0.67363 -4.54206,3.89588 -5.90845,5.90629 -0.6745,0.99242 -1.63698,2.90194 -2.13884,4.24336 -0.89349,2.38819 -0.91257,2.53012 -0.91668,6.8192 -0.004,3.73294 0.0802,4.62613 0.56678,6.04415 1.89308,5.51701 5.12354,9.38664 10.08079,12.07542 3.66512,1.98793 8.9766,2.73863 13.08236,1.84897 z M 391.83225,231.8423 c -0.32638,-0.32638 -0.1955,-0.91896 0.55298,-2.50365 1.46396,-3.09952 3.34409,-5.15421 6.06523,-6.62833 2.22678,-1.20632 3.5457,-1.49923 6.75064,-1.49923 3.99341,0 6.34426,0.80077 9.14592,3.11535 2.03903,1.68455 4.71922,6.21205 4.3095,7.27978 -0.14107,0.36763 -1.77266,0.41859 -13.40119,0.41859 -7.28231,0 -13.32272,-0.0821 -13.42308,-0.18251 z m 133.17594,23.02137 c 1.11011,-0.23714 2.26477,-0.53038 2.56591,-0.65163 0.30115,-0.12126 1.10191,-0.4458 1.77948,-0.7212 1.9022,-0.77315 4.64576,-2.66727 6.18703,-4.27143 1.87803,-1.95465 3.22753,-3.92888 3.03269,-4.43662 -0.0873,-0.22759 -0.62678,-0.6687 -1.19876,-0.98022 -0.57198,-0.31153 -1.53273,-0.86613 -2.13501,-1.23244 -0.60229,-0.36632 -1.21826,-0.66871 -1.36883,-0.672 -0.15057,-0.003 -0.76616,0.68118 -1.36795,1.52102 -0.60179,0.83984 -1.92487,2.13116 -2.94013,2.8696 -7.06385,5.13782 -16.89122,2.81842 -20.81931,-4.91365 -0.55944,-1.10123 -1.01718,-2.29946 -1.01718,-2.66274 l 0,-0.66051 16.76812,-0.0705 16.76811,-0.0705 -0.0402,-3.46678 c -0.0342,-2.94698 -0.15082,-3.80898 -0.77774,-5.74907 -0.7669,-2.37328 -2.50832,-5.42205 -4.04102,-7.07473 -1.28585,-1.3865 -4.10221,-3.83115 -4.41367,-3.83115 -0.1463,0 -0.4605,-0.16219 -0.69821,-0.36043 -0.54693,-0.4561 -3.56667,-1.66104 -5.35997,-2.13874 -1.84323,-0.49101 -7.84052,-0.48954 -9.44489,0.002 -4.72338,1.44803 -6.73547,2.5983 -9.59147,5.48323 -3.70262,3.74012 -5.37116,7.56059 -5.63045,12.89201 -0.26292,5.40684 0.78103,9.38287 3.41076,12.9905 4.79281,6.575 12.81366,9.81201 20.33273,8.20577 z m -17.09696,-23.01879 c -0.35338,-0.35338 -0.17968,-0.99586 0.82827,-3.06343 1.65144,-3.38753 4.18831,-5.58817 8.29465,-7.19534 1.29523,-0.50694 7.18198,-0.50938 8.48672,-0.004 1.54023,0.59716 2.83845,1.24516 3.23212,1.6133 0.20125,0.18821 0.45982,0.34221 0.57458,0.34221 0.32096,0 2.2797,1.92431 3.20461,3.1483 1.03522,1.36993 2.35132,4.16815 2.23779,4.7579 -0.0771,0.40057 -1.37598,0.45053 -13.37954,0.51465 -7.31177,0.0391 -13.37742,-0.0123 -13.4792,-0.11407 z m 101.69254,23.03153 c 3.3686,-0.7086 5.35758,-1.55158 8.03906,-3.40714 1.35905,-0.94045 4.51712,-4.00208 4.51712,-4.37918 0,-0.10824 0.30782,-0.55474 0.68406,-0.99223 0.37623,-0.4375 0.64723,-0.91863 0.60225,-1.06921 -0.10236,-0.34245 -4.3245,-3.1463 -4.73958,-3.14745 -0.16774,-5.5e-4 -0.65206,0.49998 -1.07625,1.1121 -2.59429,3.74356 -6.9938,6.00495 -11.68257,6.00495 -5.96346,0 -11.18646,-3.60103 -13.1035,-9.03425 -0.23908,-0.67757 -0.38308,-1.38594 -0.32003,-1.57415 0.09,-0.26864 3.65559,-0.34311 16.58614,-0.3464 9.05935,-0.002 16.64333,-0.11297 16.85331,-0.24592 0.57028,-0.36111 0.12434,-5.84661 -0.73635,-9.0579 -0.25859,-0.96491 -1.42136,-3.51948 -2.04628,-4.4957 -1.94705,-3.04157 -5.71337,-6.31111 -8.8235,-7.65969 -0.60229,-0.26116 -1.34145,-0.58042 -1.6426,-0.70946 -0.78389,-0.33592 -1.87687,-0.55472 -4.44868,-0.89053 -2.24287,-0.29287 -5.14536,-0.0892 -7.87075,0.55214 -4.14614,0.97576 -9.62128,5.19427 -11.8612,9.13887 -3.86285,6.80266 -3.56842,15.56925 0.72959,21.72222 4.69584,6.72252 12.74278,10.07701 20.33976,8.47893 z m -17.01045,-23.51797 c 0,-0.80078 1.34134,-3.98763 1.67837,-3.98763 0.13089,0 0.23799,-0.16604 0.23799,-0.36898 0,-0.51791 2.90182,-3.22186 4.38024,-4.08156 2.32774,-1.35358 3.74248,-1.69895 6.98101,-1.70425 4.67347,-0.008 7.7435,1.30743 10.68204,4.5758 1.36702,1.52045 2.86933,4.41959 2.86933,5.53716 l 0,0.69583 -13.41449,0 -13.41449,0 0,-0.66637 z m -156.31988,8.3129 c 0,-16.13164 -0.0581,-15.61162 1.93456,-17.31727 2.43824,-2.08703 6.02095,-1.52896 7.84159,1.22147 l 0.76381,1.15388 0.13688,14.9405 0.13688,14.94051 2.87454,0 2.87453,0 0.15854,-14.64643 c 0.0872,-8.05554 0.25049,-14.95888 0.36293,-15.34075 0.24803,-0.84252 1.376,-2.13837 2.48995,-2.86054 1.72151,-1.11604 5.21925,-0.56151 6.62005,1.04956 1.3513,1.55413 1.31117,1.08883 1.45602,16.87796 l 0.13688,14.9202 2.93545,0.0776 c 2.86426,0.0757 2.9393,0.0623 3.09349,-0.55204 0.0869,-0.34632 0.11824,-7.15694 0.0696,-15.13471 -0.0684,-11.21107 -0.17097,-14.72263 -0.45166,-15.46321 -1.64366,-4.33669 -4.16314,-6.82575 -8.26705,-8.16717 -1.34955,-0.44113 -4.50242,-0.39525 -6.09765,0.0887 -1.4702,0.44605 -4.03478,1.8337 -4.5612,2.46799 -0.49754,0.59952 -1.18589,0.50049 -1.9149,-0.2755 -0.35363,-0.37643 -0.73766,-0.68442 -0.85338,-0.68442 -0.1157,0 -0.67853,-0.27718 -1.25073,-0.61597 -2.76264,-1.63574 -7.99635,-1.70611 -9.89182,-0.133 -0.38934,0.32313 -0.85841,-0.12841 -0.86685,-0.83444 -0.003,-0.26894 -0.69522,-0.33322 -2.94716,-0.27376 l -2.94297,0.0777 0,19.71108 0,19.71109 2.73765,0.13688 c 2.17043,0.10853 2.80855,0.0551 3.07985,-0.25764 0.26443,-0.30488 0.34221,-3.67222 0.34221,-14.81833 z m -190.32472,12.22407 c 0.0576,-1.98379 -0.0161,-2.77804 -0.27377,-2.94899 -0.19397,-0.12867 -3.37093,-0.22033 -7.05992,-0.20367 -3.68898,0.0166 -7.16922,0.0194 -7.73386,0.006 l -1.02662,-0.0243 0,-16.84582 0,-16.84581 -2.94297,0.0777 -2.94298,0.0777 -0.0708,19.43732 c -0.039,10.69053 -0.0115,19.59273 0.0611,19.78268 0.10374,0.27164 2.4563,0.33007 11.02144,0.27376 l 10.88955,-0.0716 0.0789,-2.71502 z m 27.04316,2.20404 c 3.29019,-1.21245 6.71871,-3.17279 7.31749,-4.18397 0.49827,-0.84142 0.72299,-0.23196 0.79742,2.16263 l 0.0787,2.53232 3.01141,0 3.01142,0 0.0702,-19.78851 0.0702,-19.78851 -3.08166,0.0774 -3.08166,0.0774 -0.0787,2.53233 c -0.0433,1.39278 -0.12916,2.53232 -0.19082,2.53232 -0.0617,0 -0.94147,-0.62773 -1.95512,-1.39496 -3.50743,-2.65477 -7.07846,-3.80657 -11.80177,-3.80657 -2.7317,0 -4.08094,0.25069 -7.05348,1.31056 -6.26763,2.23474 -11.40833,8.4808 -12.43709,15.11131 -1.45521,9.37907 2.99935,17.78902 11.47891,21.67148 1.31727,0.60314 2.18917,0.88167 4.51712,1.44305 1.18835,0.28656 8.22413,-0.0818 9.32734,-0.48833 z m -8.36916,-5.52752 c -0.97871,-0.21053 -2.08746,-0.5244 -2.46389,-0.69749 -4.09856,-1.88462 -6.66723,-4.56918 -8.04294,-8.40585 -0.57846,-1.61322 -0.71696,-2.48879 -0.71458,-4.51712 0.003,-2.71414 0.3457,-4.18601 1.54317,-6.63155 0.98464,-2.01089 3.72585,-4.73156 5.77384,-5.73056 0.86757,-0.4232 1.77295,-0.86417 2.01196,-0.97994 1.11546,-0.54027 4.57564,-0.82826 6.4347,-0.53555 2.6272,0.41364 3.5325,0.7543 5.6487,2.12554 4.21635,2.73209 6.31404,6.57736 6.30791,11.56305 -0.004,3.17669 -0.50093,4.99226 -2.06267,7.5346 -1.99348,3.24514 -5.22971,5.42748 -9.29156,6.26572 -2.48134,0.51207 -2.80404,0.51265 -5.14464,0.009 z m 47.84444,-2.22414 0.0724,-8.26265 9.64624,-0.10854 c 9.98895,-0.11241 10.31305,-0.14698 12.63266,-1.3476 1.30508,-0.67549 3.04019,-2.33946 4.01958,-3.85477 4.29196,-6.6405 1.13644,-14.94668 -6.6148,-17.41193 -0.66971,-0.213 -4.86374,-0.31092 -13.31637,-0.31092 l -12.33875,0 -0.17694,0.70496 c -0.3148,1.25427 -0.14068,38.26914 0.18185,38.65777 0.21061,0.25376 1.06023,0.32989 3.05668,0.27389 l 2.765,-0.0776 0.0724,-8.26265 z m 0.0644,-19.93516 0,-5.33842 8.69205,0.002 c 5.13427,8.2e-4 9.10877,0.11726 9.71016,0.28428 2.14622,0.59607 3.75477,2.78876 3.76676,5.13465 0.007,1.3177 -0.52448,2.54879 -1.5994,3.70667 -1.44023,1.55128 -1.42783,1.54959 -11.38484,1.54959 l -9.18473,0 0,-5.33842 z m 40.17905,19.91641 0.0725,-8.2814 3.48818,0 3.48817,0 8.34647,8.34984 8.34647,8.34984 4.03973,0 c 2.22182,0 4.03971,-0.0974 4.03971,-0.21635 0,-0.11898 -3.57264,-3.78118 -7.93919,-8.1382 -4.36656,-4.35703 -7.93919,-8.00009 -7.93919,-8.09569 0,-0.0956 0.76996,-0.25438 1.71103,-0.35284 2.31691,-0.2424 3.82497,-0.80723 5.73779,-2.149 3.07085,-2.15407 4.87496,-5.58454 4.8624,-9.24573 -0.0181,-5.29748 -3.37479,-9.66096 -8.61539,-11.19974 -0.78599,-0.23079 -4.57216,-0.29896 -13.41449,-0.24153 l -12.31943,0.08 -0.0708,19.43732 c -0.039,10.69053 -0.0104,19.59551 0.0634,19.78885 0.10045,0.26299 0.87668,0.33193 3.08226,0.27376 l 2.94799,-0.0778 0.0725,-8.28139 z m 0.18084,-14.66949 c -0.0711,-0.18522 -0.0956,-2.6119 -0.0544,-5.39261 l 0.0748,-5.05585 9.17113,0 c 10.57969,0 10.37784,-0.0439 11.97722,2.60735 1.45744,2.416 1.0932,4.6787 -1.09072,6.77552 -1.30922,1.257 -2.67582,1.41697 -12.03739,1.40905 -6.00339,-0.005 -7.94265,-0.0879 -8.04071,-0.34346 z m 140.73573,3.10291 0,-19.84797 -2.46389,-0.0768 -2.46388,-0.0768 -1.98458,2.05255 c -2.44773,2.53157 -4.32412,3.96551 -6.63902,5.07357 -0.97871,0.46847 -1.9934,0.97001 -2.25484,1.11453 -0.26147,0.14453 -0.66618,0.26277 -0.89937,0.26277 -0.2332,0 -0.72764,0.19896 -1.09879,0.44213 -0.64507,0.42268 -0.67477,0.56653 -0.67477,3.26903 0,1.69656 0.11607,2.89863 0.2903,3.0063 0.15966,0.0987 0.62164,0.0615 1.02662,-0.0825 0.40498,-0.14407 1.22909,-0.41651 1.83137,-0.60541 2.27603,-0.71388 5.30429,-2.1263 7.46542,-3.48198 0.79342,-0.49772 1.50179,-0.90494 1.57414,-0.90494 0.0724,0 0.13158,6.63196 0.13158,14.73768 0,8.10573 0.086,14.82374 0.19122,14.92891 0.10518,0.10518 1.49112,0.15651 3.07986,0.11407 l 2.88863,-0.0771 0,-19.84797 z m 59.81768,11.63502 0,-8.34984 3.62905,0 3.62909,0 8.34647,8.34984 8.34647,8.34984 3.85721,0 c 2.12146,0 3.94408,-0.0869 4.05027,-0.19308 0.1062,-0.10619 -3.45874,-3.84643 -7.9221,-8.31165 l -8.11519,-8.11857 1.88096,-0.18535 c 3.14704,-0.3101 4.89284,-1.12481 7.27087,-3.39307 0.87016,-0.82999 1.58211,-1.67511 1.58211,-1.87805 0,-0.20293 0.0924,-0.36944 0.20533,-0.37 0.24592,-0.001 0.97781,-1.83494 1.43529,-3.59605 0.54137,-2.08409 0.047,-5.50241 -1.08326,-7.49041 -1.0935,-1.92333 -2.27071,-3.20597 -3.92187,-4.27317 -2.88902,-1.86727 -3.06138,-1.88654 -16.8678,-1.88654 l -12.34574,0 0,19.66545 c 0,10.81601 0.0821,19.7476 0.18252,19.84797 0.10037,0.10039 1.4555,0.18252 3.01142,0.18252 l 2.8289,0 0,-8.34984 z m 0.25887,-14.80124 c -0.16399,-0.19762 -0.2419,-2.31806 -0.19673,-5.35614 l 0.0747,-5.02901 8.07607,-0.082 c 9.96511,-0.10116 10.54606,-0.0431 11.9985,1.20018 1.46793,1.25649 1.9664,2.32832 1.95038,4.19385 -0.0167,1.92778 -0.62388,3.17996 -2.07971,4.28793 -1.48578,1.13076 -2.93673,1.27004 -12.30372,1.18111 -5.21279,-0.0495 -7.32425,-0.16067 -7.51953,-0.39594 z M 525.09779,211.2387 c 0.11956,-0.19346 -2.20654,-3.26321 -3.12689,-4.12651 -0.0802,-0.0753 -0.8833,-0.99925 -1.78453,-2.05324 -0.90127,-1.054 -1.70723,-1.97795 -1.79109,-2.05324 -0.0838,-0.0753 -1.05363,-1.21483 -2.1551,-2.53233 l -2.0027,-2.39544 -4.07699,0 c -2.58432,0 -4.077,0.10207 -4.077,0.27877 0,0.15333 1.88961,2.21683 4.19915,4.58557 2.30954,2.36873 5.09866,5.26155 6.19804,6.42847 l 1.9989,2.12168 3.2307,0 c 1.77687,0 3.30125,-0.11418 3.38751,-0.25373 z"
       id="path3133"
       inkscape:connector-curvature="0" />
  </g>
</svg>
