<?xml version="1.0" encoding="UTF-8" standalone="no"?>
<!-- Created with Inkscape (http://www.inkscape.org/) -->

<svg
   xmlns:dc="http://purl.org/dc/elements/1.1/"
   xmlns:cc="http://creativecommons.org/ns#"
   xmlns:rdf="http://www.w3.org/1999/02/22-rdf-syntax-ns#"
   xmlns:svg="http://www.w3.org/2000/svg"
   xmlns="http://www.w3.org/2000/svg"
   xmlns:xlink="http://www.w3.org/1999/xlink"
   xmlns:sodipodi="http://sodipodi.sourceforge.net/DTD/sodipodi-0.dtd"
   xmlns:inkscape="http://www.inkscape.org/namespaces/inkscape"
   width="744.09448819"
   height="1052.3622047"
   id="svg2"
   version="1.1"
   inkscape:version="0.48.4 r9939"
   sodipodi:docname="stickers.svg">
  <defs
     id="defs4">
    <inkscape:path-effect
       effect="spiro"
       id="path-effect3464"
       is_visible="true" />
    <inkscape:path-effect
       effect="spiro"
       id="path-effect3460"
       is_visible="true" />
    <inkscape:path-effect
       effect="spiro"
       id="path-effect3456"
       is_visible="true" />
    <inkscape:path-effect
       effect="spiro"
       id="path-effect3452"
       is_visible="true" />
    <inkscape:path-effect
       effect="spiro"
       id="path-effect3384"
       is_visible="true" />
    <inkscape:path-effect
       effect="spiro"
       id="path-effect3380"
       is_visible="true" />
    <inkscape:path-effect
       effect="spiro"
       id="path-effect3376"
       is_visible="true" />
    <inkscape:path-effect
       effect="spiro"
       id="path-effect3364"
       is_visible="true" />
    <inkscape:path-effect
       effect="spiro"
       id="path-effect3308"
       is_visible="true" />
    <inkscape:path-effect
       effect="spiro"
       id="path-effect3304"
       is_visible="true" />
    <inkscape:path-effect
       effect="spiro"
       id="path-effect3296"
       is_visible="true" />
    <inkscape:path-effect
       effect="spiro"
       id="path-effect3292"
       is_visible="true" />
    <inkscape:path-effect
       effect="spiro"
       id="path-effect3216"
       is_visible="true" />
    <inkscape:path-effect
       effect="spiro"
       id="path-effect3212"
       is_visible="true" />
    <inkscape:path-effect
       effect="spiro"
       id="path-effect3208"
       is_visible="true" />
    <inkscape:path-effect
       effect="spiro"
       id="path-effect3204"
       is_visible="true" />
    <inkscape:path-effect
       effect="spiro"
       id="path-effect3200"
       is_visible="true" />
    <inkscape:path-effect
       effect="spiro"
       id="path-effect3196"
       is_visible="true" />
    <clipPath
       clipPathUnits="userSpaceOnUse"
       id="clipPath3972">
      <path
         sodipodi:type="arc"
         style="color:#000000;fill:none;stroke:#4d4d4d;stroke-width:0.92929292;stroke-linecap:square;stroke-linejoin:miter;stroke-miterlimit:4;stroke-opacity:1;stroke-dasharray:none;stroke-dashoffset:0;marker:none;visibility:visible;display:inline;overflow:visible;enable-background:accumulate"
         id="path3974"
         sodipodi:cx="-37.377342"
         sodipodi:cy="426.509"
         sodipodi:rx="79.970123"
         sodipodi:ry="79.970123"
         d="m 42.592781,426.509 a 79.970123,79.970123 0 1 1 -159.940251,0 79.970123,79.970123 0 1 1 159.940251,0 z"
         transform="matrix(1.076087,0,0,1.076087,271.43925,-72.436836)" />
    </clipPath>
    <clipPath
       clipPathUnits="userSpaceOnUse"
       id="clipPath4476">
      <path
         sodipodi:type="arc"
         style="color:#000000;fill:none;stroke:#e6e6e6;stroke-width:0.92929292;stroke-linecap:square;stroke-linejoin:miter;stroke-miterlimit:4;stroke-opacity:1;stroke-dasharray:none;stroke-dashoffset:0;marker:none;visibility:visible;display:inline;overflow:visible;enable-background:accumulate"
         id="path4478"
         sodipodi:cx="-37.377342"
         sodipodi:cy="426.509"
         sodipodi:rx="79.970123"
         sodipodi:ry="79.970123"
         d="m 42.592781,426.509 a 79.970123,79.970123 0 1 1 -159.940251,0 79.970123,79.970123 0 1 1 159.940251,0 z"
         transform="matrix(1.024919,-0.32787848,0.32787848,1.024919,506.53323,-97.874055)" />
    </clipPath>
    <clipPath
       clipPathUnits="userSpaceOnUse"
       id="clipPath4719">
      <path
         transform="matrix(1.076087,0,0,1.076087,402.27819,233.78367)"
         d="m 42.592781,426.509 a 79.970123,79.970123 0 1 1 -159.940251,0 79.970123,79.970123 0 1 1 159.940251,0 z"
         sodipodi:ry="79.970123"
         sodipodi:rx="79.970123"
         sodipodi:cy="426.509"
         sodipodi:cx="-37.377342"
         id="path4721"
         style="color:#000000;fill:none;stroke:#e6e6e6;stroke-width:0.92929292;stroke-linecap:square;stroke-linejoin:miter;stroke-miterlimit:4;stroke-opacity:1;stroke-dasharray:none;stroke-dashoffset:0;marker:none;visibility:visible;display:inline;overflow:visible;enable-background:accumulate"
         sodipodi:type="arc" />
    </clipPath>
    <path
       sodipodi:type="arc"
       style="color:#000000;fill:none;stroke:none;stroke-width:0.79778081;marker:none;visibility:visible;display:inline;overflow:visible;enable-background:accumulate"
       id="path5705-0"
       sodipodi:cx="366.94357"
       sodipodi:cy="343.06085"
       sodipodi:rx="59.006004"
       sodipodi:ry="59.006004"
       d="m 425.94958,343.06085 a 59.006004,59.006004 0 1 1 -118.01201,0 59.006004,59.006004 0 1 1 118.01201,0 z"
       transform="matrix(-0.94977385,-0.81800654,0.81800654,-0.94977385,587.85986,821.17621)" />
    <path
       sodipodi:type="arc"
       style="color:#000000;fill:none;stroke:none;stroke-width:0.79778081;marker:none;visibility:visible;display:inline;overflow:visible;enable-background:accumulate"
       id="path5705-0-1"
       sodipodi:cx="366.94357"
       sodipodi:cy="343.06085"
       sodipodi:rx="59.006004"
       sodipodi:ry="59.006004"
       d="m 425.94958,343.06085 a 59.006004,59.006004 0 1 1 -118.01201,0 59.006004,59.006004 0 1 1 118.01201,0 z"
       transform="matrix(-0.94977385,-0.81800654,0.81800654,-0.94977385,587.85986,821.17621)" />
    <path
       transform="matrix(-0.04176337,0.92081083,-0.92081083,-0.04176337,940.48193,554.84388)"
       d="m 42.592781,426.509 a 79.970123,79.970123 0 1 1 -159.940251,0 79.970123,79.970123 0 1 1 159.940251,0 z"
       sodipodi:ry="79.970123"
       sodipodi:rx="79.970123"
       sodipodi:cy="426.509"
       sodipodi:cx="-37.377342"
       id="path3104-1"
       style="color:#000000;fill:none;stroke:#e6e6e6;stroke-width:1.08488417;stroke-linecap:square;stroke-linejoin:miter;stroke-miterlimit:4;stroke-opacity:1;stroke-dasharray:none;stroke-dashoffset:0;marker:none;visibility:visible;display:inline;overflow:visible;enable-background:accumulate"
       sodipodi:type="arc" />
    <path
       transform="matrix(-0.04176337,0.92081083,-0.92081083,-0.04176337,940.48193,554.84388)"
       d="m 42.592781,426.509 a 79.970123,79.970123 0 1 1 -159.940251,0 79.970123,79.970123 0 1 1 159.940251,0 z"
       sodipodi:ry="79.970123"
       sodipodi:rx="79.970123"
       sodipodi:cy="426.509"
       sodipodi:cx="-37.377342"
       id="path3104-0"
       style="color:#000000;fill:none;stroke:#e6e6e6;stroke-width:1.08488417;stroke-linecap:square;stroke-linejoin:miter;stroke-miterlimit:4;stroke-opacity:1;stroke-dasharray:none;stroke-dashoffset:0;marker:none;visibility:visible;display:inline;overflow:visible;enable-background:accumulate"
       sodipodi:type="arc" />
    <path
       transform="matrix(-0.04176337,0.92081083,-0.92081083,-0.04176337,940.48193,554.84388)"
       d="m 42.592781,426.509 a 79.970123,79.970123 0 1 1 -159.940251,0 79.970123,79.970123 0 1 1 159.940251,0 z"
       sodipodi:ry="79.970123"
       sodipodi:rx="79.970123"
       sodipodi:cy="426.509"
       sodipodi:cx="-37.377342"
       id="path3104-7"
       style="color:#000000;fill:none;stroke:#e6e6e6;stroke-width:1.08488417;stroke-linecap:square;stroke-linejoin:miter;stroke-miterlimit:4;stroke-opacity:1;stroke-dasharray:none;stroke-dashoffset:0;marker:none;visibility:visible;display:inline;overflow:visible;enable-background:accumulate"
       sodipodi:type="arc" />
  </defs>
  <sodipodi:namedview
     id="base"
     pagecolor="#ffffff"
     bordercolor="#666666"
     borderopacity="1.0"
     inkscape:pageopacity="0.0"
     inkscape:pageshadow="2"
     inkscape:zoom="0.7875344"
     inkscape:cx="507.6739"
     inkscape:cy="668.22039"
     inkscape:document-units="px"
     inkscape:current-layer="layer1"
     showgrid="false"
     inkscape:window-width="1276"
     inkscape:window-height="775"
     inkscape:window-x="0"
     inkscape:window-y="21"
     inkscape:window-maximized="1" />
  <metadata
     id="metadata7">
    <rdf:RDF>
      <cc:Work
         rdf:about="">
        <dc:format>image/svg+xml</dc:format>
        <dc:type
           rdf:resource="http://purl.org/dc/dcmitype/StillImage" />
        <dc:title></dc:title>
      </cc:Work>
    </rdf:RDF>
  </metadata>
  <g
     inkscape:label="Layer 1"
     inkscape:groupmode="layer"
     id="layer1">
    <image
       y="267.79642"
       x="539.72424"
       id="image4447"
       xlink:href="file:///home/svilayphiou/work/balsamine/osp.work.balsamine.2013-2014/materials/extract/ballon.gif"
       height="157.8287"
       width="154.7581"
       transform="matrix(0.95244993,0.30469514,-0.30469514,0.95244993,-269.46456,-30.423418)"
       clip-path="url(#clipPath4476)" />
    <image
       y="215.53648"
       x="312.7067"
       id="image4268"
       xlink:href="file:///home/svilayphiou/work/balsamine/osp.work.balsamine.2013-2014/materials/extract/allo.gif"
       height="164.87424"
       width="168.01041" />
    <image
       y="321.86444"
       x="155.86392"
       id="image3941"
       xlink:href="file:///home/svilayphiou/work/balsamine/osp.work.balsamine.2013-2014/materials/extract/BAM.gif"
       height="143.30069"
       width="173.80984"
       clip-path="url(#clipPath3972)"
       transform="translate(-80.907517,-222.85797)" />
    <path
       style="color:#000000;fill:#ffffff;stroke:#000000;stroke-width:1;stroke-miterlimit:4;stroke-dasharray:none;marker:none;visibility:visible;display:inline;overflow:visible;enable-background:accumulate"
       d="m 147.64666,52.701392 c -63.139469,0 -114.312499,51.204278 -114.312499,114.343748 0,63.13947 51.17303,114.3125 114.312499,114.3125 63.13947,0 114.34375,-51.17303 114.34375,-114.3125 0,-63.13947 -51.20428,-114.343748 -114.34375,-114.343748 z m 0,14.75 c 54.99244,0 99.59375,44.601308 99.59375,99.593748 0,54.99244 -44.60131,99.5625 -99.59375,99.5625 -54.992439,0 -99.562499,-44.57006 -99.562499,-99.5625 0,-54.99244 44.57006,-99.593748 99.562499,-99.593748 z"
       id="path2985"
       inkscape:connector-curvature="0" />
    <path
       sodipodi:type="arc"
       style="color:#000000;fill:none;stroke:#e6e6e6;stroke-width:0.92929292;stroke-linecap:square;stroke-linejoin:miter;stroke-miterlimit:4;stroke-opacity:1;stroke-dasharray:none;stroke-dashoffset:0;marker:none;visibility:visible;display:inline;overflow:visible;enable-background:accumulate"
       id="path3947"
       sodipodi:cx="-37.377342"
       sodipodi:cy="426.509"
       sodipodi:rx="79.970123"
       sodipodi:ry="79.970123"
       d="m 42.592781,426.509 a 79.970123,79.970123 0 1 1 -159.940251,0 79.970123,79.970123 0 1 1 159.940251,0 z"
       transform="matrix(1.076087,0,0,1.076087,187.99216,-291.48545)" />
    <path
       style="fill:#000000"
       d="m 176.60893,210.11001 c -0.20834,-0.22177 -0.52182,-0.72274 -0.6966,-1.11329 l -0.3178,-0.71008 -0.062,-5.61098 c -0.0342,-3.08605 0.024,-7.17406 0.12921,-9.08447 0.10525,-1.91041 0.24165,-5.59763 0.30322,-8.19382 l 0.11199,-4.72037 -0.68892,0.65928 c -0.79132,0.75724 -1.76046,1.21105 -2.5863,1.21105 l -0.57284,0 -0.8535,-0.88548 -0.8535,-0.88549 -0.89247,0.44825 c -0.49086,0.24655 -1.27558,0.49365 -1.74385,0.5491 l -0.85138,0.10081 -0.70978,-0.32217 c -0.39038,-0.17721 -0.75315,-0.34755 -0.80615,-0.37855 -0.053,-0.0311 -0.51611,0.77365 -1.02914,1.78811 -0.51304,1.01444 -1.09402,2.0175 -1.29107,2.22902 -0.19704,0.21148 -0.50699,0.38454 -0.68874,0.38454 -0.43049,0 -1.43219,-0.93928 -1.45344,-1.36288 -0.009,-0.18113 -0.003,-0.66998 0.0135,-1.08636 l 0.03,-0.75703 -0.27767,0 c -0.15272,0 -1.34109,0.47693 -2.64082,1.05986 -1.29975,0.58291 -2.8409,1.1841 -3.42482,1.33595 -0.58391,0.15184 -1.56282,0.27609 -2.17537,0.27609 -1.54344,0 -2.82254,-0.5142 -3.86011,-1.55177 l -0.83759,-0.83759 -0.26314,-0.88611 c -0.14473,-0.48736 -0.26315,-1.03507 -0.26315,-1.21712 0,-0.58274 0.67832,-1.68493 1.37375,-2.23223 0.37109,-0.29202 1.03528,-0.71373 1.47598,-0.93712 1.30155,-0.65971 4.38993,-1.41845 6.57494,-1.61531 l 2.03242,-0.18309 0.47195,0.19549 c 0.25957,0.10754 0.62051,0.44698 0.80207,0.75437 l 0.33016,0.55888 0.0121,1.30391 0.0121,1.30389 0.91164,0 0.91163,0 0.32241,0.35625 c 0.17731,0.19593 0.38027,0.35625 0.45098,0.35625 0.0708,0 0.29779,-0.39333 0.50461,-0.87407 l 0.37601,-0.87408 -0.25269,-0.60477 c -0.57458,-1.37514 -0.39223,-2.92547 0.38404,-3.26511 0.5826,-0.2549 1.27773,-0.22179 1.5292,0.0728 0.4407,0.5163 0.83756,1.78934 0.83756,2.68664 l 0,0.8749 0.536,0.38166 0.536,0.38167 0.6371,-0.21026 c 0.83781,-0.27651 1.8077,-1.14331 2.12262,-1.89699 l 0.25238,-0.60403 0.64671,-0.27022 0.64672,-0.27021 0.40671,0.26648 0.40671,0.26648 0.11885,0.79296 c 0.0654,0.43612 0.0684,0.99432 0.007,1.24044 -0.11858,0.47248 0.16304,1.19316 0.46626,1.19316 0.0988,0 0.57587,-0.37077 1.06032,-0.82392 1.16993,-1.09434 1.73115,-2.29133 1.88109,-4.0121 0.0654,-0.74942 0.16852,-1.4354 0.22938,-1.52441 0.26182,-0.38294 1.03313,-0.76464 1.54518,-0.76464 l 0.55372,0 0.22104,0.41306 0.22106,0.41303 -0.19095,2.71834 c -0.10498,1.4951 -0.19167,4.73594 -0.19255,7.20188 -7.9e-4,2.46595 -0.0851,5.80613 -0.18708,7.42263 -0.10203,1.61648 -0.19243,6.02513 -0.20091,9.79697 l -0.0155,6.85787 0.31123,0.75786 0.31125,0.75785 -0.11642,0.62047 c -0.18916,1.00825 -1.31432,1.32996 -2.02091,0.57782 z m -23.55228,-27.91008 c 0,-0.0931 -0.1031,-0.23337 -0.22905,-0.31172 -0.47786,-0.29715 -1.01783,-1.1901 -1.01783,-1.68316 l 0,-0.51298 0.5789,-0.35297 c 0.31841,-0.19414 0.66723,-0.35327 0.77517,-0.35363 0.10794,-3.6e-4 0.45522,0.24683 0.77175,0.54933 l 0.57552,0.54999 0.47513,-0.11454 c 1.49785,-0.36111 1.87408,-0.51725 2.43686,-1.01137 0.61178,-0.53717 0.77329,-0.92775 0.46296,-1.11954 -0.27013,-0.16695 -2.78884,0.22412 -4.06209,0.63073 -1.42178,0.45404 -3.45144,1.43616 -3.77591,1.82712 -0.46076,0.5552 0.23192,1.54214 1.3164,1.87559 0.71843,0.2209 1.69219,0.23654 1.69219,0.0272 z m -40.17997,10.88931 c -1.03041,-0.35622 -2.40273,-1.4099 -2.90938,-2.23384 -0.73932,-1.20236 -1.09129,-2.51062 -1.27664,-4.74553 -0.10148,-1.22462 -0.13915,-2.58729 -0.0836,-3.02815 0.0556,-0.44087 0.13512,-1.29701 0.17667,-1.90255 0.0416,-0.60553 0.20071,-1.343 0.35367,-1.63882 0.15298,-0.29583 0.27814,-0.68959 0.27814,-0.87506 0,-0.35197 0.50263,-1.90989 0.94265,-2.92182 0.14072,-0.32361 0.39936,-0.92952 0.57476,-1.34646 0.17539,-0.41693 0.42674,-0.84756 0.55856,-0.95697 0.13177,-0.10943 0.24382,-0.32938 0.24888,-0.48882 0.005,-0.15945 0.44689,-0.89109 0.98181,-1.62587 0.53493,-0.73477 1.0521,-1.52235 1.14931,-1.75015 0.17668,-0.41413 0.70971,-1.0438 0.70971,-0.83838 0,0.13338 0.28948,-0.10216 1.48135,-1.20484 1.28374,-1.18771 4.22039,-2.90354 5.85247,-3.41948 0.75163,-0.23759 2.0092,-0.51258 2.7946,-0.61106 l 1.42801,-0.17905 0.89309,0.2652 c 0.49119,0.14587 1.13118,0.46557 1.42219,0.71044 l 0.52911,0.44522 0.1237,1.15518 0.12369,1.15518 -0.21698,0.52385 c -0.11939,0.28812 -0.63118,0.91558 -1.13741,1.39435 l -0.92042,0.8705 -2.04526,1.00202 c -2.79723,1.37042 -4.43072,1.90987 -6.14074,2.02796 -1.55731,0.10754 -2.65956,-0.10444 -3.31899,-0.63846 l -0.41217,-0.33375 -0.68673,0.91498 c -0.6632,0.88365 -2.31831,4.0366 -2.18758,4.16732 0.0353,0.0353 0.52163,-0.0553 1.08081,-0.20137 l 1.0167,-0.26549 0.91731,0.1523 c 1.1352,0.18849 1.70759,0.43718 3.0032,1.30482 1.29596,0.86787 2.73512,2.78079 3.18883,4.23854 0.21588,0.69363 0.33626,1.61003 0.33626,2.55984 l 0,1.47944 -0.37521,1.21478 c -0.20636,0.66812 -0.64992,1.64422 -0.9857,2.16914 -0.67907,1.06154 -1.95253,2.35366 -2.31968,2.35366 -0.13096,0 -0.2382,0.0704 -0.2382,0.15641 0,0.086 -0.48094,0.33627 -1.06876,0.55611 -0.58782,0.21983 -1.06876,0.47008 -1.06876,0.5561 0,0.26955 -1.82874,0.15915 -2.77337,-0.16742 z m 3.80474,-2.64908 c 1.18423,-0.59887 2.16439,-1.76067 2.71379,-3.21663 l 0.38661,-1.02459 -0.0759,-1.36066 -0.0759,-1.36065 -0.4699,-0.96042 c -0.69081,-1.41197 -1.62769,-2.40644 -2.86271,-3.03868 l -1.09271,-0.5594 -0.99296,-0.0121 -0.99296,-0.0121 -0.87738,0.54146 c -0.48255,0.2978 -0.97388,0.74189 -1.09183,0.98688 -0.3407,0.70753 -0.6369,3.69102 -0.51145,5.15141 0.13056,1.5205 0.65231,3.26848 1.23241,4.12927 0.21707,0.32211 0.71293,0.77107 1.10192,0.9977 l 0.70724,0.41205 0.95593,-0.0868 c 0.54197,-0.0493 1.38458,-0.30366 1.94577,-0.58747 z m 4.40009,-20.62274 c 3.58769,-1.20436 6.60649,-3.41628 5.33064,-3.90587 -0.90449,-0.34709 -3.50282,0.10283 -5.20878,0.90183 -1.20904,0.56631 -2.85051,1.65214 -3.8156,2.52404 l -0.70102,0.63333 0.31363,0.22932 0.31364,0.22933 1.21071,-0.0801 c 0.66588,-0.044 1.81645,-0.2834 2.55678,-0.5319 z m 4.53182,21.99654 c -0.56039,-0.32788 -1.55325,-1.35384 -1.8216,-1.88227 -0.57356,-1.12951 -0.83848,-2.68669 -0.83848,-4.92849 l 0,-2.21307 0.2834,-0.9675 c 0.15587,-0.53212 0.4915,-1.18793 0.74584,-1.45734 l 0.46242,-0.48986 0.60184,0 c 0.33099,0 0.75699,0.0831 0.94665,0.18456 0.39207,0.20983 0.77099,1.02238 0.92503,1.9836 l 0.10485,0.65408 -0.25372,0.0973 c -0.33534,0.12868 -0.73689,-0.0354 -0.85782,-0.35053 -0.16783,-0.43735 -0.42892,-0.27805 -0.65197,0.39779 l -0.21492,0.6512 0.0867,2.1543 c 0.0844,2.09748 0.36172,3.27757 0.83955,3.5729 0.35016,0.21641 1.09654,-0.43303 1.47129,-1.28023 0.19736,-0.44618 0.51247,-1.56321 0.70022,-2.48227 l 0.34137,-1.67103 -0.20917,-0.39725 c -0.11508,-0.2185 -0.26954,-0.43735 -0.34331,-0.48633 -0.0738,-0.049 -0.433,-0.68465 -0.79828,-1.4126 l -0.66412,-1.32352 0.1733,-0.27961 c 0.0953,-0.15379 0.50167,-0.38587 0.903,-0.51574 l 0.7297,-0.2361 0.52851,0.39074 c 0.29068,0.21491 0.74671,0.80211 1.01341,1.30489 0.2667,0.50277 0.93481,1.58594 1.48471,2.40704 l 0.9998,1.49294 0.22288,-0.76989 c 0.30024,-1.03692 0.80844,-4.77249 0.69096,-5.07867 -0.11804,-0.30765 0.75009,-1.36388 0.99606,-1.21187 0.1,0.0618 0.24778,0.005 0.32843,-0.12491 l 0.14663,-0.23724 0.43762,0.2342 0.43761,0.23421 0.21196,1.09351 c 0.11656,0.60143 0.45236,1.58527 0.74615,2.18629 0.55298,1.13122 1.87606,2.63582 2.70985,3.08158 l 0.47803,0.25557 0.26204,-0.26203 c 0.14412,-0.14412 0.43028,-0.74008 0.63591,-1.32433 l 0.37388,-1.06231 -0.082,-0.9797 c -0.0451,-0.53883 -0.1382,-1.1105 -0.20684,-1.27039 -0.13666,-0.31828 0.46807,-1.07584 1.02174,-1.27991 0.48776,-0.17981 1.34646,0.3457 1.48023,0.90588 0.17015,0.71252 1.5179,2.5432 2.56611,3.48565 0.5959,0.53577 1.13811,0.85758 1.56636,0.92967 0.36023,0.0606 0.78654,0.14597 0.94734,0.18961 0.3834,0.10404 0.51981,1.05686 0.26469,1.84892 l -0.2008,0.62345 -0.70468,0.0575 c -0.38756,0.0316 -0.94865,0.0108 -1.24689,-0.0449 -0.30165,-0.0569 -1.15434,-0.61592 -1.92191,-1.25983 -0.75884,-0.63659 -1.40939,-1.15741 -1.44567,-1.15741 -0.0363,0 -0.23606,0.46645 -0.44394,1.03657 -0.20786,0.57012 -0.65031,1.35165 -0.98319,1.73673 l -0.60524,0.70016 -0.78433,0 -0.78435,0 -1.06182,-0.62344 c -0.58401,-0.34289 -1.56282,-1.13204 -2.17513,-1.75366 -0.6123,-0.62163 -1.11404,-1.0625 -1.11497,-0.97971 -0.004,0.34852 -0.70101,3.57499 -0.86643,4.01011 -0.21832,0.57417 -0.75608,0.77656 -1.30721,0.49194 -0.22413,-0.11575 -0.86873,-0.60689 -1.43242,-1.09144 -0.6667,-0.5731 -1.0492,-0.79871 -1.09444,-0.64551 -0.37095,1.25623 -0.90941,2.81746 -1.10286,3.19773 -0.41593,0.8176 -1.16405,1.58443 -1.80841,1.85367 -0.70463,0.2944 -1.42587,0.32837 -1.83908,0.0865 z m 34.39027,-18.26202 c 0,-0.049 0.0401,-0.0891 0.0891,-0.0891 0.049,0 0.0891,0.0401 0.0891,0.0891 0,0.049 -0.0401,0.0891 -0.0891,0.0891 -0.049,0 -0.0891,-0.0401 -0.0891,-0.0891 z"
       id="path4149"
       inkscape:connector-curvature="0"
       sodipodi:nodetypes="ccccssccscccsccccscscccscssscsscccccccccccssccsssscccsccccccccssccscccccssccccccscscssccccssscsscsccccsscccscssssccsccccccssccccccsscscscsssscccccccsscccsccsscccccccscccccccscsccscccccscsscscccsccccssccccccccccccccsccscssccccccsscscccssccsssscccsssss" />
    <path
       sodipodi:nodetypes="cscccccsccccccssccsscscscccsscsscccccscccsccccsssccccccccsscsssccccsscsccsscccsccscsccccccccccccscscccsccscccccscscscccsscsccsccccccccccccsscccsssccccscssccscscccccc"
       inkscape:connector-curvature="0"
       id="path4162"
       d="m 143.10888,164.92614 c -1.2193,-0.16392 -2.67356,-0.45854 -3.47349,-0.70371 -2.28177,-0.69933 -5.79771,-2.14791 -6.71786,-2.76781 -1.12077,-0.75503 -2.14806,-1.97565 -2.46115,-2.92434 l -0.20251,-0.61359 0.46012,-0.78514 c 0.25308,-0.43183 0.66724,-0.94806 0.92037,-1.14717 0.66566,-0.52361 2.13173,-1.03151 4.40565,-1.52626 2.41891,-0.52632 4.90191,-1.22918 6.04994,-1.71255 0.46826,-0.19716 0.94921,-0.30229 1.06875,-0.23362 0.11952,0.0686 0.15849,0.0599 0.0866,-0.0197 -0.0719,-0.0795 0.005,-0.244 0.1714,-0.36553 l 0.30223,-0.22101 -0.18504,-0.24193 c -2.072,-2.70929 -6.28286,-8.57027 -7.05329,-9.81726 -2.57148,-4.16223 -4.93532,-9.90965 -5.47587,-13.31396 -0.23946,-1.50804 -0.2342,-3.11651 0.0134,-4.0073 0.26953,-0.97089 1.15023,-2.15088 1.85491,-2.48527 1.05406,-0.50019 3.07404,-0.30858 4.80334,0.45561 0.29391,0.12989 1.55171,0.90438 2.79515,1.72109 2.30542,1.51428 3.98915,3.08434 4.48748,4.18459 0.14366,0.31713 0.3195,0.85715 0.39078,1.20004 0.22834,1.09843 0.0898,2.97538 -0.29555,4.00545 -0.51422,1.37434 -1.85476,2.78713 -3.33631,3.51611 l -1.18529,0.58321 -1.73153,0 -1.73156,0 0.72982,1.33594 c 0.85717,1.56908 1.88286,3.07583 4.45641,6.54652 l 1.88244,2.53865 0.11481,-0.66833 c 0.22871,-1.33143 0.87382,-3.03111 1.50587,-3.96771 l 0.64566,-0.95676 1.24689,-0.68609 1.24689,-0.68608 1.35572,0.0669 1.35573,0.0669 0.75787,0.39501 c 0.85312,0.44468 1.10428,0.66284 1.4007,1.2167 l 0.20591,0.38478 0.55113,-0.15807 c 1.19546,-0.34285 2.19398,0.27754 2.48834,1.546 0.2619,1.12866 0.18956,2.82407 -0.20258,4.74786 -0.46148,2.26385 -1.37843,5.78557 -1.62763,6.25121 l -0.18725,0.34986 0.39971,0.32366 c 0.21983,0.17801 0.57918,0.32365 0.79856,0.32365 0.61688,0 1.82583,-0.98038 2.47737,-2.009 0.887,-1.40032 1.66841,-3.0243 1.96387,-4.0814 0.25235,-0.90283 0.44449,-2.74077 0.45797,-4.38054 l 0.007,-0.76304 0.55277,-0.54038 c 0.30405,-0.2972 0.65463,-0.50128 0.77908,-0.45353 0.1245,0.0478 0.32808,-0.10337 0.45245,-0.33574 0.12437,-0.23242 0.45819,-0.50345 0.74178,-0.60231 l 0.51561,-0.17975 0.44282,0.20176 c 0.47665,0.21718 0.49421,0.26737 0.79725,2.27821 0.85122,5.64819 2.29622,8.67864 5.12659,10.75148 1.2272,0.89875 3.6389,2.06432 4.75621,2.29867 0.5369,0.11266 0.9762,0.26837 0.9762,0.34612 0,0.0778 -0.0802,0.14135 -0.17813,0.14135 -0.098,0 -0.17812,0.16397 -0.17812,0.36435 0,0.2004 -0.20598,0.57034 -0.45774,0.82208 l -0.45773,0.45774 -1.01181,-0.0755 -1.0118,-0.0754 -1.87033,-0.9072 c -1.19678,-0.58049 -2.22315,-1.23195 -2.85004,-1.80896 -0.53883,-0.49597 -1.03299,-0.90466 -1.09813,-0.9082 -0.0652,-0.003 -0.43862,-0.40855 -0.82995,-0.90003 l -0.7115,-0.89361 -0.10525,0.71547 c -0.0579,0.39353 -0.15028,1.01608 -0.20533,1.38347 -0.055,0.36738 -0.25373,0.85507 -0.44148,1.08375 l -0.34137,0.41578 -0.54479,-0.11965 c -0.29963,-0.0658 -0.81258,-0.39538 -1.13988,-0.73239 -0.56371,-0.58044 -0.81139,-1.19335 -1.14342,-2.82954 l -0.1446,-0.71251 -0.5019,0.9786 c -0.27604,0.53826 -1.03508,1.5118 -1.68675,2.16347 l -1.18484,1.18486 -0.70501,0.19573 c -1.08652,0.30163 -2.04804,0.22673 -2.98549,-0.23261 l -0.85547,-0.41916 -0.27217,0.41538 c -0.4527,0.69091 -1.8988,1.50473 -2.88039,1.62098 l -0.89458,0.10592 -0.11777,0.645 c -0.17752,0.97157 -0.91887,2.11479 -1.68506,2.59846 -0.37588,0.23728 -1.07283,0.55034 -1.54876,0.69567 -0.92562,0.28265 -2.36434,0.4435 -3.09192,0.34568 z m 2.97765,-2.87334 c 0.4131,-0.2144 0.83392,-0.5446 0.93517,-0.73377 0.10122,-0.18918 0.18409,-0.68609 0.18409,-1.10423 l 0,-0.76028 -0.52287,-0.54286 c -0.73112,-0.75905 -1.74598,-2.50057 -2.08625,-3.58 l -0.28659,-0.90921 -1.63511,0.67324 c -1.54371,0.63563 -3.85313,1.31649 -6.86284,2.02326 -1.07886,0.25336 -2.24188,0.65911 -2.65795,0.9273 -0.10162,0.0656 0.53245,0.9996 0.85683,1.26211 0.49357,0.3994 3.07885,1.58482 4.73375,2.17051 2.71677,0.96154 3.27734,1.07596 4.98755,1.01803 l 1.60315,-0.0542 0.75107,-0.38981 z m 4.80179,-4.42313 c 0.34055,-0.16159 0.74032,-0.47871 0.88839,-0.70468 l 0.26921,-0.41086 -0.47097,-1.17721 c -0.25902,-0.64746 -0.62022,-1.86029 -0.80267,-2.69516 -0.18245,-0.83487 -0.36596,-1.55221 -0.40784,-1.59409 -0.0419,-0.0419 -0.26871,0.0743 -0.50409,0.25802 -0.23539,0.18378 -0.90894,0.59976 -1.49675,0.92443 -0.58781,0.32465 -1.08594,0.60007 -1.10696,0.61203 -0.021,0.0121 0.22533,0.53894 0.54743,1.17107 0.32208,0.63212 0.81091,1.77052 1.08628,2.52978 l 0.50067,1.38049 0.43907,0 c 0.24148,0 0.7177,-0.13217 1.05823,-0.29382 z m 3.23224,-6.65313 c 0.91814,-3.49218 1.1154,-5.49706 0.52134,-5.29905 -0.1062,0.0354 -0.30045,0.37452 -0.4317,0.75361 -0.13123,0.37907 -0.4893,1.0799 -0.7957,1.55735 l -0.55708,0.86815 0.0972,1.54982 c 0.0534,0.85241 0.19384,1.81443 0.31199,2.13783 0.11817,0.3234 0.23745,0.56387 0.26512,0.53438 0.0277,-0.0295 0.29264,-0.97543 0.58886,-2.10209 z m -6.28085,-1.17111 c 0.58205,-0.35021 1.46143,-0.94753 1.95419,-1.32734 l 0.89591,-0.69058 0.21784,-0.81446 c 0.11979,-0.44794 0.41802,-1.13157 0.66269,-1.51916 0.24467,-0.38759 0.44486,-0.78439 0.44486,-0.88179 0,-0.29095 -1.02966,-0.73357 -1.92444,-0.82729 l -0.83653,-0.0876 -0.70848,0.41227 -0.70849,0.41228 -0.50837,0.99404 c -0.33365,0.65239 -0.59479,1.56955 -0.7598,2.66848 -0.31088,2.07043 -0.31294,2.29789 -0.0207,2.29789 0.12827,0 0.70937,-0.28654 1.29142,-0.63673 z m -7.3119,-14.58237 c 0.92185,-0.38516 1.85363,-1.17966 2.22805,-1.89975 0.18363,-0.35317 0.3879,-1.0494 0.45393,-1.54716 l 0.12006,-0.90504 -0.40155,-0.82949 c -0.56674,-1.17072 -1.93486,-2.48464 -4.00541,-3.84671 -2.02654,-1.33313 -3.13922,-1.8072 -4.2984,-1.83144 l -0.80677,-0.0168 -0.25291,0.34577 c -0.30233,0.41333 -0.3297,2.01374 -0.0626,3.66208 0.19327,1.19281 0.77954,3.11257 1.46014,4.78127 l 0.3881,0.95152 1.42998,0.69277 1.42998,0.69275 0.85183,0.003 c 0.46851,0.001 1.12803,-0.11198 1.4656,-0.25307 z"
       style="fill:#000000" />
    <path
       inkscape:connector-curvature="0"
       id="path4166"
       d="m 397.78216,182.09995 c -63.13947,0 -114.3125,51.20428 -114.3125,114.34375 0,63.13947 51.17303,114.3125 114.3125,114.3125 63.13947,0 114.34375,-51.17303 114.34375,-114.3125 0,-63.13947 -51.20428,-114.34375 -114.34375,-114.34375 z m 0,14.75 c 54.99244,0 99.59375,44.60131 99.59375,99.59375 0,54.99244 -44.60131,99.5625 -99.59375,99.5625 -54.99244,0 -99.5625,-44.57006 -99.5625,-99.5625 0,-54.99244 44.57006,-99.59375 99.5625,-99.59375 z"
       style="color:#000000;fill:#ffffff;stroke:#000000;stroke-width:1;stroke-miterlimit:4;stroke-dasharray:none;marker:none;visibility:visible;display:inline;overflow:visible;enable-background:accumulate" />
    <path
       transform="matrix(1.076087,0,0,1.076087,438.12766,-162.08689)"
       d="m 42.592781,426.509 a 79.970123,79.970123 0 1 1 -159.940251,0 79.970123,79.970123 0 1 1 159.940251,0 z"
       sodipodi:ry="79.970123"
       sodipodi:rx="79.970123"
       sodipodi:cy="426.509"
       sodipodi:cx="-37.377342"
       id="path4168"
       style="color:#000000;fill:none;stroke:#e6e6e6;stroke-width:0.92929292;stroke-linecap:square;stroke-linejoin:miter;stroke-miterlimit:4;stroke-opacity:1;stroke-dasharray:none;stroke-dashoffset:0;marker:none;visibility:visible;display:inline;overflow:visible;enable-background:accumulate"
       sodipodi:type="arc" />
    <path
       style="color:#000000;fill:#ffffff;stroke:#000000;stroke-width:1;stroke-miterlimit:4;stroke-dasharray:none;marker:none;visibility:visible;display:inline;overflow:visible;enable-background:accumulate"
       d="m 202.52434,374.31781 c -63.13947,0 -114.312503,51.20428 -114.312503,114.34375 0,63.13947 51.173033,114.3125 114.312503,114.3125 63.13947,0 114.34375,-51.17303 114.34375,-114.3125 0,-63.13947 -51.20428,-114.34375 -114.34375,-114.34375 z m 0,14.75 c 54.99244,0 99.59375,44.60131 99.59375,99.59375 0,54.99244 -44.60131,99.5625 -99.59375,99.5625 -54.99244,0 -99.5625,-44.57006 -99.5625,-99.5625 0,-54.99244 44.57006,-99.59375 99.5625,-99.59375 z"
       id="path4300"
       inkscape:connector-curvature="0" />
    <path
       sodipodi:type="arc"
       style="color:#000000;fill:none;stroke:#e6e6e6;stroke-width:0.92929292;stroke-linecap:square;stroke-linejoin:miter;stroke-miterlimit:4;stroke-opacity:1;stroke-dasharray:none;stroke-dashoffset:0;marker:none;visibility:visible;display:inline;overflow:visible;enable-background:accumulate"
       id="path4302"
       sodipodi:cx="-37.377342"
       sodipodi:cy="426.509"
       sodipodi:rx="79.970123"
       sodipodi:ry="79.970123"
       d="m 42.592781,426.509 a 79.970123,79.970123 0 1 1 -159.940251,0 79.970123,79.970123 0 1 1 159.940251,0 z"
       transform="matrix(1.076087,0,0,1.076087,242.86984,30.13097)" />
    <path
       sodipodi:type="arc"
       style="color:#000000;fill:none;stroke:none;stroke-width:0.79778081;marker:none;visibility:visible;display:inline;overflow:visible;enable-background:accumulate"
       id="path5705"
       sodipodi:cx="366.94357"
       sodipodi:cy="343.06085"
       sodipodi:rx="59.006004"
       sodipodi:ry="59.006004"
       d="m 425.94958,343.06085 a 59.006004,59.006004 0 1 1 -118.01201,0 59.006004,59.006004 0 1 1 118.01201,0 z"
       transform="matrix(-0.94977385,-0.81800654,0.81800654,-0.94977385,465.96042,922.75907)" />
    <text
       transform="translate(-346.69392,-14.034884)"
       xml:space="preserve"
       style="font-size:16px;font-style:normal;font-variant:normal;font-weight:500;font-stretch:normal;text-indent:0;text-align:start;text-decoration:none;line-height:125%;letter-spacing:0px;word-spacing:0px;text-transform:none;direction:ltr;block-progression:tb;writing-mode:lr-tb;text-anchor:start;baseline-shift:baseline;color:#000000;fill:#000000;fill-opacity:1;fill-rule:nonzero;stroke:none;stroke-width:1px;marker:none;visibility:visible;display:inline;overflow:visible;enable-background:accumulate;font-family:Inconsolata;-inkscape-font-specification:Inconsolata Medium"
       id="text3100-1"
       sodipodi:linespacing="125%"><textPath
         xlink:href="#path3104-1"
         id="textPath3106-9"><tspan
   style="font-size:12px;font-style:normal;font-variant:normal;font-weight:normal;font-stretch:normal;font-family:Ume P Gothic Balsa;-inkscape-font-specification:Ume P Gothic Balsa"
   id="tspan3102-1">www.balsamine.be</tspan></textPath></text>
    <text
       transform="translate(-401.67083,-336.04248)"
       xml:space="preserve"
       style="font-size:16px;font-style:normal;font-variant:normal;font-weight:500;font-stretch:normal;text-indent:0;text-align:start;text-decoration:none;line-height:125%;letter-spacing:0px;word-spacing:0px;text-transform:none;direction:ltr;block-progression:tb;writing-mode:lr-tb;text-anchor:start;baseline-shift:baseline;color:#000000;fill:#000000;fill-opacity:1;fill-rule:nonzero;stroke:none;stroke-width:1px;marker:none;visibility:visible;display:inline;overflow:visible;enable-background:accumulate;font-family:Inconsolata;-inkscape-font-specification:Inconsolata Medium"
       id="text3100-13"
       sodipodi:linespacing="125%"><textPath
         xlink:href="#path3104-0"
         id="textPath3106-91"><tspan
   style="font-size:12px;font-style:normal;font-variant:normal;font-weight:normal;font-stretch:normal;font-family:Ume P Gothic Balsa;-inkscape-font-specification:Ume P Gothic Balsa"
   id="tspan3102-9">www.balsamine.be</tspan></textPath></text>
    <text
       transform="translate(-150.69969,-204.91421)"
       xml:space="preserve"
       style="font-size:16px;font-style:normal;font-variant:normal;font-weight:500;font-stretch:normal;text-indent:0;text-align:start;text-decoration:none;line-height:125%;letter-spacing:0px;word-spacing:0px;text-transform:none;direction:ltr;block-progression:tb;writing-mode:lr-tb;text-anchor:start;baseline-shift:baseline;color:#000000;fill:#000000;fill-opacity:1;fill-rule:nonzero;stroke:none;stroke-width:1px;marker:none;visibility:visible;display:inline;overflow:visible;enable-background:accumulate;font-family:Inconsolata;-inkscape-font-specification:Inconsolata Medium"
       id="text3100-8"
       sodipodi:linespacing="125%"><textPath
         xlink:href="#path3104-7"
         id="textPath3106-4"><tspan
   style="font-size:12px;font-style:normal;font-variant:normal;font-weight:normal;font-stretch:normal;font-family:Ume P Gothic Balsa;-inkscape-font-specification:Ume P Gothic Balsa"
   id="tspan3102-7">www.balsamine.be</tspan></textPath></text>
    <g
       id="g3512"
       transform="translate(34.779603,192.71709)">
      <g
         transform="translate(4.0404337,9.8766157)"
         id="g3504">
        <path
           style="fill:none;stroke:#000000;stroke-width:1px;stroke-linecap:butt;stroke-linejoin:miter;stroke-opacity:1"
           d="m 336.64432,73.514174 0,0.780672 c 0,0.173539 0.014,0.34748 0,0.520453 -0.0179,0.220616 -0.0957,0.431903 -0.13017,0.650546 -0.044,0.279368 -0.0163,0.564403 0.009,0.846115 0.0249,0.281712 0.0467,0.568008 -0.009,0.845354 -0.0619,0.310087 -0.2181,0.5974 -0.26022,0.91078 -0.0405,0.301145 0,0.606927 0,0.910781 l 0,1.951671 0,2.602233 0,0.910798 c 0,0.173797 0.006,0.347532 0.0148,0.521088 0.009,0.173556 0.0188,0.349284 -0.0148,0.519802 -0.0453,0.22972 -0.16841,0.435174 -0.26022,0.650562 -0.20831,0.488716 -0.25468,1.04488 -0.13017,1.561343 -0.0129,0.529216 -0.10079,1.056549 -0.26022,1.561344 -0.054,0.170948 -0.11663,0.341677 -0.13018,0.520436 -0.01,0.129778 0,0.260194 0,0.390344 0,0.04339 0,0.08678 0,0.130175 0,0.04339 0,0.08678 0,0.130175 0,0.02234 -0.003,0.04455 -0.007,0.06641 -0.002,0.01093 -0.004,0.02201 -0.004,0.03317 1.9e-4,0.0056 0.001,0.01117 0.003,0.01643 0.002,0.0053 0.005,0.01021 0.009,0.01416 0.004,0.0039 0.009,0.0068 0.0142,0.0087 0.005,0.0019 0.0109,0.0027 0.0164,0.0029 0.0112,3.75e-4 0.0222,-0.0018 0.0332,-0.0041 0.0219,-0.0046 0.0441,-0.0075 0.0664,-0.0075 0.13011,0 0.26023,0 0.39034,0 0.13011,0 0.26022,0 0.39033,0 0.26038,0 0.52193,0.02923 0.78067,0 0.21991,-0.02484 0.43065,-0.10533 0.65056,-0.130175 0.25874,-0.02923 0.52029,0 0.78067,0 0.91078,0 1.82157,0 2.73235,0 0.52045,0 1.04089,0 1.56134,0 0.17348,0 0.34697,0 0.52045,0 0.0435,0 0.0869,-0.0017 0.13034,-0.0044 0.0434,-0.0027 0.0876,-0.0056 0.12988,0.0044 0.0474,0.01123 0.0893,0.03839 0.13011,0.06509 0.0408,0.0267 0.0827,0.05386 0.13011,0.06509 0.0423,0.01001 0.0865,0.0071 0.12989,0.0044 0.0434,-0.0027 0.0869,-0.0044 0.13034,-0.0044 l 0.91079,0"
           id="path3194"
           inkscape:path-effect="#path-effect3196"
           inkscape:original-d="m 336.64432,73.514174 c 0,0.260218 0,0.520453 0,0.780672 0,0.173489 0.0192,0.348029 0,0.520453 -0.0244,0.219789 -0.11017,0.430314 -0.13017,0.650546 -0.0202,0.22151 0.0234,1.527012 0,1.691469 -0.0446,0.312567 -0.21556,0.598213 -0.26022,0.91078 -0.043,0.300534 0,0.607182 0,0.910781 0,0.650563 0,1.301109 0,1.951671 0,0.867417 0,1.734833 0,2.602233 0,0.303599 0,0.607199 0,0.910798 0,0.346963 0.0528,0.697959 0,1.04089 -0.0356,0.230839 -0.19877,0.425232 -0.26022,0.650562 -0.45382,1.663975 0.14706,-0.101156 -0.13017,1.561343 -0.50137,1.504126 -0.10952,0.05427 -0.26022,1.561344 -0.0177,0.177932 -0.10477,0.343422 -0.13018,0.520436 -0.0184,0.128864 0,0.260235 0,0.390344 0,0.04328 0,0.08673 0,0.130175 0,0.04345 0,0.08673 0,0.130175 0,0.04345 -0.0307,0.09952 0,0.130175 0.0307,0.03066 0.0867,0 0.13018,0 0.13017,0 0.26022,0 0.39034,0 0.13018,0 0.26022,0 0.39033,0 0.26022,0 0.52152,0.02361 0.78067,0 0.22025,-0.02 0.43031,-0.110009 0.65056,-0.130175 0.25916,-0.02361 0.52046,0 0.78067,0 0.91078,0 1.82157,0 2.73235,0 0.52045,0 1.0409,0 1.56134,0 0.17349,0 0.34696,0 0.52045,0 0.0867,0 0.17607,-0.02098 0.26022,0 0.0941,0.02361 0.16615,0.106566 0.26022,0.130175 0.0841,0.02098 0.17349,0 0.26023,0 0.30359,0 0.60719,0 0.91079,0"
           inkscape:connector-curvature="0" />
        <path
           style="fill:none;stroke:#000000;stroke-width:1px;stroke-linecap:butt;stroke-linejoin:miter;stroke-opacity:1"
           d="m 350.82652,80.279984 0,2.992577 0,0.780672 c 0,0.08675 -0.004,0.173548 0,0.260218 0.008,0.179735 0.057,0.356102 0.13017,0.520453 0.0394,0.08862 0.0857,0.174009 0.13018,0.260219 0.0889,0.172381 0.17081,0.348328 0.26023,0.520453 0.0447,0.08609 0.0914,0.171309 0.13018,0.260218 0.0549,0.125816 0.0937,0.257999 0.13017,0.390344 0.0131,0.04751 0.026,0.09529 0.0458,0.140432 0.0198,0.04514 0.0468,0.08791 0.0844,0.119787 0.0239,0.0203 0.0516,0.03578 0.0762,0.05524 0.0123,0.0097 0.0239,0.02051 0.0334,0.03297 0.01,0.01246 0.017,0.02667 0.0206,0.04196 0.005,0.02278 0.002,0.04677 -0.005,0.06916 -0.007,0.0224 -0.0165,0.04378 -0.0237,0.06599 -0.007,0.02221 -0.0121,0.04584 -0.009,0.06896 0.002,0.01156 0.006,0.02287 0.0119,0.03272 0.006,0.0099 0.0151,0.01821 0.0256,0.0234 0.01,0.0049 0.021,0.0069 0.0319,0.0071 0.011,2.13e-4 0.022,-0.0013 0.0328,-0.0031 0.0217,-0.0037 0.0439,-0.0087 0.0654,-0.004 0.0124,0.0027 0.0241,0.0087 0.034,0.0167 0.01,0.008 0.0181,0.01796 0.0247,0.02886 0.0131,0.02181 0.0196,0.04699 0.024,0.07208 0.004,0.02509 0.007,0.05053 0.0132,0.07522 0.006,0.02469 0.0166,0.049 0.0342,0.06736 0.0175,0.0182 0.0411,0.02942 0.0654,0.0365 0.0242,0.0071 0.0494,0.01036 0.0742,0.01502 0.0248,0.0047 0.0497,0.01086 0.0717,0.02319 0.022,0.01232 0.0411,0.03146 0.0489,0.05546 0.007,0.02078 0.005,0.0433 0.002,0.06497 -0.003,0.02167 -0.006,0.0438 -0.002,0.06521 0.003,0.01543 0.0103,0.02988 0.0196,0.04258 0.009,0.01269 0.0208,0.02369 0.0331,0.03352 0.0246,0.01967 0.0525,0.03483 0.0775,0.05408 0.0486,0.03754 0.0843,0.08931 0.13017,0.130175 0.0729,0.06493 0.1674,0.09905 0.25954,0.131281 0.0921,0.03223 0.18683,0.06537 0.26091,0.128937 0.0466,0.03999 0.0832,0.09059 0.13018,0.130175 0.0745,0.06283 0.16976,0.09392 0.26022,0.130175 0.0901,0.03613 0.17787,0.07871 0.26023,0.130175 0.0829,0.05178 0.16386,0.113981 0.26022,0.130174 0.0428,0.0072 0.0866,0.0051 0.12999,0.0032 0.0434,-0.002 0.0868,-0.0032 0.13023,-0.0032 0.26022,0 0.52045,0 0.78067,0 0.13011,0 0.26023,0 0.39034,0 0.0434,0 0.0868,0 0.13018,0 0.0434,0 0.0869,0.0037 0.13017,0 0.0664,-0.0057 0.13048,-0.0355 0.1776,-0.08263 0.0471,-0.04713 0.0769,-0.111204 0.0826,-0.177607 0.1043,-0.09525 0.24976,-0.143757 0.39035,-0.130175 0.0439,0.0042 0.087,0.01418 0.13093,0.01808 0.0439,0.0039 0.0897,0.0013 0.12929,-0.01808 0.0278,-0.01364 0.0511,-0.03496 0.0716,-0.05812 0.0205,-0.02316 0.0386,-0.04839 0.0585,-0.07206 0.0396,-0.04695 0.0861,-0.08739 0.13017,-0.130175 0.044,-0.04277 0.0856,-0.088 0.13018,-0.130175 0.0446,-0.04223 0.0925,-0.08165 0.13017,-0.130174 0.0597,-0.07683 0.0902,-0.171542 0.13018,-0.260219 0.0399,-0.08843 0.0898,-0.172009 0.13017,-0.260218 0.0404,-0.08841 0.0718,-0.182454 0.13018,-0.260219 0.0738,-0.0983 0.18508,-0.162991 0.26023,-0.260234 0.0595,-0.077 0.0932,-0.170205 0.13018,-0.260219 0.0369,-0.08983 0.0781,-0.178259 0.13017,-0.260218 0.0263,-0.04132 0.0553,-0.08092 0.0797,-0.123355 0.0244,-0.04244 0.0444,-0.08831 0.0505,-0.13688 0.005,-0.04321 -9e-5,-0.08695 -0.004,-0.130313 -0.004,-0.04336 -0.007,-0.08777 0.004,-0.129905 0.0124,-0.04723 0.0411,-0.0882 0.0683,-0.12874 0.0272,-0.04054 0.0541,-0.08328 0.0618,-0.131479 0.007,-0.04291 -0.002,-0.08675 0,-0.130175 0.003,-0.06895 0.0321,-0.133754 0.0618,-0.196036 0.0297,-0.06228 0.0609,-0.125682 0.0684,-0.194291 0.005,-0.04327 -3.4e-4,-0.08691 -0.004,-0.13028 -0.004,-0.04337 -0.006,-0.08758 0.004,-0.129939 0.0112,-0.04741 0.037,-0.08986 0.0631,-0.130991 0.0261,-0.04113 0.0531,-0.08259 0.0671,-0.129243 0.0187,-0.06257 0.0134,-0.129506 0.008,-0.194624 -0.005,-0.06512 -0.008,-0.130385 -0.008,-0.195704 l 0,-0.260235 c 0,-0.04386 -0.004,-0.08761 -0.009,-0.131103 -0.003,-0.02174 -0.006,-0.04359 -0.005,-0.06552 4e-4,-0.02192 0.004,-0.04418 0.0143,-0.0636 0.0144,-0.02742 0.0402,-0.04673 0.0651,-0.06509 0.0249,-0.01836 0.0507,-0.03767 0.0651,-0.06509 0.0102,-0.01942 0.0139,-0.04167 0.0143,-0.0636 4e-4,-0.02192 -0.002,-0.04377 -0.005,-0.06552 -0.006,-0.04349 -0.009,-0.08725 -0.009,-0.131103 0,-0.08674 0,-0.17349 0,-0.260235 0,-0.216849 0,-0.433697 0,-0.650546 0,-0.06514 -0.002,-0.13027 -0.005,-0.195348 -0.003,-0.06508 -0.006,-0.130749 0.005,-0.194996 0.0227,-0.135595 0.10744,-0.254733 0.13017,-0.390328 0.0108,-0.06425 0.008,-0.129919 0.005,-0.194996 -0.003,-0.06508 -0.005,-0.130205 -0.005,-0.195348 l 0,-1.170999"
           id="path3198"
           inkscape:path-effect="#path-effect3200"
           inkscape:original-d="m 350.82652,80.279984 c 0,0.997525 0,1.995051 0,2.992577 0,0.260218 0,0.520453 0,0.780672 0,0.08673 -0.0148,0.17467 0,0.260218 0.0293,0.176392 0.0736,0.350816 0.13017,0.520453 0.0307,0.09197 0.0867,0.17349 0.13018,0.260219 0.0867,0.173506 0.17349,0.346963 0.26023,0.520453 0.0435,0.08673 0.0941,0.170178 0.13018,0.260218 0.051,0.127388 0.0792,0.263006 0.13017,0.390344 0.0361,0.09001 0.0764,0.179523 0.13018,0.260219 0.0339,0.05099 0.11066,0.07197 0.13017,0.130174 0.0274,0.0823 -0.0388,0.182639 0,0.260235 0.0194,0.03886 0.0913,-0.01935 0.13018,0 0.28769,0.143783 0.0403,0.08083 0.13017,0.260219 0.27075,0.541487 -0.008,-0.139028 0.26022,0.130174 0.0307,0.03066 -0.0193,0.09132 0,0.130175 0.0274,0.05492 0.0867,0.08673 0.13018,0.130175 0.0434,0.04345 0.079,0.09607 0.13017,0.130175 0.16133,0.10755 0.35906,0.152636 0.52045,0.260218 0.051,0.03394 0.079,0.09607 0.13018,0.130175 0.0807,0.05378 0.17349,0.08673 0.26022,0.130175 0.0867,0.04345 0.17349,0.08673 0.26023,0.130175 0.0867,0.04345 0.16613,0.106566 0.26022,0.130174 0.0841,0.02099 0.17349,0 0.26022,0 0.26023,0 0.52045,0 0.78067,0 0.13018,0 0.26024,0 0.39034,0 0.0433,0 0.0867,0 0.13018,0 0.0433,0 0.0913,0.01935 0.13017,0 0.0374,-0.01869 0.23117,-0.250545 0.26022,-0.260234 0.59231,0 0.008,0.06132 0.39035,-0.130175 0.0775,-0.03886 0.18263,0.03885 0.26022,0 0.0549,-0.02738 0.0867,-0.08673 0.13017,-0.130175 0.0435,-0.04345 0.0867,-0.08673 0.13017,-0.130175 0.0435,-0.04345 0.0867,-0.08673 0.13018,-0.130175 0.0433,-0.04345 0.0961,-0.07902 0.13017,-0.130174 0.0538,-0.08066 0.0867,-0.173474 0.13018,-0.260219 0.0433,-0.08673 0.0867,-0.173473 0.13017,-0.260218 0.0435,-0.08673 0.072,-0.182638 0.13018,-0.260219 0.0736,-0.0982 0.18662,-0.162144 0.26023,-0.260234 0.0582,-0.07755 0.0867,-0.173474 0.13018,-0.260219 0.0433,-0.08673 0.0867,-0.17349 0.13017,-0.260218 0.0435,-0.08673 0.10657,-0.166145 0.13018,-0.260235 0.021,-0.0841 -0.021,-0.176064 0,-0.260218 0.0234,-0.09411 0.0995,-0.168228 0.13017,-0.260219 0.0131,-0.04115 -0.01,-0.08804 0,-0.130175 0.0333,-0.133125 0.10329,-0.255841 0.13018,-0.390327 0.017,-0.08509 -0.021,-0.17608 0,-0.260219 0.0234,-0.09411 0.11115,-0.165128 0.13017,-0.260234 0.0256,-0.127552 0,-0.260219 0,-0.390328 0,-0.08673 0,-0.17349 0,-0.260235 0,-0.08673 -0.0274,-0.177933 0,-0.260218 0.0194,-0.0582 0.11067,-0.07197 0.13018,-0.130175 0.0274,-0.0823 0,-0.17349 0,-0.260218 0,-0.08673 0,-0.17349 0,-0.260235 0,-0.216854 0,-0.433709 0,-0.650546 0,-0.130175 -0.0215,-0.262006 0,-0.390344 0.0225,-0.135257 0.10755,-0.255054 0.13017,-0.390328 0.0215,-0.128371 0,-0.260235 0,-0.390344 0,-0.390328 0,-0.780672 0,-1.170999"
           inkscape:connector-curvature="0" />
        <path
           style="fill:none;stroke:#000000;stroke-width:1px;stroke-linecap:butt;stroke-linejoin:miter;stroke-opacity:1"
           d="m 364.61837,80.019765 0,1.561344 c 0,0.130179 -0.0131,0.260831 0,0.390344 0.0181,0.178167 0.10128,0.343701 0.13018,0.520436 0.0211,0.128786 0.0128,0.260476 0,0.390344 -0.0171,0.173572 -0.0419,0.351131 0,0.520437 0.033,0.133337 0.10612,0.255109 0.13017,0.390344 0.0152,0.08553 0.0108,0.173185 0.007,0.259955 -0.004,0.08677 -0.007,0.173614 -0.007,0.260482 0,0.346969 0,0.693937 0,1.040906 0,0.08674 0,0.173479 0,0.260219 0,0.04394 -0.004,0.08777 -0.01,0.131284 -0.003,0.02176 -0.006,0.04364 -0.006,0.06561 4.4e-4,0.02197 0.005,0.04432 0.0156,0.06333 0.0156,0.02695 0.0432,0.0443 0.0688,0.06199 0.0128,0.0088 0.0255,0.01808 0.0364,0.02918 0.0109,0.0111 0.0201,0.0242 0.025,0.03901 0.007,0.02073 0.005,0.04316 0.003,0.06488 -0.002,0.02172 -0.003,0.0435 -0.003,0.0653 0,0.130109 0,0.260218 0,0.390327 0,0.390339 0,0.780677 0,1.171016 0,0.303594 0,0.607187 0,0.910781 0,0.130109 0,0.260219 0,0.390328 0,0.04339 0,0.08678 0,0.130174 0,0.02172 5.7e-4,0.04344 0.001,0.06514 9.2e-4,0.0217 0.002,0.04358 -0.001,0.06504 -0.005,0.0324 -0.0207,0.06307 -0.0439,0.08627 -0.0232,0.0232 -0.0539,0.0388 -0.0863,0.04391"
           id="path3202"
           inkscape:path-effect="#path-effect3204"
           inkscape:original-d="m 364.61837,80.019765 c 0,0.520454 0,1.04089 0,1.561344 0,0.130174 -0.0184,0.26153 0,0.390344 0.0252,0.177014 0.10477,0.343422 0.13018,0.520436 0.0184,0.128864 0,0.260235 0,0.390344 0,0.173474 -0.0246,0.348702 0,0.520437 0.0193,0.135749 0.11066,0.254562 0.13017,0.390344 0.0246,0.171736 0,0.346964 0,0.520437 0,0.34698 0,0.693943 0,1.040906 0,0.08673 0,0.173474 0,0.260219 0,0.08673 -0.0274,0.177933 0,0.260218 0.0194,0.0582 0.10264,0.07525 0.13018,0.130175 0.0193,0.03886 0,0.08673 0,0.130175 0,0.130175 0,0.260218 0,0.390327 0,0.390344 0,0.780672 0,1.171016 0,0.303583 0,0.607182 0,0.910781 0,0.130175 0,0.260218 0,0.390328 0,0.04345 0,0.08673 0,0.130174 0,0.04345 0.0193,0.09132 0,0.130175 -0.0274,0.05492 -0.0867,0.08673 -0.13018,0.130175"
           inkscape:connector-curvature="0" />
        <path
           style="fill:none;stroke:#000000;stroke-width:1px;stroke-linecap:butt;stroke-linejoin:miter;stroke-opacity:1"
           d="m 364.74848,81.711218 c 0.28724,-0.134271 0.59596,-0.222475 0.91078,-0.260219 0.39078,-0.04685 0.79399,-0.01726 1.17102,-0.130174 0.26341,-0.07889 0.50786,-0.225859 0.78067,-0.260235 0.21531,-0.02713 0.43354,0 0.65056,0 0.26023,0 0.52045,0 0.78068,0 0.39033,0 0.78066,0 1.17099,0 0.0663,0 0.1324,-0.007 0.19778,-0.01816 0.0327,-0.0056 0.0657,-0.01096 0.0988,-0.01012 0.0331,8.48e-4 0.0671,0.0085 0.0938,0.02828 0.0251,0.01854 0.0416,0.04601 0.0598,0.07129 0.009,0.01264 0.0189,0.02494 0.0304,0.03541 0.0115,0.01047 0.025,0.0191 0.04,0.02348 0.021,0.0061 0.0434,0.0037 0.065,8.33e-4 0.0217,-0.0028 0.0439,-0.0059 0.0651,-8.33e-4 0.0152,0.0036 0.0293,0.01135 0.0415,0.02112 0.0122,0.0098 0.0227,0.02157 0.0323,0.03399 0.0191,0.02484 0.0347,0.05248 0.0564,0.07507 0.0338,0.03524 0.08,0.05567 0.12585,0.07253 0.0459,0.01685 0.0933,0.03127 0.13437,0.05765 0.0519,0.03327 0.0902,0.08325 0.13018,0.130175 0.11932,0.140177 0.2604,0.259944 0.39034,0.390344 0.0866,0.08691 0.16847,0.178758 0.26022,0.260218 0.0921,0.0818 0.19594,0.155104 0.26023,0.260219 0.0507,0.08288 0.0738,0.181145 0.13018,0.260235 0.0357,0.05007 0.0833,0.09026 0.13028,0.129949 0.047,0.03969 0.0945,0.08001 0.12994,0.130269 0.0398,0.05636 0.0627,0.122835 0.08,0.189619 0.0173,0.06679 0.0294,0.134941 0.0502,0.200709 0.0294,0.0928 0.0756,0.17961 0.13018,0.260234 0.0716,0.105866 0.15733,0.201445 0.23179,0.305315 0.0745,0.103871 0.13861,0.218993 0.15855,0.345231 0.0203,0.128719 -0.006,0.260188 0,0.390344 0.007,0.138695 0.0524,0.275273 0.13018,0.390328 0.0763,0.162964 0.12077,0.340758 0.13017,0.520453 0.007,0.129954 0,0.260212 0,0.390344 0,0.08674 0,0.173479 0,0.260219 0,0.173484 0,0.346969 0,0.520453 0,0.08674 0,0.173479 0,0.260218 0,0.02177 9.9e-4,0.04353 0.003,0.06525 0.002,0.02171 0.003,0.04396 -0.003,0.06493 -0.004,0.01503 -0.0123,0.02878 -0.0223,0.04077 -0.01,0.01199 -0.0218,0.0223 -0.0342,0.0318 -0.0248,0.01899 -0.0521,0.03508 -0.0736,0.0576 -0.0338,0.03528 -0.0508,0.08304 -0.0663,0.129379 -0.0156,0.04634 -0.0314,0.09426 -0.0639,0.130839 -0.0325,0.03663 -0.0784,0.05827 -0.12431,0.07523 -0.0459,0.01695 -0.0936,0.03041 -0.13591,0.05495 -0.0533,0.03089 -0.0953,0.0777 -0.13465,0.12513 -0.0393,0.04743 -0.0774,0.09676 -0.12558,0.135088 -0.0762,0.06054 -0.17192,0.08932 -0.26022,0.130175 -0.22998,0.106414 -0.41456,0.298038 -0.65056,0.390344 -0.12789,0.05002 -0.26726,0.06925 -0.39033,0.130175 -0.0872,0.04317 -0.16573,0.107003 -0.26024,0.130175 -0.0634,0.01555 -0.12987,0.0116 -0.1949,0.0057 -0.065,-0.0059 -0.13062,-0.01376 -0.19542,-0.0057 -0.0682,0.0085 -0.13298,0.03437 -0.1963,0.06122 -0.0633,0.02685 -0.12668,0.05512 -0.19405,0.06895 -0.12902,0.02649 -0.26205,-0.0017 -0.39212,-0.0224 -0.065,-0.01035 -0.13068,-0.01885 -0.19652,-0.01764 -0.0659,0.0012 -0.13223,0.01244 -0.19203,0.04003 -0.0444,0.02046 -0.0841,0.04942 -0.12565,0.07513 -0.0415,0.02571 -0.0862,0.04867 -0.13457,0.05504 -0.0431,0.0057 -0.0868,-0.0021 -0.13017,0 -0.0689,0.0033 -0.13394,0.0312 -0.19651,0.06018 -0.0626,0.02898 -0.12563,0.05989 -0.19384,0.06999 -0.0429,0.0064 -0.0866,0.0045 -0.13001,0.0028 -0.0434,-0.0017 -0.0868,-0.0028 -0.1302,-0.0028 l -0.39033,0 c -0.0435,0 -0.087,-0.0018 -0.13039,-0.0047 -0.0434,-0.0029 -0.0877,-0.006 -0.12985,0.0047 -0.0473,0.01209 -0.0882,0.04121 -0.1286,0.06869 -0.0404,0.02748 -0.0832,0.05454 -0.13162,0.06148 -0.043,0.0062 -0.0867,0 -0.13017,0 -0.21685,0 -0.43371,0 -0.65056,0 -0.43371,0 -0.86742,0 -1.30113,0 -0.0434,0 -0.0868,0 -0.13017,0 -0.0221,0 -0.0441,0.0023 -0.0659,0.0059 -0.0109,0.0018 -0.0219,0.0035 -0.0329,0.0033 -0.011,-2.72e-4 -0.0223,-0.0027 -0.0313,-0.0092 -0.009,-0.0067 -0.0157,-0.01738 -0.0184,-0.02865 -0.003,-0.01127 -0.002,-0.02313 -5e-5,-0.03452 0.004,-0.02279 0.0148,-0.0441 0.0184,-0.067 0.006,-0.0353 -0.007,-0.07298 -0.0319,-0.09826 -0.0253,-0.02528 -0.063,-0.03752 -0.0983,-0.03192"
           id="path3206"
           inkscape:path-effect="#path-effect3208"
           inkscape:original-d="m 364.74848,81.711218 c 0.33093,0.02181 0.59822,-0.215559 0.91078,-0.260219 1.19684,-0.170981 -0.22997,0.251972 1.17102,-0.130174 0.26463,-0.07214 0.5108,-0.211166 0.78067,-0.260235 0.21335,-0.03886 0.43371,0 0.65056,0 0.26022,0 0.52044,0 0.78068,0 0.39032,0 0.78067,0 1.17099,0 0.13018,0 0.26411,-0.03148 0.39035,0 0.0595,0.01475 0.0753,0.102631 0.13017,0.130175 0.0389,0.01935 0.0913,-0.01935 0.13018,0 0.0549,0.02738 0.079,0.09607 0.13017,0.130174 0.0807,0.05378 0.17954,0.07624 0.26022,0.130175 0.051,0.0341 0.0867,0.08673 0.13018,0.130175 0.13017,0.130175 0.26023,0.260218 0.39034,0.390344 0.0867,0.08673 0.17349,0.173473 0.26022,0.260218 0.0867,0.08673 0.18662,0.162145 0.26023,0.260219 0.0582,0.07755 0.072,0.182638 0.13018,0.260235 0.0736,0.0982 0.19711,0.155094 0.26022,0.260218 0.0705,0.117551 0.0792,0.262989 0.13017,0.390328 0.0361,0.09001 0.0802,0.177064 0.13018,0.260234 0.0393,0.06574 0.3606,0.501845 0.39034,0.650546 0.0256,0.127552 -0.0213,0.262006 0,0.390344 0.0226,0.135258 0.0867,0.260219 0.13018,0.390328 0.0433,0.17349 0.10476,0.343422 0.13017,0.520453 0.0184,0.128863 0,0.260219 0,0.390344 0,0.08673 0,0.173474 0,0.260219 0,0.173473 0,0.346963 0,0.520453 0,0.08673 0,0.173473 0,0.260218 0,0.04345 0.0194,0.09132 0,0.130175 -0.0274,0.05492 -0.0961,0.07902 -0.13017,0.130175 -0.0538,0.08066 -0.0615,0.191655 -0.13018,0.260218 -0.0685,0.06853 -0.18264,0.07197 -0.26022,0.130175 -0.0982,0.07361 -0.16214,0.186622 -0.26023,0.260218 -0.0775,0.0582 -0.17707,0.08017 -0.26022,0.130175 -0.30547,0.183294 -0.35315,0.271367 -0.65056,0.390344 -0.12739,0.05099 -0.26299,0.07919 -0.39033,0.130175 -0.09,0.03607 -0.16513,0.111157 -0.26024,0.130175 -0.12755,0.02558 -0.26199,-0.02131 -0.39032,0 -0.13526,0.02263 -0.25506,0.10755 -0.39035,0.130175 -0.0198,0.0033 -0.76401,-0.0033 -0.78067,0 -0.0951,0.01902 -0.16821,0.09952 -0.26022,0.130174 -0.0412,0.01312 -0.088,-0.0098 -0.13017,0 -0.13313,0.03328 -0.25586,0.103288 -0.39035,0.130175 -0.0851,0.01705 -0.17347,0 -0.26021,0 -0.13018,0 -0.26022,0 -0.39033,0 -0.0867,0 -0.17608,-0.02098 -0.26024,0 -0.0941,0.02361 -0.16821,0.09952 -0.26022,0.130175 -0.0411,0.01312 -0.0867,0 -0.13017,0 -0.21685,0 -0.43371,0 -0.65056,0 -0.43371,0 -0.86742,0 -1.30113,0 -0.0433,0 -0.0867,0 -0.13017,0 -0.0435,0 -0.0995,0.03066 -0.13018,0 -0.0307,-0.03066 0.0307,-0.09952 0,-0.130175 -0.17347,-0.173473 -0.13017,0.216854 -0.13017,-0.130175"
           inkscape:connector-curvature="0" />
        <path
           style="fill:none;stroke:#000000;stroke-width:1px;stroke-linecap:butt;stroke-linejoin:miter;stroke-opacity:1"
           d="m 380.10168,80.670328 c -0.0614,0.300661 -0.10485,0.604968 -0.13017,0.910781 -0.0108,0.12995 -0.0182,0.261226 0,0.390344 0.0221,0.156808 0.0813,0.305585 0.13759,0.453593 0.0563,0.148008 0.11075,0.299274 0.12262,0.457187 0.013,0.173247 -0.0257,0.348619 0,0.520437 0.0174,0.115883 0.0635,0.225415 0.11422,0.331024 0.0508,0.105609 0.10677,0.209131 0.14602,0.319539 0.0885,0.249099 0.0876,0.519758 0.13017,0.780671 0.0866,0.530559 0.35458,1.024947 0.39033,1.561343 0.0144,0.21642 0,0.433663 0,0.650563 0,0.737302 0,1.474604 0,2.211906 0,0.693927 0,1.387853 0,2.08178 0,0.08674 0,0.173479 0,0.260218 0,0.01213 -4.3e-4,0.02433 -0.003,0.03616 -0.003,0.01183 -0.007,0.02308 -0.0119,0.03434 -0.004,0.01126 -0.009,0.02316 -0.007,0.03523 6.2e-4,0.006 0.003,0.01201 0.007,0.01664 0.002,0.0023 0.004,0.0043 0.007,0.0057 0.003,0.0014 0.006,0.0021 0.009,0.0021 0.003,0 0.006,-7.76e-4 0.009,-0.0021 0.003,-0.0014 0.005,-0.0033 0.007,-0.0057 0.004,-0.0046 0.006,-0.01061 0.007,-0.01664 0.001,-0.01206 -0.003,-0.02396 -0.007,-0.03523 -0.004,-0.01127 -0.009,-0.02251 -0.0119,-0.03434 -0.003,-0.01183 -0.003,-0.02403 -0.003,-0.03616 l 0,-0.130175"
           id="path3210"
           inkscape:path-effect="#path-effect3212"
           inkscape:original-d="m 380.10168,80.670328 c -0.16165,0.646677 -0.13017,0.341618 -0.13017,0.910781 0,0.130174 -0.0215,0.261989 0,0.390344 0.21605,1.296255 0.0585,-0.702715 0.26021,0.91078 0.0215,0.172146 -0.0377,0.351095 0,0.520437 0.0507,0.228003 0.19878,0.425232 0.26024,0.650563 0.0693,0.254513 0.0708,0.523617 0.13017,0.780671 0.12624,0.547128 0.33469,1.004805 0.39033,1.561343 0.0216,0.215773 0,0.433709 0,0.650563 0,0.737291 0,1.474598 0,2.211906 0,0.693926 0,1.387853 0,2.08178 0,0.08673 0,0.173489 0,0.260218 0,0.04345 0.0435,0.130175 0,0.130175 -0.0434,0 0,-0.08673 0,-0.130175 0,-0.04328 0,-0.08673 0,-0.130175"
           inkscape:connector-curvature="0" />
        <path
           style="fill:none;stroke:#000000;stroke-width:1px;stroke-linecap:butt;stroke-linejoin:miter;stroke-opacity:1"
           d="m 380.62213,73.384065 -0.26021,0.650562 c -0.0337,0.0014 -0.0667,0.01582 -0.0905,0.03966 -0.0238,0.02384 -0.0383,0.05683 -0.0397,0.09051 -8.9e-4,0.02191 0.004,0.04363 0.006,0.06542 0.002,0.02179 0.003,0.0446 -0.006,0.06476 -0.006,0.01435 -0.0165,0.02656 -0.0283,0.03681 -0.0118,0.01026 -0.025,0.01872 -0.038,0.02726 -0.0131,0.0085 -0.0261,0.01725 -0.0375,0.02791 -0.0114,0.01066 -0.0212,0.02345 -0.0263,0.03819 -0.007,0.0206 -0.005,0.04312 -0.003,0.06485 0.002,0.02172 0.003,0.04351 0.003,0.06533 l 0,0.130175 c 0,0.02182 -0.001,0.04362 -0.003,0.06534 -0.002,0.02173 -0.004,0.04431 0.003,0.06483 0.005,0.01334 0.0138,0.02516 0.0254,0.03338 0.0116,0.0082 0.0257,0.01279 0.0399,0.01284 0.0142,5.8e-5 0.0284,-0.0044 0.0399,-0.01262 0.0116,-0.0082 0.0205,-0.02015 0.025,-0.0336 0.007,-0.02079 0.003,-0.04346 -1.4e-4,-0.0651 -0.004,-0.02164 -0.007,-0.04435 1.4e-4,-0.06508 0.004,-0.01218 0.012,-0.02299 0.0215,-0.03159 0.01,-0.0086 0.021,-0.01504 0.033,-0.01968 0.024,-0.0093 0.0501,-0.01142 0.0758,-0.01349 0.0257,-0.0021 0.0518,-0.0043 0.0758,-0.0137 0.012,-0.0047 0.0233,-0.01123 0.0329,-0.01991 0.01,-0.0087 0.0172,-0.01957 0.0212,-0.0318 0.007,-0.02082 0.003,-0.04349 -5e-4,-0.06513 -0.002,-0.01082 -0.004,-0.02168 -0.004,-0.03265 -3.7e-4,-0.01097 7.2e-4,-0.0221 0.005,-0.0324 0.005,-0.01482 0.0162,-0.02719 0.0285,-0.03708 0.0123,-0.0099 0.0262,-0.01757 0.0398,-0.0255 0.0136,-0.0079 0.0272,-0.01626 0.0386,-0.02721 0.0114,-0.01095 0.0205,-0.02483 0.0232,-0.04038 0.002,-0.01118 5.6e-4,-0.02271 -0.002,-0.03376 -0.003,-0.01105 -0.006,-0.0218 -0.009,-0.0328 -0.003,-0.011 -0.005,-0.02241 -0.003,-0.03369 0.001,-0.01128 0.006,-0.02249 0.0145,-0.02992 0.009,-0.0074 0.0201,-0.01043 0.0313,-0.01044 0.0113,-1.4e-5 0.0223,0.0028 0.0331,0.0059 0.0108,0.0031 0.0215,0.0067 0.0327,0.0082 0.0111,0.0016 0.0229,0.001 0.0331,-0.0037 0.0112,-0.0052 0.0197,-0.0151 0.0244,-0.02646 0.005,-0.01136 0.006,-0.02404 0.004,-0.03621 -0.003,-0.02434 -0.0163,-0.04609 -0.0284,-0.0675 -0.1102,-0.195991 -0.15647,-0.427259 -0.13018,-0.650562 l -2e-5,0"
           id="path3214"
           inkscape:path-effect="#path-effect3216"
           inkscape:original-d="m 380.62213,73.384065 c -0.0867,0.216854 -0.17349,0.433708 -0.26021,0.650562 -0.0435,0.04345 -0.10264,0.07525 -0.13018,0.130175 -0.0193,0.03886 0.0193,0.09132 0,0.130175 -0.0274,0.05492 -0.10263,0.07525 -0.13017,0.130175 -0.0193,0.03885 0,0.08673 0,0.130174 0,0.04345 0,0.08673 0,0.130175 0,0.04328 -0.0307,0.09935 0,0.130175 0.0307,0.03066 0.0995,0.03066 0.13017,0 0.0307,-0.03066 -0.0307,-0.09952 0,-0.130175 0.26922,-0.269219 -0.01,0.411379 0.26024,-0.130175 0.0193,-0.03885 -0.0194,-0.09132 0,-0.130174 0.0274,-0.05492 0.10263,-0.07525 0.13017,-0.130175 0.0194,-0.03886 -0.0307,-0.09952 0,-0.130175 0.0307,-0.03066 0.0995,0.03066 0.13018,0 0.0307,-0.03066 0.007,-0.08738 0,-0.130175 -0.0364,-0.218149 -0.0867,-0.433708 -0.13018,-0.650562 z"
           inkscape:connector-curvature="0" />
      </g>
      <path
         inkscape:connector-curvature="0"
         inkscape:original-d="m 328.59306,105.57258 c -0.22864,0.91454 -0.184,0.48314 -0.184,1.28805 0,0.24533 0.0348,0.49313 0,0.73602 -0.0274,0.192 -0.15657,0.36 -0.18401,0.55202 -0.002,0.0115 0.002,1.45422 0,1.47204 -0.0394,0.43194 -0.15067,0.85561 -0.184,1.28804 -0.0282,0.36693 0.0605,0.74103 0,1.10404 -0.0638,0.38264 -0.30903,0.72064 -0.36802,1.10403 -0.0652,0.42436 0,0.85869 0,1.28804 0,0.79736 0,1.59472 0,2.39209 0,0.30668 0,0.61334 0,0.92002 0,0.30668 0.0339,0.61523 0,0.92003 -0.0279,0.25135 -0.15263,0.48509 -0.18401,0.73603 -0.0305,0.24345 0,0.49068 0,0.73603 0,0.79736 0,1.5947 0,2.39207 0,0.24534 0,0.49068 0,0.73602 0,0.0613 -0.0435,0.14067 0,0.184 0.0434,0.0435 0.12263,0 0.18401,0 0.12264,0 0.24533,0 0.36802,0 0.61334,0 1.22671,0 1.84005,0 0.30668,0 0.61753,-0.0503 0.92003,0 0.44045,0.0735 0.84497,0.31264 1.28804,0.36802 0.54775,0.0685 1.10404,0 1.65606,0 0.55201,0 1.10404,0 1.65605,0 0.42935,0 0.85996,-0.033 1.28805,0 0.37198,0.0287 0.73383,0.13771 1.10402,0.18401 0.12182,0.0148 0.24535,0 0.36802,0 0.0613,0 0.12263,0 0.18401,0"
         inkscape:path-effect="#path-effect3292"
         id="path3290"
         d="m 328.59306,105.57258 c -0.14258,0.4124 -0.20541,0.85222 -0.184,1.28805 0.0121,0.24586 0.0504,0.49507 0,0.73602 -0.0397,0.19002 -0.13285,0.36475 -0.18401,0.55202 -0.0649,0.23773 -0.0605,0.4887 -0.0417,0.73442 0.0188,0.24572 0.0516,0.49138 0.0417,0.73762 -0.0175,0.4338 -0.16689,0.85422 -0.184,1.28804 -0.0145,0.36849 0.0666,0.74133 0,1.10404 -0.0702,0.38231 -0.29931,0.72145 -0.36802,1.10403 -0.038,0.21161 -0.027,0.42861 -0.0167,0.64336 0.0103,0.21475 0.0167,0.42968 0.0167,0.64468 l 0,2.39209 0,0.92002 c 0,0.15349 0.004,0.30696 0.01,0.46033 0.006,0.15338 0.0125,0.30783 -0.01,0.4597 -0.0367,0.25053 -0.15267,0.48477 -0.18401,0.73603 -0.0304,0.24364 0,0.49051 0,0.73603 l 0,2.39207 0,0.73602 c 0,0.0316 -0.004,0.063 -0.0105,0.0939 -0.003,0.0155 -0.006,0.0311 -0.006,0.0469 2.7e-4,0.008 0.001,0.0158 0.004,0.0232 0.003,0.007 0.007,0.0144 0.0123,0.02 0.006,0.006 0.0126,0.01 0.02,0.0123 0.007,0.003 0.0153,0.004 0.0232,0.004 0.0158,5.3e-4 0.0314,-0.003 0.0469,-0.006 0.0309,-0.006 0.0623,-0.0106 0.0939,-0.0106 l 0.36802,0 1.84005,0 c 0.30686,0 0.6151,-0.0344 0.92003,0 0.4446,0.0501 0.84736,0.29065 1.28804,0.36802 0.27225,0.0478 0.55111,0.034 0.82721,0.021 0.27611,-0.013 0.55244,-0.021 0.82885,-0.021 l 1.65605,0 c 0.42958,0 0.86087,-0.0454 1.28805,0 0.37139,0.0395 0.73082,0.16963 1.10402,0.18401 0.12259,0.005 0.24534,0 0.36802,0 l 0.18401,0"
         style="fill:none;stroke:#000000;stroke-width:1px;stroke-linecap:butt;stroke-linejoin:miter;stroke-opacity:1" />
      <path
         inkscape:connector-curvature="0"
         inkscape:original-d="m 343.68155,115.5089 c -0.12264,0.24535 -0.21586,0.5078 -0.36802,0.73603 -0.0962,0.14428 -0.26392,0.22922 -0.36801,0.36802 -0.24117,0.32155 -0.18246,0.54893 -0.36802,0.92002 -0.0989,0.19779 -0.2691,0.35421 -0.36799,0.55202 -0.14706,0.29412 -0.28942,1.01292 -0.36802,1.28804 -0.0533,0.18649 -0.15214,0.3607 -0.18401,0.55201 -0.0303,0.18151 0,0.36802 0,0.55203 0,0.24533 0,0.49068 0,0.73601 0,0.42935 0,0.8587 0,1.28805 0,0.12263 0,0.24534 0,0.36801 0,0.12263 -0.0389,0.25164 0,0.36801 0.0274,0.0823 0.14526,0.10641 0.18401,0.184 0.0274,0.0549 -0.0274,0.12919 0,0.18402 0.38289,0.76578 -0.0131,-0.19671 0.36802,0.184 0.0434,0.0434 -0.0435,0.14066 0,0.18401 0.0434,0.0435 0.12263,0 0.184,0 0.12263,0 0.24534,0 0.36801,0 0.12263,0 0.24533,0 0.36801,0 0.12264,0 0.24901,0.0297 0.36802,0 0.53365,-0.13345 0.21533,-0.14362 0.55201,-0.36801 0.11411,-0.0761 0.25389,-0.10788 0.36802,-0.18402 0.0721,-0.048 0.1064,-0.14526 0.18399,-0.184 0.0549,-0.0274 0.12575,0.0194 0.18402,0 0.33419,-0.11132 0.34149,-0.15755 0.55201,-0.36801 0.0613,-0.0613 0.12264,-0.12263 0.184,-0.184 0.0613,-0.0613 0.14526,-0.1064 0.18402,-0.18401 0.0274,-0.0549 -0.0274,-0.1292 0,-0.184 0.0388,-0.0776 0.13591,-0.11182 0.184,-0.18402 0.0761,-0.11411 0.10787,-0.25389 0.18401,-0.36801 0.0166,-0.0249 0.35952,-0.35105 0.368,-0.368 0.0274,-0.0549 -0.0193,-0.12591 0,-0.18402 0.0435,-0.13017 0.14067,-0.23788 0.18402,-0.36801 0.0193,-0.0582 -0.0435,-0.14067 0,-0.184 0.0434,-0.0434 0.14066,0.0435 0.18399,0 0.0428,-0.0428 -0.0384,-0.29125 0,-0.36801 0.0389,-0.0776 0.14526,-0.10641 0.18402,-0.184 0.0274,-0.0549 0,-0.12264 0,-0.18402 0,-0.24533 0,-0.49068 0,-0.73601 0,-0.61336 0,-1.22671 0,-1.84007 0,-0.24533 0,-0.49068 0,-0.73601 0,-0.12264 0.0389,-0.25165 0,-0.36802 -0.0274,-0.0823 -0.14526,-0.1064 -0.18402,-0.18401 -0.028,-0.0562 0.0292,-0.32419 0,-0.36802 -0.0962,-0.14427 -0.27177,-0.22366 -0.36801,-0.368 -0.0341,-0.051 0.0274,-0.12919 0,-0.18401 -0.0389,-0.0776 -0.12263,-0.12263 -0.184,-0.184 -0.0613,-0.0613 -0.1064,-0.14526 -0.184,-0.18402 -0.0549,-0.0274 -0.12263,0 -0.18401,0 -0.0613,0 -0.12264,0 -0.184,0 -0.12264,0 -0.24535,0 -0.36802,0 -0.12263,0 -0.249,-0.0297 -0.36801,0 -0.13313,0.0333 -0.24894,0.11592 -0.36802,0.18402 -0.31051,0.17744 -0.58796,0.41918 -0.92002,0.55201 -0.29039,0.11624 -0.62333,0.0851 -0.92003,0.184 -0.0823,0.0274 -0.12263,0.12264 -0.18402,0.18402 -0.0613,0.0613 -0.12263,0.12263 -0.18399,0.184 -0.0613,0.0613 -0.10641,0.14525 -0.184,0.18401 -0.0549,0.0274 -0.12264,0 -0.18402,0"
         inkscape:path-effect="#path-effect3296"
         id="path3294"
         d="m 343.68155,115.5089 c -0.0448,0.27489 -0.17499,0.53525 -0.36802,0.73603 -0.1204,0.12524 -0.26479,0.22828 -0.36801,0.36802 -0.0985,0.13339 -0.1542,0.29307 -0.20206,0.45185 -0.0479,0.15878 -0.0899,0.3208 -0.16596,0.46817 -0.1015,0.1967 -0.2594,0.35914 -0.36799,0.55202 -0.10991,0.19522 -0.16605,0.41567 -0.21153,0.63504 -0.0455,0.21937 -0.0818,0.4418 -0.15649,0.653 -0.0649,0.18333 -0.15884,0.35918 -0.18401,0.55201 -0.0238,0.18261 0,0.36787 0,0.55203 0,0.24534 0,0.49067 0,0.73601 0,0.42935 0,0.8587 0,1.28805 0,0.12267 0,0.24534 0,0.36801 0,0.0622 -0.006,0.1242 -0.0144,0.18575 -0.004,0.0308 -0.009,0.0617 -0.008,0.0928 6.5e-4,0.0311 0.007,0.0627 0.0225,0.0894 0.0113,0.019 0.0272,0.0348 0.0445,0.0485 0.0173,0.0137 0.036,0.0255 0.0543,0.0378 0.0183,0.0124 0.0363,0.0255 0.0515,0.0414 0.0153,0.0159 0.0278,0.0349 0.0336,0.0562 0.008,0.0299 0.002,0.0616 -0.002,0.0922 -0.002,0.0153 -0.005,0.0307 -0.005,0.0462 -1.9e-4,0.0155 0.002,0.0312 0.007,0.0456 0.007,0.0172 0.0186,0.0321 0.0331,0.0436 0.0144,0.0115 0.0313,0.0197 0.0489,0.0253 0.0352,0.0112 0.0726,0.0121 0.1095,0.0139 0.0369,0.002 0.0745,0.005 0.1082,0.0201 0.0168,0.008 0.0325,0.0182 0.0447,0.032 0.0122,0.0138 0.021,0.0309 0.0237,0.0492 0.002,0.0159 2e-5,0.0322 -0.004,0.0478 -0.004,0.0156 -0.009,0.0308 -0.0131,0.0464 -0.004,0.0156 -0.006,0.0318 -0.004,0.0478 0.002,0.016 0.009,0.0317 0.0213,0.042 0.0121,0.01 0.0282,0.014 0.0439,0.0145 0.0157,4.4e-4 0.0313,-0.002 0.0467,-0.005 0.0308,-0.006 0.0621,-0.009 0.0935,-0.009 0.12267,0 0.24534,0 0.36801,0 0.12267,0 0.24534,0 0.36801,0 0.0614,0 0.12286,0.002 0.18422,0.005 0.0614,0.003 0.12343,0.006 0.1838,-0.005 0.10975,-0.0207 0.20397,-0.0894 0.28843,-0.16253 0.0845,-0.0731 0.16478,-0.1534 0.26358,-0.20548 0.0611,-0.0322 0.12756,-0.0527 0.19181,-0.078 0.0643,-0.0253 0.12791,-0.0567 0.17621,-0.10602 0.0308,-0.0314 0.0543,-0.0691 0.0817,-0.10352 0.0275,-0.0344 0.0606,-0.0665 0.10227,-0.0805 0.0293,-0.01 0.0609,-0.0101 0.0917,-0.008 0.0308,0.002 0.0614,0.007 0.0923,0.008 0.0568,5.1e-4 0.11291,-0.015 0.16422,-0.0392 0.0513,-0.0243 0.0982,-0.0571 0.14199,-0.0932 0.0876,-0.0722 0.16553,-0.15528 0.2458,-0.23555 l 0.184,-0.184 c 0.031,-0.031 0.0643,-0.0595 0.0989,-0.0864 0.0173,-0.0134 0.0346,-0.0271 0.0498,-0.0428 0.0152,-0.0158 0.0284,-0.034 0.0353,-0.0548 0.01,-0.0293 0.006,-0.0612 0.002,-0.0919 -0.004,-0.0306 -0.009,-0.062 -0.002,-0.0921 0.005,-0.0216 0.0159,-0.0415 0.0297,-0.0588 0.0139,-0.0173 0.0306,-0.032 0.0483,-0.0454 0.0353,-0.0268 0.0745,-0.0487 0.10602,-0.0798 0.0492,-0.0485 0.0757,-0.11504 0.0984,-0.18027 0.0227,-0.0652 0.0439,-0.13269 0.0856,-0.18774 0.0537,-0.0709 0.13547,-0.11347 0.20903,-0.16342 0.0368,-0.025 0.0723,-0.0525 0.10118,-0.0863 0.0289,-0.0338 0.051,-0.0744 0.0578,-0.11831 0.005,-0.0304 0.002,-0.0614 -5e-4,-0.092 -0.003,-0.0306 -0.005,-0.0617 5e-4,-0.092 0.006,-0.0345 0.022,-0.0666 0.0415,-0.0958 0.0194,-0.0292 0.0424,-0.0557 0.0644,-0.0831 0.022,-0.0273 0.0431,-0.0556 0.0582,-0.0873 0.0151,-0.0316 0.0239,-0.067 0.0199,-0.10186 -0.004,-0.0323 -0.0179,-0.0625 -0.024,-0.0945 -0.003,-0.016 -0.004,-0.0326 -5.6e-4,-0.0485 0.003,-0.0159 0.0117,-0.0311 0.0246,-0.041 0.0125,-0.01 0.0286,-0.0138 0.0443,-0.0141 0.0158,-3.5e-4 0.0314,0.003 0.0467,0.007 0.0153,0.004 0.0305,0.008 0.0461,0.0105 0.0156,0.002 0.0319,0.002 0.0468,-0.003 0.0159,-0.005 0.0297,-0.0166 0.0393,-0.0304 0.01,-0.0138 0.0154,-0.0301 0.0177,-0.0468 0.004,-0.0334 -0.005,-0.0671 -0.0172,-0.0984 -0.0125,-0.0313 -0.0284,-0.0612 -0.0384,-0.0934 -0.01,-0.0322 -0.0136,-0.0677 -0.001,-0.0991 0.008,-0.0206 0.0224,-0.0382 0.039,-0.0528 0.0165,-0.0147 0.0352,-0.0266 0.0538,-0.0386 0.0186,-0.012 0.0372,-0.0241 0.0535,-0.0389 0.0163,-0.0149 0.0303,-0.0328 0.0377,-0.0537 0.0103,-0.0291 0.007,-0.061 0.005,-0.0917 -0.003,-0.0307 -0.005,-0.0615 -0.005,-0.0924 0,-0.24534 0,-0.49067 0,-0.73601 0,-0.61336 0,-1.22671 0,-1.84007 0,-0.24534 0,-0.49067 0,-0.73601 0,-0.062 0.005,-0.12391 0.0129,-0.18541 0.004,-0.0307 0.008,-0.0617 0.007,-0.0927 -5.7e-4,-0.031 -0.006,-0.0625 -0.0202,-0.09 -0.0203,-0.0388 -0.0566,-0.0661 -0.0919,-0.0921 -0.0352,-0.026 -0.0716,-0.0532 -0.0922,-0.0919 -0.0146,-0.0276 -0.0201,-0.0593 -0.02,-0.0905 1.2e-4,-0.0312 0.006,-0.0621 0.0117,-0.0927 0.006,-0.0306 0.0129,-0.0611 0.0159,-0.0922 0.003,-0.0311 0.002,-0.0629 -0.008,-0.0927 -0.0135,-0.0427 -0.0435,-0.0785 -0.0783,-0.10672 -0.0348,-0.0282 -0.0744,-0.0496 -0.11343,-0.0715 -0.039,-0.0219 -0.078,-0.0449 -0.11057,-0.0755 -0.0326,-0.0307 -0.0586,-0.0701 -0.0657,-0.11428 -0.005,-0.0304 -6.7e-4,-0.0615 0.003,-0.0922 0.003,-0.0306 0.006,-0.0622 -0.003,-0.0919 -0.006,-0.0212 -0.0174,-0.0407 -0.0314,-0.0577 -0.014,-0.017 -0.0307,-0.0317 -0.0481,-0.0452 -0.0349,-0.027 -0.0733,-0.0498 -0.10448,-0.081 -0.0312,-0.0313 -0.0538,-0.0698 -0.0808,-0.10475 -0.0135,-0.0175 -0.0282,-0.0341 -0.0453,-0.0481 -0.0171,-0.014 -0.0366,-0.0253 -0.0579,-0.0312 -0.0297,-0.008 -0.0611,-0.006 -0.0918,-0.004 -0.0307,0.002 -0.0614,0.004 -0.0922,0.004 -0.0613,0 -0.12267,0 -0.184,0 -0.12267,0 -0.24535,0 -0.36802,0 -0.0614,0 -0.12279,-0.002 -0.18414,-0.004 -0.0614,-0.002 -0.12315,-0.005 -0.18387,0.004 -0.1371,0.0206 -0.25723,0.10069 -0.36802,0.18402 -0.14426,0.10851 -0.28177,0.22615 -0.43099,0.32774 -0.14921,0.10158 -0.31228,0.18763 -0.48903,0.22427 -0.15554,0.0322 -0.31617,0.0253 -0.47457,0.0372 -0.15839,0.012 -0.32245,0.0463 -0.44546,0.14676 -0.0672,0.0549 -0.12265,0.12265 -0.18402,0.18402 l -0.18399,0.184 c -0.0308,0.0308 -0.0602,0.0629 -0.0887,0.0958 -0.0285,0.0329 -0.0576,0.0666 -0.0953,0.0882 -0.0279,0.016 -0.0599,0.0245 -0.092,0.0245 -0.0321,0 -0.0642,-0.009 -0.092,-0.0245"
         style="fill:none;stroke:#000000;stroke-width:1px;stroke-linecap:butt;stroke-linejoin:miter;stroke-opacity:1" />
      <path
         inkscape:connector-curvature="0"
         inkscape:original-d="m 352.69784,113.85285 c -0.19338,0.58242 0.27879,1.12073 0.36801,1.65605 0.0605,0.363 -0.052,0.73972 0,1.10405 0.0357,0.25034 0.14821,0.48566 0.184,0.73601 0.0261,0.18216 0,0.36801 0,0.55203 0,0.24533 0,0.49068 0,0.73601 0,0.36801 0,0.73603 0,1.10404 0,0.184 -0.0302,0.37051 0,0.55202 0.032,0.19132 0.15215,0.3607 0.18402,0.55201 0.0303,0.18151 0,0.36801 0,0.55203 0,0.368 0,0.73601 0,1.10403 0,1.04271 0,2.0854 0,3.12809"
         inkscape:path-effect="#path-effect3304"
         id="path3302"
         d="m 352.69784,113.85285 c 0.25191,0.51229 0.37924,1.08529 0.36801,1.65605 -0.007,0.36892 -0.071,0.74195 0,1.10405 0.0487,0.24851 0.15985,0.48392 0.184,0.73601 0.0176,0.18325 0,0.36794 0,0.55203 0,0.24534 0,0.49067 0,0.73601 0,0.36801 0,0.73603 0,1.10404 0,0.0921 -0.003,0.18423 -0.007,0.27626 -0.004,0.092 -0.009,0.1849 0.007,0.27576 0.0321,0.19175 0.15188,0.36026 0.18402,0.55201 0.0152,0.0909 0.0108,0.18373 0.007,0.27577 -0.004,0.092 -0.007,0.18413 -0.007,0.27626 l 0,1.10403 0,3.12809"
         style="fill:none;stroke:#000000;stroke-width:1px;stroke-linecap:butt;stroke-linejoin:miter;stroke-opacity:1" />
      <path
         inkscape:connector-curvature="0"
         inkscape:original-d="m 352.51384,107.04462 c 0.24533,0.0613 0.79735,-0.0613 0.73601,0.18402 -0.0613,0.24533 -0.91484,-0.36283 -0.73601,-0.18402 0.97697,0.97699 0.92003,0.58946 0.92003,0.18402 0,-0.0613 -0.0435,-0.14067 0,-0.18402 0.0433,-0.0434 0.14067,0.0435 0.184,0 0.0434,-0.0434 0,-0.12263 0,-0.18399 0,-0.12264 0,-0.24535 0,-0.36802 0,-0.0613 0.0434,-0.14067 0,-0.184 -0.0433,-0.0434 -0.184,0.0613 -0.184,0 0,-0.0613 0.12263,0 0.184,0"
         inkscape:path-effect="#path-effect3308"
         id="path3306"
         d="m 352.51384,107.04462 c -0.12094,0.0511 -0.22514,0.14103 -0.2934,0.25319 -0.0683,0.11216 -0.10027,0.24601 -0.0901,0.37692 0.0102,0.13091 0.0624,0.25822 0.14717,0.35851 0.0848,0.10029 0.20156,0.17305 0.32894,0.2049 0.12738,0.0319 0.2647,0.0226 0.38667,-0.026 0.12198,-0.0486 0.22801,-0.13634 0.29858,-0.24707 0.0706,-0.11072 0.10533,-0.24388 0.0979,-0.37497 -0.007,-0.13109 -0.0571,-0.25946 -0.13972,-0.36148 -0.0854,-0.1054 -0.20566,-0.18205 -0.33727,-0.21496 -0.1316,-0.0329 -0.27379,-0.0219 -0.39874,0.0309 -0.12743,0.0539 -0.23606,0.15077 -0.30486,0.2708 -0.0688,0.12003 -0.0975,0.26242 -0.0816,0.39985 0.0159,0.13743 0.0763,0.26921 0.16928,0.37166 0.093,0.10246 0.218,0.1752 0.35281,0.20633 0.1348,0.0311 0.27877,0.0206 0.40798,-0.0288 0.12921,-0.0495 0.2432,-0.13755 0.3244,-0.24957 0.0812,-0.11201 0.12943,-0.24747 0.13824,-0.38554 0.009,-0.13807 -0.0217,-0.2783 -0.0862,-0.40068 -0.0162,-0.0307 -0.0348,-0.0613 -0.0398,-0.0956 -0.002,-0.0172 -0.001,-0.0351 0.005,-0.0512 0.007,-0.0161 0.0187,-0.0302 0.0346,-0.0372 0.0146,-0.006 0.0314,-0.007 0.0472,-0.004 0.0158,0.003 0.0309,0.008 0.0462,0.0131 0.0153,0.005 0.0311,0.009 0.0471,0.008 0.008,-2.1e-4 0.016,-0.002 0.0235,-0.004 0.007,-0.003 0.0145,-0.007 0.0199,-0.013 0.005,-0.006 0.009,-0.0128 0.0119,-0.0202 0.003,-0.007 0.004,-0.0153 0.004,-0.0232 5.1e-4,-0.0157 -0.002,-0.0314 -0.006,-0.0468 -0.006,-0.0309 -0.0102,-0.0622 -0.0102,-0.0937 l 0,-0.36802 c 0,-0.0309 0.002,-0.0617 0.005,-0.0924 0.003,-0.0307 0.006,-0.0627 -0.005,-0.0916 -0.007,-0.0187 -0.0196,-0.0351 -0.0359,-0.0465 -0.0163,-0.0114 -0.0362,-0.0176 -0.0561,-0.0176 -0.0199,0 -0.0397,0.006 -0.056,0.0176 -0.0163,0.0114 -0.0291,0.0278 -0.036,0.0465 -0.0109,0.0295 -0.006,0.0643 0.0115,0.0901 0.018,0.0258 0.049,0.0421 0.0805,0.0421 0.0315,0 0.0625,-0.0162 0.0805,-0.0421 0.018,-0.0258 0.0224,-0.0606 0.0115,-0.0901"
         style="fill:none;stroke:#000000;stroke-width:1px;stroke-linecap:butt;stroke-linejoin:miter;stroke-opacity:1" />
      <path
         inkscape:connector-curvature="0"
         inkscape:original-d="m 364.09792,115.14997 c -0.0433,-0.17349 -0.0636,-0.35442 -0.13017,-0.52045 -0.0228,-0.0569 -0.0867,-0.0867 -0.13018,-0.13018 -0.0434,-0.0434 -0.0867,-0.0867 -0.13017,-0.13017 -0.13018,-0.13018 -0.26022,-0.26024 -0.39035,-0.39034 -0.0434,-0.0435 -0.079,-0.0961 -0.13017,-0.13018 -0.0807,-0.0538 -0.19164,-0.0615 -0.26022,-0.13017 -0.0307,-0.0307 0.0307,-0.0995 0,-0.13018 -0.0307,-0.0307 -0.0913,0.0194 -0.13018,0 -0.0549,-0.0274 -0.0752,-0.10263 -0.13017,-0.13017 -0.0389,-0.0194 -0.0867,0 -0.13017,0 -0.13018,0 -0.26024,0 -0.39035,0 -0.0867,0 -0.17349,0 -0.26022,0 -0.0867,0 -0.17793,-0.0274 -0.26023,0 -0.029,0.01 -0.22287,0.24154 -0.26022,0.26021 -0.0389,0.0194 -0.0913,-0.0193 -0.13018,0 -0.0549,0.0274 -0.0867,0.0867 -0.13017,0.13018 -0.0434,0.0435 -0.0867,0.0867 -0.13017,0.13017 -0.0435,0.0434 -0.11067,0.072 -0.13018,0.13018 -0.0274,0.0823 0.021,0.17608 0,0.26023 -0.0234,0.0941 -0.0941,0.17018 -0.13017,0.26022 -0.051,0.12739 -0.0595,0.27273 -0.13018,0.39035 -0.0631,0.10525 -0.20536,0.1505 -0.26022,0.26021 -0.0388,0.0775 0.0274,0.17794 0,0.26022 -0.0193,0.0582 -0.11066,0.072 -0.13017,0.13018 -0.0274,0.0823 0,0.17349 0,0.26023 0,0.0867 0,0.17348 0,0.26022 0,0.0433 -0.0131,0.089 0,0.13018 0.0307,0.092 0.0995,0.16822 0.13017,0.26021 0.0131,0.0412 -0.0193,0.0913 0,0.13018 0.0274,0.0549 0.0867,0.0867 0.13018,0.13017 0.29832,0.29832 -0.0823,-0.0549 0.39032,0.26022 0.051,0.0341 0.0867,0.0867 0.13018,0.13018 0.0433,0.0434 0.072,0.11066 0.13017,0.13017 0.0823,0.0274 0.17607,-0.021 0.26022,0 0.0941,0.0236 0.17018,0.0941 0.26022,0.13018 0.12739,0.051 0.26301,0.0792 0.39035,0.13017 0.09,0.0361 0.17706,0.0802 0.26021,0.13018 0.13411,0.0805 0.24199,0.21077 0.39035,0.26021 0.12345,0.0412 0.26199,-0.0213 0.39033,0 0.36988,0.0617 0.34719,0.13887 0.65056,0.26024 0.12739,0.051 0.25728,0.0969 0.39033,0.13017 0.0421,0.01 0.0867,0 0.13017,0 0.20661,0 0.28073,-0.0131 0.52044,0.13018 0.10525,0.0631 0.17349,0.17347 0.26023,0.26022 0.0433,0.0434 0.0961,0.079 0.13018,0.13017 0.0538,0.0807 0.072,0.18264 0.13017,0.26024 0.0867,0.0867 0.17347,0.17347 0.26022,0.26021 0,0.0433 -0.0194,0.0913 0,0.13018 0.16528,0.33055 0.15542,-0.13329 0.26023,0.39034 0.0256,0.12756 -0.0316,0.26411 0,0.39033 0.0148,0.0595 0.11067,0.072 0.13018,0.13018 0.0274,0.0823 0,0.17349 0,0.26023 0,0.0867 0,0.17347 0,0.26022 0,0.0867 0,0.17349 0,0.26022 0,0.0867 0.021,0.17608 0,0.26023 -0.0236,0.0941 -0.0867,0.17348 -0.13018,0.26022 -0.0434,0.0867 -0.0867,0.17347 -0.13017,0.26022 -0.0433,0.0867 -0.0867,0.17349 -0.13018,0.26023 -0.0434,0.0867 -0.0615,0.19164 -0.13017,0.26022 -0.0685,0.0685 -0.19166,0.0615 -0.26022,0.13018 -0.66492,0.66492 0.54556,-0.18148 -0.39034,0.52045 -0.1551,0.1164 -0.36528,0.14378 -0.52044,0.26022 -0.0982,0.0736 -0.1505,0.20536 -0.26023,0.26022 -0.0775,0.0388 -0.17607,-0.021 -0.26022,0 -0.0256,0.007 -0.49901,0.25594 -0.52046,0.26023 -0.12755,0.0256 -0.26021,0 -0.39032,0 -0.0867,0 -0.17349,0 -0.26022,0 -0.21686,0 -0.43371,0 -0.65056,0 -0.0867,0 -0.17794,0.0274 -0.26024,0 -0.0582,-0.0193 -0.079,-0.0961 -0.13017,-0.13017 -0.0807,-0.0538 -0.17348,-0.0867 -0.26022,-0.13018 -0.0867,-0.0434 -0.19166,-0.0615 -0.26022,-0.13017 -0.0685,-0.0685 -0.072,-0.18264 -0.13018,-0.26022 -0.0736,-0.0982 -0.17347,-0.17349 -0.26021,-0.26022 -0.0433,-0.0435 -0.0961,-0.079 -0.13018,-0.13017 -0.0538,-0.0807 -0.0867,-0.17348 -0.13017,-0.26022 -0.0434,-0.0867 -0.0995,-0.16823 -0.13018,-0.26022 -0.0131,-0.0412 0.0194,-0.0913 0,-0.13018 -0.0274,-0.0549 -0.10263,-0.0752 -0.13017,-0.13017 -0.0194,-0.0389 0,-0.0867 0,-0.13017 0,-0.13018 0,-0.26022 0,-0.39033 0,-0.0435 -0.0307,-0.0995 0,-0.13018 0.17349,-0.17349 0.13017,0.21686 0.13017,-0.13017"
         inkscape:path-effect="#path-effect3364"
         id="path3362"
         d="m 364.09792,115.14997 c 0.0434,-0.18077 -0.007,-0.38141 -0.13017,-0.52045 -0.0407,-0.0459 -0.0868,-0.0868 -0.13018,-0.13018 l -0.13017,-0.13017 c -0.13021,-0.13021 -0.2767,-0.24546 -0.39035,-0.39034 -0.0191,-0.0244 -0.037,-0.0499 -0.0576,-0.073 -0.0206,-0.0231 -0.0444,-0.0441 -0.0725,-0.0572 -0.0474,-0.0221 -0.10213,-0.0199 -0.15314,-0.0314 -0.0255,-0.006 -0.0507,-0.0153 -0.0709,-0.0318 -0.0101,-0.008 -0.0189,-0.0183 -0.0253,-0.0297 -0.006,-0.0114 -0.0103,-0.0242 -0.0109,-0.0373 -9.3e-4,-0.0227 0.008,-0.0444 0.0129,-0.0665 0.002,-0.0111 0.004,-0.0226 0.002,-0.0338 -0.002,-0.0112 -0.007,-0.0222 -0.0149,-0.0299 -0.008,-0.008 -0.0195,-0.0114 -0.0307,-0.0123 -0.0112,-9e-4 -0.0224,9.3e-4 -0.0333,0.003 -0.0109,0.003 -0.0217,0.006 -0.0327,0.008 -0.011,0.002 -0.0224,0.003 -0.0334,8.2e-4 -0.0154,-0.003 -0.0291,-0.0123 -0.0401,-0.0237 -0.0109,-0.0113 -0.0194,-0.0248 -0.0274,-0.0383 -0.008,-0.0135 -0.0159,-0.0273 -0.0258,-0.0395 -0.01,-0.0122 -0.0222,-0.023 -0.0369,-0.0286 -0.0102,-0.004 -0.0212,-0.005 -0.0321,-0.005 -0.0109,-1.5e-4 -0.0218,8.9e-4 -0.0327,0.002 -0.0217,0.002 -0.0435,0.004 -0.0654,0.004 -0.13012,0 -0.26023,0 -0.39035,0 -0.0867,0 -0.17348,0 -0.26022,0 -0.0437,0 -0.0873,-0.003 -0.13071,-0.007 -0.0217,-0.002 -0.0435,-0.004 -0.0653,-0.004 -0.0218,3.1e-4 -0.0439,0.003 -0.0642,0.0111 -0.0294,0.0115 -0.0538,0.0333 -0.0734,0.058 -0.0196,0.0247 -0.0349,0.0525 -0.0509,0.0797 -0.016,0.0272 -0.0328,0.0543 -0.0549,0.0768 -0.0221,0.0225 -0.05,0.0405 -0.0811,0.0457 -0.0215,0.004 -0.0435,0.001 -0.0652,-0.001 -0.0217,-0.002 -0.0438,-0.004 -0.065,0.001 -0.0306,0.007 -0.0562,0.0285 -0.0763,0.0527 -0.0201,0.0242 -0.0357,0.0518 -0.0538,0.0775 -0.0356,0.0503 -0.0809,0.0931 -0.13017,0.13017 -0.0248,0.0187 -0.0508,0.0361 -0.0741,0.0566 -0.0233,0.0206 -0.0442,0.0448 -0.0561,0.0735 -0.0167,0.0405 -0.0143,0.0861 -0.009,0.12955 0.006,0.0434 0.0141,0.0872 0.009,0.13068 -0.006,0.0485 -0.0292,0.0931 -0.055,0.13458 -0.0258,0.0415 -0.0549,0.0812 -0.0752,0.12564 -0.0287,0.063 -0.0384,0.13255 -0.0523,0.2003 -0.0139,0.0678 -0.0336,0.13689 -0.0779,0.19005 -0.0401,0.0482 -0.0968,0.0789 -0.1479,0.11515 -0.0256,0.0181 -0.0502,0.038 -0.0704,0.062 -0.0202,0.024 -0.036,0.0523 -0.0419,0.0831 -0.008,0.0433 0.003,0.0876 0.0104,0.13104 0.004,0.0217 0.007,0.0437 0.006,0.0657 -8.2e-4,0.022 -0.006,0.0442 -0.0164,0.0634 -0.0152,0.027 -0.0409,0.046 -0.0657,0.0645 -0.0248,0.0185 -0.0503,0.0382 -0.0644,0.0657 -0.01,0.0195 -0.0137,0.0417 -0.0141,0.0636 -3.9e-4,0.0219 0.002,0.0438 0.005,0.0655 0.006,0.0435 0.009,0.0872 0.009,0.13108 l 0,0.26022 c 0,0.0217 -5.8e-4,0.0434 -0.002,0.0651 -9.4e-4,0.0217 -0.002,0.0436 0.002,0.065 0.008,0.0484 0.038,0.0897 0.0668,0.12941 0.0144,0.0198 0.0287,0.0398 0.0403,0.0614 0.0116,0.0216 0.0204,0.045 0.0231,0.0694 0.002,0.0217 -1.6e-4,0.0435 -0.002,0.0652 -0.002,0.0217 -0.003,0.0438 0.002,0.065 0.007,0.0308 0.0272,0.0574 0.0511,0.0781 0.0238,0.0208 0.0516,0.0364 0.0791,0.052 0.13608,0.0775 0.27035,0.15959 0.39032,0.26022 0.0471,0.0395 0.092,0.082 0.13018,0.13018 0.0193,0.0244 0.0367,0.0501 0.0572,0.0735 0.0205,0.0233 0.0444,0.0445 0.0729,0.0567 0.0403,0.0172 0.086,0.0154 0.12948,0.01 0.0435,-0.005 0.0872,-0.0143 0.13074,-0.01 0.0487,0.005 0.0943,0.0262 0.13626,0.0515 0.0419,0.0252 0.0813,0.0548 0.12396,0.0787 0.11995,0.0672 0.25985,0.0869 0.39035,0.13017 0.0924,0.0306 0.18099,0.0736 0.26021,0.13018 0.0642,0.0458 0.12171,0.10014 0.18378,0.14872 0.0621,0.0486 0.13018,0.0921 0.20657,0.11149 0.0633,0.0161 0.12965,0.015 0.19479,0.0104 0.0652,-0.005 0.13027,-0.0128 0.19554,-0.0104 0.11787,0.004 0.2322,0.0426 0.33896,0.0927 0.10677,0.0501 0.20746,0.11214 0.3116,0.16751 0.12205,0.0649 0.25237,0.12158 0.39033,0.13017 0.0433,0.003 0.0868,6e-4 0.13017,0 0.18189,-0.003 0.37231,0.0246 0.52044,0.13018 0.10008,0.0713 0.17353,0.17311 0.26023,0.26022 0.0433,0.0435 0.0902,0.0836 0.13018,0.13017 0.0638,0.0743 0.10898,0.16458 0.13017,0.26024 l 0.26022,0.26021 c -0.0123,0.0422 -0.0123,0.088 0,0.13018 0.0111,0.038 0.0318,0.0727 0.0562,0.10397 0.0243,0.0313 0.0523,0.0595 0.0799,0.088 0.0275,0.0285 0.0548,0.0576 0.0773,0.0902 0.0225,0.0326 0.0402,0.0692 0.0469,0.10822 0.0112,0.0657 -0.009,0.13203 -0.0223,0.19741 -0.006,0.0327 -0.0111,0.0661 -0.009,0.0993 0.002,0.0333 0.0117,0.0666 0.0312,0.0936 0.0181,0.0251 0.0438,0.0434 0.0682,0.0623 0.0244,0.019 0.0486,0.04 0.062,0.0678 0.009,0.0198 0.0129,0.0419 0.0132,0.0638 3.6e-4,0.0219 -0.002,0.0437 -0.005,0.0654 -0.005,0.0435 -0.008,0.0872 -0.008,0.13096 0,0.0867 0,0.17348 0,0.26022 0,0.0867 0,0.17348 0,0.26022 0,0.0434 0.001,0.0868 0.003,0.13024 0.002,0.0434 0.004,0.0872 -0.003,0.12999 -0.008,0.0481 -0.0288,0.0933 -0.053,0.13572 -0.0242,0.0424 -0.0522,0.0825 -0.0771,0.1245 -0.0495,0.0834 -0.0863,0.17368 -0.13017,0.26022 -0.0439,0.0866 -0.0949,0.16981 -0.13018,0.26023 -0.0178,0.0457 -0.0315,0.0929 -0.0504,0.13812 -0.0189,0.0452 -0.0436,0.089 -0.0798,0.1221 -0.036,0.0329 -0.0813,0.0534 -0.12668,0.0712 -0.0453,0.0178 -0.0919,0.0336 -0.13354,0.0589 -0.0936,0.057 -0.15252,0.15573 -0.20412,0.25237 -0.0516,0.0966 -0.10195,0.19808 -0.18622,0.26808 -0.0751,0.0624 -0.17038,0.094 -0.26271,0.12585 -0.0923,0.0319 -0.187,0.067 -0.25773,0.13437 -0.0451,0.0429 -0.078,0.0967 -0.11623,0.14588 -0.0382,0.0491 -0.0846,0.0956 -0.144,0.11434 -0.0416,0.0131 -0.0863,0.0117 -0.12975,0.008 -0.0434,-0.004 -0.087,-0.0108 -0.13047,-0.008 -0.0489,0.004 -0.0962,0.0198 -0.14,0.0418 -0.0438,0.0221 -0.0843,0.05 -0.12417,0.0785 -0.0797,0.0571 -0.16059,0.11857 -0.25629,0.13986 -0.0636,0.0142 -0.12977,0.0101 -0.19485,0.006 -0.0651,-0.004 -0.13027,-0.006 -0.19547,-0.006 -0.0867,0 -0.17348,0 -0.26022,0 -0.21685,0 -0.43371,0 -0.65056,0 -0.0437,0 -0.0873,0.003 -0.13079,0.008 -0.0217,0.002 -0.0435,0.005 -0.0654,0.004 -0.0218,-3.2e-4 -0.0439,-0.003 -0.0641,-0.0118 -0.0286,-0.012 -0.0517,-0.0341 -0.0716,-0.0579 -0.0199,-0.0238 -0.0373,-0.0497 -0.0585,-0.0722 -0.0337,-0.0358 -0.0762,-0.0622 -0.121,-0.0824 -0.0448,-0.0201 -0.092,-0.0342 -0.13922,-0.0478 -0.0473,-0.0137 -0.0948,-0.0271 -0.13978,-0.0469 -0.045,-0.0198 -0.0878,-0.0465 -0.12044,-0.0833 -0.0324,-0.0364 -0.0537,-0.0812 -0.072,-0.1263 -0.0184,-0.0451 -0.0344,-0.0914 -0.0581,-0.13392 -0.0602,-0.10782 -0.16436,-0.18235 -0.26021,-0.26022 -0.0478,-0.0388 -0.0947,-0.0798 -0.13018,-0.13017 -0.0559,-0.0794 -0.0799,-0.17712 -0.13017,-0.26022 -0.0255,-0.0422 -0.0576,-0.0801 -0.0839,-0.12187 -0.0263,-0.0417 -0.0471,-0.089 -0.0463,-0.13835 3.4e-4,-0.022 0.005,-0.0436 0.007,-0.0655 0.002,-0.0219 0.002,-0.0447 -0.007,-0.0647 -0.006,-0.0142 -0.0169,-0.0263 -0.0287,-0.0365 -0.0118,-0.0102 -0.025,-0.0187 -0.038,-0.0273 -0.013,-0.009 -0.026,-0.0174 -0.0374,-0.0281 -0.0113,-0.0107 -0.021,-0.0236 -0.0261,-0.0383 -0.007,-0.0206 -0.005,-0.0431 -0.003,-0.0649 0.002,-0.0217 0.003,-0.0435 0.003,-0.0653 l 0,-0.39033 c 0,-0.0217 -5.7e-4,-0.0434 -0.001,-0.0651 -9.2e-4,-0.0217 -0.002,-0.0436 0.001,-0.065 0.005,-0.0324 0.0207,-0.0631 0.0439,-0.0863 0.0232,-0.0232 0.0539,-0.0388 0.0863,-0.0439"
         style="fill:none;stroke:#000000;stroke-width:1px;stroke-linecap:butt;stroke-linejoin:miter;stroke-opacity:1" />
      <path
         inkscape:connector-curvature="0"
         inkscape:original-d="m 370.34329,113.45852 c 0,1.43122 0,2.86245 0,4.29369 0,0.30359 0.043,0.61023 0,0.91078 -0.0446,0.31256 -0.20831,0.59934 -0.26021,0.91078 -0.0356,0.2139 0,0.43371 0,0.65056 0,0.47707 0,0.95416 0,1.43123 0,0.52044 0,1.04089 0,1.56135 0,0.17347 0,0.34696 0,0.52043 0,0.0434 -0.0389,0.11067 0,0.13018 0.0775,0.0388 0.17347,0 0.26021,0 0.13018,0 0.26024,0 0.39035,0 0.52043,0 1.04089,0 1.56134,0 1.90831,0 3.81661,0 5.72492,0"
         inkscape:path-effect="#path-effect3376"
         id="path3374"
         d="m 370.34329,113.45852 0,4.29369 c 0,0.15196 0.004,0.30389 0.01,0.45573 0.006,0.15183 0.0128,0.30481 -0.01,0.45505 -0.0474,0.31284 -0.22352,0.59649 -0.26021,0.91078 -0.0252,0.21553 0,0.43357 0,0.65056 0,0.47708 0,0.95415 0,1.43123 0,0.52045 0,1.0409 0,1.56135 0,0.17348 0,0.34695 0,0.52043 0,0.022 -0.002,0.0439 -0.005,0.0656 -0.001,0.0109 -0.003,0.0218 -0.003,0.0328 2.1e-4,0.011 0.002,0.0221 0.007,0.0318 0.006,0.01 0.0145,0.0179 0.0247,0.023 0.0102,0.005 0.0216,0.008 0.0331,0.008 0.0228,0.001 0.0454,-0.005 0.0674,-0.0109 0.022,-0.006 0.044,-0.0126 0.0666,-0.0161 0.0226,-0.004 0.0455,-0.004 0.0684,-0.004 l 0.39035,0 1.56134,0 5.72492,0"
         style="fill:none;stroke:#000000;stroke-width:1px;stroke-linecap:butt;stroke-linejoin:miter;stroke-opacity:1" />
      <path
         inkscape:connector-curvature="0"
         inkscape:original-d="m 370.73364,118.7931 c 0.34696,0 0.69392,0 1.04089,0 0.13017,0 0.26199,-0.0213 0.39033,0 0.13525,0.0226 0.25585,0.10328 0.39034,0.13017 0.0851,0.017 0.17606,-0.021 0.26022,0 0.0941,0.0236 0.16823,0.0995 0.26023,0.13017 0.0412,0.0131 0.0867,0 0.13018,0 0.0433,0 0.0867,0 0.13017,0"
         inkscape:path-effect="#path-effect3380"
         id="path3378"
         d="m 370.73364,118.7931 1.04089,0 c 0.0652,0 0.13031,-0.002 0.19539,-0.005 0.0651,-0.003 0.13091,-0.007 0.19494,0.005 0.0677,0.0128 0.13058,0.043 0.1935,0.0711 0.0629,0.028 0.12811,0.0546 0.19684,0.0591 0.0435,0.003 0.087,-0.003 0.13041,-0.007 0.0434,-0.004 0.0879,-0.005 0.12981,0.007 0.047,0.0134 0.0876,0.0425 0.12815,0.0697 0.0406,0.0272 0.0837,0.0537 0.13208,0.0604 0.043,0.006 0.0867,0 0.13018,0 l 0.13017,0"
         style="fill:none;stroke:#000000;stroke-width:1px;stroke-linecap:butt;stroke-linejoin:miter;stroke-opacity:1" />
      <path
         inkscape:connector-curvature="0"
         inkscape:original-d="m 370.21318,113.06818 c 1.43124,0 2.86247,0 4.29369,0 0.3036,0 0.6072,0 0.91078,0 0.0867,0 0.17518,-0.0171 0.26024,0 0.13443,0.0269 0.25584,0.10328 0.39032,0.13017 0.0851,0.017 0.17349,0 0.26024,0 0.21685,0 0.43369,0 0.65054,0"
         inkscape:path-effect="#path-effect3384"
         id="path3382"
         d="m 370.21318,113.06818 4.29369,0 0.91078,0 c 0.0868,0 0.17419,-0.0116 0.26024,0 0.0682,0.009 0.13221,0.0373 0.19516,0.0651 0.063,0.0278 0.12695,0.0559 0.19516,0.0651 0.0861,0.0116 0.17342,0 0.26024,0 l 0.65054,0"
         style="fill:none;stroke:#000000;stroke-width:1px;stroke-linecap:butt;stroke-linejoin:miter;stroke-opacity:1" />
      <path
         inkscape:connector-curvature="0"
         inkscape:original-d="m 385.8266,113.97896 c -0.28274,1.13102 0.0198,0.0803 -0.26022,0.78067 -0.051,0.12739 -0.0689,0.26766 -0.13017,0.39034 -0.07,0.13985 -0.1903,0.25047 -0.26022,0.39033 -0.12263,0.24535 -0.13755,0.53534 -0.26024,0.78067 -0.07,0.13985 -0.19862,0.24661 -0.26021,0.39035 -0.007,0.0148 -0.25335,1.02367 -0.26022,1.04089 -0.10804,0.27012 -0.29091,0.50725 -0.39035,0.78067 -0.28513,1.42569 0.0715,-0.0603 -0.39032,1.171 -0.27747,0.26971 -0.0459,0.6159 -0.13018,0.91078 -0.0533,0.1865 -0.19211,0.33884 -0.26022,0.52045 -0.0628,0.16744 -0.0951,0.34509 -0.13017,0.52045 -0.0325,0.16264 0.0651,0.19517 0,0.39033 -0.0194,0.0582 -0.10263,0.0752 -0.13018,0.13018 -0.0193,0.0389 0,0.0867 0,0.13017 0,0.0434 0,0.0867 0,0.13018 0,0.26021 0,0.52043 0,0.78067 0,0.0867 0,0.17347 0,0.26022 0,0.0434 0.0131,0.089 0,0.13017 -0.0307,0.092 -0.10656,0.16614 -0.13017,0.26023 -0.021,0.0841 0,0.17348 0,0.26022 0,0.13018 0,0.26022 0,0.39033"
         inkscape:path-effect="#path-effect3452"
         id="path3450"
         d="m 385.8266,113.97896 c -0.10359,0.25419 -0.19058,0.51516 -0.26022,0.78067 -0.0349,0.13299 -0.066,0.26873 -0.13017,0.39034 -0.073,0.13844 -0.18583,0.25261 -0.26022,0.39033 -0.0654,0.12101 -0.099,0.25618 -0.13148,0.38982 -0.0325,0.13363 -0.0651,0.26893 -0.12876,0.39085 -0.0724,0.13874 -0.18223,0.25466 -0.26021,0.39035 -0.0896,0.15584 -0.13455,0.33317 -0.16615,0.51011 -0.0316,0.17693 -0.0509,0.3563 -0.0941,0.53078 -0.0704,0.28474 -0.20481,0.55348 -0.39035,0.78067 l -0.39032,1.171 c 0.0308,0.30815 -0.0143,0.62361 -0.13018,0.91078 -0.0726,0.17994 -0.17197,0.34763 -0.26022,0.52045 -0.0414,0.081 -0.0805,0.16364 -0.1062,0.25087 -0.0257,0.0872 -0.0377,0.17968 -0.024,0.26958 0.0102,0.067 0.0345,0.13134 0.0439,0.19847 0.005,0.0336 0.006,0.0679 -7.1e-4,0.10122 -0.006,0.0333 -0.0205,0.0655 -0.0432,0.0906 -0.021,0.0231 -0.0482,0.0393 -0.0731,0.0581 -0.0124,0.009 -0.0244,0.0196 -0.0345,0.0315 -0.0101,0.0119 -0.0183,0.0256 -0.0226,0.0406 -0.006,0.0209 -0.004,0.0432 -0.003,0.0649 0.002,0.0217 0.003,0.0435 0.003,0.0653 0,0.0434 0,0.0868 0,0.13018 0,0.26022 0,0.52045 0,0.78067 0,0.0867 0,0.17348 0,0.26022 0,0.0434 0.006,0.0872 0,0.13017 -0.007,0.0484 -0.034,0.0912 -0.0615,0.13163 -0.0275,0.0404 -0.0566,0.0812 -0.0687,0.1286 -0.0108,0.0421 -0.008,0.0864 -0.005,0.12984 0.003,0.0434 0.005,0.0869 0.005,0.13038 l 0,0.39033"
         style="fill:none;stroke:#000000;stroke-width:1px;stroke-linecap:butt;stroke-linejoin:miter;stroke-opacity:1" />
      <path
         inkscape:connector-curvature="0"
         inkscape:original-d="m 386.21694,112.93807 c 0,0.17349 -0.0285,0.34932 0,0.52045 0.0785,0.47122 0.11149,0.093 0.26022,0.39033 0.12264,0.24535 0.13756,0.53532 0.26024,0.78067 0.28553,0.57108 0.29233,0.22646 0.52043,0.91078 0.07,0.2098 0.0764,0.43602 0.13018,0.65056 0.25002,1.00007 0.23471,0.7628 0.52045,1.69145 0.0928,0.30178 0.17349,0.6072 0.26022,0.91079 0.0867,0.30359 0.15411,0.61344 0.26024,0.91078 0.38583,1.08036 0.46763,0.76267 0.65054,1.95168 0.033,0.21433 -0.0571,0.44135 0,0.65057 0.0766,0.28067 0.29834,0.50464 0.39035,0.78067 0.0835,0.25026 0.0543,0.52798 0.13017,0.78067 0.0557,0.18577 0.18382,0.34216 0.26022,0.52044 0.0541,0.12607 0.0621,0.27125 0.13017,0.39034 0.10755,0.18828 0.28275,0.33216 0.39033,0.52044 0.39672,0.0921 0.0502,0.3605 0.13018,0.52045 0.0274,0.0549 0.10263,0.0752 0.13017,0.13017 0.0193,0.0389 -0.0193,0.0913 0,0.13018 0.0274,0.0549 0.10263,0.0752 0.13018,0.13017 0.0193,0.0389 -0.0307,0.0995 0,0.13018 0.0306,0.0307 0.0994,-0.0307 0.13017,0 0.0303,0.0303 -0.0272,0.20593 0,0.26022 0.0274,0.0549 0.0867,0.0867 0.13018,0.13017"
         inkscape:path-effect="#path-effect3456"
         id="path3454"
         d="m 386.21694,112.93807 c -0.0744,0.16271 -0.0744,0.35774 0,0.52045 0.0651,0.14243 0.18097,0.25524 0.26022,0.39033 0.13917,0.23724 0.15682,0.5258 0.26024,0.78067 0.13177,0.32471 0.39755,0.5826 0.52043,0.91078 0.0777,0.20752 0.094,0.43194 0.13018,0.65056 0.0964,0.58276 0.33564,1.13042 0.52045,1.69145 0.0988,0.29995 0.18232,0.60474 0.26022,0.91079 0.0779,0.30615 0.15054,0.61453 0.26024,0.91078 0.12002,0.32413 0.28321,0.63042 0.41694,0.94913 0.13372,0.31872 0.23897,0.65696 0.2336,1.00255 -0.003,0.21765 -0.0503,0.43879 0,0.65057 0.0337,0.14207 0.1093,0.27023 0.18651,0.39417 0.0772,0.12395 0.1579,0.24789 0.20384,0.3865 0.0832,0.25104 0.0459,0.52999 0.13017,0.78067 0.0619,0.18409 0.18546,0.3412 0.26022,0.52044 0.0528,0.12664 0.0805,0.26244 0.13017,0.39034 0.0795,0.20467 0.21611,0.38681 0.39033,0.52044 -0.0455,0.0866 -0.058,0.19013 -0.0342,0.28507 0.0238,0.0949 0.0835,0.18041 0.16442,0.23538 0.0262,0.0178 0.0546,0.0325 0.0792,0.0525 0.0123,0.01 0.0237,0.0213 0.0327,0.0343 0.009,0.013 0.0157,0.0278 0.0183,0.0434 0.004,0.0216 -7.5e-4,0.0436 -0.004,0.0654 -0.003,0.0217 -0.005,0.0446 0.004,0.0648 0.006,0.0145 0.0171,0.0266 0.0294,0.0364 0.0123,0.01 0.0261,0.0175 0.0397,0.0256 0.0135,0.008 0.0269,0.0166 0.0381,0.0277 0.0112,0.0111 0.0202,0.0249 0.023,0.0404 0.002,0.0111 8.2e-4,0.0226 -0.002,0.0336 -0.002,0.011 -0.006,0.0218 -0.009,0.0327 -0.003,0.011 -0.004,0.0223 -0.003,0.0335 0.001,0.0112 0.005,0.0224 0.0134,0.0303 0.008,0.008 0.0193,0.0119 0.0305,0.0128 0.0112,9.4e-4 0.0225,-0.001 0.0334,-0.004 0.0109,-0.003 0.0217,-0.006 0.0327,-0.008 0.011,-0.002 0.0225,-0.003 0.0335,-7.8e-4 0.012,0.003 0.0229,0.009 0.0315,0.0179 0.009,0.009 0.0146,0.0198 0.0182,0.0315 0.007,0.0234 0.004,0.0489 -0.003,0.0724 -0.007,0.0235 -0.0181,0.0455 -0.0277,0.068 -0.01,0.0225 -0.0181,0.046 -0.0193,0.0705 -0.002,0.0345 0.0117,0.0695 0.0362,0.094 0.0244,0.0244 0.0595,0.0379 0.094,0.0362"
         style="fill:none;stroke:#000000;stroke-width:1px;stroke-linecap:butt;stroke-linejoin:miter;stroke-opacity:1" />
      <path
         inkscape:connector-curvature="0"
         inkscape:original-d="m 382.18348,120.74478 c 0.21685,-0.0434 0.43467,-0.0821 0.65056,-0.13017 0.17456,-0.0389 0.34272,-0.11034 0.52044,-0.13018 0.21552,-0.0239 0.43371,0 0.65056,0 0.3036,0 0.6072,0 0.91078,0 0.3036,0 0.61025,0.043 0.91078,0 0.31258,-0.0446 0.59782,-0.21849 0.9108,-0.26022 0.34391,-0.0459 0.69392,0 1.04089,0 0.56382,0 1.12763,0 1.69145,0"
         inkscape:path-effect="#path-effect3460"
         id="path3458"
         d="m 382.18348,120.74478 c 0.21994,-0.0254 0.43778,-0.069 0.65056,-0.13017 0.17211,-0.0495 0.3424,-0.11081 0.52044,-0.13018 0.2157,-0.0235 0.43358,0 0.65056,0 l 0.91078,0 c 0.30389,0 0.60995,0.043 0.91078,0 0.31309,-0.0448 0.59839,-0.21093 0.9108,-0.26022 0.17156,-0.0271 0.3465,-0.0192 0.52003,-0.0119 0.17353,0.007 0.34717,0.0119 0.52086,0.0119 l 1.69145,0"
         style="fill:none;stroke:#000000;stroke-width:1px;stroke-linecap:butt;stroke-linejoin:miter;stroke-opacity:1" />
      <path
         inkscape:connector-curvature="0"
         inkscape:original-d="m 394.5441,114.62952 c 0,0.17349 0,0.34696 0,0.52045 -0.0435,0.0867 -0.11411,0.16456 -0.13018,0.26022 -0.0285,0.17113 0.0215,0.34831 0,0.52045 -0.0221,0.17744 -0.081,0.34851 -0.13017,0.52044 -0.0377,0.13181 -0.11493,0.25404 -0.13018,0.39034 -0.0287,0.25863 0.02,0.52121 0,0.78068 -0.0236,0.30576 -0.1082,0.60488 -0.13017,0.91078 -0.0216,0.30283 0,0.60718 0,0.91078 0,0.3036 -0.0216,0.60795 0,0.91078 0.0397,0.5547 0.22023,1.4414 0.39033,1.95169 0.26744,0.80232 0.19429,0.27199 0.65056,0.91078 0.1128,0.15788 0.16034,0.35412 0.26022,0.52043 0.0315,0.0526 0.0961,0.079 0.13017,0.13018 0.0538,0.0807 0.0495,0.20643 0.13018,0.26022 0.0721,0.048 0.17608,-0.021 0.26023,0 0.0941,0.0234 0.16821,0.0994 0.26022,0.13017 0.0412,0.0131 0.089,-0.0131 0.13017,0 0.5649,0.1883 -0.0893,0.13018 0.65057,0.13018 0.0434,0 0.0941,0.0241 0.13017,0 0.10214,-0.068 0.15051,-0.20537 0.26024,-0.26022 0.76945,-0.38474 -0.27829,0.46894 0.52043,-0.13018 0.0982,-0.0736 0.17349,-0.17349 0.26024,-0.26023 0.0867,-0.0867 0.18662,-0.16215 0.26022,-0.26022 0.0582,-0.0775 0.072,-0.18264 0.13017,-0.26022 0.0736,-0.0982 0.18662,-0.16214 0.26022,-0.26023 0.0582,-0.0776 0.0867,-0.17348 0.13017,-0.26022 0.0867,-0.17348 0.17348,-0.34697 0.26022,-0.52046 0.0433,-0.0867 0.0867,-0.17347 0.13018,-0.26021 0.0433,-0.0867 0.11115,-0.16513 0.13017,-0.26022 0.003,-0.0167 -0.003,-0.76079 0,-0.78067 0.0225,-0.13526 0.10755,-0.25506 0.13018,-0.39035 0.0215,-0.12837 0,-0.26022 0,-0.39033 0,-0.4337 0,-0.86741 0,-1.30112 0,-0.95415 0,-1.90831 0,-2.86245"
         inkscape:path-effect="#path-effect3464"
         id="path3462"
         d="m 394.5441,114.62952 0,0.52045 c -0.0646,0.0738 -0.1099,0.16429 -0.13018,0.26022 -0.036,0.17019 0.006,0.34661 0,0.52045 -0.007,0.17957 -0.0651,0.35296 -0.13017,0.52044 -0.0498,0.12803 -0.10408,0.25548 -0.13018,0.39034 -0.0496,0.25608 0.006,0.51991 0,0.78068 -0.007,0.30689 -0.0971,0.6056 -0.13017,0.91078 -0.0327,0.30211 -0.009,0.60703 0,0.91078 0.009,0.30349 0.002,0.60717 0,0.91078 -0.002,0.33664 0.001,0.67477 0.0536,1.00736 0.0521,0.33259 0.15442,0.66135 0.33677,0.94433 0.20264,0.31446 0.5004,0.56815 0.65056,0.91078 0.0393,0.0896 0.0676,0.1836 0.10484,0.27404 0.0373,0.0904 0.0847,0.17878 0.15538,0.24639 0.0445,0.0426 0.0985,0.0773 0.13017,0.13018 0.0255,0.0426 0.034,0.0928 0.0485,0.14032 0.007,0.0237 0.0161,0.0472 0.0292,0.0682 0.0131,0.0211 0.0307,0.0398 0.0525,0.0517 0.0194,0.0105 0.0414,0.0153 0.0634,0.0164 0.022,0.001 0.044,-0.002 0.0658,-0.005 0.0435,-0.007 0.0875,-0.0179 0.13104,-0.0113 0.0483,0.007 0.0907,0.0352 0.13094,0.0631 0.0402,0.0278 0.0815,0.0569 0.12928,0.0671 0.0426,0.009 0.0867,0.002 0.13017,0 0.11087,-0.006 0.2212,0.0175 0.3283,0.0468 0.1071,0.0292 0.21287,0.0645 0.32227,0.0834 0.0431,0.007 0.0881,0.0122 0.13017,0 0.0299,-0.009 0.057,-0.0257 0.0803,-0.0464 0.0233,-0.0207 0.043,-0.0451 0.0614,-0.0702 0.0368,-0.0503 0.0696,-0.10506 0.1186,-0.14359 0.0356,-0.028 0.0781,-0.046 0.12196,-0.0574 0.0438,-0.0113 0.089,-0.0162 0.13409,-0.02 0.0902,-0.008 0.18384,-0.0115 0.26438,-0.0528 0.055,-0.0282 0.10024,-0.0721 0.14068,-0.11877 0.0404,-0.0467 0.077,-0.0968 0.11956,-0.14146 0.0849,-0.0891 0.19358,-0.15681 0.26022,-0.26022 0.0526,-0.0816 0.0752,-0.18016 0.13017,-0.26022 0.0696,-0.10136 0.18434,-0.16346 0.26022,-0.26023 0.06,-0.0766 0.0925,-0.17048 0.13017,-0.26022 0.0751,-0.1789 0.17402,-0.34664 0.26022,-0.52046 0.0431,-0.0869 0.0831,-0.17543 0.13018,-0.26021 0.0472,-0.085 0.10206,-0.16716 0.13017,-0.26022 0.0379,-0.12539 0.0242,-0.25991 0.008,-0.38985 -0.0166,-0.12993 -0.0356,-0.26285 -0.008,-0.39082 0.0293,-0.13427 0.10884,-0.25458 0.13018,-0.39035 0.0101,-0.0643 0.007,-0.12994 0.004,-0.19501 -0.003,-0.0651 -0.004,-0.13019 -0.004,-0.19532 l 0,-1.30112 0,-2.86245"
         style="fill:none;stroke:#000000;stroke-width:1px;stroke-linecap:butt;stroke-linejoin:miter;stroke-opacity:1" />
    </g>
    <text
       xml:space="preserve"
       style="font-size:27.88981819px;font-style:normal;font-variant:normal;font-weight:500;font-stretch:normal;text-indent:0;text-align:start;text-decoration:none;line-height:88.99999857%;letter-spacing:0px;word-spacing:0px;text-transform:none;direction:ltr;block-progression:tb;writing-mode:lr-tb;text-anchor:start;baseline-shift:baseline;color:#000000;fill:#000000;fill-opacity:1;fill-rule:nonzero;stroke:none;stroke-width:1px;marker:none;visibility:visible;display:inline;overflow:visible;enable-background:accumulate;font-family:Inconsolata;-inkscape-font-specification:Inconsolata Medium"
       x="218.38939"
       y="468.36642"
       id="text3533"
       sodipodi:linespacing="88.999999%"><tspan
         sodipodi:role="line"
         id="tspan3535"
         x="218.38939"
         y="468.36642"
         style="font-style:normal;font-variant:normal;font-weight:normal;font-stretch:normal;text-align:center;line-height:88.99999857%;text-anchor:middle;font-family:Vibur;-inkscape-font-specification:Vibur">Lukas</tspan><tspan
         sodipodi:role="line"
         x="218.38939"
         y="493.18835"
         id="tspan3537"
         style="font-style:normal;font-variant:normal;font-weight:normal;font-stretch:normal;text-align:center;line-height:88.99999857%;text-anchor:middle;font-family:Vibur;-inkscape-font-specification:Vibur">Racasse</tspan></text>
  </g>
</svg>
