<?xml version="1.0" encoding="UTF-8" standalone="no"?>
<!-- Created with Inkscape (http://www.inkscape.org/) -->

<svg
   xmlns:dc="http://purl.org/dc/elements/1.1/"
   xmlns:cc="http://creativecommons.org/ns#"
   xmlns:rdf="http://www.w3.org/1999/02/22-rdf-syntax-ns#"
   xmlns:svg="http://www.w3.org/2000/svg"
   xmlns="http://www.w3.org/2000/svg"
   xmlns:sodipodi="http://sodipodi.sourceforge.net/DTD/sodipodi-0.dtd"
   xmlns:inkscape="http://www.inkscape.org/namespaces/inkscape"
   width="119.04463"
   height="130.03748"
   id="svg5400"
   version="1.1"
   inkscape:version="0.48.3.1 r9886"
   sodipodi:docname="etsi2.svg">
  <defs
     id="defs5402" />
  <sodipodi:namedview
     id="base"
     pagecolor="#ffffff"
     bordercolor="#666666"
     borderopacity="1.0"
     inkscape:pageopacity="0.0"
     inkscape:pageshadow="2"
     inkscape:zoom="0.35"
     inkscape:cx="162.40625"
     inkscape:cy="8.1127978"
     inkscape:document-units="px"
     inkscape:current-layer="layer1"
     showgrid="false"
     fit-margin-top="0"
     fit-margin-left="0"
     fit-margin-right="0"
     fit-margin-bottom="0"
     inkscape:window-width="472"
     inkscape:window-height="415"
     inkscape:window-x="966"
     inkscape:window-y="24"
     inkscape:window-maximized="0" />
  <metadata
     id="metadata5405">
    <rdf:RDF>
      <cc:Work
         rdf:about="">
        <dc:format>image/svg+xml</dc:format>
        <dc:type
           rdf:resource="http://purl.org/dc/dcmitype/StillImage" />
        <dc:title></dc:title>
      </cc:Work>
    </rdf:RDF>
  </metadata>
  <g
     inkscape:label="Layer 1"
     inkscape:groupmode="layer"
     id="layer1"
     transform="translate(-212.59375,-410.4375)">
    <g
       id="g5200"
       transform="translate(-138.67801,27.175913)">
      <path
         inkscape:connector-curvature="0"
         transform="matrix(0,-0.08149482,0.07726078,0,423.41487,491.22322)"
         style="fill:none;stroke:#000000;stroke-width:12.60246372;stroke-linecap:round;stroke-linejoin:round;stroke-miterlimit:4;stroke-opacity:1;stroke-dashoffset:0;display:inline"
         d="m 669.45395,312.42104 c -4.26588,145.32264 -142.52008,260.10758 -308.7994,256.37934 -42.19488,-0.94607 -83.69106,-9.63295 -121.79726,-25.49725"
         id="path4149" />
      <path
         inkscape:connector-curvature="0"
         transform="matrix(0,-0.08149482,0.07726078,0,411.37552,509.1937)"
         style="fill:none;stroke:#000000;stroke-width:12.60246372;stroke-linecap:round;stroke-linejoin:round;stroke-miterlimit:4;stroke-opacity:1;stroke-dashoffset:0;display:inline"
         d="M 78.549072,377.23374 C 33.326196,237.33921 126.42691,91.892331 286.49534,52.36903 364.38512,33.136873 447.85397,42.113623 518.08502,77.2756"
         id="path4153" />
      <path
         inkscape:connector-curvature="0"
         transform="matrix(0,-0.05650038,0.05356492,0,410.52744,482.32761)"
         style="fill:none;stroke:#000000;stroke-width:18.17749786;stroke-linecap:round;stroke-linejoin:round;stroke-miterlimit:4;stroke-opacity:1;stroke-dashoffset:0;display:inline"
         d="M 223.24398,75.032641 C 354.82659,11.787227 519.61343,42.92038 609.55638,148.01859"
         id="path4155" />
      <path
         inkscape:connector-curvature="0"
         transform="matrix(0,-0.05650038,0.05356492,0,413.93481,468.07103)"
         style="fill:none;stroke:#000000;stroke-width:18.17749786;stroke-linecap:round;stroke-linejoin:round;stroke-miterlimit:4;stroke-opacity:1;stroke-dashoffset:0;display:inline"
         d="M 257.86514,60.814928 C 412.59637,7.4724419 587.50937,73.855374 648.54427,209.08536 c 43.55775,96.50732 18.1902,206.37372 -64.7812,280.56618"
         id="path4157" />
      <path
         inkscape:connector-curvature="0"
         transform="matrix(0,-0.07119949,0.06750033,0,427.96084,509.49297)"
         style="fill:none;stroke:#000000;stroke-width:14.42476082;stroke-linecap:round;stroke-linejoin:round;stroke-miterlimit:4;stroke-opacity:1;stroke-dashoffset:0;display:inline"
         d="M 516.30389,534.95007 C 371.41555,606.35044 187.73194,561.57991 106.03506,434.95229 64.348031,370.33869 55.791001,293.35169 82.469439,222.93402"
         id="path4159" />
      <path
         inkscape:connector-curvature="0"
         transform="matrix(0,-0.04110018,0.03896483,0,431.56378,456.82426)"
         style="fill:none;stroke:#000000;stroke-width:24.98859024;stroke-linecap:round;stroke-linejoin:round;stroke-miterlimit:4;stroke-opacity:1;stroke-dashoffset:0;display:inline"
         d="M 488.05543,64.127307 C 640.69347,121.89276 710.8499,276.86347 644.75422,410.26407 602.4449,495.65676 511.68984,555.17947 406.05203,566.81956"
         id="path4161" />
      <path
         inkscape:connector-curvature="0"
         transform="matrix(0,0.04110018,0.03896483,0,429.40578,480.30235)"
         style="fill:none;stroke:#000000;stroke-width:24.98859024;stroke-linecap:round;stroke-linejoin:round;stroke-miterlimit:4;stroke-opacity:1;stroke-dashoffset:0;display:inline"
         d="M 488.05543,64.127307 C 640.69347,121.89276 710.8499,276.86347 644.75422,410.26407 624.70887,450.7215 593.35693,486.1304 553.57613,513.24067"
         id="path4163" />
      <path
         inkscape:connector-curvature="0"
         style="fill:none;stroke:#000000;stroke-width:1;stroke-linecap:round;stroke-linejoin:round;stroke-miterlimit:4;stroke-opacity:1;display:inline"
         d="m 435.1264,427.16161 1.28896,8.54829"
         id="path4169" />
      <path
         inkscape:connector-curvature="0"
         style="fill:none;stroke:#000000;stroke-width:1;stroke-linecap:round;stroke-linejoin:round;stroke-miterlimit:4;stroke-opacity:1;display:inline"
         d="m 436.4576,424.2531 0.67098,10.89102"
         id="path4173" />
      <path
         inkscape:connector-curvature="0"
         style="fill:none;stroke:#000000;stroke-width:1;stroke-linecap:round;stroke-linejoin:round;stroke-miterlimit:4;stroke-opacity:1;display:inline"
         d="m 457.15021,430.63531 -3.48482,7.83647"
         id="path4177" />
      <path
         inkscape:connector-curvature="0"
         style="fill:none;stroke:#000000;stroke-width:1;stroke-linecap:round;stroke-linejoin:round;stroke-miterlimit:4;stroke-opacity:1;display:inline"
         d="m 459.13289,430.85299 -4.09753,7.49942"
         id="path4181" />
      <path
         inkscape:connector-curvature="0"
         style="fill:none;stroke:#000000;stroke-width:1;stroke-linecap:round;stroke-linejoin:round;stroke-miterlimit:4;stroke-opacity:1;display:inline"
         d="m 448.56994,512.43382 0.22434,-8.6525"
         id="path4203" />
      <path
         inkscape:connector-curvature="0"
         style="fill:none;stroke:#000000;stroke-width:1;stroke-linecap:round;stroke-linejoin:round;stroke-miterlimit:4;stroke-opacity:1;display:inline"
         d="m 447.15537,512.80334 0.83498,-8.6108"
         id="path4205" />
      <path
         inkscape:connector-curvature="0"
         style="fill:none;stroke:#000000;stroke-width:1;stroke-linecap:round;stroke-linejoin:round;stroke-miterlimit:4;stroke-opacity:1;display:inline"
         d="m 427.52823,504.74462 4.79242,-7.02624"
         id="path4207" />
      <path
         inkscape:connector-curvature="0"
         style="fill:none;stroke:#000000;stroke-width:1;stroke-linecap:round;stroke-linejoin:round;stroke-miterlimit:4;stroke-opacity:1;display:inline"
         d="m 424.03567,505.69441 6.34129,-7.75635"
         id="path4209" />
      <path
         inkscape:connector-curvature="0"
         style="fill:none;stroke:#000000;stroke-width:1;stroke-linecap:round;stroke-linejoin:round;stroke-miterlimit:4;stroke-opacity:1;display:inline"
         d="m 410.39722,474.60504 7.22499,-4.10402"
         id="path4219" />
      <path
         inkscape:connector-curvature="0"
         style="fill:none;stroke:#000000;stroke-width:1;stroke-linecap:round;stroke-linejoin:round;stroke-miterlimit:4;stroke-opacity:1;display:inline"
         d="m 408.92777,473.18427 7.52672,-3.44829"
         id="path4221" />
      <path
         inkscape:connector-curvature="0"
         style="fill:none;stroke:#000000;stroke-width:1;stroke-linecap:round;stroke-linejoin:round;stroke-miterlimit:4;stroke-opacity:1;display:inline"
         d="m 469.40045,474.94686 -5.17697,-0.0588"
         id="path4227" />
      <path
         inkscape:connector-curvature="0"
         style="fill:none;stroke:#000000;stroke-width:1;stroke-linecap:round;stroke-linejoin:round;stroke-miterlimit:4;stroke-opacity:1;display:inline"
         d="m 469.82175,472.9463 -5.16154,0.67676"
         id="path4229" />
    </g>
    <g
       transform="translate(-97.998132,35.421833)"
       style="font-size:40px;font-style:normal;font-weight:normal;line-height:83.99999738%;letter-spacing:0px;word-spacing:0px;fill:#000000;fill-opacity:1;stroke:none;font-family:Sans"
       id="text3824">
      <path
         inkscape:connector-curvature="0"
         d="m 399.88042,432.5994 c 4.02665,2e-5 7.05331,1.05335 9.08,3.16 0.34664,0.40002 0.58664,0.72002 0.72,0.96 0.15997,0.42668 0.13331,0.72001 -0.08,0.88 -0.0534,0.0267 -0.38669,0.20001 -1,0.52 -1.62669,0.88001 -2.53336,1.37335 -2.72,1.48 -0.42669,0.24001 -0.76002,0.24001 -1,0 -0.74669,-0.85332 -1.68002,-1.46665 -2.8,-1.84 -0.42668,-0.13332 -0.82668,-0.19999 -1.2,-0.2 -2.37335,0.0267 -3.57335,0.50668 -3.6,1.44 0.0267,0.61335 1.19999,1.04001 3.52,1.28 2.53331,0.24001 4.74664,0.86668 6.64,1.88 0.10664,0.0533 0.19998,0.10668 0.28,0.16 2.31997,1.38668 3.49331,3.34667 3.52,5.88 -3e-5,2.08 -1.05336,3.84 -3.16,5.28 -2.02669,1.36 -4.50669,2.04 -7.44,2.04 -4.72001,0 -8.00001,-1.04 -9.84,-3.12 -0.26667,-0.32 -0.52001,-0.65333 -0.76,-1 -0.29334,-0.45333 -0.30667,-0.81333 -0.04,-1.08 0.15999,-0.16 1.50666,-0.93333 4.04,-2.32 0.37332,-0.16 0.65332,-0.0933 0.84,0.2 0.61332,1.04 1.70665,1.76 3.28,2.16 0.50665,0.13334 0.99998,0.2 1.48,0.2 2.55998,0 3.97331,-0.42666 4.24,-1.28 0.0266,-0.08 0.04,-0.14666 0.04,-0.2 -2e-5,-0.77333 -0.33335,-1.22666 -1,-1.36 -0.10669,-0.0267 -0.22669,-0.04 -0.36,-0.04 -2.82668,-0.26666 -4.62668,-0.47999 -5.4,-0.64 -0.32001,-0.08 -0.61335,-0.15999 -0.88,-0.24 -3.06668,-0.87999 -4.98667,-2.21333 -5.76,-4 -0.32001,-0.74666 -0.48001,-1.57332 -0.48,-2.48 -10e-6,-1.97332 0.81333,-3.69332 2.44,-5.16 1.86666,-1.70665 4.33332,-2.55998 7.4,-2.56"
         style="font-variant:normal;font-weight:500;font-stretch:normal;text-align:center;line-height:83.99999738%;text-anchor:middle;font-family:FranklinGothic;-inkscape-font-specification:FranklinGothic Medium"
         id="path5335" />
      <path
         inkscape:connector-curvature="0"
         d="m 397.42542,467.1594 c 0.85332,2e-5 2.49332,-0.0133 4.92,-0.04 0.69332,2e-5 1.07999,2e-5 1.16,0 0.39999,2e-5 0.73332,0.17335 1,0.52 0.0533,0.10668 0.08,0.18668 0.08,0.24 0.08,3.49335 0.11998,10.13334 0.12,19.92 -0.0534,0.72 -0.30668,1.09333 -0.76,1.12 l -2.48,0 c -0.08,0 -0.54668,0 -1.4,0 -1.20001,0.0267 -1.89334,0.04 -2.08,0.04 -0.66667,0 -1.12001,-0.16 -1.36,-0.48 -0.08,-0.10667 -0.12001,-0.2 -0.12,-0.28 -1e-5,-0.18667 0.0133,-3.82667 0.04,-10.92 -10e-6,-5.78665 -10e-6,-8.75998 0,-8.92 0.0267,-0.77332 0.31999,-1.17332 0.88,-1.2 m -0.28,-9 6.4,0 c 0.63999,0.0267 0.97332,0.26669 1,0.72 -2e-5,0.10669 -2e-5,0.77336 0,2 0.0267,1.81336 0.04,2.85335 0.04,3.12 -0.0267,0.56002 -0.18668,0.90669 -0.48,1.04 -0.10668,0.0267 -1.21335,0.04 -3.32,0.04 -2.10668,2e-5 -3.22667,0.0134 -3.36,0.04 -0.37334,0.08 -0.68001,-0.0266 -0.92,-0.32 -0.0533,-0.13331 -0.08,-0.23998 -0.08,-0.32 -10e-6,-0.15998 0.0267,-1.10665 0.08,-2.84 0.0533,-1.59998 0.08,-2.47997 0.08,-2.64 0.0267,-0.53331 0.21333,-0.81331 0.56,-0.84"
         style="font-variant:normal;font-weight:500;font-stretch:normal;text-align:center;line-height:83.99999738%;text-anchor:middle;font-family:FranklinGothic;-inkscape-font-specification:FranklinGothic Medium"
         id="path5337" />
    </g>
    <g
       transform="matrix(1,0,0,-0.83788967,-148.56938,757.90386)"
       id="g3830">
      <path
         sodipodi:nodetypes="cccc"
         style="fill:#000000;fill-opacity:1;stroke:#ffffff;stroke-linecap:round;stroke-linejoin:round;stroke-opacity:1"
         d="m 380.0369,329.77146 -3.12359,-2.08238 C 388.36648,305.30335 408.14923,289.16479 431.57616,285 c -23.94753,6.76777 -42.68908,22.38573 -51.53926,44.77146 z"
         id="path3832"
         inkscape:connector-curvature="0" />
      <path
         inkscape:connector-curvature="0"
         id="path3834"
         d="m 408.66982,393.80507 -3.12359,-2.08238 c 11.45317,-22.38573 31.23592,-38.52429 54.66285,-42.68908 -23.94753,6.76777 -42.68908,22.38573 -51.53926,44.77146 z"
         style="fill:#000000;fill-opacity:1;stroke:#ffffff;stroke-linecap:round;stroke-linejoin:round;stroke-opacity:1"
         sodipodi:nodetypes="cccc" />
      <path
         sodipodi:nodetypes="cccc"
         style="fill:#000000;fill-opacity:1;stroke:#ffffff;stroke-linecap:round;stroke-linejoin:round;stroke-opacity:1"
         d="m 413.3552,363.61036 -3.12359,-2.08238 c 11.45317,-22.38573 31.23592,-38.52429 54.66285,-42.68908 -23.94753,6.76777 -42.68908,22.38573 -51.53926,44.77146 z"
         id="path3836"
         inkscape:connector-curvature="0" />
      <path
         inkscape:connector-curvature="0"
         id="path3838"
         d="m 412.314,357.88378 -3.12359,-2.08238 c 11.45317,-22.38573 31.23592,-38.52429 54.66285,-42.68908 -23.94753,6.76777 -42.68908,22.38573 -51.53926,44.77146 z"
         style="fill:#000000;fill-opacity:1;stroke:#ffffff;stroke-linecap:round;stroke-linejoin:round;stroke-opacity:1"
         sodipodi:nodetypes="cccc" />
      <path
         inkscape:connector-curvature="0"
         id="path3840"
         d="m 396.69605,349.0336 -3.12359,-2.08238 c 11.45317,-22.38573 31.23592,-38.52429 54.66285,-42.68908 -23.94753,6.76777 -42.68908,22.38573 -51.53926,44.77146 z"
         style="fill:#000000;fill-opacity:1;stroke:none"
         sodipodi:nodetypes="cccc" />
      <path
         sodipodi:nodetypes="cccc"
         style="fill:#000000;fill-opacity:1;stroke:#ffffff;stroke-linecap:round;stroke-linejoin:round;stroke-opacity:1"
         d="m 395.65485,343.30702 -3.12359,-2.08238 c 11.45317,-22.38573 31.23592,-38.52429 54.66285,-42.68908 -23.94753,6.76777 -42.68908,22.38573 -51.53926,44.77146 z"
         id="path3842"
         inkscape:connector-curvature="0" />
    </g>
    <path
       inkscape:connector-curvature="0"
       style="fill:#ffffff;stroke:#000000;stroke-width:1.03282475;stroke-opacity:1"
       d="m 268.05117,451.39928 c 0,22.34069 -12.30016,40.45139 -27.47318,40.45139 -15.17301,0 -27.47317,-18.1107 -27.47317,-40.45139 0,-22.3407 12.30016,-40.45141 27.47317,-40.45141 15.17302,0 27.47318,18.11071 27.47318,40.45141 z"
       id="path3844" />
    <g
       transform="translate(-97.998132,35.421833)"
       style="font-size:40px;font-style:normal;font-weight:normal;line-height:83.99999738%;letter-spacing:0px;word-spacing:0px;fill:#000000;fill-opacity:1;stroke:none;font-family:Sans"
       id="text3846">
      <path
         inkscape:connector-curvature="0"
         d="m 341.32327,397.50854 c 0.08,-1.73332 -0.36002,-2.91998 -1.32,-3.56 -0.40001,-0.26665 -0.85335,-0.39998 -1.36,-0.4 -1.70668,2e-5 -2.80001,0.82669 -3.28,2.48 -0.10668,0.45335 -0.16001,0.92002 -0.16,1.4 l 6.12,0.08 m -2.6,-8.64 c 3.73332,2e-5 6.58665,1.53336 8.56,4.6 1.27998,2.02668 2.02664,4.46668 2.24,7.32 -0.0267,0.53335 -0.26669,0.82668 -0.72,0.88 -0.26669,0.0267 -1.12002,0.04 -2.56,0.04 -1.44002,10e-6 -2.89335,-0.0133 -4.36,-0.04 -1.44002,-0.0267 -2.82668,-0.04 -4.16,-0.04 -1.30668,-0.0266 -1.97334,-0.04 -2,-0.04 -0.37334,0.21335 -0.57334,0.41334 -0.6,0.6 -10e-6,2.13334 0.95999,3.44001 2.88,3.92 0.47999,0.10667 0.98665,0.16001 1.52,0.16 1.51998,-0.0267 2.98665,-0.85333 4.4,-2.48 0.18665,-0.15999 0.42665,-0.18666 0.72,-0.08 2.71998,1.09334 4.11998,1.64001 4.2,1.64 0.15998,10e-6 0.23998,0.10667 0.24,0.32 -0.0267,0.10667 -0.0667,0.21334 -0.12,0.32 -2.77335,3.6 -6.08002,5.46667 -9.92,5.6 -3.92001,0 -7.05334,-1.17333 -9.4,-3.52 -2,-2.02666 -3,-4.50666 -3,-7.44 0,-3.62665 1.32,-6.57331 3.96,-8.84 2.29333,-1.94664 4.99999,-2.91998 8.12,-2.92"
         style="font-variant:normal;font-weight:500;font-stretch:normal;text-align:center;line-height:83.99999738%;text-anchor:middle;font-family:FranklinGothic;-inkscape-font-specification:FranklinGothic Medium"
         id="path5341" />
      <path
         inkscape:connector-curvature="0"
         d="m 335.23983,415.18854 c 1.94666,0.08 3.63999,0.0267 5.08,-0.16 0.31999,-0.0266 0.62666,0.20003 0.92,0.68 0.15999,0.2667 0.23999,0.53336 0.24,0.8 -10e-6,0.3467 -0.0533,1.66669 -0.16,3.96 -0.0533,1.20002 -0.08,1.85336 -0.08,1.96 0.0533,0.21336 0.27999,0.32002 0.68,0.32 l 3.96,0 c 0.58665,0.0534 0.89332,0.28002 0.92,0.68 l 0,3.84 c -0.0267,0.45335 -0.22668,0.69335 -0.6,0.72 l -3.92,0 c -0.45334,0.10668 -0.69334,0.30668 -0.72,0.6 -10e-6,0.24002 -0.04,1.26668 -0.12,3.08 -0.10668,2.85334 -0.16001,4.58668 -0.16,5.2 0.0267,1.12001 0.42666,1.84001 1.2,2.16 0.87999,0.32001 2.09332,0.41334 3.64,0.28 0.37332,1e-5 0.57332,0.22667 0.6,0.68 -2e-5,0.08 0.0133,0.70667 0.04,1.88 0.0533,1.17334 0.08,1.81334 0.08,1.92 -0.0267,0.37334 -0.26668,0.66667 -0.72,0.88 -0.53335,0.21333 -1.89335,0.32 -4.08,0.32 -5.36001,0 -8.29334,-1.45333 -8.8,-4.36 -0.0533,-0.29333 -0.08,-0.58666 -0.08,-0.88 l 0,-10.92 c -0.0267,-0.47998 -0.14667,-0.71998 -0.36,-0.72 -0.26667,0.0267 -0.76,0.0534 -1.48,0.08 l -1.08,0.04 c -0.50667,-0.0533 -0.8,-0.29332 -0.88,-0.72 0,-0.23998 -0.0133,-1.02665 -0.04,-2.36 0,-1.01331 0,-1.58664 0,-1.72 0.0533,-0.37331 0.21333,-0.57331 0.48,-0.6 0.16,2e-5 0.64,2e-5 1.44,0 0.77333,-0.0266 1.24,-0.04 1.4,-0.04 0.61333,-0.0533 0.94666,-0.35998 1,-0.92 0.0267,-0.31998 0.18666,-2.27997 0.48,-5.88 0.0533,-0.50664 0.38666,-0.7733 1,-0.8 0.0533,3e-5 0.0933,3e-5 0.12,0"
         style="font-variant:normal;font-weight:500;font-stretch:normal;text-align:center;line-height:83.99999738%;text-anchor:middle;font-family:FranklinGothic;-inkscape-font-specification:FranklinGothic Medium"
         id="path5343" />
    </g>
  </g>
</svg>
