<?xml version="1.0" encoding="UTF-8" standalone="no"?>
<!-- Created with Inkscape (http://www.inkscape.org/) -->

<svg
   xmlns:dc="http://purl.org/dc/elements/1.1/"
   xmlns:cc="http://creativecommons.org/ns#"
   xmlns:rdf="http://www.w3.org/1999/02/22-rdf-syntax-ns#"
   xmlns:svg="http://www.w3.org/2000/svg"
   xmlns="http://www.w3.org/2000/svg"
   xmlns:sodipodi="http://sodipodi.sourceforge.net/DTD/sodipodi-0.dtd"
   xmlns:inkscape="http://www.inkscape.org/namespaces/inkscape"
   width="118.46875"
   height="126.1875"
   id="svg5400"
   version="1.1"
   inkscape:version="0.48.3.1 r9886"
   sodipodi:docname="etsi1.svg">
  <defs
     id="defs5402" />
  <sodipodi:namedview
     id="base"
     pagecolor="#ffffff"
     bordercolor="#666666"
     borderopacity="1.0"
     inkscape:pageopacity="0.0"
     inkscape:pageshadow="2"
     inkscape:zoom="0.35"
     inkscape:cx="-85.6875"
     inkscape:cy="285.95032"
     inkscape:document-units="px"
     inkscape:current-layer="layer1"
     showgrid="false"
     fit-margin-top="0"
     fit-margin-left="0"
     fit-margin-right="0"
     fit-margin-bottom="0"
     inkscape:window-width="472"
     inkscape:window-height="415"
     inkscape:window-x="966"
     inkscape:window-y="24"
     inkscape:window-maximized="0" />
  <metadata
     id="metadata5405">
    <rdf:RDF>
      <cc:Work
         rdf:about="">
        <dc:format>image/svg+xml</dc:format>
        <dc:type
           rdf:resource="http://purl.org/dc/dcmitype/StillImage" />
        <dc:title></dc:title>
      </cc:Work>
    </rdf:RDF>
  </metadata>
  <g
     inkscape:label="Layer 1"
     inkscape:groupmode="layer"
     id="layer1"
     transform="translate(-460.6875,-692.125)">
    <path
       inkscape:connector-curvature="0"
       style="fill:#ffffff;stroke:#000000;stroke-width:1.03282475;stroke-opacity:1"
       d="m 578.62872,777.3308 c 0,22.34069 -12.30016,40.45139 -27.47318,40.45139 -15.17301,0 -27.47317,-18.1107 -27.47317,-40.45139 0,-22.3407 12.30016,-40.45141 27.47317,-40.45141 15.17302,0 27.47318,18.11071 27.47318,40.45141 z"
       id="path3786" />
    <g
       transform="translate(99.536363,471.28329)"
       style="font-size:40px;font-style:normal;font-weight:normal;line-height:83.99999738%;letter-spacing:0px;word-spacing:0px;fill:#000000;fill-opacity:1;stroke:none;font-family:Sans"
       id="text3788">
      <path
         inkscape:connector-curvature="0"
         d="m 450.45164,278.41858 c 4.02665,2e-5 7.05332,1.05336 9.08,3.16 0.34665,0.40002 0.58665,0.72002 0.72,0.96 0.15998,0.42669 0.13332,0.72002 -0.08,0.88 -0.0534,0.0267 -0.38668,0.20002 -1,0.52 -1.62668,0.88002 -2.53335,1.37335 -2.72,1.48 -0.42668,0.24002 -0.76001,0.24002 -1,0 -0.74668,-0.85332 -1.68001,-1.46665 -2.8,-1.84 -0.42668,-0.13332 -0.82668,-0.19998 -1.2,-0.2 -2.37334,0.0267 -3.57334,0.50668 -3.6,1.44 0.0267,0.61335 1.19999,1.04002 3.52,1.28 2.53332,0.24002 4.74665,0.86668 6.64,1.88 0.10665,0.0533 0.19998,0.10668 0.28,0.16 2.31998,1.38668 3.49331,3.34668 3.52,5.88 -2e-5,2.08001 -1.05335,3.84 -3.16,5.28 -2.02668,1.36 -4.50668,2.04 -7.44,2.04 -4.72,0 -8,-1.04 -9.84,-3.12 -0.26667,-0.32 -0.52,-0.65333 -0.76,-1 -0.29333,-0.45333 -0.30666,-0.81333 -0.04,-1.08 0.16,-0.15999 1.50667,-0.93333 4.04,-2.32 0.37333,-0.15999 0.65333,-0.0933 0.84,0.2 0.61333,1.04001 1.70666,1.76001 3.28,2.16 0.50666,0.13334 0.99999,0.20001 1.48,0.2 2.55999,10e-6 3.97332,-0.42666 4.24,-1.28 0.0267,-0.08 0.04,-0.14666 0.04,-0.2 -1e-5,-0.77333 -0.33335,-1.22666 -1,-1.36 -0.10668,-0.0267 -0.22668,-0.04 -0.36,-0.04 -2.82667,-0.26666 -4.62667,-0.47999 -5.4,-0.64 -0.32,-0.08 -0.61334,-0.15999 -0.88,-0.24 -3.06667,-0.87999 -4.98667,-2.21332 -5.76,-4 -0.32,-0.74665 -0.48,-1.57332 -0.48,-2.48 0,-1.97332 0.81333,-3.69331 2.44,-5.16 1.86666,-1.70664 4.33333,-2.55998 7.4,-2.56"
         style="font-variant:normal;font-weight:500;font-stretch:normal;text-align:center;line-height:83.99999738%;text-anchor:middle;font-family:FranklinGothic;-inkscape-font-specification:FranklinGothic Medium"
         id="path5324" />
      <path
         inkscape:connector-curvature="0"
         d="m 447.99664,312.97858 c 0.85333,2e-5 2.49333,-0.0133 4.92,-0.04 0.69333,2e-5 1.07999,2e-5 1.16,0 0.39999,2e-5 0.73333,0.17335 1,0.52 0.0533,0.10669 0.08,0.18669 0.08,0.24 0.08,3.49335 0.11999,10.13334 0.12,19.92 -0.0533,0.72 -0.30667,1.09333 -0.76,1.12 l -2.48,0 c -0.08,0 -0.54667,0 -1.4,0 -1.2,0.0267 -1.89333,0.04 -2.08,0.04 -0.66667,0 -1.12,-0.16 -1.36,-0.48 -0.08,-0.10667 -0.12,-0.2 -0.12,-0.28 0,-0.18667 0.0133,-3.82666 0.04,-10.92 0,-5.78665 0,-8.75998 0,-8.92 0.0267,-0.77331 0.32,-1.17331 0.88,-1.2 m -0.28,-9 6.4,0 c 0.63999,0.0267 0.97333,0.2667 1,0.72 -1e-5,0.1067 -1e-5,0.77336 0,2 0.0267,1.81336 0.04,2.85336 0.04,3.12 -0.0267,0.56002 -0.18667,0.90669 -0.48,1.04 -0.10667,0.0267 -1.21334,0.04 -3.32,0.04 -2.10667,2e-5 -3.22667,0.0134 -3.36,0.04 -0.37333,0.08 -0.68,-0.0266 -0.92,-0.32 -0.0533,-0.13331 -0.08,-0.23998 -0.08,-0.32 0,-0.15998 0.0267,-1.10664 0.08,-2.84 0.0533,-1.59997 0.08,-2.47997 0.08,-2.64 0.0267,-0.5333 0.21333,-0.8133 0.56,-0.84"
         style="font-variant:normal;font-weight:500;font-stretch:normal;text-align:center;line-height:83.99999738%;text-anchor:middle;font-family:FranklinGothic;-inkscape-font-specification:FranklinGothic Medium"
         id="path5326" />
    </g>
    <g
       id="g3814"
       transform="matrix(1,0,0,-0.83788967,99.536363,1039.5845)">
      <path
         inkscape:connector-curvature="0"
         id="path3794"
         d="m 380.0369,329.77146 -3.12359,-2.08238 C 388.36648,305.30335 408.14923,289.16479 431.57616,285 c -23.94753,6.76777 -42.68908,22.38573 -51.53926,44.77146 z"
         style="fill:#000000;fill-opacity:1;stroke:#ffffff;stroke-linecap:round;stroke-linejoin:round;stroke-opacity:1"
         sodipodi:nodetypes="cccc" />
      <path
         sodipodi:nodetypes="cccc"
         style="fill:#000000;fill-opacity:1;stroke:#ffffff;stroke-linecap:round;stroke-linejoin:round;stroke-opacity:1"
         d="m 408.66982,393.80507 -3.12359,-2.08238 c 11.45317,-22.38573 31.23592,-38.52429 54.66285,-42.68908 -23.94753,6.76777 -42.68908,22.38573 -51.53926,44.77146 z"
         id="path3796"
         inkscape:connector-curvature="0" />
      <path
         inkscape:connector-curvature="0"
         id="path3798"
         d="m 413.3552,363.61036 -3.12359,-2.08238 c 11.45317,-22.38573 31.23592,-38.52429 54.66285,-42.68908 -23.94753,6.76777 -42.68908,22.38573 -51.53926,44.77146 z"
         style="fill:#000000;fill-opacity:1;stroke:#ffffff;stroke-linecap:round;stroke-linejoin:round;stroke-opacity:1"
         sodipodi:nodetypes="cccc" />
      <path
         sodipodi:nodetypes="cccc"
         style="fill:#000000;fill-opacity:1;stroke:#ffffff;stroke-linecap:round;stroke-linejoin:round;stroke-opacity:1"
         d="m 412.314,357.88378 -3.12359,-2.08238 c 11.45317,-22.38573 31.23592,-38.52429 54.66285,-42.68908 -23.94753,6.76777 -42.68908,22.38573 -51.53926,44.77146 z"
         id="path3800"
         inkscape:connector-curvature="0" />
      <path
         sodipodi:nodetypes="cccc"
         style="fill:#000000;fill-opacity:1;stroke:none"
         d="m 396.69605,349.0336 -3.12359,-2.08238 c 11.45317,-22.38573 31.23592,-38.52429 54.66285,-42.68908 -23.94753,6.76777 -42.68908,22.38573 -51.53926,44.77146 z"
         id="path3802"
         inkscape:connector-curvature="0" />
      <path
         inkscape:connector-curvature="0"
         id="path3804"
         d="m 395.65485,343.30702 -3.12359,-2.08238 c 11.45317,-22.38573 31.23592,-38.52429 54.66285,-42.68908 -23.94753,6.76777 -42.68908,22.38573 -51.53926,44.77146 z"
         style="fill:#000000;fill-opacity:1;stroke:#ffffff;stroke-linecap:round;stroke-linejoin:round;stroke-opacity:1"
         sodipodi:nodetypes="cccc" />
    </g>
    <path
       inkscape:connector-curvature="0"
       style="fill:#ffffff;stroke:#000000;stroke-width:1.03282475;stroke-opacity:1"
       d="m 516.15691,733.07993 c 0,22.34069 -12.30016,40.45139 -27.47318,40.45139 -15.17301,0 -27.47317,-18.1107 -27.47317,-40.45139 0,-22.3407 12.30016,-40.45141 27.47317,-40.45141 15.17302,0 27.47318,18.11071 27.47318,40.45141 z"
       id="path3806" />
    <g
       transform="translate(99.536363,471.28329)"
       style="font-size:40px;font-style:normal;font-weight:normal;line-height:83.99999738%;letter-spacing:0px;word-spacing:0px;fill:#000000;fill-opacity:1;stroke:none;font-family:Sans"
       id="text3808">
      <path
         inkscape:connector-curvature="0"
         d="m 391.8945,243.32773 c 0.08,-1.73332 -0.36002,-2.91999 -1.32,-3.56 -0.40002,-0.26665 -0.85335,-0.39999 -1.36,-0.4 -1.70668,1e-5 -2.80001,0.82668 -3.28,2.48 -0.10668,0.45334 -0.16001,0.92001 -0.16,1.4 l 6.12,0.08 m -2.6,-8.64 c 3.73331,2e-5 6.58664,1.53335 8.56,4.6 1.27997,2.02668 2.02664,4.46668 2.24,7.32 -0.0267,0.53334 -0.26669,0.82667 -0.72,0.88 -0.26669,0.0267 -1.12002,0.04 -2.56,0.04 -1.44002,1e-5 -2.89335,-0.0133 -4.36,-0.04 -1.44002,-0.0267 -2.82668,-0.04 -4.16,-0.04 -1.30668,-0.0267 -1.97335,-0.04 -2,-0.04 -0.37335,0.21334 -0.57335,0.41334 -0.6,0.6 -1e-5,2.13334 0.95999,3.44 2.88,3.92 0.47998,0.10667 0.98665,0.16 1.52,0.16 1.51998,-0.0267 2.98665,-0.85333 4.4,-2.48 0.18665,-0.16 0.42665,-0.18666 0.72,-0.08 2.71998,1.09334 4.11997,1.64 4.2,1.64 0.15997,0 0.23997,0.10667 0.24,0.32 -0.0267,0.10667 -0.0667,0.21333 -0.12,0.32 -2.77336,3.6 -6.08002,5.46666 -9.92,5.6 -3.92001,0 -7.05334,-1.17334 -9.4,-3.52 -2,-2.02667 -3,-4.50666 -3,-7.44 0,-3.62666 1.32,-6.57332 3.96,-8.84 2.29332,-1.94665 4.99999,-2.91998 8.12,-2.92"
         style="font-variant:normal;font-weight:500;font-stretch:normal;text-align:center;line-height:83.99999738%;text-anchor:middle;font-family:FranklinGothic;-inkscape-font-specification:FranklinGothic Medium"
         id="path5330" />
      <path
         inkscape:connector-curvature="0"
         d="m 385.81106,261.00772 c 1.94666,0.08 3.63999,0.0267 5.08,-0.16 0.31999,-0.0266 0.62665,0.20003 0.92,0.68 0.15999,0.2667 0.23999,0.53337 0.24,0.8 -1e-5,0.3467 -0.0534,1.6667 -0.16,3.96 -0.0533,1.20003 -0.08,1.85336 -0.08,1.96 0.0533,0.21336 0.27999,0.32003 0.68,0.32 l 3.96,0 c 0.58665,0.0534 0.89332,0.28003 0.92,0.68 l 0,3.84 c -0.0267,0.45336 -0.22668,0.69335 -0.6,0.72 l -3.92,0 c -0.45335,0.10669 -0.69335,0.30669 -0.72,0.6 -10e-6,0.24002 -0.04,1.26669 -0.12,3.08 -0.10668,2.85335 -0.16001,4.58668 -0.16,5.2 0.0266,1.12001 0.42665,1.84001 1.2,2.16 0.87999,0.32001 2.09332,0.41334 3.64,0.28 0.37332,10e-6 0.57332,0.22668 0.6,0.68 -2e-5,0.08 0.0133,0.70668 0.04,1.88 0.0533,1.17334 0.08,1.81334 0.08,1.92 -0.0267,0.37334 -0.26668,0.66667 -0.72,0.88 -0.53335,0.21334 -1.89335,0.32 -4.08,0.32 -5.36001,0 -8.29334,-1.45333 -8.8,-4.36 -0.0533,-0.29332 -0.08,-0.58666 -0.08,-0.88 l 0,-10.92 c -0.0267,-0.47998 -0.14667,-0.71998 -0.36,-0.72 -0.26667,0.0267 -0.76,0.0533 -1.48,0.08 l -1.08,0.04 c -0.50667,-0.0533 -0.8,-0.29331 -0.88,-0.72 0,-0.23998 -0.0133,-1.02664 -0.04,-2.36 0,-1.01331 0,-1.58664 0,-1.72 0.0533,-0.37331 0.21333,-0.57331 0.48,-0.6 0.16,3e-5 0.64,3e-5 1.44,0 0.77333,-0.0266 1.24,-0.04 1.4,-0.04 0.61333,-0.0533 0.94666,-0.35997 1,-0.92 0.0267,-0.31997 0.18666,-2.27997 0.48,-5.88 0.0533,-0.50663 0.38666,-0.7733 1,-0.8 0.0533,3e-5 0.0933,3e-5 0.12,0"
         style="font-variant:normal;font-weight:500;font-stretch:normal;text-align:center;line-height:83.99999738%;text-anchor:middle;font-family:FranklinGothic;-inkscape-font-specification:FranklinGothic Medium"
         id="path5332" />
    </g>
  </g>
</svg>
