<?xml version="1.0" encoding="UTF-8" standalone="no"?>
<!-- Created with Inkscape (http://www.inkscape.org/) -->

<svg
   xmlns:dc="http://purl.org/dc/elements/1.1/"
   xmlns:cc="http://creativecommons.org/ns#"
   xmlns:rdf="http://www.w3.org/1999/02/22-rdf-syntax-ns#"
   xmlns:svg="http://www.w3.org/2000/svg"
   xmlns="http://www.w3.org/2000/svg"
   xmlns:sodipodi="http://sodipodi.sourceforge.net/DTD/sodipodi-0.dtd"
   xmlns:inkscape="http://www.inkscape.org/namespaces/inkscape"
   width="744.09448819"
   height="1052.3622047"
   id="svg2"
   version="1.1"
   inkscape:version="0.48.3.1 r9886"
   sodipodi:docname="bloc-vertical.svg">
  <defs
     id="defs4" />
  <sodipodi:namedview
     id="base"
     pagecolor="#ffffff"
     bordercolor="#666666"
     borderopacity="1.0"
     inkscape:pageopacity="0.0"
     inkscape:pageshadow="2"
     inkscape:zoom="0.98994949"
     inkscape:cx="262.84993"
     inkscape:cy="680.16821"
     inkscape:document-units="px"
     inkscape:current-layer="layer1"
     showgrid="false"
     inkscape:window-width="1680"
     inkscape:window-height="994"
     inkscape:window-x="0"
     inkscape:window-y="27"
     inkscape:window-maximized="1" />
  <metadata
     id="metadata7">
    <rdf:RDF>
      <cc:Work
         rdf:about="">
        <dc:format>image/svg+xml</dc:format>
        <dc:type
           rdf:resource="http://purl.org/dc/dcmitype/StillImage" />
        <dc:title />
      </cc:Work>
    </rdf:RDF>
  </metadata>
  <g
     inkscape:label="Layer 1"
     inkscape:groupmode="layer"
     id="layer1">
    <path
       style="fill:#000000;stroke:#000000;stroke-width:5;stroke-miterlimit:4"
       d="m 240.73351,62.131195 57.60484,0 c 13.85,0 25,11.15 25,25 l 0,556.750305 c 0,13.85 -11.15,25 -25,25 l -57.60484,0 c -13.85,0 -25,-11.15 -25,-25 l 0,-556.750305 c 0,-13.85 11.15,-25 25,-25 z"
       id="rect3755" />
    <path
       style="fill:#ffffff;stroke:#000000;stroke-width:4.5;stroke-miterlimit:4"
       d="m 240.73351,52.131195 57.60484,0 c 13.85,0 25,10.699472 25,23.989847 l 0,558.770608 c 0,13.29038 -11.15,23.98985 -25,23.98985 l -57.60484,0 c -13.85,0 -25,-10.69947 -25,-23.98985 l 0,-558.770608 c 0,-13.290375 11.15,-23.989847 25,-23.989847 z"
       id="rect2985" />
  </g>
</svg>
