<?xml version="1.0" encoding="UTF-8" standalone="no"?>
<!-- Created with Inkscape (http://www.inkscape.org/) -->

<svg
   xmlns:dc="http://purl.org/dc/elements/1.1/"
   xmlns:cc="http://creativecommons.org/ns#"
   xmlns:rdf="http://www.w3.org/1999/02/22-rdf-syntax-ns#"
   xmlns:svg="http://www.w3.org/2000/svg"
   xmlns="http://www.w3.org/2000/svg"
   xmlns:sodipodi="http://sodipodi.sourceforge.net/DTD/sodipodi-0.dtd"
   xmlns:inkscape="http://www.inkscape.org/namespaces/inkscape"
   id="svg3389"
   version="1.1"
   inkscape:version="0.48.3.1 r9886"
   width="978"
   height="1665"
   sodipodi:docname="et-si-plaaaf-poster.svg">
  <metadata
     id="metadata3395">
    <rdf:RDF>
      <cc:Work
         rdf:about="">
        <dc:format>image/svg+xml</dc:format>
        <dc:type
           rdf:resource="http://purl.org/dc/dcmitype/StillImage" />
        <dc:title></dc:title>
      </cc:Work>
    </rdf:RDF>
  </metadata>
  <defs
     id="defs3393">
    <inkscape:path-effect
       effect="spiro"
       id="path-effect3023"
       is_visible="true" />
  </defs>
  <sodipodi:namedview
     pagecolor="#ffffff"
     bordercolor="#666666"
     borderopacity="1"
     objecttolerance="10"
     gridtolerance="10"
     guidetolerance="10"
     inkscape:pageopacity="0"
     inkscape:pageshadow="2"
     inkscape:window-width="1680"
     inkscape:window-height="994"
     id="namedview3391"
     showgrid="false"
     inkscape:zoom="0.40090618"
     inkscape:cx="436.89467"
     inkscape:cy="1116.9022"
     inkscape:window-x="0"
     inkscape:window-y="27"
     inkscape:window-maximized="1"
     inkscape:current-layer="layer1" />
  <g
     inkscape:groupmode="layer"
     id="layer3"
     inkscape:label="ttt"
     style="display:inline" />
  <g
     inkscape:groupmode="layer"
     id="layer1"
     inkscape:label="u"
     style="display:inline">
    <g
       id="g4111">
      <path
         sodipodi:nodetypes="csccscscscsacc"
         inkscape:connector-curvature="0"
         d="m 431.79483,124.48 c 0,0 122.89718,14.47614 170.30298,97.96711 26.891,47.36035 0.99259,85.09641 0.99259,85.09641 m 8.96999,22.30543 c 0,0 38.87891,33.80683 15.76691,91.19951 -20.0919,49.89325 -82.16662,49.0203 -82.16662,49.0203 0,0 119.41962,57.10446 100.68622,151.46275 -11.1833,56.32923 -90.2106,63.50336 -90.2106,63.50336 0,0 100.90579,40.17048 86.89699,143.70301 -9.5703,70.7298 -95.86713,77.606 -95.86713,77.606 1.0196,0.9562 48.2004,106.89352 -30.5007,172.91222 -66.44298,55.7359 -194.07885,63.3205 -265.25513,10.7414 -47.98874,-35.4501 -89.90056,-104.84512 -45.64096,-173.07102 L 85.021848,797.22708"
         style="display:inline;fill:none;stroke:#000000;stroke-width:5;stroke-linecap:butt;stroke-linejoin:miter;stroke-miterlimit:4;stroke-opacity:1;stroke-dasharray:none"
         id="path3019-7" />
      <path
         sodipodi:nodetypes="scscscscsaccccsccs"
         inkscape:connector-curvature="0"
         d="m 626.06345,318.74052 c -10.21141,3.45742 -14.62668,11.73199 -14.62668,11.73199 0,0 37.0082,36.92476 13.8962,94.31744 -20.0919,49.89325 -80.9195,45.90237 -80.9195,45.90237 0,0 118.1725,56.48087 99.4391,150.83916 -11.1833,56.32923 -87.7163,63.50336 -87.7163,63.50336 0,0 98.4115,40.17048 84.4027,143.70304 -9.5703,70.72973 -95.2436,77.60593 -95.2436,77.60593 1.0196,0.95627 47.57687,105.64639 -31.1243,171.66509 -66.44294,55.7359 -189.33732,63.261 -259.6428,12.6122 -48.79309,-35.151 -93.0185,-105.46874 -48.7589,-173.69466 L 85.021854,797.22706 104.97665,127.4943 431.79483,124.47997 c 0,0 120.2736,14.84125 167.6794,98.33222 26.891,47.36035 3.6162,84.7313 3.6162,84.7313 37.30395,-4.12651 64.25149,-0.29682 106.45451,5.82318 -28.87236,-1.23324 -55.07819,-4.24307 -83.48149,5.37385 z"
         style="fill:#ffffff;stroke:#000000;stroke-width:5;stroke-linecap:butt;stroke-linejoin:miter;stroke-miterlimit:4;stroke-opacity:1;stroke-dasharray:none"
         id="path3019" />
      <g
         inkscape:transform-center-y="190.48729"
         inkscape:transform-center-x="169.32203"
         id="g3451"
         transform="matrix(2.7114156,6.4654835,-3.4467317,1.4454483,659.6823,-2226.2859)">
        <path
           inkscape:connector-curvature="0"
           id="path3453"
           d="m 380.0369,329.77146 -3.12359,-2.08238 C 388.36648,305.30335 408.14923,289.16479 431.57616,285 c -23.94753,6.76777 -42.68908,22.38573 -51.53926,44.77146 z"
           style="fill:#000000;fill-opacity:1;stroke:#ffffff;stroke-linecap:round;stroke-linejoin:round;stroke-opacity:1"
           sodipodi:nodetypes="cccc" />
        <path
           sodipodi:nodetypes="cccc"
           style="fill:#000000;fill-opacity:1;stroke:#ffffff;stroke-linecap:round;stroke-linejoin:round;stroke-opacity:1"
           d="m 408.66982,393.80507 -3.12359,-2.08238 c 11.45317,-22.38573 31.23592,-38.52429 54.66285,-42.68908 -23.94753,6.76777 -42.68908,22.38573 -51.53926,44.77146 z"
           id="path3455"
           inkscape:connector-curvature="0" />
        <path
           inkscape:connector-curvature="0"
           id="path3457"
           d="m 413.3552,363.61036 -3.12359,-2.08238 c 11.45317,-22.38573 31.23592,-38.52429 54.66285,-42.68908 -23.94753,6.76777 -42.68908,22.38573 -51.53926,44.77146 z"
           style="fill:#000000;fill-opacity:1;stroke:#ffffff;stroke-linecap:round;stroke-linejoin:round;stroke-opacity:1"
           sodipodi:nodetypes="cccc" />
        <path
           sodipodi:nodetypes="cccc"
           style="fill:#000000;fill-opacity:1;stroke:#ffffff;stroke-linecap:round;stroke-linejoin:round;stroke-opacity:1"
           d="m 412.314,357.88378 -3.12359,-2.08238 c 11.45317,-22.38573 31.23592,-38.52429 54.66285,-42.68908 -23.94753,6.76777 -42.68908,22.38573 -51.53926,44.77146 z"
           id="path3459"
           inkscape:connector-curvature="0" />
        <path
           sodipodi:nodetypes="cccc"
           style="fill:#000000;fill-opacity:1;stroke:none"
           d="m 396.69605,349.0336 -3.12359,-2.08238 c 11.45317,-22.38573 31.23592,-38.52429 54.66285,-42.68908 -23.94753,6.76777 -42.68908,22.38573 -51.53926,44.77146 z"
           id="path3461"
           inkscape:connector-curvature="0" />
        <path
           inkscape:connector-curvature="0"
           id="path3463"
           d="m 395.65485,343.30702 -3.12359,-2.08238 c 11.45317,-22.38573 31.23592,-38.52429 54.66285,-42.68908 -23.94753,6.76777 -42.68908,22.38573 -51.53926,44.77146 z"
           style="fill:#000000;fill-opacity:1;stroke:#ffffff;stroke-linecap:round;stroke-linejoin:round;stroke-opacity:1"
           sodipodi:nodetypes="cccc" />
      </g>
      <path
         sodipodi:nodetypes="cscscscc"
         inkscape:connector-curvature="0"
         d="m 540.81989,471.45681 c 0,0 118.1725,56.48087 99.4391,150.83916 -11.1833,56.32923 -87.7163,63.50336 -87.7163,63.50336 0,0 98.4115,40.17048 84.4027,143.70304 -9.5703,70.7297 -95.2436,77.6059 -95.2436,77.6059 1.0196,0.9563 51.6095,110.91563 -31.1243,171.66513 -61.62,45.2461 -154.63671,31.3204 -230.3342,-10.8256 z"
         style="fill:#ffffff;stroke:none"
         id="path3019-1" />
      <path
         sodipodi:nodetypes="ccccc"
         inkscape:connector-curvature="0"
         id="rect4053"
         d="m -100.53496,15.87391 569.6981,5.291314 -167.55827,899.523326 -402.13983,0 z"
         style="fill:#ffffff;stroke:#ffffff;stroke-width:5;stroke-linecap:round;stroke-linejoin:bevel;stroke-miterlimit:4;stroke-opacity:1;stroke-dashoffset:0" />
    </g>
  </g>
  <g
     inkscape:groupmode="layer"
     id="layer2"
     inkscape:label="d" />
</svg>
