<?xml version="1.0" encoding="UTF-8" standalone="no"?>
<!-- Created with Inkscape (http://www.inkscape.org/) -->

<svg
   xmlns:dc="http://purl.org/dc/elements/1.1/"
   xmlns:cc="http://creativecommons.org/ns#"
   xmlns:rdf="http://www.w3.org/1999/02/22-rdf-syntax-ns#"
   xmlns:svg="http://www.w3.org/2000/svg"
   xmlns="http://www.w3.org/2000/svg"
   xmlns:sodipodi="http://sodipodi.sourceforge.net/DTD/sodipodi-0.dtd"
   xmlns:inkscape="http://www.inkscape.org/namespaces/inkscape"
   width="210mm"
   height="297mm"
   id="svg3227"
   version="1.1"
   inkscape:version="0.48.3.1 r9886"
   sodipodi:docname="et-si-2.svg">
  <defs
     id="defs3229">
    <inkscape:path-effect
       effect="spiro"
       id="path-effect4171-1"
       is_visible="true" />
    <inkscape:path-effect
       is_visible="true"
       id="path-effect4175-4"
       effect="spiro" />
    <inkscape:path-effect
       effect="spiro"
       id="path-effect4179-7"
       is_visible="true" />
    <inkscape:path-effect
       is_visible="true"
       id="path-effect4183-8"
       effect="spiro" />
    <inkscape:path-effect
       is_visible="true"
       id="path-effect4211-3"
       effect="spiro" />
    <inkscape:path-effect
       effect="spiro"
       id="path-effect4213-3"
       is_visible="true" />
    <inkscape:path-effect
       is_visible="true"
       id="path-effect4215-3"
       effect="spiro" />
    <inkscape:path-effect
       effect="spiro"
       id="path-effect4217-3"
       is_visible="true" />
    <inkscape:path-effect
       effect="spiro"
       id="path-effect4223-2"
       is_visible="true" />
    <inkscape:path-effect
       is_visible="true"
       id="path-effect4225-6"
       effect="spiro" />
    <inkscape:path-effect
       is_visible="true"
       id="path-effect4231-9"
       effect="spiro" />
    <inkscape:path-effect
       effect="spiro"
       id="path-effect4233-5"
       is_visible="true" />
    <inkscape:path-effect
       effect="spiro"
       id="path-effect4171-1-1"
       is_visible="true" />
    <inkscape:path-effect
       is_visible="true"
       id="path-effect4175-4-0"
       effect="spiro" />
    <inkscape:path-effect
       effect="spiro"
       id="path-effect4179-7-5"
       is_visible="true" />
    <inkscape:path-effect
       is_visible="true"
       id="path-effect4183-8-0"
       effect="spiro" />
    <inkscape:path-effect
       is_visible="true"
       id="path-effect4211-3-2"
       effect="spiro" />
    <inkscape:path-effect
       effect="spiro"
       id="path-effect4213-3-6"
       is_visible="true" />
    <inkscape:path-effect
       is_visible="true"
       id="path-effect4215-3-6"
       effect="spiro" />
    <inkscape:path-effect
       effect="spiro"
       id="path-effect4217-3-6"
       is_visible="true" />
    <inkscape:path-effect
       effect="spiro"
       id="path-effect4223-2-1"
       is_visible="true" />
    <inkscape:path-effect
       is_visible="true"
       id="path-effect4225-6-5"
       effect="spiro" />
    <inkscape:path-effect
       is_visible="true"
       id="path-effect4231-9-7"
       effect="spiro" />
    <inkscape:path-effect
       effect="spiro"
       id="path-effect4233-5-5"
       is_visible="true" />
  </defs>
  <sodipodi:namedview
     id="base"
     pagecolor="#ffffff"
     bordercolor="#666666"
     borderopacity="1.0"
     inkscape:pageopacity="0.0"
     inkscape:pageshadow="2"
     inkscape:zoom="0.35"
     inkscape:cx="963.72192"
     inkscape:cy="502.16635"
     inkscape:document-units="px"
     inkscape:current-layer="layer1"
     showgrid="false"
     inkscape:window-width="1198"
     inkscape:window-height="729"
     inkscape:window-x="65"
     inkscape:window-y="24"
     inkscape:window-maximized="0" />
  <metadata
     id="metadata3232">
    <rdf:RDF>
      <cc:Work
         rdf:about="">
        <dc:format>image/svg+xml</dc:format>
        <dc:type
           rdf:resource="http://purl.org/dc/dcmitype/StillImage" />
        <dc:title />
      </cc:Work>
    </rdf:RDF>
  </metadata>
  <g
     inkscape:label="Calque 1"
     inkscape:groupmode="layer"
     id="layer1">
    <path
       style="fill:#ffffff;stroke:none"
       d="m 476.04086,631.01724 c -2.49778,-1.13485 -2.2727,-1.57407 1.1187,-2.18294 1.788,-0.32101 2.82136,-1.07173 2.25493,-1.63816 -0.14469,-0.14468 -1.49184,-0.008 -2.99368,0.30381 -1.50183,0.31178 -3.11925,0.41774 -3.59426,0.23546 -1.23793,-0.47504 -2.41664,-3.01687 -2.05928,-4.44073 0.27026,-1.07679 0.1437,-1.20193 -1.14975,-1.13688 -0.95596,0.0481 -1.97698,0.65904 -2.98301,1.78498 -1.79778,2.01207 -2.08304,1.92711 -5.80718,-1.72976 -2.86353,-2.8118 -5.66002,-8.04272 -6.52362,-12.20262 -0.32932,-1.58633 -0.50416,-5.03159 -0.38898,-7.66506 0.18547,-4.24043 0.33519,-4.8672 1.31869,-5.52022 1.12233,-0.7452 1.52327,-2.12867 0.61689,-2.12867 -0.32005,0 -0.32005,-0.45378 0,-1.29557 0.6672,-1.75488 0.6205,-2.23997 -0.21563,-2.23997 -0.38951,0 -0.98148,0.73868 -1.31549,1.6415 l -0.60729,1.6415 -0.80859,-1.76777 c -1.17303,-2.56452 -1.12763,-9.6437 0.082,-12.77906 0.82456,-2.13733 1.0102,-2.3229 1.56487,-1.56434 0.99398,1.35935 1.79467,0.45388 1.25687,-1.42132 -0.37795,-1.31782 -0.27982,-1.80231 0.54228,-2.6774 0.55206,-0.58763 1.00374,-1.33788 1.00374,-1.66721 0,-0.79527 -1.35049,-0.76984 -1.72841,0.0326 -0.16355,0.34724 -0.20686,-0.75814 -0.0962,-2.4564 0.45077,-6.92042 5.35622,-12.93302 11.49045,-14.0838 1.84561,-0.34624 5.72982,0.4295 6.23383,1.245 0.15669,0.25355 -0.17379,1.21333 -0.73441,2.13285 -0.56061,0.91953 -1.02015,1.95597 -1.02119,2.30321 -0.003,1.05842 1.42253,0.70297 1.78706,-0.44554 0.22414,-0.70621 0.46707,-0.87417 0.70576,-0.48797 0.48649,0.78715 2.05098,0.14616 2.05098,-0.84031 0,-0.65861 0.16111,-0.63605 1.02209,0.14312 0.78028,0.70615 1.16186,0.7852 1.61291,0.33415 0.45105,-0.45105 0.25688,-0.93939 -0.82076,-2.06421 l -1.41159,-1.47338 1.13177,-0.6057 c 4.14038,-2.21587 7.84391,-1.29424 10.97057,2.73003 1.60139,2.06113 1.43482,2.35318 -1.14078,2.00015 -1.89447,-0.25967 -2.27284,-0.17397 -2.27284,0.51474 0,0.53065 0.4248,0.82627 1.18732,0.82627 2.22687,0 4.36182,1.06011 4.67886,2.32331 0.34301,1.36665 1.09129,1.59088 1.52626,0.45735 0.2516,-0.65564 0.4889,-0.63905 1.80527,0.12627 3.78051,2.19791 7.94987,8.23815 9.54189,13.82353 1.46202,5.12925 0.23872,17.00754 -1.83342,17.8027 -0.52631,0.20196 -0.63722,0.73574 -0.40299,1.93937 0.17774,0.9134 0.4882,1.77437 0.68989,1.91326 0.2017,0.1389 0.64687,1.60868 0.98926,3.26619 1.79541,8.6913 -2.37687,18.63188 -9.59604,22.86291 -2.46816,1.44654 -5.06181,1.94307 -5.60352,1.07274 -0.35592,-0.57182 -0.60581,-0.57421 -1.50872,-0.0144 -0.75146,0.46593 -1.8551,0.56465 -3.61161,0.32307 -1.97771,-0.272 -2.4812,-0.20307 -2.30818,0.31599 0.12171,0.36514 0.95261,0.85338 1.84644,1.085 1.97503,0.51178 1.68014,1.17997 -0.82822,1.87662 -2.55034,0.70832 -3.04349,0.66233 -5.66386,-0.52824 z"
       id="path3178"
       inkscape:connector-curvature="0" />
    <path
       sodipodi:type="arc"
       id="path3465"
       sodipodi:cx="226.46034"
       sodipodi:cy="328.20969"
       sodipodi:rx="32.277107"
       sodipodi:ry="32.277107"
       d="m 258.73745,328.20969 a 32.277107,32.277107 0 1 1 -64.55421,0 32.277107,32.277107 0 1 1 64.55421,0 z"
       style="fill:#ffffff;stroke:#000000;stroke-opacity:1"
       transform="matrix(5.4271246,0,0,7.9908786,-1034.3773,-2271.4624)" />
    <text
       xml:space="preserve"
       style="font-size:255.04425049px;font-style:normal;font-variant:normal;font-weight:normal;font-stretch:normal;text-align:center;line-height:83.99999738%;letter-spacing:0px;word-spacing:0px;writing-mode:lr-tb;text-anchor:middle;fill:#000000;fill-opacity:1;stroke:none;font-family:Ume P Gothic Shadow;-inkscape-font-specification:Ume P Gothic Shadow"
       x="204.28088"
       y="319.92108"
       id="text3467"
       sodipodi:linespacing="83.999997%"><tspan
         sodipodi:role="line"
         x="204.28088"
         y="319.92108"
         style="font-size:255.04425049px;font-style:normal;font-variant:normal;font-weight:normal;font-stretch:normal;text-align:center;line-height:83.99999738%;writing-mode:lr-tb;text-anchor:middle;font-family:Ume P Gothic Shadow;-inkscape-font-specification:Ume P Gothic Shadow"
         id="tspan3469">E</tspan><tspan
         id="tspan3471"
         sodipodi:role="line"
         x="204.28088"
         y="534.15808"
         style="font-size:255.04425049px;font-style:normal;font-variant:normal;font-weight:normal;font-stretch:normal;text-align:center;line-height:83.99999738%;writing-mode:lr-tb;text-anchor:middle;font-family:Ume P Gothic Shadow;-inkscape-font-specification:Ume P Gothic Shadow">T</tspan></text>
    <g
       transform="matrix(-6.3761061,0,0,5.3424734,3029.8532,-1346.4756)"
       id="g3451">
      <path
         sodipodi:nodetypes="cccc"
         style="fill:#000000;fill-opacity:1;stroke:#ffffff;stroke-linecap:round;stroke-linejoin:round;stroke-opacity:1"
         d="m 380.0369,329.77146 -3.12359,-2.08238 C 388.36648,305.30335 408.14923,289.16479 431.57616,285 c -23.94753,6.76777 -42.68908,22.38573 -51.53926,44.77146 z"
         id="path3453"
         inkscape:connector-curvature="0" />
      <path
         inkscape:connector-curvature="0"
         id="path3455"
         d="m 408.66982,393.80507 -3.12359,-2.08238 c 11.45317,-22.38573 31.23592,-38.52429 54.66285,-42.68908 -23.94753,6.76777 -42.68908,22.38573 -51.53926,44.77146 z"
         style="fill:#000000;fill-opacity:1;stroke:#ffffff;stroke-linecap:round;stroke-linejoin:round;stroke-opacity:1"
         sodipodi:nodetypes="cccc" />
      <path
         sodipodi:nodetypes="cccc"
         style="fill:#000000;fill-opacity:1;stroke:#ffffff;stroke-linecap:round;stroke-linejoin:round;stroke-opacity:1"
         d="m 413.3552,363.61036 -3.12359,-2.08238 c 11.45317,-22.38573 31.23592,-38.52429 54.66285,-42.68908 -23.94753,6.76777 -42.68908,22.38573 -51.53926,44.77146 z"
         id="path3457"
         inkscape:connector-curvature="0" />
      <path
         inkscape:connector-curvature="0"
         id="path3459"
         d="m 412.314,357.88378 -3.12359,-2.08238 c 11.45317,-22.38573 31.23592,-38.52429 54.66285,-42.68908 -23.94753,6.76777 -42.68908,22.38573 -51.53926,44.77146 z"
         style="fill:#000000;fill-opacity:1;stroke:#ffffff;stroke-linecap:round;stroke-linejoin:round;stroke-opacity:1"
         sodipodi:nodetypes="cccc" />
      <path
         inkscape:connector-curvature="0"
         id="path3461"
         d="m 396.69605,349.0336 -3.12359,-2.08238 c 11.45317,-22.38573 31.23592,-38.52429 54.66285,-42.68908 -23.94753,6.76777 -42.68908,22.38573 -51.53926,44.77146 z"
         style="fill:#000000;fill-opacity:1;stroke:none"
         sodipodi:nodetypes="cccc" />
      <path
         sodipodi:nodetypes="cccc"
         style="fill:#000000;fill-opacity:1;stroke:#ffffff;stroke-linecap:round;stroke-linejoin:round;stroke-opacity:1"
         d="m 395.65485,343.30702 -3.12359,-2.08238 c 11.45317,-22.38573 31.23592,-38.52429 54.66285,-42.68908 -23.94753,6.76777 -42.68908,22.38573 -51.53926,44.77146 z"
         id="path3463"
         inkscape:connector-curvature="0" />
    </g>
    <g
       id="g3222"
       transform="matrix(6.3761061,0,0,6.3761061,-2500.8439,-3182.6376)">
      <g
         transform="translate(38.16882,124.92516)"
         id="use3176">
        <path
           transform="matrix(0,-0.08149482,0.07726078,0,423.41487,491.22322)"
           sodipodi:open="true"
           sodipodi:end="2.0153491"
           sodipodi:start="0.025649261"
           d="m 669.45395,312.42104 c -4.26588,145.32264 -142.52008,260.10758 -308.7994,256.37934 -42.19488,-0.94607 -83.69106,-9.63295 -121.79726,-25.49725"
           sodipodi:ry="263.21649"
           sodipodi:rx="301.17441"
           sodipodi:cy="305.67047"
           sodipodi:cx="368.3786"
           id="path3184"
           style="fill:none;stroke:#000000;stroke-width:12.60246372;stroke-linecap:round;stroke-linejoin:round;stroke-miterlimit:4;stroke-opacity:1;stroke-dasharray:none;stroke-dashoffset:0;display:inline"
           sodipodi:type="arc" />
        <path
           sodipodi:type="arc"
           style="fill:none;stroke:#000000;stroke-width:12.60246372;stroke-linecap:round;stroke-linejoin:round;stroke-miterlimit:4;stroke-opacity:1;stroke-dasharray:none;stroke-dashoffset:0;display:inline"
           id="path3186"
           sodipodi:cx="368.3786"
           sodipodi:cy="305.67047"
           sodipodi:rx="301.17441"
           sodipodi:ry="263.21649"
           d="M 78.549072,377.23374 C 33.326196,237.33921 126.42691,91.892331 286.49534,52.36903 364.38512,33.136873 447.85397,42.113623 518.08502,77.2756"
           sodipodi:start="2.8662467"
           sodipodi:end="5.2326141"
           sodipodi:open="true"
           transform="matrix(0,-0.08149482,0.07726078,0,411.37552,509.1937)" />
        <path
           transform="matrix(0,-0.05650038,0.05356492,0,410.52744,482.32761)"
           sodipodi:open="true"
           sodipodi:end="5.6410038"
           sodipodi:start="4.2095722"
           d="M 223.24398,75.032641 C 354.82659,11.787227 519.61343,42.92038 609.55638,148.01859"
           sodipodi:ry="263.21649"
           sodipodi:rx="301.17441"
           sodipodi:cy="305.67047"
           sodipodi:cx="368.3786"
           id="path3188"
           style="fill:none;stroke:#000000;stroke-width:18.17749786;stroke-linecap:round;stroke-linejoin:round;stroke-miterlimit:4;stroke-opacity:1;stroke-dasharray:none;stroke-dashoffset:0;display:inline"
           sodipodi:type="arc" />
        <path
           sodipodi:type="arc"
           style="fill:none;stroke:#000000;stroke-width:18.17749786;stroke-linecap:round;stroke-linejoin:round;stroke-miterlimit:4;stroke-opacity:1;stroke-dasharray:none;stroke-dashoffset:0;display:inline"
           id="path3190"
           sodipodi:cx="368.3786"
           sodipodi:cy="305.67047"
           sodipodi:rx="301.17441"
           sodipodi:ry="263.21649"
           d="M 257.86514,60.814928 C 412.59637,7.4724419 587.50937,73.855374 648.54427,209.08536 c 43.55775,96.50732 18.1902,206.37372 -64.7812,280.56618"
           sodipodi:start="4.3366697"
           sodipodi:end="7.0571449"
           sodipodi:open="true"
           transform="matrix(0,-0.05650038,0.05356492,0,413.93481,468.07103)" />
        <path
           sodipodi:type="arc"
           style="fill:none;stroke:#000000;stroke-width:14.42476082;stroke-linecap:round;stroke-linejoin:round;stroke-miterlimit:4;stroke-opacity:1;stroke-dasharray:none;stroke-dashoffset:0;display:inline"
           id="path3192"
           sodipodi:cx="368.3786"
           sodipodi:cy="305.67047"
           sodipodi:rx="301.17441"
           sodipodi:ry="263.21649"
           d="M 516.30389,534.95007 C 371.41555,606.35044 187.73194,561.57991 106.03506,434.95229 64.348031,370.33869 55.791001,293.35169 82.469439,222.93402"
           sodipodi:start="1.0573736"
           sodipodi:end="3.4613419"
           sodipodi:open="true"
           transform="matrix(0,-0.07119949,0.06750033,0,427.96084,509.49297)" />
        <path
           transform="matrix(0,-0.04110018,0.03896483,0,431.56378,456.82426)"
           sodipodi:open="true"
           sodipodi:end="7.7285647"
           sodipodi:start="5.121035"
           d="M 488.05543,64.127307 C 640.69347,121.89276 710.8499,276.86347 644.75422,410.26407 602.4449,495.65676 511.68984,555.17947 406.05203,566.81956"
           sodipodi:ry="263.21649"
           sodipodi:rx="301.17441"
           sodipodi:cy="305.67047"
           sodipodi:cx="368.3786"
           id="path3194"
           style="fill:none;stroke:#000000;stroke-width:24.98859024;stroke-linecap:round;stroke-linejoin:round;stroke-miterlimit:4;stroke-opacity:1;stroke-dasharray:none;stroke-dashoffset:0;display:inline"
           sodipodi:type="arc" />
        <path
           sodipodi:open="true"
           sodipodi:type="arc"
           style="fill:none;stroke:#000000;stroke-width:24.98859024;stroke-linecap:round;stroke-linejoin:round;stroke-miterlimit:4;stroke-opacity:1;stroke-dasharray:none;stroke-dashoffset:0;display:inline"
           id="path3196"
           sodipodi:cx="368.3786"
           sodipodi:cy="305.67047"
           sodipodi:rx="301.17441"
           sodipodi:ry="263.21649"
           d="M 488.05543,64.127307 C 640.69347,121.89276 710.8499,276.86347 644.75422,410.26407 624.70887,450.7215 593.35693,486.1304 553.57613,513.24067"
           sodipodi:start="5.121035"
           sodipodi:end="7.1916998"
           transform="matrix(0,0.04110018,0.03896483,0,429.40578,480.30235)" />
        <path
           sodipodi:nodetypes="cc"
           inkscape:connector-curvature="0"
           inkscape:original-d="m 435.1264,427.16161 1.28896,8.54829"
           inkscape:path-effect="#path-effect4171-1-1"
           id="path3198"
           d="m 435.1264,427.16161 1.28896,8.54829"
           style="fill:none;stroke:#000000;stroke-width:1;stroke-linecap:round;stroke-linejoin:round;stroke-miterlimit:4;stroke-opacity:1;stroke-dasharray:none;display:inline" />
        <path
           style="fill:none;stroke:#000000;stroke-width:1;stroke-linecap:round;stroke-linejoin:round;stroke-miterlimit:4;stroke-opacity:1;stroke-dasharray:none;display:inline"
           d="m 436.4576,424.2531 0.67098,10.89102"
           id="path3200"
           inkscape:path-effect="#path-effect4175-4-0"
           inkscape:original-d="m 436.4576,424.2531 0.67098,10.89102"
           inkscape:connector-curvature="0"
           sodipodi:nodetypes="cc" />
        <path
           sodipodi:nodetypes="cc"
           inkscape:connector-curvature="0"
           inkscape:original-d="m 457.15021,430.63531 -3.48482,7.83647"
           inkscape:path-effect="#path-effect4179-7-5"
           id="path3202"
           d="m 457.15021,430.63531 -3.48482,7.83647"
           style="fill:none;stroke:#000000;stroke-width:1;stroke-linecap:round;stroke-linejoin:round;stroke-miterlimit:4;stroke-opacity:1;stroke-dasharray:none;display:inline" />
        <path
           style="fill:none;stroke:#000000;stroke-width:1;stroke-linecap:round;stroke-linejoin:round;stroke-miterlimit:4;stroke-opacity:1;stroke-dasharray:none;display:inline"
           d="m 459.13289,430.85299 -4.09753,7.49942"
           id="path3204"
           inkscape:path-effect="#path-effect4183-8-0"
           inkscape:original-d="m 459.13289,430.85299 -4.09753,7.49942"
           inkscape:connector-curvature="0"
           sodipodi:nodetypes="cc" />
        <path
           style="fill:none;stroke:#000000;stroke-width:1;stroke-linecap:round;stroke-linejoin:round;stroke-miterlimit:4;stroke-opacity:1;stroke-dasharray:none;display:inline"
           d="m 448.56994,512.43382 0.22434,-8.6525"
           id="path3206"
           inkscape:path-effect="#path-effect4211-3-2"
           inkscape:original-d="m 448.56994,512.43382 0.22434,-8.6525"
           inkscape:connector-curvature="0"
           sodipodi:nodetypes="cc" />
        <path
           sodipodi:nodetypes="cc"
           inkscape:connector-curvature="0"
           inkscape:original-d="m 447.15537,512.80334 0.83498,-8.6108"
           inkscape:path-effect="#path-effect4213-3-6"
           id="path3208"
           d="m 447.15537,512.80334 0.83498,-8.6108"
           style="fill:none;stroke:#000000;stroke-width:1;stroke-linecap:round;stroke-linejoin:round;stroke-miterlimit:4;stroke-opacity:1;stroke-dasharray:none;display:inline" />
        <path
           style="fill:none;stroke:#000000;stroke-width:1;stroke-linecap:round;stroke-linejoin:round;stroke-miterlimit:4;stroke-opacity:1;stroke-dasharray:none;display:inline"
           d="m 427.52823,504.74462 4.79242,-7.02624"
           id="path3210"
           inkscape:path-effect="#path-effect4215-3-6"
           inkscape:original-d="m 427.52823,504.74462 4.79242,-7.02624"
           inkscape:connector-curvature="0"
           sodipodi:nodetypes="cc" />
        <path
           sodipodi:nodetypes="cc"
           inkscape:connector-curvature="0"
           inkscape:original-d="m 424.03567,505.69441 6.34129,-7.75635"
           inkscape:path-effect="#path-effect4217-3-6"
           id="path3212"
           d="m 424.03567,505.69441 6.34129,-7.75635"
           style="fill:none;stroke:#000000;stroke-width:1;stroke-linecap:round;stroke-linejoin:round;stroke-miterlimit:4;stroke-opacity:1;stroke-dasharray:none;display:inline" />
        <path
           sodipodi:nodetypes="cc"
           inkscape:connector-curvature="0"
           inkscape:original-d="m 410.39722,474.60504 7.22499,-4.10402"
           inkscape:path-effect="#path-effect4223-2-1"
           id="path3214"
           d="m 410.39722,474.60504 7.22499,-4.10402"
           style="fill:none;stroke:#000000;stroke-width:1;stroke-linecap:round;stroke-linejoin:round;stroke-miterlimit:4;stroke-opacity:1;stroke-dasharray:none;display:inline" />
        <path
           style="fill:none;stroke:#000000;stroke-width:1;stroke-linecap:round;stroke-linejoin:round;stroke-miterlimit:4;stroke-opacity:1;stroke-dasharray:none;display:inline"
           d="m 408.92777,473.18427 7.52672,-3.44829"
           id="path3216"
           inkscape:path-effect="#path-effect4225-6-5"
           inkscape:original-d="m 408.92777,473.18427 7.52672,-3.44829"
           inkscape:connector-curvature="0"
           sodipodi:nodetypes="cc" />
        <path
           style="fill:none;stroke:#000000;stroke-width:1;stroke-linecap:round;stroke-linejoin:round;stroke-miterlimit:4;stroke-opacity:1;stroke-dasharray:none;display:inline"
           d="m 469.40045,474.94686 -5.17697,-0.0588"
           id="path3218"
           inkscape:path-effect="#path-effect4231-9-7"
           inkscape:original-d="m 469.40045,474.94686 -5.17697,-0.0588"
           inkscape:connector-curvature="0"
           sodipodi:nodetypes="cc" />
        <path
           sodipodi:nodetypes="cc"
           inkscape:connector-curvature="0"
           inkscape:original-d="m 469.82175,472.9463 -5.16154,0.67676"
           inkscape:path-effect="#path-effect4233-5-5"
           id="path3220"
           d="m 469.82175,472.9463 -5.16154,0.67676"
           style="fill:none;stroke:#000000;stroke-width:1;stroke-linecap:round;stroke-linejoin:round;stroke-miterlimit:4;stroke-opacity:1;stroke-dasharray:none;display:inline" />
      </g>
      <path
         inkscape:connector-curvature="0"
         id="path3180"
         d="m 476.04086,631.01724 c -2.49778,-1.13485 -2.2727,-1.57407 1.1187,-2.18294 1.788,-0.32101 2.82136,-1.07173 2.25493,-1.63816 -0.14469,-0.14468 -1.49184,-0.008 -2.99368,0.30381 -1.50183,0.31178 -3.11925,0.41774 -3.59426,0.23546 -1.27925,-0.49089 -2.41708,-3.01511 -2.0387,-4.52273 0.30375,-1.21023 0.23251,-1.27037 -1.1257,-0.95042 -0.79749,0.18786 -2.16687,1.01805 -3.04308,1.84488 -1.87232,1.76679 -2.15894,1.67306 -5.79174,-1.89412 -2.86353,-2.8118 -5.66002,-8.04272 -6.52362,-12.20262 -0.32932,-1.58633 -0.50416,-5.03159 -0.38898,-7.66506 0.18547,-4.24043 0.33519,-4.8672 1.31869,-5.52022 1.12233,-0.7452 1.52327,-2.12867 0.61689,-2.12867 -0.32005,0 -0.32005,-0.45378 0,-1.29557 0.6672,-1.75488 0.6205,-2.23997 -0.21563,-2.23997 -0.38951,0 -0.98148,0.73868 -1.31549,1.6415 l -0.60729,1.6415 -0.80859,-1.76777 c -1.18166,-2.58337 -1.12758,-9.6437 0.0982,-12.82159 0.76084,-1.9725 1.04453,-2.30181 1.41406,-1.6415 0.86495,1.54558 1.56676,0.91195 1.28841,-1.16325 -0.20661,-1.54045 -0.0507,-2.18489 0.69112,-2.8562 0.52686,-0.47681 0.95793,-1.17262 0.95793,-1.54625 0,-0.85625 -1.33033,-0.89319 -1.72841,-0.048 -0.16355,0.34724 -0.20686,-0.75814 -0.0962,-2.4564 0.45077,-6.92042 5.35622,-12.93302 11.49045,-14.0838 1.84561,-0.34624 5.72982,0.4295 6.23383,1.245 0.15669,0.25355 -0.17379,1.21333 -0.73441,2.13285 -0.56061,0.91953 -1.02015,1.95597 -1.02119,2.30321 -0.003,1.05842 1.42253,0.70297 1.78706,-0.44554 0.22414,-0.70621 0.46707,-0.87417 0.70576,-0.48797 0.48649,0.78715 2.05098,0.14616 2.05098,-0.84031 0,-0.65861 0.16111,-0.63605 1.02209,0.14312 0.78028,0.70615 1.16186,0.7852 1.61291,0.33415 0.45105,-0.45105 0.25688,-0.93939 -0.82076,-2.06421 l -1.41159,-1.47338 1.13177,-0.6057 c 4.14038,-2.21587 7.84391,-1.29424 10.97057,2.73003 1.60139,2.06113 1.43482,2.35318 -1.14078,2.00015 -1.89447,-0.25967 -2.27284,-0.17397 -2.27284,0.51474 0,0.53065 0.4248,0.82627 1.18732,0.82627 2.22687,0 4.36182,1.06011 4.67886,2.32331 0.34301,1.36665 1.09129,1.59088 1.52626,0.45735 0.2516,-0.65564 0.4889,-0.63905 1.80527,0.12627 3.78051,2.19791 7.94987,8.23815 9.54189,13.82353 1.47052,5.15907 0.23667,17.00833 -1.85461,17.81083 -0.75077,0.2881 -0.57002,2.43435 0.30251,3.59196 0.20938,0.2778 0.65895,1.86122 0.99904,3.51873 1.78581,8.70349 -2.38386,18.63352 -9.60024,22.86291 -2.46816,1.44654 -5.06181,1.94307 -5.60352,1.07274 -0.35592,-0.57182 -0.60581,-0.57421 -1.50872,-0.0144 -0.75146,0.46593 -1.8551,0.56465 -3.61161,0.32307 -1.97771,-0.272 -2.4812,-0.20307 -2.30818,0.31599 0.12171,0.36514 0.95261,0.85338 1.84644,1.085 1.97503,0.51178 1.68014,1.17997 -0.82822,1.87662 -2.55034,0.70832 -3.04349,0.66233 -5.66386,-0.52824 z"
         style="fill:#ffffff" />
    </g>
    <text
       sodipodi:linespacing="83.999997%"
       id="text3445"
       y="576.56482"
       x="551.59888"
       style="font-size:255.04425049px;font-style:normal;font-variant:normal;font-weight:normal;font-stretch:normal;text-align:center;line-height:83.99999738%;letter-spacing:0px;word-spacing:0px;writing-mode:lr-tb;text-anchor:middle;fill:#000000;fill-opacity:1;stroke:none;font-family:Ume P Gothic Shadow;-inkscape-font-specification:Ume P Gothic Shadow"
       xml:space="preserve"><tspan
         style="font-size:255.04425049px;font-style:normal;font-variant:normal;font-weight:normal;font-stretch:normal;text-align:center;line-height:83.99999738%;writing-mode:lr-tb;text-anchor:middle;font-family:Ume P Gothic Shadow;-inkscape-font-specification:Ume P Gothic Shadow"
         y="576.56482"
         x="551.59888"
         sodipodi:role="line"
         id="tspan3447">S</tspan><tspan
         id="tspan3449"
         style="font-size:255.04425049px;font-style:normal;font-variant:normal;font-weight:normal;font-stretch:normal;text-align:center;line-height:83.99999738%;writing-mode:lr-tb;text-anchor:middle;font-family:Ume P Gothic Shadow;-inkscape-font-specification:Ume P Gothic Shadow"
         y="790.80182"
         x="551.59888"
         sodipodi:role="line">I</tspan></text>
  </g>
</svg>
