<?xml version="1.0" encoding="UTF-8" standalone="no"?>
<!-- Created with Inkscape (http://www.inkscape.org/) -->

<svg
   xmlns:dc="http://purl.org/dc/elements/1.1/"
   xmlns:cc="http://creativecommons.org/ns#"
   xmlns:rdf="http://www.w3.org/1999/02/22-rdf-syntax-ns#"
   xmlns:svg="http://www.w3.org/2000/svg"
   xmlns="http://www.w3.org/2000/svg"
   xmlns:sodipodi="http://sodipodi.sourceforge.net/DTD/sodipodi-0.dtd"
   xmlns:inkscape="http://www.inkscape.org/namespaces/inkscape"
   width="400"
   height="320"
   id="svg3193"
   version="1.1"
   inkscape:version="0.48.4 r9939"
   sodipodi:docname="logo-piece_4.svg">
  <defs
     id="defs3195" />
  <sodipodi:namedview
     id="base"
     pagecolor="#ffffff"
     bordercolor="#666666"
     borderopacity="1.0"
     inkscape:pageopacity="0.0"
     inkscape:pageshadow="2"
     inkscape:zoom="0.81347656"
     inkscape:cx="336.35923"
     inkscape:cy="159.05711"
     inkscape:document-units="px"
     inkscape:current-layer="layer1"
     showgrid="false"
     borderlayer="true"
     inkscape:showpageshadow="false"
     inkscape:window-width="1276"
     inkscape:window-height="775"
     inkscape:window-x="0"
     inkscape:window-y="21"
     inkscape:window-maximized="1" />
  <metadata
     id="metadata3198">
    <rdf:RDF>
      <cc:Work
         rdf:about="">
        <dc:format>image/svg+xml</dc:format>
        <dc:type
           rdf:resource="http://purl.org/dc/dcmitype/StillImage" />
        <dc:title></dc:title>
      </cc:Work>
    </rdf:RDF>
  </metadata>
  <g
     inkscape:label="Layer 1"
     inkscape:groupmode="layer"
     id="layer1"
     transform="translate(0,-732.36218)">
    <path
       id="path4115"
       d="m 298.20581,768.48398 0,195.63612 53.436,0 0,-195.63612 z"
       style="fill:#00aa5a;fill-opacity:1;stroke:none"
       inkscape:connector-curvature="0"
       sodipodi:nodetypes="ccccc" />
    <path
       id="path4117"
       d="m 182.94661,768.48398 c 1.3923,2.687 2.7599,5.3931 4.0444,8.1449 1.393,2.984 2.7072,6.0059 3.9701,9.0583 1.2628,3.0523 2.4679,6.132 3.5972,9.2446 1.1292,3.1125 2.1951,6.2662 3.1871,9.4309 0.992,3.1647 1.9074,6.3529 2.7585,9.5614 0.851,3.2086 1.6232,6.4291 2.3298,9.6733 0.7065,3.2443 1.3425,6.5134 1.901,9.7851 0.5586,3.2718 1.0471,6.55 1.4538,9.841 l 2.7399,25.64628 52.0008,-25.64628 c -0.328,-3.2777 -0.7222,-6.5341 -1.1742,-9.7851 -0.4521,-3.2509 -0.9547,-6.4894 -1.5283,-9.7105 -0.5741,-3.221 -1.2081,-6.4296 -1.9012,-9.6174 -0.6932,-3.1878 -1.4452,-6.3541 -2.2552,-9.5055 -0.81,-3.1514 -1.6848,-6.3005 -2.6094,-9.4123 -0.9245,-3.1118 -1.9082,-6.1943 -2.9448,-9.2633 -1.0366,-3.0689 -2.134,-6.1098 -3.2804,-9.1328 -1.0583,-2.7908 -2.1677,-5.5636 -3.3175,-8.3126 z"
       style="fill:#00aa5a;fill-opacity:1;stroke:none"
       inkscape:connector-curvature="0"
       sodipodi:nodetypes="ccccscccccccccscsccc" />
    <path
       id="path4119"
       d="m 96.129409,768.48398 c 2.0074,2.4198 3.981801,4.9612 5.871101,7.735 2.0576,3.0206 4.028,6.2696 5.9084,9.7291 0.9401,1.7297 1.8512,3.506 2.7397,5.3492 0.8886,1.8431 1.7587,3.7442 2.5907,5.7033 0.8321,1.959 1.6337,3.9801 2.4044,6.0575 0.7707,2.0773 1.5135,4.2132 2.218,6.4115 0.7045,2.1983 1.3608,4.4627 1.9943,6.7843 0.6336,2.3217 1.2317,4.691 1.7893,7.1385 0.5572,2.4475 1.0887,4.9727 1.5656,7.5485 0.4766,2.5758 0.9135,5.2147 1.3046,7.9213 0.3912,2.7066 0.7245,5.4727 1.0251,8.3127 0.3008,2.8399 0.5587,5.7469 0.7642,8.72268 0.2052,2.9758 0.361,6.0187 0.4661,9.1327 0.105,3.1141 0.1676,6.3067 0.1676,9.5614 l 0,25.3569 -52.019501,0 c 0,0 -0.049,1.6276 0,4.3799 0.049,2.7526 0.1753,6.6431 0.5593,11.2017 0.1921,2.2794 0.4521,4.7154 0.7828,7.2689 0.3309,2.55355 0.7432,5.21205 1.2488,7.92134 0.5054,2.7094 1.1098,5.4726 1.8265,8.2195 0.7167,2.7469 1.552,5.4788 2.5162,8.145 l 96.397201,0 0,-72.49324 c 0,-5.0853 -0.1606,-10.1007 -0.4661,-15.041 -0.3056,-4.9404 -0.7587,-9.80478 -1.3607,-14.59378 -0.6021,-4.7889 -1.3467,-9.5154 -2.2366,-14.1464 -0.8898,-4.6312 -1.9248,-9.1765 -3.0939,-13.6433 -1.1691,-4.4668 -2.4744,-8.8439 -3.9141,-13.1399 -1.4396,-4.2961 -3.014,-8.4993 -4.7155,-12.6182 -1.7015,-4.1189 -3.5436,-8.161 -5.4982,-12.0963 -1.8377,-3.6995 -3.7985,-7.297 -5.8524,-10.8288 l -54.983001,0 z"
       style="fill:#00aa5a;fill-opacity:1;stroke:none"
       inkscape:connector-curvature="0"
       sodipodi:nodetypes="ccccccscccccccsccscccsccscccscscccc" />
  </g>
</svg>
