<?xml version="1.0" encoding="UTF-8" standalone="no"?>
<!-- Created with Inkscape (http://www.inkscape.org/) -->

<svg
   xmlns:dc="http://purl.org/dc/elements/1.1/"
   xmlns:cc="http://creativecommons.org/ns#"
   xmlns:rdf="http://www.w3.org/1999/02/22-rdf-syntax-ns#"
   xmlns:svg="http://www.w3.org/2000/svg"
   xmlns="http://www.w3.org/2000/svg"
   version="1.1"
   width="450"
   height="251"
   id="svg3193">
  <defs
     id="defs3195" />
  <metadata
     id="metadata3198">
    <rdf:RDF>
      <cc:Work
         rdf:about="">
        <dc:format>image/svg+xml</dc:format>
        <dc:type
           rdf:resource="http://purl.org/dc/dcmitype/StillImage" />
        <dc:title></dc:title>
      </cc:Work>
    </rdf:RDF>
  </metadata>
  <g
     transform="translate(0,-801.36218)"
     id="layer1">
    <path
       d="m 430.52119,905.79221 -47.6767,0 c -1.0101,1.63136 -2.1026,3.25968 -3.2804,4.88332 -1.1779,1.62356 -2.45,3.2426 -3.8022,4.84595 -1.3521,1.60332 -2.7912,3.20087 -4.3241,4.77139 -1.5329,1.57044 -3.1631,3.11583 -4.8833,4.64093 -1.72,1.52502 -3.5287,3.02472 -5.4423,4.49177 -1.9136,1.46714 -3.9253,2.90893 -6.0388,4.30548 -2.1135,1.39654 -4.3339,2.74975 -6.6538,4.06314 -2.32,1.31341 -4.7363,2.5845 -7.269,3.8022 -2.5327,1.21774 -5.1694,2.37588 -7.9212,3.4853 -2.752,1.10958 -5.6148,2.16128 -8.5923,3.14993 -2.9776,0.98875 -6.0723,1.92182 -9.2819,2.77716 -3.2096,0.85527 -6.542,1.63904 -9.99015,2.34833 -3.4481,0.70941 -7.024,1.35027 -10.717,1.9012 -3.693,0.55094 -7.4996,1.01803 -11.4439,1.39779 -3.9443,0.37992 -8.0247,0.66098 -12.2268,0.85737 -4.202,0.19617 -8.5247,0.2986 -12.9908,0.2986 l -35.3756,0 0,-52.01952 c 0,0 -1.6086,-0.049 -4.3612,0 -2.7528,0.049 -6.6428,0.19343 -11.2017,0.57759 -2.2794,0.19208 -4.7341,0.4521 -7.2875,0.78279 -2.5536,0.33085 -5.2121,0.72456 -7.9213,1.23015 -2.7093,0.50536 -5.4729,1.10976 -8.2195,1.82654 -2.7467,0.71671 -5.4791,1.552 -8.1449,2.51615 l 0,96.39723 82.5117,0 c 4.9193,0 9.7726,-0.1429 14.5564,-0.4283 4.7839,-0.286 9.4854,-0.7225 14.1278,-1.2861 4.6426,-0.5636 9.2225,-1.2539 13.7179,-2.0875 4.4953,-0.8335 8.90965,-1.7931 13.25175,-2.8888 4.3423,-1.0959 8.6026,-2.3217 12.786,-3.67189 4.1833,-1.35014 8.3013,-2.83913 12.3198,-4.43585 4.0186,-1.59674 7.9501,-3.30874 11.798,-5.14413 3.848,-1.83554 7.6049,-3.78615 11.2763,-5.8525 3.6714,-2.06634 7.2465,-4.25254 10.7356,-6.54198 3.4891,-2.28948 6.8943,-4.6898 10.1952,-7.19445 3.3008,-2.50464 6.5106,-5.11601 9.6173,-7.82806 3.1068,-2.71205 6.1141,-5.5129 9.0209,-8.42447 2.9069,-2.91169 5.7048,-5.9362 8.4059,-9.03959 2.701,-3.10343 5.3014,-6.29272 7.7909,-9.58009 2.4893,-3.28739 4.8666,-6.65717 7.1384,-10.12061 2.0297,-3.09433 3.9448,-6.29511 5.7965,-9.52409 l 0,-9.28194 z"
       id="path3151"
       style="fill:#00aa5a;fill-opacity:1;stroke:none" />
    <path
       d="m 430.52119,815.60162 c -1.3901,0.76381 -2.8081,1.53539 -4.2868,2.25525 -1.7154,0.83502 -3.486,1.62812 -5.3306,2.40433 -1.8446,0.77615 -3.7561,1.53736 -5.7405,2.25517 -1.9845,0.71783 -4.0344,1.39031 -6.1693,2.05029 -4.2698,1.31973 -8.857,2.52497 -13.7924,3.61577 -4.9353,1.09086 -10.2309,2.07944 -15.917,2.94489 -5.6863,0.86544 -11.7622,1.61157 -18.2842,2.25517 -6.5221,0.64346 -13.4878,1.17736 -20.9308,1.60296 -7.443,0.42547 -15.3707,0.73956 -23.8198,0.95045 -8.449,0.211 -17.41075,0.31683 -26.95095,0.31683 l -51.3299,0 -217.061504,0 0,54.12561 269.789204,0 c 7.7329,0 15.19685,-0.12884 22.40325,-0.3729 7.2065,-0.24392 14.1501,-0.60279 20.8563,-1.08103 6.7063,-0.47803 13.1702,-1.08638 19.4025,-1.78928 6.2323,-0.70288 12.2385,-1.50511 18.0232,-2.42298 5.7847,-0.91787 11.3553,-1.95195 16.7186,-3.07532 5.3632,-1.12331 10.5203,-2.33403 15.4884,-3.65312 4.968,-1.31907 9.7522,-2.74421 14.3514,-4.24954 4.3608,-1.42715 8.5288,-2.94285 12.5809,-4.52906 l 0,-53.6037 z"
       id="path3149"
       style="fill:#00aa5a;fill-opacity:1;stroke:none" />
    <path
       d="m 155.19634,925.64132 0,76.79428 -21.055,0 0,-76.79428 z"
       id="path3090"
       style="fill:#00aa5a;fill-opacity:1;fill-rule:nonzero;stroke:none;display:inline" />
  </g>
</svg>
