<?xml version="1.0" encoding="UTF-8" standalone="no"?>
<!-- Created with Inkscape (http://www.inkscape.org/) -->

<svg
   xmlns:dc="http://purl.org/dc/elements/1.1/"
   xmlns:cc="http://creativecommons.org/ns#"
   xmlns:rdf="http://www.w3.org/1999/02/22-rdf-syntax-ns#"
   xmlns:svg="http://www.w3.org/2000/svg"
   xmlns="http://www.w3.org/2000/svg"
   xmlns:sodipodi="http://sodipodi.sourceforge.net/DTD/sodipodi-0.dtd"
   xmlns:inkscape="http://www.inkscape.org/namespaces/inkscape"
   width="600"
   height="250"
   id="svg3193"
   version="1.1"
   inkscape:version="0.48.4 r9939"
   sodipodi:docname="logo-piece_5.svg">
  <defs
     id="defs3195" />
  <sodipodi:namedview
     id="base"
     pagecolor="#ffffff"
     bordercolor="#666666"
     borderopacity="1.0"
     inkscape:pageopacity="0.0"
     inkscape:pageshadow="2"
     inkscape:zoom="1.6269531"
     inkscape:cx="454.05639"
     inkscape:cy="235.94237"
     inkscape:document-units="px"
     inkscape:current-layer="layer1"
     showgrid="false"
     borderlayer="true"
     inkscape:showpageshadow="false"
     inkscape:window-width="1276"
     inkscape:window-height="775"
     inkscape:window-x="0"
     inkscape:window-y="21"
     inkscape:window-maximized="1" />
  <metadata
     id="metadata3198">
    <rdf:RDF>
      <cc:Work
         rdf:about="">
        <dc:format>image/svg+xml</dc:format>
        <dc:type
           rdf:resource="http://purl.org/dc/dcmitype/StillImage" />
        <dc:title></dc:title>
      </cc:Work>
    </rdf:RDF>
  </metadata>
  <g
     inkscape:label="Layer 1"
     inkscape:groupmode="layer"
     id="layer1"
     transform="translate(0,-802.36218)">
    <path
       inkscape:connector-curvature="0"
       style="fill:#00aa5a;fill-opacity:1;stroke:none"
       d="m 24.484569,966.61845 145.565001,0 c 2.4093,-3.2942 4.6523,-6.5972 6.7285,-9.8783 2.0763,-3.2812 3.9881,-6.5377 5.7406,-9.6919 1.7525,-3.1542 3.3337,-6.2195 4.7714,-9.1328 1.4377,-2.9133 2.7261,-5.6609 3.8581,-8.2195 2.2641,-5.117 3.918,-9.4176 5.0137,-12.4317 1.0958,-3.0143 1.6402,-4.7528 1.6402,-4.7528 l -173.317501,0 0,54.107 z"
       id="path3181" />
    <path
       inkscape:connector-curvature="0"
       style="fill:#00aa5a;fill-opacity:1;stroke:none"
       d="m 24.484569,1037.2057 69.744496,0 63.817505,0 52.0009,0 87.3948,0 0,-52.70915 -272.957701,0 0,52.70915 z"
       id="path3177" />
    <path
       inkscape:connector-curvature="0"
       style="fill:#00aa5a;fill-opacity:1;stroke:none"
       d="m 572.65829,924.86815 c -3.7095,-0.293 -7.3998,-0.7046 -11.0339,-1.2487 -3.8611,-0.5783 -7.6595,-1.2918 -11.4252,-2.1435 -3.7658,-0.8517 -7.486,-1.8296 -11.1458,-2.9448 -3.6597,-1.1152 -7.2671,-2.3591 -10.8102,-3.7277 -3.543,-1.3685 -7.0215,-2.8614 -10.4374,-4.4732 -3.4159,-1.6117 -6.768,-3.3551 -10.046,-5.2 -3.278,-1.845 -6.4878,-3.8033 -9.6174,-5.8711 -3.1295,-2.0678 -6.1809,-4.2428 -9.1513,-6.5234 -2.9706,-2.2807 -5.8661,-4.6551 -8.6669,-7.1384 -2.8008,-2.4835 -5.5058,-5.0777 -8.1263,-7.7536 -2.6204,-2.6759 -5.1563,-5.4357 -7.5857,-8.2941 -2.4296,-2.8582 -4.7615,-5.8039 -6.9894,-8.8345 -2.228,-3.0306 -4.3399,-6.145 -6.3557,-9.3377 -2.0157,-3.1928 -3.9289,-6.459 -5.722,-9.8038 -1.793,-3.3448 -3.4726,-6.7644 -5.0323,-10.2511 -1.5596,-3.4866 -2.9898,-7.0427 -4.3054,-10.661 l -54.81529,0 c 0.6891,2.7183 1.4406,5.4137 2.2366,8.0889 0.7961,2.6753 1.6341,5.3287 2.5349,7.9586 0.9007,2.6299 1.8486,5.2274 2.8517,7.8095 1.0029,2.582 2.0657,5.1471 3.1684,7.679 1.1028,2.5318 2.2482,5.0318 3.4481,7.5111 1.2,2.4794 2.4516,4.9378 3.7464,7.3621 1.2947,2.4246 2.6388,4.8274 4.0258,7.1945 1.387,2.3671 2.8287,4.7005 4.3054,7.008 1.4768,2.3075 2.9836,4.5761 4.5478,6.8216 1.56409,2.2454 3.17839,4.4729 4.82729,6.6539 1.6489,2.1809 3.3384,4.3159 5.0696,6.4302 1.7313,2.1142 3.5008,4.1987 5.3119,6.2438 1.8112,2.045 3.6658,4.0466 5.5543,6.0201 1.8884,1.9737 3.8145,3.9155 5.7778,5.8152 1.9633,1.8997 3.9658,3.768 6.0015,5.5914 2.0357,1.8235 4.1009,3.6044 6.2065,5.3493 2.1057,1.7447 4.2387,3.4431 6.4116,5.1069 2.1731,1.6637 4.3787,3.3028 6.6167,4.8832 2.2379,1.5804 4.5212,3.1089 6.8216,4.6037 2.3003,1.4946 4.629,2.9548 6.9893,4.3612 2.3603,1.4066 4.7393,2.7658 7.157,4.0819 2.4178,1.316 4.8708,2.579 7.3437,3.8022 2.4727,1.2232 4.9672,2.3947 7.4925,3.5226 2.5252,1.128 5.0851,2.2127 7.6603,3.2432 2.5753,1.0303 5.1681,2.0144 7.7909,2.9447 2.6227,0.9303 5.272,1.8001 7.9398,2.6281 2.6678,0.828 5.36,1.6065 8.0704,2.3298 2.7104,0.7232 5.4318,1.3967 8.1822,2.0129 2.7504,0.6162 5.5247,1.1893 8.3127,1.6961 2.788,0.5068 5.6015,0.947 8.4245,1.3419 2.8231,0.3946 5.6621,0.7444 8.5177,1.0251 2.6269,0.258 5.2689,0.4367 7.9213,0.5965 l 0,-53.5105 z"
       id="path3157" />
  </g>
</svg>
