<?xml version="1.0" encoding="UTF-8" standalone="no"?>
<!-- Created with Inkscape (http://www.inkscape.org/) -->

<svg
   xmlns:dc="http://purl.org/dc/elements/1.1/"
   xmlns:cc="http://creativecommons.org/ns#"
   xmlns:rdf="http://www.w3.org/1999/02/22-rdf-syntax-ns#"
   xmlns:svg="http://www.w3.org/2000/svg"
   xmlns="http://www.w3.org/2000/svg"
   xmlns:sodipodi="http://sodipodi.sourceforge.net/DTD/sodipodi-0.dtd"
   xmlns:inkscape="http://www.inkscape.org/namespaces/inkscape"
   width="520"
   height="180"
   id="svg3193"
   version="1.1"
   inkscape:version="0.48.3.1 r9886"
   sodipodi:docname="logo-piece_2.svg">
  <defs
     id="defs3195" />
  <sodipodi:namedview
     id="base"
     pagecolor="#ffffff"
     bordercolor="#666666"
     borderopacity="1.0"
     inkscape:pageopacity="0.0"
     inkscape:pageshadow="2"
     inkscape:zoom="0.98994949"
     inkscape:cx="301.41221"
     inkscape:cy="55.714286"
     inkscape:document-units="px"
     inkscape:current-layer="layer1"
     showgrid="false"
     borderlayer="true"
     inkscape:showpageshadow="false"
     inkscape:window-width="1680"
     inkscape:window-height="994"
     inkscape:window-x="0"
     inkscape:window-y="27"
     inkscape:window-maximized="1" />
  <metadata
     id="metadata3198">
    <rdf:RDF>
      <cc:Work
         rdf:about="">
        <dc:format>image/svg+xml</dc:format>
        <dc:type
           rdf:resource="http://purl.org/dc/dcmitype/StillImage" />
        <dc:title></dc:title>
      </cc:Work>
    </rdf:RDF>
  </metadata>
  <g
     inkscape:label="Layer 1"
     inkscape:groupmode="layer"
     id="layer1"
     transform="translate(0,-872.36218)">
    <path
       inkscape:connector-curvature="0"
       style="fill:#00aa5a;fill-opacity:1;stroke:none"
       d="m 492.9103,1033.01 c -2.1835,-1.9355 -4.4099,-3.8413 -6.7098,-5.7033 -2.5381,-2.0547 -5.1513,-4.0793 -7.8467,-6.0388 -2.6954,-1.9594 -5.4809,-3.8637 -8.35,-5.7219 -2.869,-1.8583 -5.8127,-3.6541 -8.8718,-5.4052 -3.0591,-1.751 -6.2215,-3.4502 -9.4869,-5.0882 -3.2654,-1.638 -6.6511,-3.2153 -10.1392,-4.7341 -3.4881,-1.51886 -7.0831,-2.98616 -10.8102,-4.37996 -3.7271,-1.3939 -7.5733,-2.7258 -11.5558,-3.9886 -3.9824,-1.2628 -8.1029,-2.4527 -12.3571,-3.5786 -4.2542,-1.1258 -8.6538,-2.1856 -13.1959,-3.1685 -4.5423,-0.9829 -9.2253,-1.8872 -14.072,-2.7212 -4.8466,-0.834 -9.8551,-1.5948 -15.0224,-2.2738 -5.1674,-0.6792 -10.4873,-1.2711 -15.9917,-1.7893 -5.5044,-0.5179 -11.1963,-0.9719 -17.054,-1.3233 -5.8577,-0.3512 -11.8889,-0.6042 -18.1164,-0.7828 -6.2275,-0.179 -12.6398,-0.2797 -19.2534,-0.2797 l -269.7892,0 0,54.12546 217.0801,0 51.3112,0 c 8.3551,0 16.2873,0.081 23.8012,0.2426 7.5138,0.1616 14.6109,0.4009 21.3409,0.7269 6.7298,0.3252 13.0823,0.738 19.0855,1.2301 6.0032,0.492 11.6645,1.0537 16.9982,1.7146 0.2642,0.035 0.4829,0.079 0.7455,0.112 l 118.2599,0 0,-1.1743 z"
       id="path3169" />
    <path
       inkscape:connector-curvature="0"
       style="fill:#00aa5a;fill-opacity:1;stroke:none"
       d="m 492.9103,955.75433 c -2.1835,-1.9363 -4.4099,-3.8403 -6.7098,-5.7033 -2.5381,-2.0558 -5.1513,-4.0595 -7.8467,-6.0201 -2.6954,-1.9608 -5.4809,-3.8811 -8.35,-5.7407 -2.869,-1.8595 -5.8127,-3.6712 -8.8718,-5.4236 -3.0591,-1.7526 -6.2215,-3.4491 -9.4869,-5.0884 -3.2654,-1.6393 -6.6511,-3.2138 -10.1392,-4.7341 -3.4881,-1.5202 -7.0831,-2.9849 -10.8102,-4.38 -3.7271,-1.3951 -7.5733,-2.7245 -11.5558,-3.9885 -3.9824,-1.2641 -8.1029,-2.4516 -12.3571,-3.5786 -4.2542,-1.127 -8.6538,-2.1845 -13.1959,-3.1686 -4.5423,-0.9839 -9.2253,-1.9048 -14.072,-2.7398 -4.8466,-0.8349 -9.8551,-1.5939 -15.0224,-2.2738 -5.1674,-0.6799 -10.4873,-1.2704 -15.9917,-1.7893 -5.5043,-0.5187 -11.1963,-0.9528 -17.054,-1.3047 -5.8577,-0.3518 -11.889,-0.6224 -18.1164,-0.8014 -6.2275,-0.1787 -12.6399,-0.2797 -19.2534,-0.2797 l -269.7892,0 0,54.1256 217.0801,0 51.3112,0 c 11.185,0 21.5988,0.1368 31.2938,0.429 9.695,0.2923 18.6831,0.7334 27.0255,1.3233 4.1712,0.2951 8.1816,0.6364 12.0403,1.0064 3.8587,0.3701 7.5636,0.7652 11.127,1.2115 3.5635,0.4465 6.9845,0.9308 10.2698,1.4539 3.2852,0.5229 6.4254,1.0957 9.4496,1.6961 3.0242,0.6 5.9236,1.2413 8.704,1.9197 2.7804,0.6784 5.4423,1.3864 7.9959,2.1434 2.5535,0.7569 4.9994,1.5493 7.3435,2.3857 2.344,0.8363 4.5955,1.7118 6.747,2.6279 2.1516,0.9163 4.2117,1.8735 6.1879,2.8704 1.9763,0.9968 3.8666,2.0344 5.6847,3.1126 1.8182,1.07801 3.5602,2.19481 5.2373,3.35481 1.6773,1.1601 3.2927,2.3734 4.846,3.6159 l 46.2789,0 0,-26.26131 z"
       id="path3167" />
    <path
       inkscape:connector-curvature="0"
       style="fill:#00aa5a;fill-opacity:1;stroke:none"
       d="m 492.9103,901.64743 -27.6033,-12.935 0,25.9258 27.6033,12.8977 0,-25.8885 z"
       id="path3165" />
  </g>
</svg>
